<svg width="500" height="500" viewBox="0 0 500 500" fill="none" xmlns="http://www.w3.org/2000/svg">
<g id="mage 1">
<path id="Vector" d="M143.72 435.964L318.992 393.115L346.581 460.837C352.936 464.307 356.392 469.589 358.406 475.773C348.374 476.025 336.962 475.448 329.397 477.18C318.33 483.359 308.357 485.378 300.008 481.228C296.462 479.698 292.118 481.976 288.072 482.836C276.472 487.453 264.252 492.894 257.363 491.228C251.157 494.423 245.432 495.453 240.315 493.751C234.713 495.868 229.112 492.944 223.51 491.547L223.116 489.809L216.129 490.759C207.283 495.779 190.438 498.357 182.096 488.084C176.23 489.789 169.794 493.806 165.34 480.446C156.089 483.203 151.648 482.953 146.576 483.098L143.72 435.964Z" fill="#CC9545"/>
<path id="Vector 2" d="M183.489 49.0825L162.979 64.4142L162.977 64.4158C156.64 77.2225 158.742 108.699 165.346 121.659C171.816 134.353 189.31 137.935 202.51 141.172C203.361 146.811 204.139 151.465 204.254 157.472L188.625 162.586C199.234 178.012 213.71 187.653 232.956 191.822C243.314 184.142 252.812 175.001 257.789 158.172L240.945 152.472C239.954 148.692 239.957 144.912 239.735 141.132C254.102 135.281 272.198 131.949 278.096 114.266C281.719 94.8017 282.712 75.6125 276.055 57.2292L256.875 46.7492L217.286 41.6667L183.489 49.0825Z" fill="#F6D3CD" fill-opacity="0.961"/>
<g id="mage wand">
<path id="Vector 3" d="M378.983 287.517C388.027 290.698 388.49 307.18 392.708 317.842C397.354 323.13 404.186 328.217 411.89 330.443C417.045 331.933 423.682 334.211 428.551 336.609L483.452 379.029C482.118 381.385 480.297 382.929 478.147 383.926C462.169 371.826 447.858 361.273 429.58 347.819C421.672 343.281 410.405 339.023 399.331 334.748C393.696 332.238 388.408 329.032 384.926 322.217C381.301 311.397 380.664 296.5 374.042 289.766L378.983 287.517Z" fill="#AC4918"/>
<path id="Vector 4" d="M371.327 289.453C373.147 294.435 376.756 298.541 380.343 300.923C386.165 304.788 392.571 304.823 399.522 308.297C413.152 316.188 416.939 326.023 421.114 334.24L408.871 330.159C405.496 321.412 399.034 317.738 391.887 315.187C384.297 311.923 376.712 308.6 369.389 302.409L367.358 289.163L371.327 289.453Z" fill="#BF5B20"/>
</g>
<g id="mage chest">
<path id="Vector 5" d="M105.157 238.034C119.967 221.926 136.851 205.469 154.922 188.816L188.798 163.725C199.211 178.834 213.768 186.7 232.841 192.297C241.282 188.13 254.165 174.235 258.155 158.995C277.42 156.524 290.491 164.895 294.499 177.519L307.514 219.142C319.839 223.022 331.767 230.618 343.276 242.115C347.166 242.193 349.176 244.152 349.802 247.492C325.967 277.841 338.789 312.128 354.156 334.227C363.904 360.938 362.479 382.76 352.455 388.27C354.717 380.788 347.645 367.553 340.317 361.735C333.602 356.402 326.792 350.522 324.117 341.765L326.18 357.498C315.25 353.983 306.738 326.696 310.375 307.583C308.017 309.923 305.657 312.261 303.296 314.597C303.396 310.422 303.316 306.248 302.872 302.074C300.135 303.833 297.431 305.712 293.947 304.854C300.706 285.288 293.354 270.11 282.972 255.876L281.2 256.097L280.042 242.161L277.982 242.726C267.764 240.347 254.187 239.748 240.278 241.793C226.207 243.863 208.533 249.661 193.539 259.098C188.906 257.782 184.571 255.123 181.021 248.933C168.897 264.957 162.067 305.588 174.937 319.274C168.428 319.334 163.762 313.866 159.402 307.476C158.89 323.505 144.876 334.968 156.169 351.902C136.884 346.29 138.842 321.91 136.852 294.956C136.142 285.349 132.258 272.209 130.46 263.948C125.993 251.838 118.225 235.379 105.157 238.034Z" fill="#580500"/>
<g id="Vector 6" opacity="0.284" filter="url(#filter0_f)">
<path id="Vector_2" opacity="0.284" d="M244.723 201.35C252.94 195.497 265.745 188.511 284.512 194.617C289.671 200.635 289.797 212.321 289.497 217.656C289.187 223.193 286.505 224.731 283.901 228.283C268.43 230.064 257.678 227.046 244.928 221.754C245.826 214.918 245.918 207.645 244.724 201.35H244.723Z" fill="#F60005"/>
</g>
<path id="Vector 7" opacity="0.343" d="M286.792 182.4L287.346 194.433C288.437 199.396 289.262 206.096 287.488 209.528C284.242 229.092 259.991 232.107 243.372 225.542C221.394 235.751 200.891 232.687 182.177 213.518C168.499 243.902 155.714 276.066 136.935 296.251C138.657 320.982 137.382 343.307 152.744 350.606C153.071 349.564 153.387 348.521 153.717 347.481C147.273 332.879 158.928 322.076 159.395 307.481C161.553 310.644 163.791 313.576 166.287 315.729C167.393 313.649 168.576 311.609 169.83 309.614V309.606C164.688 291.802 171.067 262.086 181.016 248.937C184.266 254.603 188.179 257.303 192.371 258.73C192.262 258.791 192.149 258.847 192.04 258.908C193.592 263.432 194.862 265.988 197.128 275.512C193.187 280.093 189.636 284.143 186.845 287.188C187.13 287.65 187.424 288.108 187.72 288.563C186.328 290.083 184.953 291.619 183.595 293.169C184.916 291.988 186.279 290.857 187.684 289.777L196.298 297.231L211.902 276.905L206.341 259.212C231.499 244.488 254.069 239.601 274.407 249.062C271.202 256.199 262.368 265.067 249.162 275.28C259.611 280.912 268.222 288.009 271.024 299.757L316.087 354.024C309.06 330.032 297.091 306.959 282.291 289.966C282.648 289.571 283.01 289.179 283.371 288.778C280.672 283.716 279.28 277.485 278.64 270.594C277.846 262.056 279.062 252.788 278.604 242.894C278.236 242.797 277.866 242.709 277.497 242.617C277.658 242.653 277.819 242.687 277.979 242.724L280.041 242.162L281.192 256.097L282.969 255.873C293.351 270.108 300.7 285.287 293.94 304.855C297.425 305.713 300.13 303.838 302.867 302.079C303.31 306.253 303.395 310.421 303.296 314.595C305.346 312.565 307.517 310.423 310.374 307.587C306.737 326.699 315.245 353.981 326.175 357.497L324.113 341.768C326.787 350.525 333.599 356.404 340.315 361.737C347.642 367.557 354.718 380.786 352.456 388.268C362.48 382.758 363.9 360.936 354.152 334.224C345.51 321.796 337.674 305.512 336.709 288.242V288.233L336.102 287.171C331.735 284.327 328.093 280.795 329.63 272.317C320.802 260.292 312.362 248.192 292.306 238.412C303.158 218.662 294.172 195.782 286.789 182.397L286.792 182.4ZM163.602 321.103C159.647 328.456 156.551 336.237 154.649 344.617C157.262 336.548 160.08 328.611 163.602 321.103Z" fill="black"/>
<g id="Vector 8" opacity="0.284" filter="url(#filter1_f)">
<path id="Vector_3" opacity="0.284" d="M113.452 235.033C128.912 217.051 141.629 205.009 153.861 194.02L163.859 201.423C158.362 204.087 153.64 208.07 150.852 215.339C149.868 213.245 148.038 212.562 146.265 211.786C148.647 214.993 148.58 218.473 148.578 221.946C144.457 234.678 139.587 247.036 132.222 258.148C128.915 246.183 121.606 239.998 113.451 235.034L113.452 235.033Z" fill="#F60005"/>
</g>
<g id="Vector 9" opacity="0.284" filter="url(#filter2_f)">
<path id="Vector_4" opacity="0.284" d="M206.002 209.76L208.688 197.405C217.228 195.798 228.85 196.978 237.257 203.027C239.682 209 241.452 218.96 236.441 224.867C232.212 228.483 219.821 232.752 213.143 230.783C213.755 224.236 212.431 217.39 206.002 209.76Z" fill="#F60005"/>
</g>
<g id="Vector 10" opacity="0.284" filter="url(#filter3_f)">
<path id="Vector_5" opacity="0.284" d="M260.14 161.957C264.952 161.066 269.917 161.395 275.001 162.679C285.867 164.698 289.48 173.193 292.892 181.868L286.867 178.382C286.69 180.198 286.334 182.446 284.815 187.486C274.702 180.226 263.206 179.612 251.772 178.694C256.35 173.294 259.407 167.742 260.141 161.957H260.14Z" fill="#F60005"/>
</g>
<g id="Vector 11" opacity="0.284" filter="url(#filter4_f)">
<path id="Vector_6" opacity="0.284" d="M303.423 224.72C305.355 224.029 307.195 223.298 307.428 221.852C319.447 226.207 330.568 233.508 340.682 244.12C335.663 250.963 332.863 258.76 331.413 267.138C322.793 250.967 313.51 235.568 298.071 227.348C298.25 215.408 298.074 203.721 296.365 193.127C298.98 200.072 302.063 210.289 305.215 220.993C305.622 222.235 304.938 223.477 303.422 224.718L303.423 224.72Z" fill="#F60005"/>
</g>
<g id="Vector 12" opacity="0.284" filter="url(#filter5_f)">
<path id="Vector_7" opacity="0.284" d="M341.336 244.81C343.53 244.75 344.697 246.231 345.825 247.768C339.577 254.035 337.045 264.018 334.807 274.294C333.626 272.504 332.326 270.811 332.46 267.969C333.595 259.421 337.242 252.014 341.336 244.81Z" fill="#F60005"/>
</g>
</g>
<g id="mage hair">
<path id="Vector 13" d="M219.848 41.65L202.2 45.81L217.777 42.4L257.367 47.48L276.55 57.96C283.207 76.3433 282.208 95.535 278.586 115.003C272.688 132.685 254.594 136.012 240.227 141.864C240.448 145.625 240.437 149.386 241.414 153.147L242.422 153.014L259.464 159.325C273.952 157.323 286.045 161.083 294.003 174.831L304.697 210.832C305.427 206.828 307.339 203.323 309.589 199.968C311.497 197.121 314.222 195.822 315.535 191.523C316.151 187.662 313.568 184.162 310.786 180.677C303.113 171.936 311.427 164.404 319.373 163.484C325.127 162.373 330.512 160.739 332.477 154.326C337.801 149.666 335.907 145.006 332.469 140.346C326.182 135.468 333.291 128.581 338.173 124.921C344.317 106.419 322.839 93.3583 309.519 89.1417C301.191 87.6692 296.904 78.6792 294.576 71.5917C298.954 62.9758 294.53 56.1808 287.845 49.855L219.849 41.6508L219.848 41.65ZM183.382 50.2558L154.521 57.0675C136.533 65.8667 134.288 77.7092 140.096 91.115C141.858 96.4567 135.644 103.217 127.624 104.077C108.298 105.875 89.4742 143.315 122.626 153.718C127.435 157.927 126.908 165.581 119.751 168.974C112.282 174.874 110.412 185.456 115.601 193.433C118.557 197.982 125.659 199.447 130.678 204.333C131.599 202.129 132.034 199.777 131.061 197.031L136.364 200.575L137.676 205.44C145.138 198.721 150.002 193.805 154.441 189.353C158.31 194.314 162.906 198.545 169.482 200.798C160.285 205.431 164.083 218.253 173.607 224.017C166.954 229.964 170.49 241.878 180.061 247.95C187.913 251.788 195.45 253.967 204.457 252.806C199.009 249.739 199.824 246.415 201.931 243.959C209.175 234.469 215.707 223.317 202.208 210.368C209.162 200.239 205.054 191.684 194.147 188.033C196.395 184.629 198.599 179.212 198.316 174.286C195.149 171.194 192.23 167.754 189.559 163.949C189.134 163.825 188.706 163.714 188.273 163.618L189.13 163.332L189.122 163.316L192.647 162.163L204.743 158.128C204.624 152.157 203.85 147.516 203.002 141.9C189.802 138.662 172.309 135.088 165.842 122.394C159.237 109.435 157.139 77.9525 163.476 65.1458L183.383 50.2558H183.382Z" fill="#D40301"/>
<path id="Vector 14" opacity="0.315" d="M152.507 96.5992C152.115 88.8925 152.371 81.48 160.298 77.5542L164.072 116.921C167.831 131.087 186.994 136.694 204.033 143.482L203.582 159.503L189.399 163.819L197.988 175.694L194.865 188.348C205.127 193.11 205.323 201.533 202.997 210.873C213.396 224.195 208.137 232.571 204.118 241.371C202.392 245.15 200.431 248.179 201.464 253.535C193.916 252.939 187.358 250.36 180.949 247.487L192.951 245.708C199.326 235.183 203.833 225.903 203.708 219.712C197.26 222.037 192.587 225.251 187.105 228.06C194.563 214.017 200.621 200.927 193.085 197.057C186.682 201.152 185.427 204.511 182.518 208.106L181.368 198.586C191.643 185.173 186.69 173.824 176.969 176.006C182.518 158.708 178.119 148.043 165.202 143.055C149.625 140.938 128.042 133.63 143.151 122.568C151.257 117.236 158.036 111.019 152.507 96.5967V96.5992ZM114.338 178.654C116.383 173.212 122.243 167.131 127.206 161.2C120.593 175.855 118.606 188.836 137.321 194.331C138.563 188.464 140.401 182.67 145.942 177.339L154.54 184.164L154.948 189.889L138.208 204.606L132.363 198.381L130.457 202.744C121.934 196.532 109.53 192.558 114.338 178.655V178.654ZM286.278 74.0208C285.919 84.35 288.962 94.6067 296.456 98.9142L297.507 122.57C291.261 137.658 282.037 139.153 258.754 143.99C256.804 148.958 260.226 155.641 265.677 158.785L258.854 158.56L242.244 153.982L239.939 142.769C254.437 135.788 271.401 130.983 277.174 116.303L281.199 81.3058L286.278 74.0208Z" fill="#1A1A1A"/>
<path id="Vector 15" opacity="0.315" d="M303.283 86.7608C322.683 94.6925 341.127 106.616 337.202 124.563C333.667 129.954 327.392 135.348 332.527 140.741C338.174 151.613 331.258 155.574 326.54 160.745C311.423 165.42 302.558 172.095 314.462 185.416C315.97 196.777 307.717 200.922 304.095 208.491L292.708 173.601L285.385 163.609L297.202 166.373C299.144 160.511 304.194 157.458 315.785 152.619C320.432 150.418 324.512 147.648 325.927 142.214C314.148 135.527 319.647 129.122 328.363 119.737C337.722 105.371 314.614 97.1875 303.282 86.7617L303.283 86.7608Z" fill="#1A1A1A"/>
<g id="Vector 16" opacity="0.7" filter="url(#filter6_f)">
<path id="Vector_8" opacity="0.7" d="M128.846 106.408C136.453 104.361 138.66 100.963 142.184 97.8942C141.913 95.0633 143.358 92.0892 142.517 89.3983C138.843 77.6278 140.939 70.4358 148.658 64.6558L150.917 78.9418C149.318 81.3485 148.221 84.2058 147.418 87.3158C145.778 93.6692 147.388 101.365 144.428 107.852C129.197 120.603 127.558 132.418 134.617 143.633C141.418 156.662 131.839 171.982 133.945 187.987C119.21 182.556 128.087 169.568 131.442 158.348L114.417 143.631C106.317 128.272 110.024 115.612 128.846 106.407V106.408Z" fill="#C5651C"/>
</g>
<g id="Vector 17" opacity="0.7" filter="url(#filter7_f)">
<path id="Vector_9" opacity="0.7" d="M144.426 146.809C150.442 162.26 162.085 169.972 174.148 177.109C170.429 189.624 178.47 199.003 182.112 209.557L179.053 209.914C177.227 213.657 184.713 222.142 187.528 230.91L182.938 233.202C184.213 239.677 186.06 244.433 188.422 247.644C179.407 244.522 174.002 239.122 175.303 229.484L184.796 230.353C183.208 227.971 182.393 225.352 180.113 223.366C174.478 218.455 165.156 216.118 170.486 204.272L179.265 204.481C172.431 196.993 154.331 191.285 166.129 180.854C152.033 179.372 143.073 167.382 144.427 146.812L144.426 146.809Z" fill="#C5651C"/>
</g>
</g>
<g id="mage left hand">
<path id="Vector 18" d="M115.833 239.898L108.66 237.013H108.661C99.7758 241.368 92.095 246.726 85.5192 253.004C82.3205 256.874 81.4905 261.387 82.6038 266.427L82.1355 283.116C82.2463 289.472 84.2192 292.29 87.0417 293.495L96.9233 298.732C98.1133 293.747 97.8525 288.763 95.2383 283.78L95.3158 281.681C99.4616 280.029 103.625 278.421 107.806 276.857C108.467 277.085 110.377 276.663 111.047 276.876C113.08 277.52 113.444 279.809 114.391 281.826C113.536 289.693 119.902 296.836 126.413 293.972C125.764 289.022 123.694 284.187 127.157 282.578C128.352 277.187 129.407 271.305 130.06 264.019L127.5 254.583L122.5 246.667L115.833 239.898Z" fill="#F6D3CD" fill-opacity="0.961"/>
<path id="Vector 19" opacity="0.343" d="M127.815 248.429L120.352 262.873C110.568 257.085 100.923 254.182 91.9016 265.149C87.7066 275.838 87.5266 286.338 92.9016 296.572L97.1958 298.848C98.3858 293.864 98.1308 288.879 95.5175 283.896L95.5883 281.798C101.851 279.315 105.011 278.119 108.077 276.968C108.738 277.198 110.656 276.773 111.327 276.987C113.359 277.631 113.719 279.925 114.665 281.941C113.81 289.808 120.178 296.946 126.69 294.082C126.04 289.132 123.967 284.298 127.431 282.69C127.775 281.138 128.107 279.536 128.422 277.879L127.431 254.167L125.927 252.083L127.815 248.429Z" fill="black"/>
</g>
<g id="mage dress">
<path id="Vector 20" opacity="0.455" d="M143.72 449.048L159.431 428.578L294.936 412.949L332.254 447.62L349.821 462.81C341.296 460.381 331.127 461.332 328.575 473.076L327.765 466.596C316.997 454.007 305.949 443.505 294.097 439.033L297.716 463.921C293.683 465.177 289.977 468.06 287.029 474.738L284.006 445.812L278.667 471.114L274.751 468.65C270.131 476.303 267.57 483.506 266.282 490.431L254.095 493.147C242.145 482.916 229.268 475.463 219.319 459.229L223.794 489.226L214.325 491.038L212.783 451.691L208.195 445.058C200.564 459.26 196.795 470.583 183.131 485.793L160.656 454.916C156.082 458.297 154.599 462.064 146.168 464.963L143.72 449.048Z" fill="black"/>
<path id="Vector 21" d="M188.203 288.025L281.859 289.452C303.7 314.256 319.463 352.327 322.451 387.222C329.529 417.131 337.442 444.534 348.834 461.502C326.094 461.053 308.933 442.348 292.062 422.692C283.221 429.407 279.908 447.469 274.17 460.553L273.123 457.521C265.653 471.002 263.483 481.832 262.478 492.08C245.548 483.429 221.766 459.255 208.274 435.06C198.618 449.563 189.993 462.415 183.053 472.572C177.278 450.649 166.246 441.867 152.878 438.922C149.97 445.997 143.41 450.464 135.13 453.703C139.462 432.056 144.412 406.567 152.549 361.324C153.379 331.364 169.076 308.838 188.202 288.024L188.203 288.025Z" fill="#580500"/>
<path id="Vector 22" opacity="0.455" d="M302.004 319.158C311.511 361.23 308.335 385.686 318.751 426.646C302.676 416.002 292.203 400.686 282.569 384.671C276.241 405.312 272.037 424.261 271.143 440.552L267.332 439.115L256.565 477.562C235.909 461.595 218.784 440.78 206.827 412.851C195.804 431.462 189.535 448.17 183.876 464.635L158.541 419.644L139.795 430.035C138.267 437.931 136.713 445.822 135.135 453.709C143.415 450.47 149.973 446.001 152.882 438.926C166.248 441.872 177.279 450.657 183.053 472.579C189.993 462.423 198.614 449.572 208.271 435.07C221.761 459.265 245.544 483.434 262.475 492.084C263.48 481.837 265.654 471.009 273.125 457.528L274.169 460.563C279.907 447.478 283.218 429.409 292.058 422.697C308.929 442.352 326.094 461.06 348.833 461.512C337.442 444.545 329.523 417.14 322.445 387.232C320.488 364.361 313.051 340.123 302.003 319.157L302.004 319.158Z" fill="black"/>
<g id="Vector 23" opacity="0.284" filter="url(#filter8_f)">
<path id="Vector_10" opacity="0.284" d="M186.846 295.126C197.015 306.572 203.658 315.532 223.493 333.793C225.642 343.199 225.753 350.823 221.762 354.858C188.74 372.469 168.827 371.633 156.549 360.052C156.487 336.293 168.484 315.046 186.849 295.128L186.846 295.126Z" fill="#F60005"/>
</g>
<g id="Vector 24" opacity="0.284" filter="url(#filter9_f)">
<path id="Vector_11" opacity="0.284" d="M261.046 338.669C267.575 330.596 274.104 313.093 280.633 296.638C298.673 315.758 312.068 345.425 314.913 375.396C303.267 375.868 292.925 374.206 280.225 365.194C273.502 361.211 265.609 351.291 261.045 338.668L261.046 338.669Z" fill="#F60005"/>
</g>
</g>
<path id="Vector 25" d="M192.039 258.913C218.82 243.835 250.499 235.497 278.608 242.898C279.067 252.793 277.852 262.058 278.646 270.596C279.287 277.488 280.671 283.718 283.369 288.779C266.369 307.703 253.307 318.884 239.795 319.693C221.567 320.784 199.074 307.01 186.848 287.191C189.64 284.145 193.187 280.092 197.129 275.511C194.863 265.987 193.594 263.436 192.042 258.912L192.039 258.913Z" fill="#CC9545"/>
<path id="Vector 26" opacity="0.315" d="M155.069 78.9766C150.462 70.7408 150.774 62.2791 155.619 54.4083L156.822 63.77L160.515 61.2975C160.872 63.3725 163.213 66.0791 166.276 68.0483C167.376 62.64 171.427 57.2266 179.331 53.7083C180.127 54.8666 181.697 58.4133 184.174 60.8666L188.857 52.1291C193.533 49.9141 198.055 47.6675 204.592 45.825C207.682 49.0883 212.165 52.2083 216.109 54.75C222.406 50.5933 224.86 46.0758 227.445 41.5716L247.184 46.5966C249.208 52.015 249.54 57.055 249.457 60.7991C255.592 56.715 260.302 51.4641 262.216 43.9258C264.206 50.4058 265.072 58.0091 265.141 66.4116C269.021 61.5908 272.927 56.8 273.574 48.2941L278.718 52.515L276.577 37.1383L288.127 50.7175L288.333 54.5833L287.917 58.75L287.083 61.6666L285.833 64.5833L285.682 74.6108C285.098 78.3333 282.853 82.4391 279.435 84.6825C278.855 81.0616 278.473 77.5058 274.727 72.83L269.2 72.9916C267.582 77.4041 263.206 79.6091 258.945 81.9075C257.654 77.8308 256.948 73.755 254.141 69.6783L239.847 67.4425C239.15 73.9341 232.771 78.0858 228.37 81.9316C221.19 78.1933 217.77 74.2541 214.733 68.2233L201.453 67.9791C200.247 72.6708 199.324 75.2175 200.84 78.8391C193.039 76.5191 188.134 72.2675 183.548 67.805C180.554 73.16 180.854 77.1966 180.426 81.5266C172.659 80.0875 169.959 78.8116 165.027 72.2208L155.069 78.9766Z" fill="black"/>
<path id="Vector 27" opacity="0.6" d="M224.523 106.45L223.75 105.178V106.667V113.333V114.354L224.464 113.625L226.964 111.073L227.191 110.843L227.023 110.566L224.523 106.45Z" fill="black" stroke="#070707"/>
<path id="Vector 28" opacity="0.315" d="M279.185 81.0166C281.441 92.2483 280.67 104.994 278.319 118.529C267.423 129.736 254.092 136.072 240.144 141.175L240.779 152.884L258.409 160.082C244.047 165.328 230.107 173.116 214.295 169.663C220.484 167.712 231.602 163.935 234.047 157.415L204.738 151.713L204.39 143.09L178.929 132.557C201.909 137.549 232.762 136.282 251.475 130.04C269.557 124.008 276.136 108.885 279.187 81.015L279.185 81.0166Z" fill="black"/>
<g id="mage sword">
<path id="Vector 29" d="M104.462 291.233L115.572 288.78L129.999 323.408L114.994 328.168L104.462 291.233Z" fill="#4F4A3A"/>
<path id="Vector 30" d="M106.78 265.851C114.35 265.851 120.487 271.987 120.487 279.557C120.487 287.127 114.35 293.264 106.78 293.264C99.21 293.264 93.0733 287.127 93.0733 279.557C93.0733 271.988 99.21 265.852 106.779 265.851H106.78ZM104.75 337.269C113.867 321.209 129.049 320.059 144.717 324.284L144.428 333.518C138.334 331.53 131.931 332.766 126.182 334.272C120.82 335.676 115.921 339.384 111.388 343.04L104.75 337.269Z" fill="#68747D"/>
<path id="Vector 31" d="M115.972 339.64C122.146 334.711 130.188 332.603 138.212 332.09L177.764 474.132C179.076 482.329 178.644 488.435 177.241 493.375C172.68 489.753 168.49 484.95 165.282 476.996L115.972 339.64Z" fill="#FAF8F6"/>
<g id="Vector 32" opacity="0.7" filter="url(#filter10_f)">
<path id="Vector_12" opacity="0.7" d="M303.494 92.5C309.164 99.8383 322.191 100.323 322.386 115.873C319.798 123.693 314.489 131.173 319.4 141.992C308.004 147.504 296.304 154.805 295.262 164.015C291.746 160.465 287.1 158.043 281.276 156.801C286.587 148.176 296.907 140.421 313.732 138.703C297.52 129.586 306.36 103.724 303.496 92.5008L303.494 92.5Z" fill="#C5651C"/>
</g>
<path id="Vector 33" opacity="0.343" d="M101.281 269.702L106.177 268.682C105.572 275.892 105.856 283.101 109.034 290.311L105.362 290.922C100.228 284.604 98.2616 277.652 101.281 269.702ZM108.626 268.683L110.768 269.091C110.168 276.297 110.66 283.138 111.687 289.801L110.157 290.209C108.827 283.397 107.56 276.559 108.626 268.682V268.683ZM119.439 340.925L125.968 338.069L174.865 487.052C172.628 484.472 170.392 482.156 168.156 476.683L119.439 340.925Z" fill="black"/>
<path id="Vector 34" opacity="0.343" d="M105.617 294.118L116.292 290.655L128.845 321.386L122.561 318.634L117.307 305.898L109.079 306.669L105.617 294.118ZM105.472 337.127L110.482 338.225C119.41 332.943 128.377 327.725 140.687 327.706L144.427 324.718L144.229 333.552L138.569 333.307L176.459 474.863L136.159 347.298L119.292 348.438L115.204 340.509L111.099 342.321L105.472 337.127Z" fill="black"/>
</g>
<path id="Vector 35" d="M185.548 99.145C189.123 97.9508 192.5 95.7041 193.901 94.6016L194.703 93.9708L195.067 93.6858L194.746 93.3533L194.043 92.625L171.303 92.9141L170.892 92.9825C171.303 95.4583 172.401 97.5466 174.374 98.6933C176.084 99.6883 177.531 100.272 179.248 100.357C180.952 100.443 182.879 100.037 185.548 99.145ZM185.548 99.145L185.417 98.75L185.548 99.145ZM185.548 99.145L185.417 98.75L185.548 99.145ZM185.417 98.75C180.104 100.526 177.947 100.29 174.583 98.3333L193.643 94.2741C192.265 95.3583 188.932 97.5758 185.417 98.75ZM187.019 85.6466L187.417 85.8958C187.417 85.8958 187.417 85.8958 187.417 85.8966C187.885 86.1908 189.18 87.0408 190.294 87.7842H190.295C191.417 88.5308 193.75 90.0058 195.478 91.0708H195.478C197.081 92.0583 198.119 92.8183 198.755 93.4825C199.378 94.1341 199.586 94.6625 199.583 95.2033C199.58 95.8216 199.474 95.9925 199.383 96.0583C199.33 96.0966 199.233 96.1383 199.037 96.1533C198.84 96.1683 198.578 96.1541 198.227 96.1075C197.338 95.9908 196.118 96.23 194.325 96.8558C192.518 97.4866 190.064 98.5341 186.678 100.097C182.502 102.024 180.245 102.922 178.202 103.351C178.453 103.257 178.688 103.16 178.867 103.062C178.955 103.012 179.05 102.952 179.128 102.879C179.149 102.859 179.177 102.83 179.205 102.793C179.263 102.77 179.315 102.747 179.363 102.726C179.441 102.69 179.534 102.645 179.608 102.589C179.64 102.566 179.714 102.507 179.764 102.41C179.793 102.354 179.819 102.274 179.813 102.177C179.806 102.077 179.766 101.993 179.718 101.932C179.633 101.827 179.525 101.787 179.485 101.773C179.432 101.755 179.377 101.744 179.331 101.737C179.156 101.711 178.869 101.705 178.483 101.707C178.084 101.71 177.546 101.722 176.848 101.742C174.818 101.796 173.438 101.75 172.587 101.6C172.156 101.524 171.911 101.429 171.789 101.344C171.733 101.305 171.719 101.279 171.717 101.274V101.273C171.716 101.272 171.712 101.263 171.715 101.236C171.736 101.097 171.753 100.925 171.713 100.758C171.665 100.562 171.548 100.407 171.373 100.302C171.221 100.212 171.039 100.167 170.858 100.138C170.671 100.107 170.439 100.087 170.163 100.068C169.858 100.047 169.649 100.029 169.498 100.002C169.343 99.9758 169.303 99.9475 169.297 99.9425C169.296 99.9416 169.294 99.94 169.29 99.9333C169.284 99.9233 169.273 99.9008 169.262 99.8558C169.236 99.7566 169.218 99.6108 169.197 99.3683C169.156 98.9033 169.083 98.515 168.743 98.1591C168.445 97.8483 167.96 97.5866 167.243 97.2266V97.2258C166.182 96.6933 164.738 95.7408 163.622 94.9C163.083 94.4933 162.635 94.1233 162.348 93.8475C162.43 93.8241 162.503 93.8008 162.569 93.7775C162.663 93.745 162.758 93.7058 162.842 93.6558C162.926 93.6066 163.023 93.5325 163.093 93.4191C163.255 93.1558 163.158 92.89 163.087 92.7441C163.013 92.5933 162.891 92.4166 162.763 92.2308L162.758 92.2233H162.757C162.493 91.8408 162.063 91.1475 161.779 90.6341L162.082 86.6983L162.088 86.6275C162.101 86.6358 162.113 86.645 162.127 86.6541V86.655C163.268 87.4683 164.369 87.9116 165.951 88.0025C167.503 88.0916 169.515 87.8416 172.483 87.3041C174.252 86.9833 175.814 86.585 177.257 86.2158L177.262 86.215C180.575 85.3691 183.24 84.6941 186.501 85.3683L186.747 85.8016L187.019 85.6466ZM162.069 93.5333C162.069 93.5333 162.071 93.5358 162.073 93.5408C162.07 93.5358 162.068 93.5325 162.069 93.5333Z" fill="black" stroke="black"/>
<path id="Vector 36" d="M266.583 87.4133C266.86 86.65 267.166 85.13 267.353 83.8225C267.448 83.165 267.514 82.5419 267.532 82.0771C267.54 81.8486 267.538 81.6372 267.514 81.4733C267.503 81.3957 267.483 81.2947 267.437 81.2018C267.394 81.1176 267.265 80.9201 267.002 80.9201L267 80.9202C266.793 80.9208 266.113 80.9804 265.223 81.0675C264.318 81.156 263.163 81.2762 261.982 81.4043C259.623 81.6599 257.136 81.9482 256.307 82.0767C250.765 82.9351 245.483 85.885 243.208 89.4867C243.005 89.8083 242.831 90.0958 242.738 90.3442C242.641 90.5992 242.591 90.92 242.8 91.21C242.974 91.4525 243.274 91.5817 243.566 91.6767C243.873 91.7758 244.281 91.8692 244.787 91.9783L249.322 93.5542C251.159 94.3192 252.664 94.58 253.72 94.6475C254.249 94.6808 254.664 94.6658 254.951 94.6417C255.095 94.63 255.207 94.615 255.284 94.6033C255.323 94.5975 255.353 94.5925 255.375 94.5883L255.401 94.5833L255.409 94.5817L255.412 94.5808H255.413H255.413C255.413 94.5808 255.413 94.5808 255.325 94.1733L266.583 87.4133ZM266.583 87.4133L266.192 87.2717L266.583 87.4133ZM266.583 87.4133L266.192 87.2717L266.583 87.4133ZM266.583 87.4133C266.177 88.5367 265.241 89.535 264.129 90.39C263.01 91.2517 261.669 92.0025 260.389 92.6183C259.107 93.235 257.873 93.7233 256.96 94.0567C256.503 94.2233 256.126 94.3517 255.863 94.4383C255.731 94.4825 255.628 94.515 255.557 94.5375C255.521 94.5492 255.493 94.5575 255.475 94.5633L255.454 94.57L255.448 94.5717H255.447H255.446C255.446 94.5725 255.446 94.5725 255.325 94.1733L266.583 87.4133ZM266.192 87.2717C266.713 85.8308 267.397 81.3367 267.002 81.3367L266.192 87.2717ZM255.325 94.1733L255.446 94.5725L255.43 94.5767L255.413 94.5808L255.325 94.1733ZM277.504 80.1582L277.478 80.1817V80.1819C276.959 80.6306 275.943 81.2791 275.246 81.6017C274.632 81.8849 274.204 82.1245 273.811 82.5933C273.438 83.0372 273.108 83.6725 272.618 84.6908C270.913 88.2183 269.629 90.0183 267.727 91.5942C267.167 92.0583 266.735 92.4192 266.431 92.6975C266.278 92.8375 266.15 92.9633 266.051 93.0775C265.957 93.1858 265.863 93.3117 265.811 93.45C265.753 93.6083 265.739 93.8233 265.886 94.0117C266.003 94.1608 266.171 94.2242 266.28 94.2558C266.508 94.3225 266.842 94.3483 267.204 94.375L267.494 94.3958L267.323 94.5583V94.5592C266.504 95.3367 265.094 96.0475 263.495 96.5325C261.902 97.0167 260.178 97.2592 258.761 97.1417C258.321 97.105 257.976 97.0792 257.726 97.0708C257.602 97.0658 257.491 97.0658 257.398 97.0717C257.328 97.0767 257.193 97.0875 257.076 97.1525C257.008 97.19 256.893 97.2758 256.851 97.4392C256.809 97.5992 256.867 97.7292 256.904 97.7925C256.968 97.8992 257.069 97.9733 257.126 98.0133C257.033 97.99 256.938 97.9633 256.837 97.9342C256.213 97.7483 255.428 97.3942 255.109 97.1708V97.17C254.855 96.9925 254.488 96.8617 254.118 96.7742C253.737 96.6842 253.309 96.6308 252.906 96.6308C251.61 96.6308 249.662 96.2967 247.669 95.7758C245.681 95.255 243.691 94.5592 242.313 93.8567C241.958 93.6758 241.546 93.5133 241.163 93.3958C240.79 93.2808 240.408 93.1958 240.125 93.1942C239.739 93.1925 239.483 93.1675 239.318 93.1217C239.238 93.0992 239.197 93.0767 239.178 93.0633C239.163 93.0533 239.162 93.0483 239.161 93.0467C239.154 93.0308 239.131 92.9458 239.201 92.7017C239.267 92.4683 239.4 92.1575 239.605 91.7417C241.183 88.5342 243.87 85.7525 247.421 83.6783C252.056 80.9708 255.507 80.0893 262.897 79.753C265.631 79.6284 267.438 79.4899 268.968 79.216C270.506 78.9405 271.751 78.5302 273.363 77.8755C273.363 77.8754 273.363 77.8754 273.363 77.8753L274.487 77.4213L274.39 78.3382V78.3402L274.229 79.9469L274.178 80.4471L274.679 80.4036L276.733 80.2252L277.504 80.1582ZM258.173 98.135C258.173 98.135 258.171 98.1358 258.169 98.1367C258.171 98.1358 258.173 98.135 258.173 98.135Z" fill="black" stroke="black"/>
<g id="mage helmet">
<g id="Vector 37">
<path id="Vector_13" d="M167.482 36.0086C168.564 30.4552 171.278 25.7186 179.919 23.9444C199.532 13.0794 220.126 4.17527 250.445 14.7261C258.962 16.2477 262.353 19.7411 263.831 23.9694C273.609 31.1602 281.451 39.9636 287.967 49.8719C288.848 54.4919 287.979 58.8194 286.567 63.0569C282.943 62.1094 279.544 60.7402 275.596 60.4019C272.108 65.1427 267.908 68.4586 263.268 70.8936C263.46 66.4494 262.587 61.6494 260.471 56.4352C255.725 61.7927 251.222 64.9486 246.861 66.8494C247.416 62.9777 247.736 59.0586 246.394 54.8077C241.749 52.3952 236.098 50.7877 229.529 49.9144C226.736 53.7727 223.119 56.6436 218.403 58.1944C214.284 56.6052 210.177 54.9236 206.433 50.3219C201.625 51.8177 196.932 53.3727 192.883 55.2502C191.177 59.8311 190.858 64.0661 190.666 68.2686C185.918 66.3186 182.034 63.2186 179.592 58.1952L174.685 62.8702C172.022 68.2236 173.193 71.3852 172.967 75.3452C168.246 73.1052 165.327 70.5036 162.491 67.8861L154.816 74.2561C149.341 59.8444 160.271 48.2444 167.482 36.0086Z" fill="#9B8476"/>
<path id="Vector_14" d="M168.199 36.4317L168.272 36.3085L168.299 36.1681C168.825 33.4714 169.73 31.0627 171.484 29.1174C173.233 27.1791 175.896 25.6211 180.087 24.7607L180.211 24.7351L180.322 24.6734C190.112 19.2501 200.071 14.3607 211.329 12.1216C222.569 9.88623 235.147 10.2849 250.171 15.5131L250.233 15.5348L250.298 15.5464C254.472 16.2921 257.312 17.5077 259.273 18.9965C261.222 20.4757 262.351 22.2616 263.044 24.2443L263.129 24.4879L263.337 24.6408C272.977 31.7298 280.725 40.4069 287.178 50.1899C287.923 54.2848 287.245 58.1677 286.019 62.0455C285.277 61.8383 284.529 61.6136 283.773 61.3862C281.215 60.6176 278.56 59.8196 275.667 59.5716L275.201 59.5317L274.924 59.9081C271.835 64.1079 268.173 67.1628 264.127 69.4738C264.095 65.3092 263.17 60.8705 261.242 56.1218L260.738 54.8772L259.847 55.8827C255.668 60.5997 251.706 63.5588 247.887 65.4524C248.304 62.0122 248.408 58.4221 247.188 54.557L247.084 54.2275L246.778 54.0682C242.024 51.5993 236.274 49.9706 229.638 49.0884L229.146 49.0228L228.854 49.4257C226.207 53.0808 222.817 55.7982 218.422 57.3086C214.425 55.7602 210.594 54.1166 207.079 49.7961L206.723 49.3587L206.186 49.5262C201.376 51.0225 196.637 52.5913 192.532 54.4942L192.222 54.6384L192.102 54.9595C190.515 59.2206 190.101 63.1832 189.892 67.0218C185.801 65.1213 182.49 62.2516 180.341 57.8309L179.843 56.8053L179.017 57.5919L174.11 62.2669L174.004 62.368L173.938 62.4991C171.883 66.6294 172.003 69.6569 172.114 72.4513C172.135 72.9786 172.155 73.4976 172.161 74.0142C168.227 71.9674 165.633 69.6517 163.056 67.2736L162.519 66.779L161.958 67.2448L155.204 72.8504C153.108 66.368 154.407 60.4548 157.144 54.673C158.595 51.609 160.442 48.5992 162.391 45.5712C162.895 44.7886 163.407 44.0036 163.92 43.2164C165.382 40.9725 166.857 38.7101 168.199 36.4317Z" stroke="black" stroke-opacity="0.44" stroke-width="2"/>
</g>
<g id="Vector 38">
<mask id="mask0" mask-type="alpha" maskUnits="userSpaceOnUse" x="172" y="29" width="92" height="16">
<g id="path 39 inside 1">
<path id="Vector_15" fill-rule="evenodd" clip-rule="evenodd" d="M260.989 29.3434C260.768 29.3509 260.499 29.3767 260.168 29.4151C256.856 29.8042 255.339 30.5434 247.082 35.8067C244.252 37.6092 242.045 38.4576 240.182 38.4576C239.093 38.4576 239.092 38.4576 239.092 39.6359V40.8151L241.163 40.6809C242.451 40.5951 243.936 40.2601 245.091 39.7976C246.702 39.1509 247.542 39.0226 251.447 38.8509L255.946 38.6542L256.99 37.6459C258.017 36.6484 260.802 32.6159 260.802 32.1292C260.802 31.9909 261.316 31.6751 261.945 31.4234C263.283 30.8876 263.316 30.7742 262.382 29.8967C261.919 29.4626 261.653 29.3217 260.989 29.3434ZM226.846 31.1467C226.078 31.1634 225.41 31.7742 224.525 33.1017C223.657 34.4319 222.847 35.7991 222.097 37.1992L220.963 39.3684L221.632 39.9134C222.551 40.6567 222.777 40.6034 223.23 39.5292C223.872 38.0042 226.377 34.6317 227.801 33.3792L229.131 32.2092L228.407 31.7359C227.803 31.3401 227.306 31.1367 226.846 31.1467ZM210.171 32.4859L209.135 33.0126C208.565 33.3034 207.867 33.7942 207.582 34.1109C207.073 34.6726 207.092 34.7192 208.349 35.9759C209.85 37.4776 212.066 40.4242 212.848 41.9576C213.45 43.1351 213.475 43.1526 214.223 42.7517C215.284 42.1842 215.12 41.5817 212.634 37.0117L210.171 32.4859ZM175.962 38.1726C174.148 38.1767 174.082 38.2034 173.16 39.3142L172.213 40.4576H173.043C173.597 40.4576 174.497 40.9251 175.731 41.8592C176.75 42.6309 178.082 43.5309 178.694 43.8592C180.108 44.6167 180.697 44.6084 185.389 43.7342C188.456 43.1626 189.717 43.0509 191.549 43.1984C193.357 43.3434 194.036 43.2826 194.718 42.9301C196.31 42.1067 197.128 40.2626 196.396 39.1451L195.932 38.4401L194.637 39.7342C192.835 41.5367 192.614 41.5484 187.166 40.1809C181.194 38.6817 178.332 38.1659 175.962 38.1726ZM258.367 33.3784C258.382 33.3784 258.397 33.3817 258.402 33.3867C258.576 33.5609 256.536 35.8559 255.912 36.1901C255.607 36.3542 254.366 36.6642 253.153 36.8776C251.941 37.0917 250.562 37.3526 250.092 37.4584C249.481 37.5942 249.742 37.3526 250.993 36.6367C252.862 35.5676 257.892 33.3534 258.367 33.3784ZM177.016 40.7517C176.984 40.7517 176.958 40.7484 176.936 40.7517C176.597 40.8092 177.314 41.4209 178.622 42.1717C180.277 43.1201 180.398 43.1351 184.372 42.6534L187.219 42.3051L185.086 41.9301C183.163 41.5892 177.587 40.7742 177.016 40.7517Z" fill="white"/>
</g>
</mask>
<g mask="url(#mask0)">
<path id="Vector_16" fill-rule="evenodd" clip-rule="evenodd" d="M260.989 29.3434C260.768 29.3509 260.499 29.3767 260.168 29.4151C256.856 29.8042 255.339 30.5434 247.082 35.8067C244.252 37.6092 242.045 38.4576 240.182 38.4576C239.093 38.4576 239.092 38.4576 239.092 39.6359V40.8151L241.163 40.6809C242.451 40.5951 243.936 40.2601 245.091 39.7976C246.702 39.1509 247.542 39.0226 251.447 38.8509L255.946 38.6542L256.99 37.6459C258.017 36.6484 260.802 32.6159 260.802 32.1292C260.802 31.9909 261.316 31.6751 261.945 31.4234C263.283 30.8876 263.316 30.7742 262.382 29.8967C261.919 29.4626 261.653 29.3217 260.989 29.3434ZM226.846 31.1467C226.078 31.1634 225.41 31.7742 224.525 33.1017C223.657 34.4319 222.847 35.7991 222.097 37.1992L220.963 39.3684L221.632 39.9134C222.551 40.6567 222.777 40.6034 223.23 39.5292C223.872 38.0042 226.377 34.6317 227.801 33.3792L229.131 32.2092L228.407 31.7359C227.803 31.3401 227.306 31.1367 226.846 31.1467ZM210.171 32.4859L209.135 33.0126C208.565 33.3034 207.867 33.7942 207.582 34.1109C207.073 34.6726 207.092 34.7192 208.349 35.9759C209.85 37.4776 212.066 40.4242 212.848 41.9576C213.45 43.1351 213.475 43.1526 214.223 42.7517C215.284 42.1842 215.12 41.5817 212.634 37.0117L210.171 32.4859ZM175.962 38.1726C174.148 38.1767 174.082 38.2034 173.16 39.3142L172.213 40.4576H173.043C173.597 40.4576 174.497 40.9251 175.731 41.8592C176.75 42.6309 178.082 43.5309 178.694 43.8592C180.108 44.6167 180.697 44.6084 185.389 43.7342C188.456 43.1626 189.717 43.0509 191.549 43.1984C193.357 43.3434 194.036 43.2826 194.718 42.9301C196.31 42.1067 197.128 40.2626 196.396 39.1451L195.932 38.4401L194.637 39.7342C192.835 41.5367 192.614 41.5484 187.166 40.1809C181.194 38.6817 178.332 38.1659 175.962 38.1726ZM258.367 33.3784C258.382 33.3784 258.397 33.3817 258.402 33.3867C258.576 33.5609 256.536 35.8559 255.912 36.1901C255.607 36.3542 254.366 36.6642 253.153 36.8776C251.941 37.0917 250.562 37.3526 250.092 37.4584C249.481 37.5942 249.742 37.3526 250.993 36.6367C252.862 35.5676 257.892 33.3534 258.367 33.3784ZM177.016 40.7517C176.984 40.7517 176.958 40.7484 176.936 40.7517C176.597 40.8092 177.314 41.4209 178.622 42.1717C180.277 43.1201 180.398 43.1351 184.372 42.6534L187.219 42.3051L185.086 41.9301C183.163 41.5892 177.587 40.7742 177.016 40.7517Z" fill="#0C0B0B"/>
<path id="Vector_17" d="M223.122 5.00007H223.538V4.58406L223.122 4.5834L223.122 5.00007ZM182.192 16.8734L181.996 16.5062L182.192 16.8734ZM176.105 19.5867L175.977 19.1902V19.1903L176.105 19.5867ZM165.455 30.1034L165.854 30.2221L165.455 30.1034ZM163.464 34.2451L163.817 34.4665V34.4664L163.464 34.2451ZM159.019 41.2967L159.372 41.5192V41.5192L159.019 41.2967ZM154.475 49.1884L154.101 49.005V49.0056L154.475 49.1884ZM152.949 52.3134L152.575 52.1306L152.564 52.1514L152.557 52.1732L152.949 52.3134ZM151.495 56.3834L151.102 56.2432L150.903 56.8001H151.495V56.3834ZM292.779 66.3009L292.398 66.1324L292.276 66.4082L292.5 66.6103L292.779 66.3009ZM295.036 68.3367L294.757 68.6461L295.211 69.0558L295.426 68.4832L295.036 68.3367ZM295.616 66.7926L296.006 66.9391V66.9386L295.616 66.7926ZM289.982 47.7692L289.68 48.056L289.982 47.7692ZM286.962 43.9567L287.305 43.7214L286.962 43.9567ZM266.822 21.9167L266.564 22.2439V22.244L266.822 21.9167ZM263.176 18.0251L263.547 17.8368V17.8367L263.176 18.0251ZM250.786 9.94673L250.685 10.351L250.786 9.94673ZM246.358 8.67007L246.496 8.27681V8.27667L246.358 8.67007ZM241.644 7.35756L241.742 6.9524L241.741 6.95235L241.644 7.35756ZM223.122 5.0009H222.705V5.41687L223.121 5.41757L223.122 5.0009ZM224.291 7.85673V7.44006L224.287 8.27338L224.291 7.85673ZM252.822 13.5701L252.697 13.9678L252.822 13.5701ZM260.864 19.7384L261.232 19.5425L260.864 19.7384ZM264.783 23.8276L265.041 23.4998L264.783 23.8276ZM283.396 43.8592L283.057 44.1014L283.396 43.8592ZM285.493 46.7959L285.91 46.7797L285.905 46.6551L285.832 46.5537L285.493 46.7959ZM285.592 49.3309L285.175 49.3471V49.3474L285.592 49.3309ZM284.52 57.1959L284.166 56.9767L284.165 56.9776L284.52 57.1959ZM280.397 56.5351L280.293 56.9386V56.9387L280.397 56.5351ZM275.174 55.4817L275.157 55.8981H275.158L275.174 55.4817ZM273.871 55.4284L273.887 55.0121L273.697 55.0042L273.566 55.1445L273.871 55.4284ZM271.112 58.3917L271.417 58.6758V58.6756L271.112 58.3917ZM263.257 62.4984L262.842 62.5334V62.5336L263.257 62.4984ZM261.436 54.5984L261.042 54.7326V54.7326L261.436 54.5984ZM259.57 52.0809L259.461 52.483L259.462 52.4832L259.57 52.0809ZM258.454 51.7776L258.563 51.3755L258.336 51.3136L258.166 51.4771L258.454 51.7776ZM255.954 54.1784L255.666 53.8779L255.665 53.8785L255.954 54.1784ZM247.582 60.6684L247.584 60.2517H247.582V60.6684ZM247.474 57.5976L247.057 57.6009V57.6011L247.474 57.5976ZM246.314 50.4917L246.662 50.2636V50.2633L246.314 50.4917ZM231.513 45.3584L231.586 44.9481H231.585L231.513 45.3584ZM225.122 47.7601L225.416 48.055L225.122 47.7601ZM208.258 47.6801L207.972 47.9821V47.9823L208.258 47.6801ZM205.412 45.4484L205.311 45.8526V45.8527L205.412 45.4484ZM190.762 50.8401L190.446 50.5684V50.5686L190.762 50.8401ZM188.37 60.3109L188.784 60.3519L188.785 60.3508L188.37 60.3109ZM188.165 62.3826L187.966 62.7487L188.517 63.0484L188.58 62.4236L188.165 62.3826ZM186.718 61.5967L186.917 61.2306L186.718 61.5967ZM180.693 55.6159L181.047 55.3971L180.693 55.6159ZM175.997 54.9101L175.723 54.5961L175.997 54.9101ZM170.82 62.5967L171.225 62.6935V62.6933L170.82 62.5967ZM170.275 66.6667L170.691 66.6969V66.6968L170.275 66.6667ZM170.087 69.2467L169.855 69.5928L170.451 69.9922L170.503 69.277L170.087 69.2467ZM168.517 68.1934L168.748 67.8473L168.747 67.8466L168.517 68.1934ZM164.607 65.1934L164.874 64.8738V64.8736L164.607 65.1934ZM157.34 65.6934L157.073 65.3735L157.072 65.3738L157.34 65.6934ZM154.394 68.1576L153.998 68.2866L154.189 68.8725L154.662 68.4771L154.394 68.1576ZM154.127 67.3367L154.522 67.2076V67.2074L154.127 67.3367ZM153.85 62.6676L154.267 62.6667V62.6666L153.85 62.6676ZM154.627 56.2401L154.227 56.1193L154.627 56.2401ZM160.705 43.9567L160.352 43.7342V43.7343L160.705 43.9567ZM165.16 36.9142L165.512 37.1374V37.1373L165.16 36.9142ZM167.972 31.6292L168.377 31.7269V31.7268L167.972 31.6292ZM177.497 22.1309L177.397 21.7262L177.497 22.1309ZM184.924 18.6759L184.733 18.3056L184.924 18.6759ZM220.828 7.91006L220.844 8.32642H220.845L220.828 7.91006ZM224.292 7.85673V8.2734L224.295 7.44008L224.292 7.85673ZM229.086 47.8401L229.158 47.4298L228.669 47.3431V47.8401H229.086ZM231.3 48.2326L231.227 48.6428V48.6429L231.3 48.2326ZM242.003 51.3126L241.832 51.6924L242.003 51.3126ZM244.27 53.3567L243.869 53.4718L243.87 53.4723L244.27 53.3567ZM244.413 62.1501L244.817 62.2545V62.2539L244.413 62.1501ZM245.226 63.6942L245.478 63.3631V63.3628L245.226 63.6942ZM246.242 64.4709L245.989 64.802L246.192 64.9562L246.421 64.8474L246.242 64.4709ZM247.992 63.6409L248.171 64.0174L248.172 64.0171L247.992 63.6409ZM256.322 57.7401L256.602 58.0475L256.603 58.0474L256.322 57.7401ZM258.741 55.5259L259.137 55.3981L258.938 54.7803L258.459 55.2186L258.741 55.5259ZM259.178 56.8834L259.575 56.7556V56.7556L259.178 56.8834ZM261.91 67.9434L261.738 68.3232L261.739 68.3234L261.91 67.9434ZM262.981 68.4251L262.81 68.8051L263.011 68.8955L263.198 68.7802L262.981 68.4251ZM264.945 67.2201L264.727 66.8646L264.727 66.8649L264.945 67.2201ZM274.139 59.3109L273.808 59.0577V59.058L274.139 59.3109ZM278.577 59.0626L278.872 59.3572L278.874 59.3548L278.577 59.0626ZM162.09 66.8742L162.352 66.5508L161.834 66.1297L161.684 66.7805L162.09 66.8742ZM163.662 68.1509L163.399 68.4743L163.4 68.4751L163.662 68.1509ZM169.455 72.0784L169.25 72.4412L169.252 72.4421L169.455 72.0784ZM171.115 73.0067L170.912 73.3704L171.132 73.494L171.344 73.3547L171.115 73.0067ZM172.213 72.2834L172.442 72.6314L172.443 72.631L172.213 72.2834ZM173.32 71.5517L173.55 71.8993L173.739 71.774L173.737 71.5467L173.32 71.5517ZM173.276 67.8917L172.859 67.8966V67.8967L173.276 67.8917ZM176.284 58.5809L176.009 58.2681V58.2682L176.284 58.5809ZM178.167 57.2334L177.936 57.5797L177.937 57.5801L178.167 57.2334ZM179.569 59.0001L179.905 58.7531V58.7531L179.569 59.0001ZM186.639 64.8209L186.832 64.4519L186.639 64.8209ZM188.799 65.9542L188.606 66.3232L188.808 66.4296L189.007 66.3155L188.799 65.9542ZM189.871 65.3384L189.665 64.9759L189.663 64.9771L189.871 65.3384ZM190.942 64.7317L191.147 65.0942L191.342 64.984L191.357 64.7607L190.942 64.7317ZM191.138 61.9109L190.722 61.8818V61.8819L191.138 61.9109ZM192.442 54.1626L192.84 54.2854V54.2852L192.442 54.1626ZM200.154 49.9042L200.019 49.5101L200.154 49.9042ZM204.796 48.3151L205.086 48.0161L204.902 47.8381L204.661 47.9209L204.796 48.3151ZM206.313 49.7884L206.603 49.4896V49.4895L206.313 49.7884ZM216.642 55.7242L216.708 55.313V55.3129L216.642 55.7242ZM226.729 50.1992L227.023 50.4941L227.024 50.4938L226.729 50.1992ZM229.086 47.8417L229.381 48.1363L229.502 48.0143V47.8417H229.086ZM288.637 50.3401L288.93 50.0443L288.304 50.5916L288.637 50.3401ZM290.11 52.2859L290.442 52.0353V52.0344L290.11 52.2859ZM281.755 59.8392L281.641 60.24L281.755 59.8392ZM286.79 59.5001L287.157 59.6968V59.6967L286.79 59.5001ZM288.45 52.1442L288.036 52.1011V52.1018L288.45 52.1442ZM288.637 50.3409L289.052 50.384L289.072 50.1856L288.931 50.0451L288.637 50.3409ZM151.201 58.3109L151.61 58.3901V58.39L151.201 58.3109ZM152.995 71.2551L152.847 71.6446L152.995 71.2551ZM156.485 70.1384L156.214 69.8218L156.213 69.8221L156.485 70.1384ZM223.122 4.5834C209.868 4.56242 197.116 8.3959 181.996 16.5062L182.389 17.2406C197.431 9.17257 210.047 5.39604 223.121 5.41673L223.122 4.5834ZM181.996 16.5062C180.082 17.5326 177.369 18.7406 175.977 19.1902L176.233 19.9832C177.689 19.5129 180.451 18.2809 182.389 17.2406L181.996 16.5062ZM175.977 19.1903C173.048 20.1375 170.726 21.4416 168.927 23.2174C167.128 24.9945 165.876 27.2227 165.056 29.9847L165.854 30.2221C166.642 27.5691 167.832 25.4715 169.513 23.8102C171.197 22.1476 173.395 20.901 176.233 19.9831L175.977 19.1903ZM165.056 29.9847C164.767 30.9576 163.887 32.7857 163.111 34.0237L163.817 34.4664C164.617 33.1894 165.537 31.2909 165.854 30.2221L165.056 29.9847ZM163.111 34.0236C162.323 35.2797 160.322 38.4516 158.667 41.0743L159.372 41.5192C161.027 38.8968 163.028 35.7237 163.817 34.4665L163.111 34.0236ZM158.667 41.0742C157.007 43.7034 154.952 47.2676 154.101 49.005L154.849 49.3718C155.682 47.6726 157.718 44.1367 159.372 41.5192L158.667 41.0742ZM154.101 49.0056L152.575 52.1306L153.323 52.4962L154.849 49.3712L154.101 49.0056ZM152.557 52.1732L151.102 56.2432L151.887 56.5236L153.342 52.4536L152.557 52.1732ZM292.5 66.6103L294.757 68.6461L295.315 68.0274L293.058 65.9916L292.5 66.6103ZM295.426 68.4832L296.006 66.9391L295.226 66.6461L294.646 68.1902L295.426 68.4832ZM296.006 66.9386C297.217 63.7014 297.35 60.4717 296.387 57.2247C295.428 53.9854 293.386 50.7516 290.285 47.4825L289.68 48.056C292.722 51.2627 294.677 54.3856 295.588 57.4615C296.497 60.5296 296.375 63.5737 295.226 66.6466L296.006 66.9386ZM290.285 47.4825C289.459 46.6124 288.267 45.1253 287.305 43.7214L286.617 44.1921C287.598 45.6248 288.819 47.1478 289.68 48.056L290.285 47.4825ZM287.305 43.7214C282.116 36.1404 273.306 26.4961 267.08 21.5895L266.564 22.244C272.714 27.0907 281.468 36.6697 286.617 44.1921L287.305 43.7214ZM267.08 21.5896C265.101 20.0281 264.039 18.8082 263.547 17.8368L262.804 18.2133C263.377 19.3452 264.551 20.6554 266.564 22.2439L267.08 21.5896ZM263.547 17.8367C261.461 13.7182 257.532 11.1995 250.887 9.54248L250.685 10.351C257.22 11.9806 260.874 14.4036 262.804 18.2134L263.547 17.8367ZM250.887 9.54248C249.401 9.17157 247.422 8.6009 246.496 8.27681L246.221 9.06332C247.18 9.39923 249.186 9.9769 250.685 10.351L250.887 9.54248ZM246.496 8.27667C245.532 7.94064 243.396 7.34933 241.742 6.9524L241.547 7.76274C243.192 8.15746 245.297 8.74115 246.221 9.06348L246.496 8.27667ZM241.741 6.95235C235.258 5.40022 229.143 4.5943 223.122 4.58423L223.121 5.41757C229.067 5.42751 235.117 6.22324 241.547 7.76278L241.741 6.95235ZM223.538 5.0009V5.00007H222.705V5.0009H223.538ZM224.287 8.27338C232.178 8.34115 239.468 9.84248 252.697 13.9678L252.946 13.1723C239.692 9.03932 232.308 7.50895 224.294 7.44008L224.287 8.27338ZM252.697 13.9678C254.756 14.6094 256.289 15.3324 257.513 16.2713C258.732 17.2073 259.665 18.3741 260.497 19.9344L261.232 19.5425C260.357 17.9001 259.352 16.6328 258.02 15.6102C256.692 14.5906 255.057 13.8307 252.946 13.1723L252.697 13.9678ZM260.497 19.9343C261.303 21.4493 262.029 22.1947 264.526 24.1553L265.041 23.4998C262.566 21.5571 261.955 20.8991 261.232 19.5425L260.497 19.9343ZM264.526 24.1553C270.479 28.8296 277.693 36.5911 283.057 44.1014L283.735 43.6171C278.335 36.0556 271.067 28.2323 265.041 23.4998L264.526 24.1553ZM283.057 44.1014L285.154 47.0381L285.832 46.5537L283.735 43.6171L283.057 44.1014ZM285.077 46.8121L285.175 49.3471L286.008 49.3147L285.91 46.7797L285.077 46.8121ZM285.175 49.3474C285.221 50.5024 285.092 52.2232 284.881 53.7719C284.776 54.544 284.652 55.2644 284.522 55.8417C284.387 56.4415 284.258 56.8264 284.166 56.9767L284.874 57.4151C285.052 57.1287 285.203 56.6096 285.335 56.0245C285.472 55.4171 285.599 54.6719 285.707 53.8842C285.92 52.3136 286.057 50.5386 286.008 49.3144L285.175 49.3474ZM284.165 56.9776C284.213 56.8988 284.276 56.8763 284.28 56.875C284.283 56.8738 284.262 56.8812 284.198 56.8839C284.071 56.8892 283.862 56.8732 283.544 56.8225C282.912 56.7217 281.936 56.4993 280.5 56.1315L280.293 56.9387C281.729 57.3066 282.739 57.538 283.412 57.6454C283.747 57.6986 284.021 57.7254 284.233 57.7165C284.338 57.7121 284.45 57.6981 284.554 57.662C284.658 57.6257 284.788 57.5547 284.875 57.4142L284.165 56.9776ZM280.5 56.1315C279.417 55.8539 278.285 55.5958 277.331 55.4034C276.39 55.2136 275.59 55.0806 275.19 55.0654L275.158 55.8981C275.479 55.9103 276.214 56.0282 277.167 56.2203C278.106 56.4097 279.224 56.6646 280.293 56.9386L280.5 56.1315ZM275.191 55.0654L273.887 55.0121L273.854 55.8447L275.157 55.8981L275.191 55.0654ZM273.566 55.1445L270.807 58.1078L271.417 58.6756L274.176 55.7123L273.566 55.1445ZM270.807 58.1077C269.657 59.3432 267.962 60.9002 266.472 62.1495C265.728 62.7737 265.042 63.3161 264.504 63.7001C264.234 63.8928 264.009 64.0406 263.837 64.1386C263.752 64.1876 263.686 64.22 263.639 64.2388C263.583 64.2619 263.589 64.2509 263.632 64.2509V65.0842C263.756 65.0842 263.872 65.0437 263.954 65.0104C264.047 64.9727 264.147 64.9216 264.25 64.8626C264.457 64.7446 264.708 64.5781 264.988 64.3781C265.55 63.9767 266.255 63.4196 267.008 62.788C268.513 61.5253 270.235 59.9444 271.417 58.6758L270.807 58.1077ZM263.632 64.2509C263.792 64.2509 263.887 64.3416 263.913 64.3695C263.945 64.403 263.959 64.4311 263.96 64.4328C263.963 64.4391 263.956 64.4261 263.942 64.3793C263.917 64.2916 263.886 64.1502 263.852 63.959C263.787 63.5807 263.722 63.0509 263.672 62.4633L262.842 62.5336C262.892 63.1376 262.961 63.6923 263.032 64.1007C263.067 64.3029 263.104 64.4804 263.142 64.6131C263.161 64.6766 263.186 64.7493 263.218 64.8136C263.234 64.8444 263.262 64.8947 263.309 64.9431C263.349 64.9859 263.458 65.0842 263.632 65.0842V64.2509ZM263.672 62.4634C263.462 59.969 262.935 57.7093 261.83 54.4642L261.042 54.7326C262.132 57.9375 262.638 60.1278 262.842 62.5334L263.672 62.4634ZM261.83 54.4642C261.65 53.9336 261.506 53.5172 261.377 53.1921C261.247 52.8689 261.122 52.6081 260.969 52.4011C260.632 51.9456 260.21 51.8217 259.678 51.6786L259.462 52.4832C260.004 52.6292 260.152 52.6983 260.299 52.8964C260.387 53.0161 260.482 53.1972 260.602 53.5008C260.722 53.8022 260.859 54.1974 261.042 54.7326L261.83 54.4642ZM259.679 51.6788L258.563 51.3755L258.345 52.1796L259.461 52.483L259.679 51.6788ZM258.166 51.4771L255.666 53.8779L256.242 54.4789L258.742 52.0781L258.166 51.4771ZM255.665 53.8785C254.429 55.0702 252.502 56.6833 250.803 58.0001C249.955 58.6579 249.169 59.2373 248.562 59.6503C248.257 59.8574 248.002 60.0184 247.81 60.1259C247.714 60.1799 247.64 60.2163 247.588 60.238C247.522 60.266 247.532 60.2515 247.584 60.2517L247.579 61.0851C247.707 61.0857 247.831 61.0398 247.909 61.0071C248.002 60.9682 248.107 60.9149 248.217 60.853C248.44 60.7286 248.717 60.5524 249.029 60.3396C249.657 59.9131 250.458 59.3221 251.314 58.6586C253.024 57.3326 254.977 55.6991 256.243 54.4783L255.665 53.8785ZM247.582 60.2517C247.724 60.2517 247.821 60.3216 247.867 60.3656C247.912 60.4082 247.936 60.4506 247.946 60.4694C247.966 60.5082 247.974 60.5399 247.976 60.5444C247.98 60.5598 247.98 60.5651 247.977 60.5489C247.973 60.5218 247.969 60.4722 247.963 60.3966C247.952 60.2481 247.942 60.0285 247.932 59.7518C247.913 59.2 247.897 58.4361 247.891 57.5941L247.057 57.6011C247.065 58.4481 247.08 59.2197 247.1 59.781C247.11 60.0609 247.121 60.2922 247.132 60.4556C247.138 60.5359 247.144 60.6075 247.152 60.6626C247.155 60.6875 247.161 60.7241 247.171 60.7606C247.175 60.7756 247.186 60.8152 247.209 60.8594C247.221 60.8808 247.246 60.9252 247.292 60.9692C247.34 61.0145 247.438 61.0851 247.582 61.0851V60.2517ZM247.891 57.5942C247.877 55.949 247.756 54.4093 247.549 53.1441C247.347 51.8985 247.052 50.8597 246.662 50.2636L245.966 50.7199C246.252 51.1579 246.526 52.0437 246.727 53.2782C246.925 54.4933 247.045 55.9895 247.057 57.6009L247.891 57.5942ZM246.662 50.2633C246.503 50.0197 246.226 49.7904 245.906 49.5768C245.576 49.3565 245.158 49.1262 244.675 48.8914C243.708 48.4214 242.449 47.9183 241.032 47.4271C238.198 46.4442 234.701 45.4965 231.586 44.9481L231.441 45.7687C234.507 46.3086 237.962 47.2443 240.759 48.2144C242.158 48.6995 243.384 49.1903 244.311 49.6408C244.774 49.8663 245.156 50.0781 245.443 50.27C245.741 50.4687 245.902 50.6221 245.966 50.7201L246.662 50.2633ZM231.585 44.9481C230.721 44.796 230.052 44.6706 229.507 44.623C228.952 44.5742 228.484 44.6016 228.019 44.7768C227.562 44.9489 227.143 45.2502 226.659 45.6803C226.177 46.1091 225.597 46.697 224.827 47.4651L225.416 48.055C226.197 47.2748 226.754 46.7112 227.213 46.3031C227.671 45.8961 227.998 45.675 228.312 45.5567C228.619 45.4414 228.948 45.4105 229.435 45.4531C229.932 45.4967 230.552 45.6125 231.441 45.7688L231.585 44.9481ZM224.827 47.4651C223.498 48.7916 221.9 50.0732 220.468 51.0209C219.752 51.4947 219.086 51.8804 218.521 52.1458C217.94 52.4188 217.518 52.5392 217.275 52.5392V53.3726C217.715 53.3726 218.278 53.1802 218.875 52.9001C219.487 52.6122 220.191 52.2041 220.928 51.7157C222.403 50.739 224.045 49.4226 225.416 48.055L224.827 47.4651ZM217.275 52.5392C217.182 52.5392 217.003 52.506 216.73 52.4153C216.467 52.3278 216.147 52.1981 215.783 52.0321C215.057 51.7002 214.18 51.2343 213.273 50.7036C211.452 49.638 209.557 48.3382 208.545 47.3778L207.972 47.9823C209.053 49.0094 211.015 50.3476 212.852 51.4229C213.775 51.9628 214.677 52.4431 215.437 52.7901C215.817 52.9633 216.166 53.106 216.467 53.2061C216.759 53.3031 217.042 53.3726 217.275 53.3726V52.5392ZM208.545 47.378C207.938 46.8016 207.309 46.2578 206.782 45.8444C206.518 45.638 206.276 45.4607 206.072 45.3272C205.885 45.2052 205.682 45.0862 205.512 45.0441L205.311 45.8527C205.308 45.852 205.333 45.8591 205.396 45.8923C205.453 45.9227 205.527 45.9666 205.615 46.0246C205.792 46.1406 206.015 46.3023 206.267 46.5003C206.772 46.8956 207.382 47.4219 207.972 47.9821L208.545 47.378ZM205.512 45.0441C205.358 45.0056 205.174 45.0111 205.003 45.0276C204.821 45.0451 204.605 45.0808 204.366 45.13C203.886 45.2286 203.281 45.3873 202.597 45.5878C201.231 45.9893 199.526 46.5661 197.834 47.1888C196.142 47.8116 194.456 48.4826 193.126 49.0736C192.462 49.3688 191.881 49.6465 191.431 49.89C191.206 50.0116 191.008 50.1276 190.847 50.2353C190.692 50.3388 190.547 50.4508 190.446 50.5684L191.077 51.1117C191.103 51.082 191.172 51.0203 191.311 50.9279C191.442 50.8398 191.615 50.7376 191.827 50.623C192.251 50.3939 192.81 50.1261 193.464 49.8351C194.772 49.2536 196.442 48.5894 198.122 47.9709C199.803 47.3523 201.489 46.782 202.832 46.3873C203.505 46.1898 204.086 46.0382 204.533 45.9463C204.757 45.9003 204.942 45.8707 205.083 45.8571C205.154 45.8502 205.21 45.8478 205.252 45.8485C205.296 45.8491 205.312 45.8531 205.311 45.8526L205.512 45.0441ZM190.446 50.5686C190.173 50.8851 189.917 51.4166 189.679 52.0466C189.437 52.6908 189.197 53.4851 188.974 54.3656C188.53 56.127 188.149 58.2583 187.955 60.271L188.785 60.3508C188.974 58.381 189.347 56.2911 189.782 54.5696C189.999 53.7088 190.231 52.9465 190.459 52.3407C190.692 51.7209 190.907 51.3092 191.077 51.1116L190.446 50.5686ZM187.955 60.2699L187.75 62.3416L188.58 62.4236L188.784 60.3519L187.955 60.2699ZM188.364 62.0164L186.917 61.2306L186.519 61.9629L187.966 62.7487L188.364 62.0164ZM186.917 61.2306C186.018 60.7425 184.883 59.8276 183.797 58.7487C182.713 57.6726 181.704 56.4605 181.047 55.3971L180.338 55.8347C181.039 56.9697 182.094 58.2329 183.21 59.3401C184.322 60.4446 185.522 61.421 186.519 61.9629L186.917 61.2306ZM181.047 55.3971C180.652 54.7571 180.284 54.2424 179.912 53.8705C179.536 53.4958 179.131 53.2415 178.663 53.1712C178.196 53.1011 177.734 53.2248 177.263 53.4721C176.797 53.7175 176.292 54.1008 175.723 54.5961L176.272 55.2241C176.824 54.7422 177.271 54.4096 177.652 54.2096C178.028 54.0116 178.307 53.9605 178.539 53.9953C178.771 54.0302 179.022 54.161 179.323 54.4606C179.627 54.7632 179.954 55.2122 180.338 55.8347L181.047 55.3971ZM175.723 54.5961C173.942 56.1502 172.811 57.2633 172.028 58.4265C171.238 59.6004 170.819 60.8013 170.415 62.5001L171.225 62.6933C171.62 61.0355 172.01 59.9456 172.719 58.8916C173.436 57.8268 174.493 56.7749 176.272 55.2241L175.723 54.5961ZM170.415 62.5001C170.211 63.3556 169.962 65.21 169.859 66.6366L170.691 66.6968C170.792 65.2901 171.036 63.4862 171.225 62.6935L170.415 62.5001ZM169.859 66.6366L169.672 69.2166L170.503 69.277L170.691 66.6969L169.859 66.6366ZM170.319 68.9006L168.748 67.8473L168.284 68.5395L169.855 69.5928L170.319 68.9006ZM168.747 67.8466C167.901 67.2825 166.155 65.9456 164.874 64.8738L164.339 65.513C165.632 66.5946 167.404 67.9526 168.286 68.5401L168.747 67.8466ZM164.874 64.8736C164.072 64.2031 163.427 63.6762 162.863 63.3285C162.29 62.9758 161.753 62.7784 161.166 62.8186C160.589 62.8581 160.03 63.1224 159.401 63.5438C158.772 63.9658 158.024 64.5798 157.073 65.3735L157.607 66.0133C158.567 65.2124 159.279 64.6289 159.865 64.2361C160.452 63.8426 160.864 63.6746 161.222 63.6501C161.569 63.6262 161.931 63.733 162.426 64.0381C162.93 64.3482 163.525 64.8329 164.339 65.5131L164.874 64.8736ZM157.072 65.3738L154.127 67.838L154.662 68.4771L157.607 66.013L157.072 65.3738ZM154.79 68.0285L154.522 67.2076L153.731 67.4658L153.998 68.2866L154.79 68.0285ZM154.522 67.2074C154.501 67.1416 154.469 66.967 154.436 66.6701C154.405 66.3864 154.376 66.0232 154.351 65.6043C154.301 64.767 154.268 63.72 154.267 62.6667L153.433 62.6684C153.435 63.736 153.468 64.799 153.519 65.6537C153.544 66.0809 153.574 66.4592 153.608 66.7618C153.64 67.0511 153.678 67.3073 153.731 67.4661L154.522 67.2074ZM154.267 62.6666C154.262 60.9687 154.286 59.9513 154.392 59.0801C154.497 58.2163 154.685 57.4851 155.025 56.3608L154.227 56.1193C153.883 57.2576 153.678 58.0434 153.565 58.9794C153.452 59.908 153.429 60.9731 153.433 62.6686L154.267 62.6666ZM155.025 56.3608C155.937 53.348 158.334 48.4913 161.057 44.1792L160.352 43.7343C157.61 48.0772 155.171 53.0055 154.227 56.1193L155.025 56.3608ZM161.057 44.1792C162.149 42.451 164.152 39.2804 165.512 37.1374L164.808 36.6911C163.448 38.8347 161.444 42.0059 160.352 43.7342L161.057 44.1792ZM165.512 37.1373C166.267 35.945 166.925 34.8252 167.421 33.8945C167.909 32.9777 168.261 32.2065 168.377 31.7269L167.567 31.5316C167.479 31.8954 167.177 32.5807 166.686 33.5027C166.202 34.4107 165.556 35.5118 164.808 36.6911L165.512 37.1373ZM168.377 31.7268C169.507 27.0347 172.852 23.6998 177.596 22.5356L177.397 21.7262C172.355 22.9636 168.771 26.5321 167.567 31.5316L168.377 31.7268ZM177.596 22.5356C177.827 22.4791 178.21 22.333 178.681 22.135C179.162 21.9327 179.761 21.6645 180.436 21.3499C181.788 20.7206 183.456 19.9018 185.115 19.0462L184.733 18.3056C183.082 19.1566 181.425 19.9704 180.084 20.5944C179.414 20.9065 178.825 21.1701 178.357 21.3668C177.88 21.5678 177.555 21.6877 177.397 21.7262L177.596 22.5356ZM185.115 19.0462C199.387 11.6889 209.092 8.78665 220.844 8.32642L220.812 7.49372C208.902 7.96013 199.077 10.9112 184.733 18.3056L185.115 19.0462ZM220.845 8.32642C221.992 8.2813 223.14 8.26361 224.288 8.27338L224.295 7.44008C223.134 7.4302 221.972 7.44809 220.812 7.49372L220.845 8.32642ZM224.292 7.44006H224.291V8.2734H224.292V7.44006ZM229.013 48.2503L231.227 48.6428L231.372 47.8223L229.158 47.4298L229.013 48.2503ZM231.227 48.6429C235.458 49.3872 238.947 50.3915 241.832 51.6924L242.175 50.9327C239.209 49.5953 235.648 48.5746 231.372 47.8222L231.227 48.6429ZM241.832 51.6924C242.733 52.0988 243.156 52.3156 243.404 52.5402C243.619 52.7338 243.718 52.9458 243.869 53.4718L244.671 53.2417C244.513 52.6944 244.362 52.2826 243.962 51.9216C243.597 51.5916 243.04 51.323 242.175 50.9327L241.832 51.6924ZM243.87 53.4723C243.947 53.7402 244.02 54.3263 244.077 55.1179C244.132 55.8941 244.168 56.828 244.183 57.7639C244.198 58.6998 244.192 59.6331 244.162 60.408C244.132 61.1988 244.077 61.7821 244.01 62.0462L244.817 62.2539C244.911 61.8897 244.965 61.218 244.995 60.4401C245.026 59.6464 245.032 58.6974 245.017 57.7504C245.002 56.8034 244.964 55.8538 244.907 55.0588C244.852 54.2792 244.776 53.6066 244.67 53.2411L243.87 53.4723ZM244.01 62.0456C243.918 62.4009 243.872 62.751 244.062 63.1139C244.227 63.4301 244.551 63.7038 244.973 64.0256L245.478 63.3628C245.033 63.0238 244.866 62.8538 244.8 62.7272C244.757 62.6475 244.738 62.5559 244.817 62.2545L244.01 62.0456ZM244.972 64.0253L245.989 64.802L246.495 64.1398L245.478 63.3631L244.972 64.0253ZM246.421 64.8474L248.171 64.0174L247.814 63.2644L246.064 64.0944L246.421 64.8474ZM248.172 64.0171C250.708 62.8099 253.788 60.6231 256.602 58.0475L256.04 57.4326C253.265 59.9721 250.253 62.1036 247.813 63.2646L248.172 64.0171ZM256.603 58.0474L259.022 55.8332L258.459 55.2186L256.04 57.4327L256.603 58.0474ZM258.344 55.6537L258.782 57.0112L259.575 56.7556L259.137 55.3981L258.344 55.6537ZM258.782 57.0112C259.466 59.1349 260.082 62.5571 260.082 64.1851H260.916C260.916 62.4463 260.277 58.9353 259.575 56.7556L258.782 57.0112ZM260.082 64.1851C260.082 65.4882 260.132 66.3701 260.367 66.9956C260.624 67.6826 261.087 68.0295 261.738 68.3232L262.081 67.5636C261.538 67.319 261.297 67.1029 261.147 66.7034C260.974 66.2425 260.916 65.5144 260.916 64.1851H260.082ZM261.739 68.3234L262.81 68.8051L263.152 68.0451L262.081 67.5634L261.739 68.3234ZM263.198 68.7802L265.162 67.5752L264.727 66.8649L262.763 68.0699L263.198 68.7802ZM265.162 67.5755C268.592 65.4768 272.543 62.0863 274.47 59.5638L273.808 59.058C271.958 61.4788 268.093 64.805 264.727 66.8646L265.162 67.5755ZM274.47 59.5641C274.657 59.3199 274.847 59.1017 274.998 58.9484C275.075 58.8709 275.135 58.8171 275.176 58.7858C275.197 58.7698 275.204 58.7663 275.199 58.7687C275.197 58.7701 275.185 58.7761 275.167 58.7824C275.149 58.7881 275.112 58.7992 275.059 58.7992V57.9659C274.938 57.9659 274.844 58.0136 274.806 58.0343C274.755 58.0616 274.707 58.0946 274.667 58.1257C274.585 58.1887 274.496 58.2712 274.407 58.3619C274.225 58.5451 274.012 58.7911 273.808 59.0577L274.47 59.5641ZM275.059 58.7992C275.151 58.7992 275.223 58.7725 275.264 58.7551C275.308 58.7359 275.347 58.7128 275.377 58.693C275.438 58.6536 275.5 58.6041 275.556 58.5566C275.666 58.4636 275.811 58.3292 275.949 58.2056C276.247 57.9389 276.578 57.6657 276.897 57.5152C277.212 57.3667 277.407 57.3818 277.558 57.5012C277.757 57.6581 278.013 58.0869 278.165 59.123L278.99 59.0021C278.832 57.9261 278.538 57.214 278.075 56.8474C277.563 56.4432 276.985 56.5522 276.541 56.7617C276.102 56.9692 275.692 57.3181 275.394 57.5841C275.234 57.7266 275.117 57.8362 275.017 57.9205C274.969 57.9616 274.939 57.9841 274.923 57.9946C274.915 57.9997 274.919 57.996 274.933 57.99C274.943 57.9857 274.99 57.9659 275.059 57.9659V58.7992ZM162.139 68.5121L162.496 66.968L161.684 66.7805L161.327 68.3246L162.139 68.5121ZM161.827 67.1976L163.399 68.4743L163.924 67.8275L162.352 66.5508L161.827 67.1976ZM163.4 68.4751C165.318 70.0238 167.023 71.1842 169.25 72.4412L169.66 71.7156C167.472 70.4809 165.805 69.3463 163.923 67.8267L163.4 68.4751ZM169.252 72.4421L170.912 73.3704L171.318 72.6431L169.658 71.7147L169.252 72.4421ZM171.344 73.3547L172.442 72.6314L171.984 71.9354L170.886 72.6587L171.344 73.3547ZM172.443 72.631L173.55 71.8993L173.09 71.2041L171.983 71.9358L172.443 72.631ZM173.737 71.5467L173.692 67.8867L172.859 67.8967L172.903 71.5567L173.737 71.5467ZM173.692 67.8868C173.662 65.3286 173.816 63.5855 174.253 62.2311C174.685 60.8961 175.402 59.9126 176.559 58.8936L176.009 58.2682C174.766 59.3625 173.948 60.4665 173.461 61.9746C172.979 63.4634 172.828 65.3191 172.859 67.8966L173.692 67.8868ZM176.559 58.8936C177.014 58.4933 177.446 58.1467 177.772 57.9123C177.937 57.7938 178.067 57.7111 178.153 57.6642C178.198 57.6396 178.217 57.6336 178.214 57.6344C178.213 57.6346 178.191 57.642 178.154 57.6435C178.122 57.6447 178.031 57.6435 177.936 57.5797L178.399 56.8872C178.29 56.8138 178.179 56.8085 178.122 56.8107C178.059 56.8132 178.006 56.8266 177.969 56.8379C177.895 56.8607 177.822 56.8962 177.757 56.931C177.625 57.0026 177.463 57.1089 177.287 57.2351C176.932 57.4901 176.478 57.8551 176.009 58.2681L176.559 58.8936ZM177.937 57.5801C177.907 57.5605 177.9 57.5486 177.932 57.5817C177.953 57.605 177.985 57.6396 178.025 57.6865C178.105 57.7797 178.211 57.9094 178.337 58.0675C178.587 58.383 178.906 58.8018 179.233 59.2471L179.905 58.7531C179.572 58.3016 179.247 57.8746 178.989 57.5497C178.861 57.3876 178.747 57.2485 178.657 57.1435C178.612 57.0912 178.571 57.0445 178.534 57.0065C178.507 56.9781 178.456 56.9251 178.398 56.8867L177.937 57.5801ZM179.233 59.247C180.814 61.3955 183.652 63.7246 186.446 65.1899L186.832 64.4519C184.128 63.0338 181.397 60.7813 179.905 58.7531L179.233 59.247ZM186.446 65.1899L188.606 66.3232L188.992 65.5852L186.832 64.4519L186.446 65.1899ZM189.007 66.3155L190.078 65.6996L189.663 64.9771L188.592 65.593L189.007 66.3155ZM190.076 65.7009L191.147 65.0942L190.736 64.3692L189.665 64.9759L190.076 65.7009ZM191.357 64.7607L191.554 61.9399L190.722 61.8819L190.526 64.7027L191.357 64.7607ZM191.554 61.94C191.774 58.7918 192.166 56.4694 192.84 54.2854L192.043 54.0397C191.346 56.3024 190.946 58.6916 190.722 61.8818L191.554 61.94ZM192.84 54.2852C192.982 53.8247 193.072 53.547 193.227 53.3129C193.372 53.0938 193.592 52.8869 194.039 52.6397C194.968 52.1266 196.709 51.5252 200.289 50.2984L200.019 49.5101C196.487 50.7208 194.647 51.3518 193.637 51.9102C193.114 52.1987 192.774 52.4873 192.532 52.8539C192.3 53.2055 192.177 53.6038 192.043 54.0399L192.84 54.2852ZM200.289 50.2984L204.931 48.7092L204.661 47.9209L200.019 49.5101L200.289 50.2984ZM204.506 48.614L206.023 50.0873L206.603 49.4895L205.086 48.0161L204.506 48.614ZM206.022 50.0872C207.357 51.3836 209.344 52.786 211.306 53.9135C213.257 55.0347 215.243 55.9198 216.575 56.1356L216.708 55.3129C215.535 55.1228 213.658 54.3041 211.722 53.191C209.796 52.0841 207.872 50.7215 206.603 49.4896L206.022 50.0872ZM216.575 56.1355C217.217 56.2397 217.974 56.1411 218.782 55.904C219.594 55.6651 220.486 55.2771 221.408 54.7718C223.252 53.7614 225.25 52.2654 227.023 50.4941L226.435 49.9044C224.712 51.6248 222.777 53.0716 221.008 54.041C220.123 54.5256 219.287 54.8867 218.547 55.1044C217.8 55.3237 217.178 55.3892 216.708 55.313L216.575 56.1355ZM227.024 50.4938L229.381 48.1363L228.791 47.5471L226.434 49.9046L227.024 50.4938ZM229.502 47.8417V47.8401H228.669V47.8417H229.502ZM288.304 50.5916L289.777 52.5374L290.442 52.0344L288.969 50.0886L288.304 50.5916ZM289.777 52.5365C293.427 57.3851 294.253 61.9377 292.398 66.1324L293.16 66.4694C295.173 61.9174 294.214 57.045 290.442 52.0353L289.777 52.5365ZM278.982 58.9636C278.864 58.4801 278.798 58.2279 278.768 58.1276C278.764 58.114 278.759 58.0992 278.754 58.0851C278.752 58.0781 278.748 58.0685 278.744 58.0578C278.741 58.0501 278.732 58.0285 278.717 58.0034C278.712 57.9921 278.695 57.9644 278.668 57.9338C278.654 57.9182 278.63 57.8929 278.595 57.868C278.561 57.844 278.497 57.8071 278.409 57.7954C278.309 57.7824 278.208 57.8056 278.124 57.8613C278.049 57.911 278.008 57.9726 277.988 58.0096C277.951 58.0779 277.943 58.1393 277.941 58.1543C277.935 58.1961 277.937 58.2301 277.937 58.2371C277.938 58.2506 277.94 58.262 277.941 58.2693C277.946 58.313 277.959 58.3801 277.972 58.4382C277.999 58.5691 278.044 58.7602 278.086 58.9175C278.106 58.9946 278.128 59.0723 278.148 59.1325C278.157 59.1585 278.172 59.2013 278.194 59.242C278.2 59.2537 278.209 59.27 278.221 59.2881C278.232 59.3042 278.253 59.3342 278.286 59.3653C278.314 59.3913 278.389 59.4559 278.509 59.475C278.575 59.4855 278.646 59.4809 278.717 59.4558C278.785 59.4314 278.836 59.3931 278.872 59.3572L278.282 58.768C278.318 58.7328 278.368 58.6951 278.436 58.6711C278.505 58.6463 278.576 58.6418 278.64 58.6521C278.758 58.6709 278.832 58.7342 278.857 58.758C278.887 58.7869 278.907 58.8138 278.914 58.826C278.924 58.8401 278.93 58.8516 278.933 58.8576C278.942 58.8757 278.944 58.8829 278.937 58.8631C278.927 58.8316 278.91 58.7769 278.891 58.7042C278.853 58.5621 278.812 58.3847 278.787 58.2656C278.772 58.1988 278.768 58.1706 278.768 58.1718C278.768 58.1738 278.769 58.1808 278.77 58.1906C278.77 58.1941 278.772 58.2254 278.767 58.2654C278.765 58.2795 278.757 58.3402 278.72 58.4081C278.7 58.4449 278.659 58.5063 278.584 58.556C278.501 58.6116 278.4 58.6347 278.301 58.6217C278.212 58.6101 278.149 58.5732 278.115 58.5494C278.08 58.5246 278.056 58.4995 278.042 58.4841C278.016 58.4541 278 58.4272 277.994 58.417C277.981 58.3939 277.973 58.3753 277.972 58.3718C277.969 58.3653 277.968 58.3609 277.967 58.3601C277.967 58.3586 277.968 58.3609 277.971 58.3691C277.993 58.4432 278.053 58.6713 278.172 59.1615L278.982 58.9636ZM278.874 59.3548C278.785 59.4458 278.683 59.4643 278.669 59.4671C278.638 59.4735 278.615 59.4739 278.61 59.474C278.597 59.4741 278.595 59.4731 278.612 59.4751C278.643 59.4786 278.697 59.4873 278.778 59.5031C278.937 59.5339 279.167 59.5857 279.452 59.6554C280.022 59.7944 280.798 60.0002 281.641 60.24L281.869 59.4385C281.019 59.1966 280.232 58.9878 279.65 58.8458C279.359 58.775 279.115 58.7196 278.937 58.6851C278.85 58.6681 278.771 58.6544 278.707 58.6471C278.677 58.6436 278.637 58.6401 278.597 58.6407C278.577 58.6411 278.543 58.6424 278.503 58.6505C278.481 58.655 278.373 58.6761 278.281 58.7703L278.874 59.3548ZM281.641 60.24C283.287 60.7085 284.45 60.9471 285.297 60.8901C285.733 60.8606 286.107 60.7521 286.425 60.5413C286.743 60.331 286.973 60.0397 287.157 59.6968L286.422 59.3033C286.283 59.5633 286.136 59.7334 285.965 59.8466C285.795 59.9592 285.57 60.0365 285.241 60.0586C284.557 60.1046 283.526 59.91 281.869 59.4385L281.641 60.24ZM287.157 59.6967C287.29 59.4496 287.445 58.9704 287.602 58.4085C287.764 57.8297 287.941 57.1166 288.11 56.3682C288.447 54.8762 288.759 53.2178 288.864 52.1866L288.036 52.1018C287.935 53.0823 287.632 54.7018 287.297 56.1848C287.13 56.924 286.957 57.6226 286.8 58.1837C286.638 58.7617 286.504 59.1506 286.422 59.3034L287.157 59.6967ZM288.864 52.1873L289.052 50.384L288.223 50.2978L288.036 52.1011L288.864 52.1873ZM288.931 50.0451L288.93 50.0443L288.343 50.6358L288.344 50.6366L288.931 50.0451ZM151.495 56.8001C151.306 56.8001 151.194 56.6808 151.151 56.6156C151.112 56.5563 151.099 56.5026 151.096 56.4867C151.09 56.4645 151.089 56.4478 151.088 56.4413C151.087 56.4336 151.087 56.429 151.087 56.4284C151.087 56.4276 151.087 56.4326 151.087 56.4458C151.086 56.4582 151.085 56.4747 151.082 56.4956C151.074 56.5815 151.057 56.7136 151.031 56.886C150.977 57.2282 150.893 57.7045 150.792 58.2318L151.61 58.39C151.713 57.8565 151.799 57.369 151.854 57.0127C151.882 56.8358 151.902 56.685 151.912 56.5751C151.917 56.5227 151.922 56.4663 151.921 56.4171C151.921 56.3967 151.919 56.3511 151.907 56.3001C151.902 56.2776 151.887 56.2188 151.847 56.1561C151.801 56.0876 151.687 55.9667 151.495 55.9667V56.8001ZM150.792 58.2317C150.303 60.7545 150.321 63.8732 150.677 66.4446C150.856 67.7306 151.121 68.8983 151.46 69.7961C151.629 70.2446 151.822 70.6396 152.04 70.9514C152.255 71.2584 152.52 71.5204 152.847 71.6446L153.143 70.8656C153.037 70.8251 152.891 70.7135 152.722 70.4732C152.557 70.2379 152.394 69.9121 152.239 69.5019C151.93 68.6824 151.676 67.5807 151.502 66.3301C151.156 63.8281 151.142 60.804 151.61 58.3901L150.792 58.2317ZM152.847 71.6446C153.516 71.899 154.086 72.0038 154.726 71.7988C155.326 71.6064 155.942 71.1527 156.756 70.4547L156.213 69.8221C155.392 70.5266 154.892 70.8704 154.471 71.0052C154.089 71.1276 153.732 71.0895 153.143 70.8656L152.847 71.6446ZM156.756 70.455C157.783 69.5757 158.375 69.0969 158.676 68.9116C158.75 68.8655 158.78 68.8548 158.779 68.8552C158.778 68.8556 158.746 68.866 158.695 68.8631C158.638 68.8598 158.548 68.8381 158.469 68.7625C158.395 68.6901 158.372 68.609 158.366 68.5677C158.362 68.5466 158.362 68.5304 158.362 68.5214C158.362 68.5121 158.363 68.5067 158.363 68.5061C158.363 68.5058 158.362 68.5147 158.356 68.5356C158.35 68.5556 158.341 68.5818 158.328 68.6151L159.107 68.9134C159.141 68.8244 159.173 68.7244 159.188 68.6281C159.195 68.5796 159.201 68.5124 159.189 68.4381C159.177 68.3619 159.142 68.2538 159.048 68.1628C158.85 67.9715 158.602 68.0375 158.533 68.059C158.432 68.0901 158.331 68.1452 158.238 68.2022C157.869 68.4295 157.222 68.9594 156.214 69.8218L156.756 70.455ZM260.989 29.3434L260.962 28.5105L260.961 28.5106L260.989 29.3434ZM260.168 29.4151L260.072 28.5872L260.071 28.5874L260.168 29.4151ZM247.082 35.8067L247.529 36.5096V36.5095L247.082 35.8067ZM239.092 40.8151H238.258V41.7041L239.146 41.6467L239.092 40.8151ZM241.163 40.6809L241.217 41.5125L241.218 41.5124L241.163 40.6809ZM245.091 39.7976L245.401 40.5711V40.5709L245.091 39.7976ZM251.447 38.8509L251.41 38.0184L251.447 38.8509ZM255.946 38.6542L255.982 39.4868L256.297 39.473L256.525 39.2536L255.946 38.6542ZM256.99 37.6459L257.569 38.2453L257.57 38.2438L256.99 37.6459ZM261.945 31.4234L262.254 32.1971L262.255 32.1971L261.945 31.4234ZM262.382 29.8967L262.953 29.2896L262.952 29.2886L262.382 29.8967ZM226.846 31.1467L226.864 31.9799L226.846 31.1467ZM224.525 33.1017L223.832 32.6395L223.827 32.6463L224.525 33.1017ZM222.097 37.1992L221.362 36.8057L221.358 36.8133L222.097 37.1992ZM220.963 39.3684L220.225 38.9825L219.91 39.5851L220.437 40.0146L220.963 39.3684ZM221.632 39.9134L221.106 40.5596L221.108 40.5611L221.632 39.9134ZM223.23 39.5292L223.997 39.8527L223.998 39.8524L223.23 39.5292ZM227.801 33.3792L227.25 32.7536V32.7536L227.801 33.3792ZM229.131 32.2092L229.681 32.8349L230.503 32.1116L229.587 31.5119L229.131 32.2092ZM228.407 31.7359L227.951 32.433V32.4332L228.407 31.7359ZM210.171 32.4859L210.902 32.0875L210.515 31.3758L209.793 31.7431L210.171 32.4859ZM209.135 33.0126L208.757 32.2697L208.756 32.2703L209.135 33.0126ZM207.582 34.1109L208.199 34.6701L208.2 34.6692L207.582 34.1109ZM208.349 35.9759L208.938 35.3868V35.3865L208.349 35.9759ZM212.848 41.9576L212.106 42.3364V42.3367L212.848 41.9576ZM214.223 42.7517L213.83 42.0169V42.0171L214.223 42.7517ZM212.634 37.0117L213.366 36.6136V36.6133L212.634 37.0117ZM258.367 33.3784L258.322 34.2106L258.345 34.2117H258.367V33.3784ZM258.402 33.3867L258.993 32.7989L258.97 32.7755L258.945 32.754L258.402 33.3867ZM255.912 36.1901L255.518 35.4554L255.517 35.4563L255.912 36.1901ZM253.153 36.8776L253.009 36.0568L253.008 36.0569L253.153 36.8776ZM250.092 37.4584L250.272 38.2719L250.274 38.2715L250.092 37.4584ZM250.993 36.6367L251.407 37.3601V37.3601L250.993 36.6367ZM175.962 38.1726L175.964 39.0059H175.965L175.962 38.1726ZM173.16 39.3142L172.519 38.7818L172.518 38.7828L173.16 39.3142ZM172.213 40.4576L171.572 39.9261L170.442 41.2909H172.213V40.4576ZM175.731 41.8592L175.227 42.5235V42.5236L175.731 41.8592ZM178.694 43.8592L178.3 44.5935L178.301 44.5938L178.694 43.8592ZM185.389 43.7342L185.542 44.5535L185.389 43.7342ZM191.549 43.1984L191.482 44.0291L191.549 43.1984ZM194.718 42.9301L195.101 43.6705V43.6702L194.718 42.9301ZM196.396 39.1451L197.092 38.6882L197.092 38.6868L196.396 39.1451ZM195.932 38.4401L196.627 37.9818L196.065 37.1278L195.342 37.8508L195.932 38.4401ZM194.637 39.7342L194.048 39.145L194.637 39.7342ZM187.166 40.1809L186.962 40.9891L187.166 40.1809ZM176.936 40.7517L176.813 39.9274L176.805 39.9287L176.796 39.9301L176.936 40.7517ZM177.016 40.7517L177.048 39.9191L177.032 39.9184H177.016V40.7517ZM185.086 41.9301L184.94 42.7506L184.942 42.7508L185.086 41.9301ZM187.219 42.3051L187.32 43.1322L187.363 41.4843L187.219 42.3051ZM184.372 42.6534L184.472 43.4806L184.472 43.4806L184.372 42.6534ZM178.622 42.1717L178.207 42.8945L178.208 42.8948L178.622 42.1717ZM260.961 28.5106C260.704 28.5192 260.407 28.5486 260.072 28.5872L260.264 30.2429C260.592 30.2049 260.832 30.1826 261.017 30.1762L260.961 28.5106ZM260.071 28.5874C258.337 28.7912 257.036 29.0956 255.113 30.0342C253.237 30.9504 250.752 32.479 246.633 35.104L247.529 36.5095C251.668 33.8712 254.07 32.3985 255.845 31.5319C257.573 30.6878 258.687 30.4281 260.266 30.2427L260.071 28.5874ZM246.634 35.1039C243.846 36.8802 241.804 37.6242 240.182 37.6242V39.2909C242.286 39.2909 244.659 38.3382 247.529 36.5096L246.634 35.1039ZM240.182 37.6242C239.932 37.6242 239.667 37.6228 239.452 37.6486C239.237 37.6745 238.889 37.7447 238.617 38.0385C238.357 38.3191 238.302 38.6615 238.28 38.8688C238.257 39.0876 238.258 39.3599 238.258 39.6359H239.925C239.925 39.4864 239.925 39.3661 239.927 39.263C239.929 39.1591 239.932 39.0892 239.937 39.0406C239.943 38.99 239.947 38.9872 239.94 39.0094C239.931 39.0372 239.903 39.1025 239.84 39.1712C239.704 39.3177 239.561 39.3143 239.652 39.3034C239.688 39.2989 239.747 39.2951 239.841 39.293C239.934 39.291 240.042 39.2909 240.182 39.2909V37.6242ZM238.258 39.6359V40.8151H239.925V39.6359H238.258ZM239.146 41.6467L241.217 41.5125L241.109 39.8493L239.037 39.9835L239.146 41.6467ZM241.218 41.5124C242.591 41.4209 244.162 41.0671 245.401 40.5711L244.781 39.024C243.71 39.453 242.311 39.7692 241.107 39.8494L241.218 41.5124ZM245.401 40.5709C246.87 39.9812 247.587 39.8547 251.483 39.6834L251.41 38.0184C247.498 38.1904 246.533 38.3206 244.78 39.0242L245.401 40.5709ZM251.483 39.6835L255.982 39.4868L255.909 37.8217L251.41 38.0184L251.483 39.6835ZM256.525 39.2536L257.569 38.2453L256.411 37.0465L255.367 38.0548L256.525 39.2536ZM257.57 38.2438C258.151 37.68 259.147 36.3566 259.967 35.1697C260.385 34.5641 260.776 33.9674 261.065 33.4848C261.209 33.245 261.335 33.0214 261.427 32.8331C261.473 32.7396 261.518 32.6415 261.552 32.5463C261.579 32.4753 261.635 32.3148 261.635 32.1292H259.968C259.968 32.0045 260.002 31.9325 259.987 31.9745C259.981 31.9924 259.964 32.0318 259.932 32.0972C259.868 32.2263 259.769 32.4054 259.636 32.6277C259.371 33.0692 259.002 33.6342 258.596 34.2224C257.767 35.4227 256.856 36.6143 256.409 37.048L257.57 38.2438ZM261.635 32.1292C261.635 32.356 261.537 32.5038 261.512 32.5397C261.494 32.5671 261.478 32.5856 261.469 32.5952C261.46 32.6053 261.454 32.6106 261.453 32.6113C261.452 32.6121 261.462 32.604 261.485 32.5875C261.507 32.5716 261.537 32.5517 261.575 32.5282C261.732 32.4309 261.973 32.3095 262.254 32.1971L261.636 30.6496C261.287 30.789 260.957 30.9513 260.7 31.1094C260.575 31.1865 260.442 31.278 260.33 31.3806C260.274 31.4311 260.202 31.5045 260.137 31.5992C260.082 31.6799 259.968 31.8679 259.968 32.1292H261.635ZM262.255 32.1971C262.582 32.0656 262.887 31.9391 263.118 31.808C263.31 31.7001 263.688 31.467 263.817 31.0177C263.961 30.5155 263.702 30.1143 263.562 29.9286C263.405 29.7206 263.18 29.5024 262.953 29.2896L261.812 30.5039C261.926 30.611 262.017 30.6988 262.089 30.7736C262.164 30.8499 262.207 30.9001 262.231 30.9316C262.257 30.9664 262.238 30.9506 262.218 30.8937C262.207 30.8618 262.196 30.8139 262.192 30.7532C262.189 30.6909 262.196 30.6245 262.214 30.5586C262.252 30.4256 262.323 30.3517 262.344 30.3316C262.362 30.3144 262.357 30.3236 262.3 30.3564C262.245 30.3873 262.165 30.4267 262.05 30.4775C261.936 30.5277 261.8 30.5839 261.635 30.6497L262.255 32.1971ZM262.952 29.2886C262.706 29.0574 262.433 28.8272 262.082 28.6804C261.721 28.5288 261.353 28.4977 260.962 28.5105L261.017 30.1763C261.289 30.1674 261.387 30.1959 261.439 30.2179C261.503 30.2446 261.596 30.3019 261.812 30.5048L262.952 29.2886ZM226.827 30.3136C226.201 30.3272 225.663 30.5911 225.187 31.0003C224.726 31.396 224.287 31.9561 223.832 32.6395L225.218 33.564C225.647 32.9199 225.986 32.5108 226.272 32.265C226.542 32.0328 226.723 31.9829 226.864 31.9799L226.827 30.3136ZM223.827 32.6463C222.946 33.9966 222.123 35.3844 221.362 36.8057L222.831 37.5927C223.57 36.2137 224.367 34.8672 225.222 33.5571L223.827 32.6463ZM221.358 36.8133L220.225 38.9825L221.702 39.7543L222.835 37.5851L221.358 36.8133ZM220.437 40.0146L221.106 40.5596L222.158 39.2672L221.489 38.7222L220.437 40.0146ZM221.108 40.5611C221.342 40.7511 221.583 40.9321 221.818 41.0557C222.05 41.1776 222.4 41.3093 222.8 41.2132C223.204 41.1163 223.455 40.8373 223.606 40.6188C223.756 40.3996 223.882 40.1276 223.997 39.8527L222.462 39.2057C222.409 39.331 222.364 39.4316 222.323 39.5126C222.282 39.5946 222.252 39.6453 222.232 39.6751C222.183 39.7455 222.235 39.6348 222.412 39.5926C222.584 39.5511 222.677 39.6239 222.593 39.5803C222.559 39.5621 222.506 39.53 222.429 39.4754C222.353 39.4215 222.264 39.3526 222.157 39.2656L221.108 40.5611ZM223.998 39.8524C224.277 39.1891 225.012 38.033 225.891 36.8492C226.766 35.6721 227.707 34.5722 228.352 34.0048L227.25 32.7536C226.472 33.4387 225.447 34.6514 224.553 35.855C223.664 37.0517 222.824 38.3443 222.462 39.2061L223.998 39.8524ZM228.351 34.0049L229.681 32.8349L228.58 31.5836L227.25 32.7536L228.351 34.0049ZM229.587 31.5119L228.863 31.0386L227.951 32.4332L228.674 32.9066L229.587 31.5119ZM228.864 31.0388C228.217 30.6149 227.544 30.2981 226.827 30.3136L226.864 31.9799C227.067 31.9755 227.389 32.0652 227.951 32.433L228.864 31.0388ZM209.793 31.7431L208.757 32.2697L209.512 33.7554L210.548 33.2287L209.793 31.7431ZM208.756 32.2703C208.139 32.5849 207.343 33.1309 206.963 33.5526L208.2 34.6692C208.392 34.4575 208.99 34.0219 209.513 33.7549L208.756 32.2703ZM206.963 33.5517C206.858 33.6686 206.673 33.8674 206.561 34.0979C206.407 34.4146 206.393 34.7603 206.532 35.0996C206.641 35.3625 206.832 35.5949 207.007 35.7903C207.196 36.0002 207.45 36.2557 207.76 36.5653L208.938 35.3865C208.619 35.0677 208.4 34.8461 208.247 34.6763C208.082 34.492 208.064 34.442 208.074 34.466C208.085 34.4935 208.105 34.5564 208.102 34.6426C208.1 34.7296 208.076 34.7945 208.059 34.8271C208.047 34.8528 208.042 34.8537 208.069 34.8193C208.097 34.7851 208.135 34.7409 208.199 34.6701L206.963 33.5517ZM207.76 36.565C209.212 38.0186 211.371 40.8962 212.106 42.3364L213.591 41.5787C212.761 39.9522 210.487 36.9365 208.938 35.3868L207.76 36.565ZM212.106 42.3367C212.252 42.6213 212.382 42.8757 212.501 43.0702C212.608 43.2452 212.782 43.5047 213.062 43.6675C213.417 43.8731 213.77 43.8373 214.024 43.7581C214.233 43.6932 214.452 43.5746 214.617 43.4863L213.83 42.0171C213.735 42.0678 213.667 42.1038 213.611 42.131C213.584 42.144 213.564 42.1529 213.549 42.159C213.535 42.1651 213.529 42.1668 213.53 42.1665C213.53 42.1664 213.578 42.1511 213.655 42.1546C213.742 42.1584 213.827 42.1843 213.899 42.2256C213.961 42.2616 213.988 42.2956 213.984 42.2906C213.979 42.2851 213.959 42.2602 213.922 42.1993C213.844 42.0719 213.746 41.8826 213.59 41.5784L212.106 42.3367ZM214.617 43.4866C214.919 43.3246 215.317 43.0715 215.53 42.6046C215.745 42.1338 215.692 41.6307 215.562 41.1606C215.311 40.2528 214.587 38.8594 213.366 36.6136L211.902 37.4099C213.167 39.7341 213.768 40.9269 213.956 41.6047C214.045 41.9275 213.989 41.967 214.014 41.9116C214.037 41.8601 214.058 41.8951 213.83 42.0169L214.617 43.4866ZM213.366 36.6133L210.902 32.0875L209.439 32.8843L211.902 37.4101L213.366 36.6133ZM258.367 34.2117C258.317 34.2117 258.262 34.2067 258.202 34.1929C258.171 34.1859 258.128 34.1742 258.078 34.1537C258.035 34.1357 257.95 34.0962 257.86 34.0195L258.945 32.754C258.784 32.6161 258.615 32.5778 258.574 32.5685C258.502 32.5518 258.432 32.5451 258.367 32.5451V34.2117ZM257.812 33.9746C257.503 33.6642 257.59 33.2921 257.594 33.2715C257.611 33.1936 257.635 33.1521 257.627 33.1681C257.616 33.1891 257.578 33.2523 257.498 33.3637C257.345 33.5768 257.107 33.8671 256.833 34.1748C256.562 34.4804 256.269 34.7875 256.012 35.034C255.883 35.1574 255.769 35.2603 255.674 35.3381C255.627 35.3769 255.589 35.4065 255.559 35.4278C255.527 35.4504 255.515 35.4571 255.518 35.4554L256.305 36.9247C256.575 36.78 256.896 36.4954 257.165 36.2371C257.461 35.954 257.784 35.6137 258.079 35.282C258.372 34.9524 258.651 34.6154 258.85 34.3387C258.947 34.2053 259.044 34.0581 259.115 33.919C259.147 33.8548 259.197 33.7459 259.225 33.615C259.241 33.5414 259.323 33.131 258.993 32.7989L257.812 33.9746ZM255.517 35.4563C255.517 35.4557 255.451 35.4861 255.275 35.5411C255.117 35.5903 254.912 35.6469 254.671 35.7068C254.191 35.8265 253.597 35.9534 253.009 36.0568L253.297 37.6983C253.922 37.5885 254.554 37.4536 255.074 37.324C255.334 37.2591 255.572 37.1941 255.77 37.1324C255.95 37.0763 256.153 37.0065 256.307 36.9239L255.517 35.4563ZM253.008 36.0569C251.797 36.2708 250.401 36.5347 249.909 36.6453L250.274 38.2715C250.724 38.1704 252.084 37.9126 253.298 37.6982L253.008 36.0569ZM249.911 36.6449C249.882 36.6513 249.859 36.6558 249.842 36.6587C249.826 36.6617 249.818 36.6625 249.819 36.6624C249.819 36.6624 249.824 36.662 249.831 36.6616C249.838 36.6613 249.851 36.6609 249.868 36.6615C249.892 36.6622 249.972 36.6658 250.075 36.7019C250.176 36.7373 250.395 36.8403 250.524 37.1016C250.658 37.3716 250.603 37.619 250.56 37.7366C250.518 37.8493 250.462 37.9197 250.445 37.9403C250.432 37.955 250.423 37.9654 250.417 37.9713C250.411 37.9775 250.407 37.981 250.407 37.9818C250.405 37.9831 250.41 37.9786 250.423 37.9679C250.437 37.9576 250.455 37.9437 250.48 37.9261C250.53 37.8906 250.597 37.8454 250.685 37.7897C250.861 37.6783 251.099 37.5361 251.407 37.3601L250.58 35.9133C249.981 36.2556 249.51 36.5431 249.282 36.7521C249.242 36.7878 249.081 36.9314 248.997 37.1571C248.946 37.2948 248.891 37.5591 249.032 37.8429C249.168 38.1178 249.401 38.2313 249.522 38.2741C249.733 38.3483 249.932 38.3261 249.988 38.3205C250.083 38.3108 250.182 38.2921 250.272 38.2719L249.911 36.6449ZM251.407 37.3601C252.302 36.8482 253.993 36.0418 255.539 35.3596C256.307 35.0205 257.027 34.718 257.579 34.5032C257.857 34.3954 258.082 34.3134 258.246 34.2604C258.329 34.2336 258.385 34.2178 258.419 34.2097C258.479 34.1955 258.424 34.2159 258.322 34.2106L258.411 32.5462C258.25 32.5378 258.1 32.5726 258.032 32.5885C257.94 32.6106 257.837 32.6408 257.734 32.6743C257.525 32.7418 257.265 32.8371 256.975 32.95C256.392 33.1768 255.648 33.49 254.867 33.8348C253.312 34.5208 251.554 35.3561 250.579 35.9134L251.407 37.3601ZM175.961 37.3392C175.515 37.3402 175.138 37.3424 174.827 37.3655C174.511 37.3889 174.207 37.437 173.912 37.5566C173.322 37.7971 172.942 38.2731 172.519 38.7818L173.801 39.8467C174.301 39.2445 174.414 39.1518 174.541 39.1001C174.606 39.0738 174.716 39.045 174.951 39.0276C175.191 39.0097 175.503 39.007 175.964 39.0059L175.961 37.3392ZM172.518 38.7828L171.572 39.9261L172.855 40.9891L173.802 39.8457L172.518 38.7828ZM172.213 41.2909H173.043V39.6242H172.213V41.2909ZM173.043 41.2909C173.117 41.2909 173.335 41.3323 173.747 41.5472C174.139 41.7512 174.632 42.0718 175.227 42.5235L176.234 41.195C175.597 40.7125 175.022 40.3322 174.517 40.069C174.032 39.8166 173.523 39.6242 173.043 39.6242V41.2909ZM175.227 42.5236C176.257 43.3032 177.631 44.2342 178.3 44.5935L179.088 43.125C178.534 42.8276 177.242 41.9586 176.234 41.1948L175.227 42.5236ZM178.301 44.5938C178.672 44.7931 179.037 44.9679 179.452 45.0844C179.872 45.2028 180.308 45.2513 180.827 45.2418C181.822 45.2236 183.22 44.9859 185.542 44.5535L185.237 42.915C182.865 43.3567 181.622 43.5603 180.797 43.5754C180.406 43.5826 180.137 43.5457 179.902 43.48C179.662 43.4123 179.422 43.3041 179.087 43.1246L178.301 44.5938ZM185.542 44.5535C188.58 43.9871 189.758 43.8902 191.482 44.0291L191.616 42.3677C189.677 42.2116 188.332 42.338 185.237 42.915L185.542 44.5535ZM191.482 44.0291C193.29 44.1741 194.187 44.1424 195.101 43.6705L194.336 42.1896C193.884 42.4227 193.424 42.5127 191.616 42.3677L191.482 44.0291ZM195.101 43.6702C196.064 43.1722 196.801 42.3641 197.19 41.4856C197.575 40.619 197.664 39.5596 197.092 38.6882L195.699 39.6019C195.86 39.8481 195.907 40.2695 195.667 40.8101C195.432 41.3389 194.964 41.8646 194.335 42.1899L195.101 43.6702ZM197.092 38.6868L196.627 37.9818L195.236 38.8983L195.7 39.6033L197.092 38.6868ZM195.342 37.8508L194.048 39.145L195.227 40.3235L196.521 39.0293L195.342 37.8508ZM194.048 39.145C193.137 40.0563 192.832 40.2779 192.219 40.3145C191.848 40.3366 191.339 40.2839 190.542 40.1243C189.75 39.9661 188.736 39.7157 187.368 39.3726L186.962 40.9891C188.32 41.3298 189.376 41.5909 190.215 41.7586C191.047 41.9251 191.727 42.0134 192.318 41.9781C193.628 41.9001 194.336 41.2146 195.227 40.3235L194.048 39.145ZM187.368 39.3726C181.404 37.8753 178.448 37.3322 175.96 37.3392L175.965 39.0059C178.217 38.9996 180.984 39.4881 186.962 40.9891L187.368 39.3726ZM177.057 41.5761C177.022 41.5815 176.992 41.5829 176.975 41.5834C176.957 41.5838 176.946 41.5834 176.946 41.5834C176.946 41.5834 176.947 41.5834 176.949 41.5836C176.952 41.5836 176.957 41.5839 176.963 41.5841C176.975 41.5845 176.993 41.5851 177.016 41.5851V39.9184C177.022 39.9184 177.026 39.9186 177.023 39.9185C177.022 39.9184 177.02 39.9183 177.016 39.9181C177.012 39.9181 177.006 39.9178 176.998 39.9176C176.985 39.9171 176.961 39.9165 176.932 39.9172C176.902 39.9181 176.862 39.9203 176.813 39.9274L177.057 41.5761ZM176.983 41.5844C176.983 41.5844 176.983 41.5844 176.983 41.5845C176.984 41.5845 176.985 41.5845 176.986 41.5846C176.987 41.5846 176.989 41.5847 176.992 41.585C176.998 41.5853 177.007 41.5859 177.017 41.5867C177.037 41.5884 177.063 41.5908 177.096 41.5941C177.162 41.6006 177.247 41.6101 177.349 41.6223C177.554 41.6467 177.822 41.6811 178.137 41.7233C178.765 41.8076 179.572 41.9218 180.423 42.0461C182.129 42.2952 183.992 42.5826 184.94 42.7506L185.232 41.1096C184.257 40.9367 182.371 40.6461 180.664 40.397C179.809 40.2721 178.995 40.157 178.358 40.0715C177.747 39.9895 177.241 39.9266 177.048 39.9191L176.983 41.5844ZM184.942 42.7508L187.075 43.1258L187.363 41.4843L185.23 41.1093L184.942 42.7508ZM187.118 41.4779L184.271 41.8262L184.472 43.4806L187.32 43.1322L187.118 41.4779ZM184.272 41.8261C182.241 42.0723 181.324 42.1715 180.698 42.1185C180.167 42.0736 179.867 41.9248 179.037 41.4487L178.208 42.8948C179.032 43.367 179.62 43.6999 180.557 43.7791C181.398 43.8504 182.529 43.7162 184.472 43.4806L184.272 41.8261ZM179.037 41.449C178.401 41.0837 177.944 40.7721 177.7 40.5653C177.552 40.4405 177.57 40.4262 177.612 40.5083C177.627 40.5359 177.765 40.7991 177.622 41.1287C177.466 41.492 177.138 41.5626 177.075 41.5733L176.796 39.9301C176.648 39.9552 176.27 40.0576 176.092 40.4682C175.93 40.8451 176.078 41.1715 176.133 41.2762C176.256 41.5127 176.471 41.7091 176.623 41.8381C176.98 42.1394 177.536 42.5089 178.207 42.8945L179.037 41.449Z" fill="black"/>
</g>
</g>
<path id="Vector 39" d="M175.9 40.875C179.82 41.2875 183.889 41.845 186.928 42.5967C184.505 42.6633 182.173 42.84 180.023 43.2458C178.493 43.0042 176.703 41.7183 175.899 40.8758L175.9 40.875ZM257.995 33.2617C254.345 34.7525 250.594 36.4233 247.887 37.9933C250.231 37.3808 252.52 36.9 254.698 36.6883C256.1 36.03 257.46 34.295 257.995 33.2617Z" fill="#D40301"/>
<path id="Vector 40" d="M171.649 91.6C179.486 87.1833 187.119 86.0358 194.2 93.8367C190.245 97.2342 185.998 98.1458 181.503 99.7433C179.45 100.313 177.035 100.114 173.453 97.435C171.881 95.2475 171.708 93.41 171.649 91.6ZM250.688 84.19C256.064 81.885 261.733 82.2108 267.28 81.4483C267.893 92.2833 260.884 94.1983 252.563 94.5783C249.022 92.7833 245.788 91.7083 242.824 91.26C244.174 88.4492 246.647 86.04 250.688 84.19Z" fill="white" fill-opacity="0.922"/>
</g>
<g id="mage right hand">
<path id="Vector 41" d="M369.368 270.434C367.078 258.885 358.047 252.658 348.583 246.773V246.772C337.605 257.996 332.922 271.09 336.175 286.543C338.498 290.224 341.122 291.801 343.827 292.809C344.642 295.777 345.394 299.394 347.332 300.95C349.444 302.647 353.967 302.955 355.978 303.27C357.319 304.597 358.707 306.37 360.524 306.472C363.304 306.63 367.12 305.306 369.801 304.145C370.276 299.734 370.354 295.086 369.474 289.862C374.991 291.443 378.313 289.185 380.574 285.069L380.467 284.957C376.02 280.339 372.723 276.913 369.368 270.434Z" fill="#F6D3CD" fill-opacity="0.961"/>
</g>
</g>
<defs>
<filter id="filter0_f" x="241.289" y="188.82" width="51.7357" height="43.4109" filterUnits="userSpaceOnUse" color-interpolation-filters="sRGB">
<feFlood flood-opacity="0" result="BackgroundImageFix"/>
<feBlend mode="normal" in="SourceGraphic" in2="BackgroundImageFix" result="shape"/>
<feGaussianBlur stdDeviation="1.71704" result="effect1_foregroundBlur"/>
</filter>
<filter id="filter1_f" x="110.017" y="190.586" width="57.2765" height="70.9957" filterUnits="userSpaceOnUse" color-interpolation-filters="sRGB">
<feFlood flood-opacity="0" result="BackgroundImageFix"/>
<feBlend mode="normal" in="SourceGraphic" in2="BackgroundImageFix" result="shape"/>
<feGaussianBlur stdDeviation="1.71704" result="effect1_foregroundBlur"/>
</filter>
<filter id="filter2_f" x="202.568" y="193.319" width="40.5141" height="41.3953" filterUnits="userSpaceOnUse" color-interpolation-filters="sRGB">
<feFlood flood-opacity="0" result="BackgroundImageFix"/>
<feBlend mode="normal" in="SourceGraphic" in2="BackgroundImageFix" result="shape"/>
<feGaussianBlur stdDeviation="1.71704" result="effect1_foregroundBlur"/>
</filter>
<filter id="filter3_f" x="248.338" y="158.021" width="47.9873" height="32.8987" filterUnits="userSpaceOnUse" color-interpolation-filters="sRGB">
<feFlood flood-opacity="0" result="BackgroundImageFix"/>
<feBlend mode="normal" in="SourceGraphic" in2="BackgroundImageFix" result="shape"/>
<feGaussianBlur stdDeviation="1.71704" result="effect1_foregroundBlur"/>
</filter>
<filter id="filter4_f" x="292.931" y="189.693" width="51.1848" height="80.8798" filterUnits="userSpaceOnUse" color-interpolation-filters="sRGB">
<feFlood flood-opacity="0" result="BackgroundImageFix"/>
<feBlend mode="normal" in="SourceGraphic" in2="BackgroundImageFix" result="shape"/>
<feGaussianBlur stdDeviation="1.71704" result="effect1_foregroundBlur"/>
</filter>
<filter id="filter5_f" x="329.016" y="241.374" width="20.2428" height="36.3541" filterUnits="userSpaceOnUse" color-interpolation-filters="sRGB">
<feFlood flood-opacity="0" result="BackgroundImageFix"/>
<feBlend mode="normal" in="SourceGraphic" in2="BackgroundImageFix" result="shape"/>
<feGaussianBlur stdDeviation="1.71704" result="effect1_foregroundBlur"/>
</filter>
<filter id="filter6_f" x="107.842" y="62.1239" width="45.6063" height="128.395" filterUnits="userSpaceOnUse" color-interpolation-filters="sRGB">
<feFlood flood-opacity="0" result="BackgroundImageFix"/>
<feBlend mode="normal" in="SourceGraphic" in2="BackgroundImageFix" result="shape"/>
<feGaussianBlur stdDeviation="1.26592" result="effect1_foregroundBlur"/>
</filter>
<filter id="filter7_f" x="141.76" y="144.277" width="49.1934" height="105.899" filterUnits="userSpaceOnUse" color-interpolation-filters="sRGB">
<feFlood flood-opacity="0" result="BackgroundImageFix"/>
<feBlend mode="normal" in="SourceGraphic" in2="BackgroundImageFix" result="shape"/>
<feGaussianBlur stdDeviation="1.26592" result="effect1_foregroundBlur"/>
</filter>
<filter id="filter8_f" x="153.115" y="291.692" width="75.2899" height="80.2055" filterUnits="userSpaceOnUse" color-interpolation-filters="sRGB">
<feFlood flood-opacity="0" result="BackgroundImageFix"/>
<feBlend mode="normal" in="SourceGraphic" in2="BackgroundImageFix" result="shape"/>
<feGaussianBlur stdDeviation="1.71704" result="effect1_foregroundBlur"/>
</filter>
<filter id="filter9_f" x="257.611" y="293.203" width="60.7357" height="85.699" filterUnits="userSpaceOnUse" color-interpolation-filters="sRGB">
<feFlood flood-opacity="0" result="BackgroundImageFix"/>
<feBlend mode="normal" in="SourceGraphic" in2="BackgroundImageFix" result="shape"/>
<feGaussianBlur stdDeviation="1.71704" result="effect1_foregroundBlur"/>
</filter>
<filter id="filter10_f" x="278.744" y="89.9682" width="46.1737" height="76.5787" filterUnits="userSpaceOnUse" color-interpolation-filters="sRGB">
<feFlood flood-opacity="0" result="BackgroundImageFix"/>
<feBlend mode="normal" in="SourceGraphic" in2="BackgroundImageFix" result="shape"/>
<feGaussianBlur stdDeviation="1.26592" result="effect1_foregroundBlur"/>
</filter>
</defs>
</svg>
