<svg width="776" height="1080" viewBox="0 0 776 1080" fill="none" xmlns="http://www.w3.org/2000/svg">
<g id="mage 1" clip-path="url(#clip0)">
<g id="mage legs">
<path id="Vector 28 2" d="M118.58 942.137L457.569 847.136L510.93 997.285C523.221 1004.98 529.905 1016.69 533.802 1030.4C514.396 1030.96 492.329 1029.68 477.696 1033.52C456.291 1047.22 437.003 1051.7 420.855 1042.5C413.995 1039.1 405.595 1044.15 397.768 1046.06C375.333 1056.29 351.698 1068.36 338.376 1064.67C326.373 1071.75 315.3 1074.03 305.403 1070.26C294.569 1074.95 283.734 1068.47 272.901 1065.37L272.138 1061.52L258.625 1063.63C241.517 1074.75 208.937 1080.47 192.802 1057.69C181.457 1061.47 169.009 1070.38 160.395 1040.76C142.503 1046.87 133.914 1046.32 124.103 1046.64L118.58 942.137Z" fill="#CC9545"/>
<path id="Vector 29 2" opacity="0.455" d="M118.58 971.144L148.966 925.763L411.044 891.112L483.22 967.98L517.194 1001.66C500.71 996.274 481.044 998.381 476.105 1024.42L474.538 1010.05C453.712 982.139 432.343 958.859 409.423 948.939L416.421 1004.12C408.622 1006.91 401.454 1013.3 395.752 1028.1L389.905 963.971L379.58 1020.07L372.004 1014.61C363.069 1031.58 358.116 1047.54 355.625 1062.9L332.055 1068.92C308.942 1046.24 284.038 1029.71 264.795 993.721L273.45 1060.22L255.136 1064.24L252.154 977.004L243.28 962.298C228.521 993.79 221.232 1018.89 194.804 1052.62L151.335 984.155C142.49 991.654 139.621 1000 123.315 1006.43L118.58 971.144Z" fill="black"/>
<path id="Vector 30" d="M204.613 614.139L385.752 617.303C427.995 672.297 458.479 756.703 464.258 834.074C477.95 900.382 493.252 961.138 515.289 998.758C471.308 997.764 438.115 956.295 405.485 912.712C388.386 927.602 381.978 967.649 370.881 996.656L368.857 989.934C354.408 1019.82 350.212 1043.83 348.268 1066.55C315.523 1047.37 269.527 993.778 243.433 940.132C224.756 972.287 208.076 1000.78 194.654 1023.31C183.484 974.697 162.147 955.227 136.293 948.699C130.668 964.382 117.98 974.285 101.966 981.47C110.344 933.473 119.917 876.96 135.656 776.653C137.262 710.231 167.62 660.286 204.611 614.139H204.613Z" fill="#580500"/>
<path id="Vector 31" opacity="0.455" d="M424.712 683.165C443.1 776.442 436.955 830.664 457.1 921.479C426.011 897.88 405.755 863.921 387.123 828.414C374.884 874.179 366.752 916.191 365.025 952.309L357.653 949.122L336.829 1034.36C296.879 998.964 263.757 952.817 240.631 890.895C219.312 932.159 207.187 969.203 196.242 1005.7L147.242 905.956L110.986 928.995C108.03 946.5 105.025 963.994 101.973 981.482C117.987 974.297 130.67 964.394 136.296 948.705C162.149 955.239 183.483 974.714 194.651 1023.32C208.073 1000.8 224.747 972.31 243.424 940.155C269.515 993.801 315.514 1047.38 348.26 1066.56C350.203 1043.84 354.408 1019.84 368.857 989.946L370.877 996.679C381.974 967.666 388.377 927.607 405.476 912.724C438.108 956.301 471.307 997.776 515.282 998.781C493.25 961.161 477.937 900.405 464.245 834.091C460.46 783.387 446.075 729.649 424.71 683.165H424.712Z" fill="black"/>
<path id="Vector 32" d="M212.033 549.595C263.829 516.166 325.1 497.679 379.465 514.089C380.352 536.025 378.004 556.569 379.538 575.497C380.777 590.78 383.455 604.59 388.673 615.812C355.794 657.767 330.53 682.56 304.397 684.353C269.144 686.769 225.639 656.231 201.994 612.289C207.393 605.538 214.252 596.554 221.877 586.394C217.495 565.279 215.041 559.624 212.04 549.595H212.033Z" fill="#CC9545"/>
<g id="Vector 33" opacity="0.284" filter="url(#filter0_f)">
<path id="Vector 34" opacity="0.284" d="M201.989 629.885C221.657 655.26 234.505 675.124 272.868 715.611C277.023 736.469 277.239 753.374 269.52 762.318C205.652 801.366 167.138 799.509 143.392 773.832C143.271 721.157 166.475 674.05 201.995 629.885H201.989Z" fill="#F60005"/>
</g>
<g id="Vector 34 2" opacity="0.284" filter="url(#filter1_f)">
<path id="Vector 35" opacity="0.284" d="M345.498 726.422C358.126 708.523 370.754 669.715 383.382 633.237C418.272 675.626 444.178 741.403 449.678 807.854C427.157 808.899 407.156 805.215 382.592 785.231C369.588 776.402 354.324 754.408 345.497 726.422H345.498Z" fill="#F60005"/>
</g>
<path id="Vector 35 2" opacity="0.476" d="M133.972 782.535L146.6 710.151C157.905 813.062 171.964 913.603 191.664 1009.3L202.605 1017.78L199.481 1061.21L178.172 1056.68L133.972 782.535ZM204.221 619.65C264.929 696.358 326.199 709.905 388.395 619.65L395.647 630.525C382.147 648.778 364.979 665.443 352.167 681.897C336.474 702.052 325.085 720.3 307.4 721.002C289.763 721.705 275.039 700.059 255.548 682.371C235.902 664.541 211.482 650.588 192.497 628.606L204.221 619.65Z" fill="black"/>
</g>
<g id="mage chest">
<path id="Vector 15" d="M43.9964 503.305C72.6406 467.591 105.294 431.104 140.245 394.182L205.765 338.553C225.903 372.052 254.059 389.491 290.947 401.9C307.272 392.662 332.19 361.855 339.907 328.066C377.167 322.588 402.447 341.147 410.199 369.137L435.371 461.418C459.207 470.02 482.28 486.863 504.537 512.352C512.06 512.526 515.952 516.868 517.158 524.275C471.06 591.562 495.86 667.579 525.581 716.576C544.437 775.796 541.68 824.176 522.292 836.393C526.669 819.807 512.989 790.463 498.817 777.567C485.829 765.739 472.657 752.706 467.481 733.287L471.474 768.172C450.335 760.376 433.869 699.877 440.907 657.505C436.347 662.69 431.781 667.876 427.213 673.051C427.406 663.798 427.252 654.546 426.394 645.288C421.099 649.189 415.87 653.353 409.131 651.451C422.204 608.074 407.985 574.423 387.906 542.862L384.478 543.353L382.239 512.454L378.255 513.708C358.492 508.433 332.232 507.104 305.332 511.64C278.118 516.229 243.934 529.082 214.934 550.007C205.973 547.088 197.589 541.194 190.723 527.469C167.274 562.994 154.064 653.078 178.957 683.422C166.368 683.559 157.343 671.434 148.911 657.265C147.92 692.806 120.815 718.215 142.657 755.761C105.359 743.322 109.146 689.265 105.296 629.508C103.922 608.211 96.4121 579.078 92.9337 560.755C84.2948 533.908 69.2716 497.418 43.9983 503.305H43.9964Z" fill="#580500"/>
<g id="Vector 16" opacity="0.284" filter="url(#filter2_f)">
<path id="Vector 10" opacity="0.284" d="M313.929 421.972C329.821 408.994 354.586 393.506 390.885 407.043C400.861 420.388 401.104 446.295 400.526 458.123C399.926 470.4 394.738 473.81 389.7 481.687C359.78 485.635 338.985 478.943 314.325 467.211C316.062 452.053 316.239 435.929 313.93 421.972H313.929Z" fill="#F60005"/>
</g>
<g id="Vector 17" opacity="0.284" filter="url(#filter3_f)">
<path id="Vector 18" opacity="0.284" d="M60.0383 496.649C89.9391 456.782 114.535 430.085 138.194 405.721L157.53 422.133C146.897 428.039 137.767 436.872 132.373 452.987C130.471 448.344 126.933 446.829 123.502 445.108C128.108 452.221 127.98 459.936 127.977 467.636C120.006 495.864 110.585 523.262 96.3429 547.899C89.9456 521.37 75.8091 507.657 60.0371 496.653L60.0383 496.649Z" fill="#F60005"/>
</g>
<g id="Vector 18 2" opacity="0.284" filter="url(#filter4_f)">
<path id="Vector 19" opacity="0.284" d="M239.039 440.618L244.234 413.226C260.752 409.663 283.229 412.28 299.488 425.688C304.178 438.933 307.601 461.016 297.91 474.11C289.731 482.13 265.766 491.592 252.851 487.229C254.034 472.713 251.472 457.536 239.039 440.617V440.618Z" fill="#F60005"/>
</g>
<g id="Vector 19 2" opacity="0.284" filter="url(#filter5_f)">
<path id="Vector 20" opacity="0.284" d="M343.747 334.635C353.053 332.658 362.655 333.388 372.488 336.234C393.504 340.711 400.492 359.546 407.091 378.778L395.438 371.049C395.096 375.077 394.408 380.059 391.469 391.233C371.911 375.137 349.676 373.775 327.563 371.741C336.416 359.769 342.329 347.459 343.747 334.634L343.747 334.635Z" fill="#F60005"/>
</g>
<g id="Vector 20 2" opacity="0.284" filter="url(#filter6_f)">
<path id="Vector 21" opacity="0.284" d="M427.46 473.785C431.196 472.254 434.756 470.631 435.205 467.427C458.45 477.082 479.961 493.271 499.521 516.798C489.815 531.968 484.397 549.258 481.594 567.831C464.92 531.978 446.969 497.835 417.108 479.614C417.454 453.138 417.114 427.228 413.808 403.74C418.866 419.138 424.829 441.791 430.925 465.522C431.712 468.276 430.39 471.029 427.458 473.783L427.46 473.785Z" fill="#F60005"/>
</g>
<g id="Vector 21 2" opacity="0.284" filter="url(#filter7_f)">
<path id="Vector 22" opacity="0.284" d="M500.787 518.328C505.028 518.194 507.287 521.478 509.469 524.887C497.38 538.781 492.489 560.916 488.159 583.698C485.876 579.729 483.356 575.976 483.617 569.671C485.817 550.721 492.867 534.3 500.787 518.327V518.328Z" fill="#F60005"/>
</g>
</g>
<g id="head arms">
<g id="Vector 2">
<path id="Vector" d="M159.26 57.6637C161.354 45.3515 166.603 34.8499 183.315 30.9164C221.248 6.8275 261.078 -12.9141 319.718 10.4783C336.19 13.8521 342.75 21.5972 345.607 30.9719C364.519 46.9147 379.686 66.4328 392.288 88.4006C393.993 98.6438 392.312 108.238 389.582 117.633C382.573 115.533 375.999 112.497 368.362 111.747C361.617 122.258 353.493 129.609 344.52 135.008C344.89 125.155 343.203 114.513 339.109 102.952C329.93 114.83 321.222 121.827 312.786 126.041C313.859 117.458 314.478 108.768 311.883 99.344C302.9 93.9948 291.971 90.431 279.265 88.4949C273.862 97.0492 266.868 103.414 257.747 106.853C249.78 103.329 241.836 99.6004 234.596 89.3984C225.296 92.7143 216.22 96.1622 208.389 100.325C205.09 110.481 204.472 119.871 204.1 129.188C194.918 124.865 187.406 117.992 182.682 106.854L173.192 117.219C168.041 129.088 170.307 136.098 169.87 144.878C160.738 139.912 155.094 134.143 149.607 128.34L134.763 142.463C124.174 110.511 145.314 84.794 159.26 57.666V57.6637Z" fill="#C5651C"/>
<path id="Vector_2" d="M159.26 57.6637C161.354 45.3515 166.603 34.8499 183.315 30.9164C221.248 6.8275 261.078 -12.9141 319.718 10.4783C336.19 13.8521 342.75 21.5972 345.607 30.9719C364.519 46.9147 379.686 66.4328 392.288 88.4006C393.993 98.6438 392.312 108.238 389.582 117.633C382.573 115.533 375.999 112.497 368.362 111.747C361.617 122.258 353.493 129.609 344.52 135.008C344.89 125.155 343.203 114.513 339.109 102.952C329.93 114.83 321.222 121.827 312.786 126.041C313.859 117.458 314.478 108.768 311.883 99.344C302.9 93.9948 291.971 90.431 279.265 88.4949C273.862 97.0492 266.868 103.414 257.747 106.853C249.78 103.329 241.836 99.6004 234.596 89.3984C225.296 92.7143 216.22 96.1622 208.389 100.325C205.09 110.481 204.472 119.871 204.1 129.188C194.918 124.865 187.406 117.992 182.682 106.854L173.192 117.219C168.041 129.088 170.307 136.098 169.87 144.878C160.738 139.912 155.094 134.143 149.607 128.34L134.763 142.463C124.174 110.511 145.314 84.794 159.26 57.666V57.6637Z" fill="#D40301"/>
</g>
<path id="Vector 3" d="M573.602 613.014C591.091 620.067 591.984 656.608 600.146 680.247C609.13 691.972 622.344 703.252 637.243 708.186C647.215 711.487 660.05 716.542 669.466 721.859L775.651 815.906C773.072 821.132 769.547 824.553 765.389 826.764C734.485 799.938 706.811 776.539 671.459 746.709C656.164 736.651 634.368 727.211 612.951 717.73C602.057 712.167 591.83 705.057 585.094 689.95C578.079 665.957 576.849 632.929 564.044 618L573.602 613.014Z" fill="#AC4918"/>
<path id="Vector 4" d="M558.792 617.303C562.311 628.354 569.29 637.458 576.228 642.735C587.489 651.308 599.88 651.382 613.324 659.087C639.685 676.58 647.008 698.386 655.081 716.605L631.405 707.558C624.875 688.163 612.378 680.018 598.555 674.359C583.876 667.122 569.207 659.761 555.042 646.031L551.114 616.663L558.792 617.303Z" fill="#BF5B20"/>
<path id="Vector 5" d="M39.2411 631.421L62.0084 629.862L74.9426 706.93L43.5564 712.064L39.2411 631.421Z" fill="#4F4A3A"/>
<path id="Vector 6" d="M54.9303 579.078C69.7087 581.511 78.9893 596.32 75.6594 612.152C72.3301 627.989 57.651 638.852 42.8733 636.413C28.0956 633.98 18.8149 619.171 22.1443 603.339C25.4736 587.507 40.152 576.645 54.9291 579.078H54.9303ZM19.5554 727.805C44.4164 697.147 74.5611 699.62 103.288 713.498L98.6638 732.716C87.6413 726.6 74.5977 727.125 62.7135 728.427C51.6275 729.638 40.4323 735.823 29.9764 742.009L19.5554 727.805Z" fill="#68747D"/>
<path id="Vector 9" d="M40.4192 736.371C54.6397 728.05 71.2672 726.228 87.1563 727.73L101.894 1037.55C100.849 1055.12 97.3212 1067.75 92.4085 1077.64C85.098 1068.59 79.0313 1057.2 76.268 1039.53L40.4192 736.371Z" fill="#FAF8F6"/>
<path id="Vector 11" opacity="0.315" d="M380.581 155.179C384.944 180.081 383.453 208.339 378.906 238.348C357.832 263.195 332.048 277.242 305.072 288.556L306.301 314.517L340.398 330.475C312.62 342.108 285.661 359.373 255.078 351.719C267.048 347.393 288.552 339.018 293.28 324.563L236.594 311.921L235.921 292.802L186.677 269.449C231.123 280.518 290.795 277.71 326.987 263.869C361.96 250.496 374.683 216.966 380.585 155.175L380.581 155.179Z" fill="black"/>
<path id="Vector 13" opacity="0.343" d="M42.5012 585.366L52.5088 584.806C48.1568 599.69 45.539 614.859 48.5726 630.964L41.1343 631.061C33.8924 616.195 33.1111 601.02 42.5012 585.366ZM57.2878 585.594L61.2916 587.136C56.9506 602.014 54.9012 616.481 53.975 630.747L50.8083 631.113C51.2099 616.435 51.7434 601.723 57.2884 585.594H57.2878ZM46.6231 740.175L60.625 736.303L90.5518 1063.64C87.3201 1057.53 83.9742 1051.96 82.0147 1039.8L46.6231 740.175Z" fill="black"/>
<path id="Vector 14" opacity="0.343" d="M87.8181 526.351L73.3835 558.373C54.4612 545.542 35.807 539.105 18.3583 563.422C10.2452 587.119 9.89679 610.404 20.2924 633.089L28.5977 638.138C30.8997 627.087 30.4064 616.035 25.3517 604.984L25.4889 600.335C37.6009 594.829 43.7125 592.179 49.6437 589.626C50.9219 590.135 54.6309 589.192 55.9298 589.666C59.8591 591.094 60.5558 596.183 62.3852 600.649C60.7315 618.091 73.0481 633.917 85.6421 627.572C84.3853 616.595 80.3769 605.881 87.0752 602.311C87.7406 598.873 88.3824 595.32 88.9916 591.648V527.78L87.8164 526.355L87.8181 526.351Z" fill="black"/>
<path id="Vector_3" d="M292.042 402.154C255.083 392.937 227.248 371.718 206.809 337.793L236.715 326.575L236.907 326.503L236.904 326.304C236.699 314.057 235.411 304.341 233.928 293.155C233.796 292.161 233.663 291.154 233.528 290.133L233.504 289.948L233.317 289.895C231.894 289.495 230.445 289.093 228.977 288.685C217.261 285.431 204.262 281.821 192.547 276.147C179.369 269.764 167.848 260.784 161.628 246.796C155.263 232.476 151.056 207.887 149.975 183.311C148.897 158.764 150.941 134.307 157.023 120.162L196.59 86.2565L261.828 69.8469L338.274 81.097L375.225 104.242C388.047 144.904 386.132 187.359 379.135 230.455C373.454 249.967 361.91 261.558 348.313 269.895C341.507 274.068 334.187 277.426 326.824 280.554C324.499 281.542 322.168 282.507 319.848 283.468C314.828 285.547 309.857 287.605 305.103 289.825L304.926 289.908L304.936 290.097C305.015 291.634 305.078 293.173 305.143 294.714C305.427 301.553 305.713 308.422 307.283 315.286L307.317 315.434L307.461 315.49L339.8 328.034C330.196 365.045 311.958 385.207 292.042 402.154ZM25.0712 605.098C30.0359 615.944 30.589 626.795 28.394 637.669L9.64583 626.275L9.634 626.27L9.62217 626.264C4.31379 623.665 0.510676 617.56 0.295975 603.51C0.295975 603.505 0.295975 603.505 0.295975 603.505L1.20151 566.512L1.20211 566.483L1.19678 566.454C-0.944315 555.346 0.653222 545.424 6.77664 536.922C19.4582 523.045 34.2673 511.2 51.3955 501.568L65.6357 500.173L95.675 536.248L92.3965 561.132L92.3953 561.137L92.3947 561.143C91.1367 577.227 89.1085 590.22 86.8107 602.134C83.4009 604.024 82.761 607.731 83.0786 612.186C83.24 614.453 83.6511 616.943 84.0982 619.548C84.1379 619.782 84.1781 620.01 84.2183 620.244C84.6199 622.575 85.0357 624.985 85.3202 627.412C82.3008 628.885 79.3145 629.051 76.5459 628.229C73.7157 627.383 71.0943 625.493 68.8988 622.854C64.506 617.571 61.858 609.33 62.679 600.672L62.6849 600.603L62.6595 600.54C62.2419 599.524 61.8841 598.473 61.5292 597.434L61.4351 597.159C61.0507 596.034 60.6645 594.921 60.2102 593.904C59.3035 591.876 58.1015 590.163 56.0219 589.404C55.6392 589.266 55.1146 589.238 54.5627 589.255C54.0186 589.266 53.4047 589.324 52.802 589.375L52.7481 589.381C52.123 589.438 51.5126 589.489 50.9791 589.501C50.4361 589.506 50.0191 589.466 49.7601 589.363L49.6435 589.318L49.5282 589.369C41.4411 592.836 33.386 596.405 25.3652 600.066L25.2013 600.141L25.196 600.318L25.0458 604.972L25.044 605.035L25.0712 605.098ZM491.086 610.764C484.846 576.702 493.807 547.836 514.851 523.068C533.074 536.067 550.321 549.806 554.71 575.188L554.716 575.222L554.733 575.257C561.234 589.655 567.633 597.274 576.233 607.514L576.328 607.628C574.169 612.089 571.525 615.498 568.154 617.389C564.759 619.296 560.577 619.673 555.301 617.943L554.846 617.794L554.917 618.251C556.602 629.748 556.46 639.982 555.561 649.697C553.006 650.959 549.937 652.296 546.849 653.284C543.697 654.295 540.55 654.929 537.918 654.757C536.268 654.649 534.783 653.672 533.364 652.307C532.394 651.376 531.483 650.291 530.584 649.223C530.164 648.726 529.75 648.229 529.33 647.755L529.259 647.675L529.159 647.658C528.508 647.544 527.733 647.43 526.87 647.299C525.119 647.042 523.019 646.727 520.884 646.242C517.708 645.511 514.567 644.414 512.586 642.593C510.77 640.919 509.486 638.115 508.463 634.865C507.682 632.398 507.061 629.702 506.458 627.104C506.269 626.287 506.08 625.476 505.89 624.682L505.861 624.545L505.725 624.488C500.555 622.278 495.54 618.834 491.086 610.764Z" stroke="black"/>
<path id="Vector 7" d="M156.78 119.99L196.447 85.9974L261.813 69.5558L338.382 80.8241L375.478 104.06C388.354 144.818 386.433 187.362 379.425 230.516C368.019 269.722 333.02 277.109 305.232 290.083C305.661 298.463 305.656 306.844 307.572 315.225L340.15 327.863C330.525 365.172 312.154 385.439 292.12 402.468C254.897 393.224 226.9 371.848 206.381 337.647L236.609 326.308C236.387 312.991 234.881 302.672 233.235 290.169C207.705 282.994 173.871 275.053 161.357 246.908C148.586 218.174 144.519 148.387 156.776 119.993L156.78 119.99ZM51.301 501.29L65.7666 499.873L95.985 536.164L92.6906 561.166C91.4266 577.324 89.3867 590.363 87.077 602.317C80.3781 605.881 84.3817 616.601 85.6374 627.578C73.0451 633.929 60.7315 618.091 62.3852 600.649C60.554 596.177 59.8496 591.1 55.9185 589.672C54.6209 589.198 50.9272 590.135 49.649 589.632C41.5637 593.099 33.5115 596.663 25.4919 600.323L25.3423 604.978C30.3981 616.029 30.9026 627.075 28.6012 638.132L9.48926 626.521C4.03006 623.848 0.215114 617.6 0.00100383 603.51L0.90654 566.506C-1.24639 555.329 0.35885 545.326 6.54436 536.746C19.2626 522.826 34.1184 510.946 51.3022 501.29H51.301ZM514.804 522.678C533.11 535.726 550.57 549.532 555 575.143C561.542 589.621 567.971 597.222 576.677 607.588C572.301 616.715 565.877 621.718 555.207 618.211C556.911 629.794 556.757 640.102 555.84 649.88C550.653 652.456 543.272 655.391 537.895 655.043C534.382 654.815 531.697 650.885 529.106 647.938C525.214 647.242 516.466 646.556 512.379 642.798C508.635 639.349 507.18 631.33 505.607 624.751C500.373 622.512 495.298 619.016 490.803 610.855C484.51 576.593 493.571 547.562 514.804 522.677V522.678Z" fill="#F6D3CD" fill-opacity="0.961"/>
<path id="Vector 8" d="M172.597 178.643C187.754 168.851 202.518 166.307 216.212 183.602C208.563 191.135 200.35 193.156 191.656 196.698C187.685 197.961 183.014 197.52 176.086 191.58C173.045 186.73 172.711 182.656 172.597 178.643ZM325.464 162.215C335.863 157.104 346.826 157.826 357.556 156.136C358.742 180.158 345.185 184.404 329.092 185.246C322.242 181.267 315.989 178.884 310.256 177.889C312.867 171.658 317.649 166.316 325.464 162.215Z" fill="white" fill-opacity="0.922"/>
<path id="Vector 12" opacity="0.315" d="M275.934 207.163L279.841 215.56L275.934 220.767V207.163Z" fill="black"/>
</g>
<g id="mage hair">
<path id="Vector 22 2" d="M265.818 67.8984L231.685 77.1216L261.813 69.5616L338.382 80.8242L375.484 104.06C388.36 144.818 386.428 187.368 379.422 230.531C368.016 269.733 333.02 277.109 305.234 290.085C305.661 298.423 305.639 306.761 307.528 315.101L309.479 314.806L342.439 328.798C370.459 324.359 393.848 332.696 409.241 363.175L429.924 442.994C431.336 434.118 435.034 426.347 439.387 418.908C443.078 412.595 448.348 409.715 450.885 400.185C452.074 391.623 447.082 383.863 441.7 376.138C426.86 356.757 442.936 340.058 458.308 338.019C469.439 335.556 479.849 331.932 483.652 317.714C493.949 307.382 490.282 297.05 483.634 286.719C471.474 275.904 485.225 260.634 494.671 252.52C506.554 211.499 465.009 182.542 439.251 173.193C423.142 169.928 414.851 149.997 410.348 134.283C418.816 115.18 410.259 100.115 397.33 86.09L265.82 67.9007L265.818 67.8984ZM195.289 86.9786L139.469 102.081C104.68 121.589 100.336 147.846 111.57 177.568C114.978 189.411 102.96 204.401 87.449 206.306C50.0696 210.293 13.6632 293.302 77.7816 316.367C87.0829 325.697 86.0644 342.667 72.2212 350.191C57.7751 363.272 54.1602 386.733 64.1951 404.419C69.9133 414.504 83.6483 417.752 93.3542 428.586C95.1369 423.699 95.9785 418.483 94.0959 412.396L104.353 420.253L106.89 431.039C121.323 416.142 130.731 405.243 139.314 395.374C146.798 406.373 155.687 415.753 168.407 420.748C150.618 431.02 157.964 459.448 176.383 472.226C163.517 485.412 170.355 511.828 188.866 525.289C204.054 533.799 218.63 538.631 236.051 536.055C225.514 529.256 227.09 521.886 231.165 516.441C245.175 495.4 257.809 470.676 231.701 441.966C245.15 419.508 237.205 400.541 216.109 392.447C220.458 384.899 224.721 372.889 224.173 361.967C218.048 355.113 212.402 347.486 207.236 339.05C206.415 338.774 205.586 338.53 204.75 338.316L206.407 337.683L206.391 337.645L213.21 335.09L236.604 326.144C236.374 312.906 234.876 302.615 233.237 290.164C207.707 282.986 173.874 275.062 161.365 246.917C148.592 218.186 144.534 148.386 156.789 119.991L195.291 86.9786H195.289Z" fill="#D40301"/>
<path id="Vector 23" opacity="0.315" d="M135.574 189.728C134.816 172.641 135.311 156.206 150.644 147.503L157.943 234.783C165.212 266.19 202.276 278.623 235.231 293.671L234.357 329.193L206.927 338.762L223.539 365.09L217.499 393.144C237.345 403.703 237.726 422.378 233.228 443.086C253.339 472.622 243.167 491.192 235.395 510.703C232.056 519.081 228.263 525.798 230.262 537.672C215.663 536.351 202.98 530.633 190.584 524.262L213.796 520.32C226.126 496.984 234.844 476.41 234.601 462.682C222.131 467.839 213.092 474.963 202.49 481.191C216.915 450.057 228.631 421.033 214.056 412.455C201.671 421.532 199.244 428.98 193.619 436.951L191.395 415.843C211.268 386.107 201.687 360.944 182.886 365.781C193.617 327.431 185.111 303.783 160.129 292.726C130.001 288.033 88.2564 271.829 117.479 247.304C133.156 235.482 146.268 221.698 135.574 189.722V189.728ZM61.7517 371.652C65.7069 359.588 77.0405 346.104 86.6399 332.955C73.8489 365.447 70.0068 394.227 106.203 406.41C108.605 393.403 112.16 380.556 122.877 368.737L139.507 383.869L140.296 396.562L107.92 429.191L96.6132 415.389L92.9272 425.063C76.4443 411.289 52.4532 402.48 61.7517 371.655V371.652ZM394.3 139.669C393.605 162.57 399.491 185.31 413.984 194.86L416.016 247.308C403.936 280.761 386.096 284.075 341.066 294.798C337.294 305.814 343.912 320.63 354.455 327.6L341.259 327.102L309.134 316.951L304.676 292.092C332.717 276.614 365.526 265.959 376.692 233.412L384.476 155.82L394.3 139.669Z" fill="#1A1A1A"/>
<path id="Vector 24" opacity="0.315" d="M427.189 167.915C464.707 185.5 500.385 211.936 492.79 251.726C485.953 263.679 473.816 275.637 483.747 287.595C494.671 311.699 481.292 320.482 472.172 331.946C442.93 342.311 425.787 357.11 448.809 386.644C451.725 411.834 435.767 421.024 428.759 437.804L406.736 360.449L392.572 338.296L415.426 344.425C419.183 331.427 428.951 324.657 451.37 313.93C460.354 309.049 468.244 302.909 470.983 290.861C448.206 276.034 458.834 261.836 475.697 241.028C493.796 209.176 449.105 191.032 427.186 167.917L427.189 167.915Z" fill="#1A1A1A"/>
<path id="Vector 25" opacity="0.7" d="M427.597 180.639C438.565 196.91 463.755 197.985 464.134 232.46C459.13 249.796 448.862 266.382 458.361 290.368C436.317 302.59 413.69 318.776 411.674 339.197C404.873 331.325 395.89 325.956 384.625 323.202C394.897 304.079 414.858 286.885 447.395 283.076C416.041 262.862 433.141 205.524 427.599 180.64L427.597 180.639Z" fill="#C5651C"/>
<path id="Vector 26" opacity="0.7" d="M239.449 38.93C217.016 23.2267 239.908 1.55874 287.914 11.1072C306.167 -5.51847 319.818 30.1298 342.787 24.4043C350.813 46.2014 362.668 71.8877 380.84 76.3014C388.898 100.446 370.029 84.2948 365.999 94.3055C350.129 82.4644 318.799 71.0681 307.265 71.0681C276.213 82.7762 262.689 36.9532 239.45 38.9286L239.449 38.93Z" fill="#C5651C"/>
<path id="Vector 27" opacity="0.7" d="M89.8119 211.476C104.525 206.935 108.793 199.401 115.609 192.598C115.085 186.323 117.878 179.728 116.253 173.762C109.146 147.665 113.201 131.72 128.132 118.905L132.499 150.579C129.407 155.915 127.285 162.25 125.732 169.145C122.561 183.231 125.675 200.293 119.949 214.674C90.4904 242.947 87.3207 269.141 100.974 294.006C114.129 322.892 95.6006 356.859 99.6734 392.344C71.1755 380.302 88.3451 351.508 94.8347 326.629L61.9067 294.001C46.2375 259.948 53.409 231.88 89.8119 211.471V211.476Z" fill="#C5651C"/>
<path id="Vector 28" opacity="0.7" d="M119.945 301.049C131.579 335.304 154.099 352.403 177.431 368.227C170.237 395.975 185.789 416.77 192.833 440.168L186.917 440.959C183.385 449.258 197.863 468.072 203.307 487.509L194.432 492.592C196.896 506.949 200.468 517.492 205.037 524.611C187.601 517.69 177.147 505.715 179.665 484.349L198.024 486.275C194.953 480.994 193.376 475.187 188.967 470.783C178.069 459.897 160.039 454.716 170.347 428.452L187.327 428.914C174.11 412.313 139.103 399.656 161.921 376.531C134.657 373.244 117.33 346.663 119.946 301.056L119.945 301.049Z" fill="#C5651C"/>
<path id="Vector 29" opacity="0.7" d="M241.909 149.027C219.317 143.89 203.609 161.427 187.401 133.892C186.445 116.264 169.02 115.478 144.952 103.047C169.923 77.1335 193.898 47.5982 187.401 29.6572C201.097 15.3832 227.122 7.10183 232.14 22.8596C226.613 45.7668 206.789 74.1739 163.456 100.943C216.078 94.4141 193.044 121.568 212.04 137.604L241.909 149.027Z" fill="#C5651C"/>
</g>
</g>
<defs>
<filter id="filter0_f" x="139.957" y="626.451" width="139.202" height="169.466" filterUnits="userSpaceOnUse" color-interpolation-filters="sRGB">
<feFlood flood-opacity="0" result="BackgroundImageFix"/>
<feBlend mode="normal" in="SourceGraphic" in2="BackgroundImageFix" result="shape"/>
<feGaussianBlur stdDeviation="1.71704" result="effect1_foregroundBlur"/>
</filter>
<filter id="filter1_f" x="342.063" y="629.803" width="111.05" height="181.645" filterUnits="userSpaceOnUse" color-interpolation-filters="sRGB">
<feFlood flood-opacity="0" result="BackgroundImageFix"/>
<feBlend mode="normal" in="SourceGraphic" in2="BackgroundImageFix" result="shape"/>
<feGaussianBlur stdDeviation="1.71704" result="effect1_foregroundBlur"/>
</filter>
<filter id="filter2_f" x="310.495" y="398.37" width="93.6458" height="87.8881" filterUnits="userSpaceOnUse" color-interpolation-filters="sRGB">
<feFlood flood-opacity="0" result="BackgroundImageFix"/>
<feBlend mode="normal" in="SourceGraphic" in2="BackgroundImageFix" result="shape"/>
<feGaussianBlur stdDeviation="1.71704" result="effect1_foregroundBlur"/>
</filter>
<filter id="filter3_f" x="56.603" y="402.287" width="104.361" height="149.047" filterUnits="userSpaceOnUse" color-interpolation-filters="sRGB">
<feFlood flood-opacity="0" result="BackgroundImageFix"/>
<feBlend mode="normal" in="SourceGraphic" in2="BackgroundImageFix" result="shape"/>
<feGaussianBlur stdDeviation="1.71704" result="effect1_foregroundBlur"/>
</filter>
<filter id="filter4_f" x="235.605" y="408.347" width="71.9431" height="83.4189" filterUnits="userSpaceOnUse" color-interpolation-filters="sRGB">
<feFlood flood-opacity="0" result="BackgroundImageFix"/>
<feBlend mode="normal" in="SourceGraphic" in2="BackgroundImageFix" result="shape"/>
<feGaussianBlur stdDeviation="1.71704" result="effect1_foregroundBlur"/>
</filter>
<filter id="filter5_f" x="324.129" y="330.087" width="86.3957" height="64.5798" filterUnits="userSpaceOnUse" color-interpolation-filters="sRGB">
<feFlood flood-opacity="0" result="BackgroundImageFix"/>
<feBlend mode="normal" in="SourceGraphic" in2="BackgroundImageFix" result="shape"/>
<feGaussianBlur stdDeviation="1.71704" result="effect1_foregroundBlur"/>
</filter>
<filter id="filter6_f" x="410.374" y="400.306" width="92.5812" height="170.96" filterUnits="userSpaceOnUse" color-interpolation-filters="sRGB">
<feFlood flood-opacity="0" result="BackgroundImageFix"/>
<feBlend mode="normal" in="SourceGraphic" in2="BackgroundImageFix" result="shape"/>
<feGaussianBlur stdDeviation="1.71704" result="effect1_foregroundBlur"/>
</filter>
<filter id="filter7_f" x="480.164" y="514.89" width="32.7396" height="72.2422" filterUnits="userSpaceOnUse" color-interpolation-filters="sRGB">
<feFlood flood-opacity="0" result="BackgroundImageFix"/>
<feBlend mode="normal" in="SourceGraphic" in2="BackgroundImageFix" result="shape"/>
<feGaussianBlur stdDeviation="1.71704" result="effect1_foregroundBlur"/>
</filter>
<clipPath id="clip0">
<rect width="776" height="1080" fill="white"/>
</clipPath>
</defs>
</svg>
