<svg width="500" height="500" viewBox="0 0 600 600" fill="none" xmlns="http://www.w3.org/2000/svg">
    <style>
        #Vector_39 {
          animation: eyeGlow 3s linear infinite;
        }

        #mage-dress {
          transform-box: fill-box;
          transform-origin: top;
          animation: dressRotate 3s linear infinite;
        }

        #mage-chest {
          transform-box: fill-box;
          transform-origin: bottom;
          animation: breathMage 2s linear infinite;
        }
        #mage-right-hand {
          transform-box: fill-box;
          transform-origin: top;
          animation: handMove 2s linear infinite;
        }

        #mage-hair {
          transform-box: fill-box;
          transform-origin: top;
          animation: hairRotate 3s linear infinite;
        }

        @keyframes dressRotate {
          0% {
            transform: rotateZ(360deg);
          }
          25% {
            transform: rotateZ(361deg);
          }
          50% {
            transform: rotateZ(360deg);
          }
          75% {
            transform: rotateZ(359deg);
          }
          100% {
            transform: rotateZ(360deg);
          }
        }

        @keyframes hairRotate {
          0% {
            transform: rotateZ(0deg);
          }
          50% {
            transform: rotateZ(1deg);
          }
          100% {
            transform: rotateZ(0deg);
          }
        }

        @keyframes eyeGlow {
          0% {
            fill: red;
          }
          50% {
            fill: yellow;
          }
          100% {
            fill: red;
          }
        }

        @keyframes breathMage {
          0% {
            transform: scale(1.0);
          }
          50% {
            transform: scale(1.015);
          }
          100% {
            transform: scale(1.0);
          }
        }

        @keyframes handMove {
          0% {
            transform: translateY(0px);
          }
          50% {
            transform: translateY(-5px);
          }
          100% {
            transform: translateY(0px);
          }
        }
    </style>
    <g id="attack-the-tower-volva 1">
        <path id="Vector" d="M172.464 523.157L382.79 471.738L415.897 553.004C423.523 557.168 427.67 563.507 430.087 570.928C418.049 571.23 404.355 570.538 395.277 572.616C381.996 580.031 370.029 582.453 360.01 577.473C355.754 575.637 350.542 578.371 345.686 579.403C331.766 584.943 317.102 591.473 308.836 589.473C301.389 593.307 294.519 594.543 288.378 592.501C281.656 595.041 274.934 591.533 268.212 589.856L267.739 587.771L259.355 588.911C248.74 594.935 228.526 598.028 218.515 585.701C211.476 587.747 203.753 592.567 198.408 576.535C187.307 579.843 181.978 579.543 175.891 579.717L172.464 523.157Z" fill="#CC9545"/>
        <path id="Vector_2" d="M220.187 58.899L195.575 77.297L195.573 77.299C187.968 92.667 190.491 130.439 198.415 145.991C206.179 161.224 227.172 165.522 243.012 169.406C244.033 176.173 244.967 181.758 245.105 188.966L226.35 195.103C239.081 213.614 256.452 225.184 279.547 230.187C291.977 220.97 303.375 210.001 309.347 189.807L289.134 182.967C287.945 178.431 287.948 173.895 287.682 169.359C304.923 162.337 326.638 158.339 333.715 137.119C338.063 113.762 339.255 90.735 331.266 68.675L308.25 56.099L260.743 50L220.187 58.899Z" fill="#F6D3CD" fill-opacity="0.961"/>

        <g id="mage-chest">
            <path id="Vector_5" d="M126.189 285.641C143.961 266.311 164.221 246.563 185.906 226.579L226.558 196.47C239.053 214.601 256.522 224.04 279.409 230.756C289.538 225.756 304.998 209.082 309.786 190.794C332.904 187.829 348.589 197.874 353.399 213.023L369.017 262.97C383.807 267.626 398.12 276.742 411.931 290.538C416.599 290.632 419.011 292.982 419.763 296.991C391.161 333.409 406.547 374.554 424.987 401.072C436.685 433.125 434.975 459.312 422.946 465.924C425.661 456.945 417.174 441.064 408.381 434.082C400.322 427.682 392.151 420.626 388.941 410.118L391.416 428.998C378.3 424.78 368.086 392.035 372.45 369.099C369.621 371.907 366.789 374.713 363.955 377.516C364.075 372.507 363.979 367.498 363.447 362.489C360.162 364.6 356.917 366.854 352.736 365.825C360.847 342.345 352.025 324.132 339.567 307.051L337.44 307.317L336.051 290.593L333.579 291.271C321.317 288.416 305.024 287.697 288.334 290.152C271.449 292.636 250.24 299.593 232.247 310.918C226.687 309.338 221.485 306.148 217.225 298.72C202.676 317.948 194.48 366.706 209.925 383.129C202.114 383.201 196.515 376.639 191.283 368.971C190.668 388.206 173.851 401.961 187.403 422.282C164.261 415.548 166.611 386.292 164.222 353.947C163.37 342.419 158.71 326.651 156.552 316.737C151.192 302.205 141.87 282.455 126.189 285.641Z" fill="#580500"/>
            <g id="Vector_6" opacity="0.284" filter="url(#filter0_f)">
                <path d="M293.668 241.62C303.528 234.596 318.894 226.213 341.415 233.54C347.605 240.762 347.756 254.785 347.397 261.187C347.025 267.831 343.806 269.677 340.681 273.94C322.116 276.077 309.214 272.455 293.914 266.105C294.991 257.901 295.102 249.174 293.669 241.62H293.668Z" fill="#F60005"/>
            </g>
            <path id="Vector_7" opacity="0.343" d="M344.15 218.88L344.815 233.32C346.124 239.275 347.115 247.315 344.986 251.434C341.091 274.91 311.989 278.529 292.046 270.651C265.673 282.901 241.069 279.224 218.613 256.222C202.199 292.682 186.857 331.279 164.322 355.501C166.388 385.178 164.859 411.969 183.293 420.727C183.685 419.477 184.065 418.225 184.461 416.977C176.728 399.455 190.714 386.491 191.274 368.977C193.864 372.773 196.549 376.291 199.544 378.875C200.872 376.379 202.291 373.931 203.796 371.537V371.527C197.626 350.163 205.281 314.503 217.219 298.724C221.119 305.524 225.815 308.764 230.845 310.476C230.714 310.549 230.579 310.616 230.448 310.69C232.31 316.118 233.835 319.186 236.554 330.615C231.824 336.112 227.563 340.972 224.214 344.626C224.556 345.18 224.909 345.73 225.264 346.276C223.594 348.1 221.944 349.943 220.314 351.803C221.899 350.386 223.535 349.028 225.221 347.733L235.558 356.677L254.283 332.286L247.609 311.054C277.799 293.386 304.883 287.521 329.289 298.874C325.442 307.439 314.842 318.08 298.995 330.336C311.533 337.094 321.866 345.611 325.229 359.709L379.304 424.829C370.872 396.039 356.509 368.351 338.749 347.959C339.178 347.485 339.612 347.015 340.045 346.534C336.807 340.459 335.136 332.982 334.368 324.713C333.415 314.467 334.875 303.346 334.325 291.473C333.883 291.357 333.439 291.251 332.996 291.141C333.19 291.184 333.383 291.225 333.575 291.269L336.049 290.594L337.431 307.316L339.563 307.048C352.021 324.13 360.84 342.345 352.728 365.826C356.91 366.856 360.156 364.606 363.44 362.495C363.972 367.504 364.074 372.505 363.955 377.514C366.415 375.078 369.02 372.508 372.449 369.104C368.085 392.039 378.294 424.777 391.41 428.997L388.936 410.122C392.144 420.63 400.319 427.685 408.378 434.085C417.171 441.068 425.662 456.943 422.947 465.922C434.976 459.31 436.68 433.123 424.982 401.069C414.612 386.155 405.209 366.615 404.051 345.89V345.88L403.322 344.605C398.082 341.193 393.712 336.954 395.556 326.78C384.962 312.351 374.834 297.83 350.767 286.094C363.79 262.394 353.006 234.939 344.147 218.876L344.15 218.88ZM196.323 385.324C191.577 394.147 187.861 403.484 185.579 413.54C188.714 403.858 192.096 394.333 196.323 385.324Z" fill="black"/>
            <g id="Vector_8" opacity="0.284" filter="url(#filter1_f)">
                <path d="M136.142 282.039C154.694 260.461 169.955 246.011 184.633 232.824L196.631 241.707C190.034 244.904 184.368 249.684 181.022 258.407C179.842 255.894 177.646 255.074 175.518 254.143C178.376 257.992 178.296 262.168 178.294 266.335C173.349 281.614 167.504 296.443 158.667 309.777C154.698 295.419 145.927 287.997 136.141 282.041L136.142 282.039Z" fill="#F60005"/>
            </g>
            <g id="Vector_9" opacity="0.284" filter="url(#filter2_f)">
                <path d="M247.203 251.712L250.426 236.886C260.674 234.958 274.62 236.374 284.708 243.632C287.618 250.8 289.742 262.752 283.729 269.84C278.654 274.18 263.785 279.302 255.772 276.94C256.506 269.083 254.917 260.868 247.203 251.712V251.712Z" fill="#F60005"/>
            </g>
            <g id="Vector_10" opacity="0.284" filter="url(#filter3_f)">
                <path d="M312.168 194.349C317.942 193.279 323.9 193.674 330.001 195.215C343.04 197.638 347.376 207.832 351.47 218.242L344.24 214.058C344.028 216.238 343.601 218.935 341.778 224.983C329.643 216.271 315.847 215.534 302.127 214.433C307.62 207.953 311.289 201.29 312.169 194.349L312.168 194.349Z" fill="#F60005"/>
            </g>

            <g id="Vector_12" opacity="0.284" filter="url(#filter5_f)">
                <path d="M409.603 293.772C412.236 293.7 413.636 295.477 414.99 297.322C407.492 304.842 404.454 316.822 401.768 329.153C400.351 327.005 398.791 324.973 398.952 321.563C400.314 311.305 404.691 302.417 409.603 293.772L409.603 293.772Z" fill="#F60005"/>
            </g>
        </g>
        <g id="mage-hair">


            <path id="Vector_13" d="M263.818 49.98L242.64 54.972L261.333 50.88L308.84 56.976L331.86 69.552C339.849 91.612 338.65 114.642 334.303 138.004C327.226 159.222 305.513 163.214 288.273 170.237C288.538 174.75 288.525 179.263 289.697 183.777L290.907 183.617L311.357 191.19C328.742 188.788 343.254 193.3 352.804 209.797L365.637 252.998C366.513 248.194 368.807 243.988 371.507 239.962C373.797 236.545 377.067 234.986 378.642 229.828C379.381 225.194 376.282 220.994 372.943 216.813C363.736 206.323 373.712 197.285 383.248 196.181C390.153 194.848 396.614 192.887 398.973 185.191C405.361 179.599 403.088 174.007 398.963 168.415C391.418 162.562 399.949 154.297 405.808 149.905C413.18 127.703 387.407 112.03 371.423 106.97C361.429 105.203 356.285 94.415 353.491 85.91C358.745 75.571 353.436 67.417 345.414 59.826L263.819 49.981L263.818 49.98ZM220.058 60.307L185.425 68.481C163.84 79.04 161.145 93.251 168.115 109.338C170.229 115.748 162.773 123.861 153.149 124.892C129.957 127.05 107.369 171.978 147.151 184.462C152.922 189.512 152.29 198.697 143.701 202.769C134.738 209.849 132.495 222.547 138.721 232.12C142.269 237.578 150.791 239.336 156.813 245.2C157.919 242.555 158.441 239.732 157.273 236.437L163.637 240.69L165.211 246.528C174.166 238.465 180.003 232.566 185.329 227.224C189.972 233.177 195.487 238.254 203.379 240.958C192.342 246.517 196.9 261.904 208.328 268.82C200.345 275.957 204.588 290.254 216.073 297.54C225.496 302.146 234.54 304.761 245.349 303.367C238.811 299.687 239.789 295.698 242.317 292.751C251.01 281.363 258.849 267.981 242.65 252.442C250.994 240.287 246.065 230.021 232.976 225.64C235.674 221.555 238.319 215.054 237.979 209.143C234.179 205.433 230.676 201.305 227.471 196.739C226.961 196.59 226.447 196.457 225.928 196.342L226.956 195.999L226.946 195.979L231.177 194.596L245.692 189.754C245.549 182.589 244.62 177.019 243.603 170.28C227.763 166.395 206.771 162.106 199.01 146.873C191.085 131.322 188.567 93.543 196.171 78.175L220.059 60.307H220.058Z" fill="#D40301"/>
            <path id="Vector_14" opacity="0.315" d="M183.008 115.919C182.538 106.671 182.845 97.776 192.358 93.065L196.887 140.305C201.397 157.304 224.393 164.033 244.84 172.178L244.298 191.404L227.279 196.583L237.586 210.833L233.838 226.017C246.152 231.732 246.388 241.84 243.597 253.048C256.075 269.034 249.764 279.085 244.942 289.645C242.87 294.18 240.517 297.815 241.757 304.242C232.699 303.527 224.83 300.432 217.139 296.984L231.541 294.85C239.191 282.22 244.6 271.084 244.449 263.654C236.712 266.445 231.104 270.301 224.526 273.672C233.476 256.821 240.745 241.112 231.702 236.469C224.018 241.382 222.512 245.413 219.022 249.727L217.642 238.303C229.972 222.208 224.028 208.589 212.363 211.207C219.021 190.45 213.743 177.651 198.243 171.666C179.55 169.126 153.65 160.356 171.781 147.082C181.508 140.683 189.643 133.223 183.008 115.916V115.919ZM137.205 214.385C139.659 207.855 146.691 200.557 152.647 193.44C144.711 211.026 142.327 226.603 164.785 233.197C166.275 226.157 168.481 219.204 175.13 212.807L185.448 220.997L185.938 227.867L165.85 245.527L158.835 238.057L156.548 243.293C146.321 235.838 131.436 231.07 137.205 214.386V214.385ZM343.534 88.825C343.103 101.22 346.755 113.528 355.747 118.697L357.008 147.084C349.513 165.19 338.444 166.984 310.505 172.788C308.165 178.75 312.271 186.769 318.812 190.542L310.625 190.272L290.693 184.778L287.927 171.323C305.325 162.946 325.681 157.179 332.609 139.563L337.439 97.567L343.534 88.825Z" fill="#1A1A1A"/>
            <path id="Vector_15" opacity="0.315" d="M363.94 104.113C387.22 113.631 409.353 127.939 404.643 149.475C400.401 155.945 392.871 162.417 399.033 168.889C405.809 181.935 397.51 186.689 391.848 192.894C373.708 198.504 363.07 206.514 377.354 222.499C379.164 236.133 369.261 241.107 364.914 250.189L351.25 208.321L342.462 196.331L356.642 199.648C358.973 192.613 365.033 188.949 378.942 183.143C384.519 180.501 389.414 177.178 391.112 170.657C376.978 162.632 383.576 154.947 394.036 143.685C405.266 126.445 377.537 116.625 363.938 104.114L363.94 104.113Z" fill="#1A1A1A"/>
            <g id="Vector_16" opacity="0.7" filter="url(#filter6_f)">
                <path d="M154.615 127.69C163.744 125.233 166.392 121.155 170.621 117.473C170.296 114.076 172.029 110.507 171.02 107.278C166.611 93.1533 169.127 84.5229 178.39 77.5869L181.1 94.7301C179.182 97.6182 177.865 101.047 176.902 104.779C174.934 112.403 176.866 121.638 173.314 129.422C155.036 144.724 153.07 158.901 161.541 172.359C169.702 187.994 158.207 206.378 160.734 225.584C143.052 219.067 153.705 203.482 157.731 190.017L137.301 172.357C127.58 153.926 132.029 138.734 154.615 127.688V127.69Z" fill="#C5651C"/>
            </g>
            <g id="Vector_17" opacity="0.7" filter="url(#filter7_f)">
                <path d="M173.311 176.171C180.53 194.712 194.502 203.966 208.978 212.531C204.515 227.549 214.164 238.804 218.534 251.468L214.864 251.897C212.672 256.388 221.655 266.571 225.033 277.092L219.526 279.843C221.055 287.613 223.272 293.32 226.106 297.173C215.288 293.427 208.802 286.946 210.364 275.381L221.755 276.424C219.849 273.565 218.871 270.422 216.136 268.039C209.374 262.146 198.187 259.342 204.583 245.127L215.118 245.377C206.917 236.392 185.197 229.542 199.355 217.025C182.439 215.246 171.688 200.859 173.312 176.175L173.311 176.171Z" fill="#C5651C"/>
            </g>
            <g id="Vector_32" opacity="0.7" filter="url(#filter10_f)">
                <path d="M364.193 111C370.997 119.806 386.629 120.388 386.863 139.048C383.758 148.431 377.387 157.408 383.28 170.39C369.605 177.005 355.565 185.766 354.314 196.818C350.095 192.558 344.52 189.652 337.531 188.161C343.905 177.811 356.289 168.505 376.479 166.444C357.024 155.503 367.632 124.469 364.195 111.001L364.193 111Z" fill="#C5651C"/>
            </g>
        </g>
        <g id="mage-left-hand">
            <path id="Vector_18" d="M139 287.878L130.392 284.415H130.393C119.731 289.641 110.514 296.071 102.623 303.605C98.7846 308.249 97.7886 313.664 99.1246 319.712L98.5626 339.739C98.6956 347.366 101.063 350.748 104.45 352.194L116.308 358.478C117.736 352.496 117.423 346.516 114.286 340.536L114.379 338.017C119.354 336.035 124.35 334.105 129.367 332.228C130.16 332.502 132.452 331.995 133.257 332.251C135.696 333.024 136.133 335.771 137.269 338.191C136.243 347.631 143.883 356.203 151.696 352.766C150.917 346.826 148.433 341.024 152.589 339.094C154.022 332.624 155.288 325.566 156.072 316.823L153 305.5L147 296L139 287.878Z" fill="#F6D3CD" fill-opacity="0.961"/>
            <path id="Vector_19" opacity="0.343" d="M153.378 298.115L144.422 315.448C132.682 308.502 121.108 305.018 110.282 318.179C105.248 331.006 105.032 343.606 111.482 355.886L116.635 358.618C118.063 352.637 117.757 346.655 114.621 340.675L114.706 338.157C122.221 335.178 126.013 333.743 129.693 332.362C130.486 332.637 132.787 332.128 133.593 332.384C136.031 333.157 136.463 335.91 137.598 338.329C136.572 347.769 144.214 356.335 152.028 352.898C151.248 346.958 148.761 341.158 152.917 339.228C153.33 337.365 153.728 335.443 154.106 333.455L152.917 305L151.112 302.5L153.378 298.115Z" fill="black"/>
        </g>
        <g id="mage-dress">
            <path id="Vector_20" opacity="0.455" d="M172.464 538.857L191.317 514.294L353.923 495.539L398.705 537.144L419.785 555.372C409.555 552.457 397.353 553.598 394.29 567.691L393.318 559.915C380.396 544.808 367.139 532.206 352.917 526.839L357.259 556.705C352.42 558.212 347.973 561.672 344.435 569.685L340.807 534.974L334.401 565.337L329.701 562.38C324.157 571.563 321.084 580.207 319.538 588.517L304.914 591.777C290.574 579.499 275.122 570.556 263.183 551.075L268.553 587.071L257.19 589.245L255.34 542.029L249.834 534.069C240.677 551.112 236.154 564.699 219.757 582.951L192.787 545.899C187.299 549.956 185.519 554.477 175.402 557.955L172.464 538.857Z" fill="black"/>
            <path id="Vector_21" d="M225.843 345.63L338.231 347.343C364.44 377.107 383.355 422.792 386.941 464.667C395.435 500.557 404.93 533.441 418.601 553.802C391.313 553.264 370.719 530.818 350.474 507.231C339.865 515.289 335.889 536.963 329.004 552.664L327.748 549.025C318.783 565.202 316.18 578.198 314.974 590.496C294.657 580.115 266.119 551.106 249.929 522.072C238.341 539.476 227.992 554.898 219.664 567.087C212.734 540.779 199.495 530.24 183.454 526.707C179.964 535.197 172.092 540.557 162.156 544.444C167.354 518.467 173.294 487.88 183.059 433.589C184.055 397.637 202.891 370.605 225.842 345.629L225.843 345.63Z" fill="#580500"/>
            <path id="Vector_22" opacity="0.455" d="M362.404 382.99C373.812 433.476 370.001 462.823 382.5 511.975C363.21 499.203 350.642 480.823 339.082 461.605C331.488 486.375 326.443 509.113 325.371 528.662L320.797 526.938L307.877 573.074C283.09 553.914 262.54 528.936 248.191 495.421C234.964 517.755 227.441 537.804 220.65 557.562L190.248 503.573L167.753 516.042C165.919 525.517 164.055 534.987 162.161 544.451C172.097 540.564 179.966 535.201 183.457 526.711C199.497 530.246 212.734 540.788 219.663 567.095C227.991 554.908 238.336 539.487 249.924 522.084C266.112 551.118 294.652 580.121 314.969 590.501C316.175 578.204 318.784 565.211 327.749 549.034L329.002 552.676C335.887 536.974 339.86 515.291 350.469 507.236C370.714 530.822 391.312 553.272 418.599 553.814C404.929 533.454 395.427 500.568 386.933 464.678C384.585 437.233 375.66 408.148 362.403 382.988L362.404 382.99Z" fill="black"/>
            <g id="Vector_23" opacity="0.284" filter="url(#filter8_f)">
                <path d="M224.215 354.151C236.418 367.886 244.389 378.638 268.192 400.551C270.77 411.839 270.904 420.988 266.114 425.829C226.488 446.963 202.592 445.959 187.859 432.062C187.784 403.551 202.181 378.055 224.219 354.153L224.215 354.151Z" fill="#F60005"/>
                <g id="Vector_11" opacity="0.284" filter="url(#filter4_f)">
                    <path d="M364.108 269.664C366.426 268.835 368.634 267.957 368.914 266.222C383.336 271.448 396.682 280.21 408.818 292.944C402.795 301.155 399.435 310.512 397.696 320.566C387.351 301.16 376.212 282.681 357.685 272.818C357.9 258.489 357.689 244.465 355.638 231.752C358.776 240.086 362.476 252.347 366.258 265.191C366.747 266.682 365.926 268.172 364.107 269.662L364.108 269.664Z" fill="#F60005"/>
                </g>
            </g>
            <g id="Vector_24" opacity="0.284" filter="url(#filter9_f)">
                <path d="M313.255 406.403C321.09 396.715 328.925 375.711 336.76 355.965C358.408 378.909 374.481 414.51 377.895 450.475C363.92 451.042 351.51 449.047 336.27 438.233C328.202 433.453 318.731 421.549 313.254 406.402L313.255 406.403Z" fill="#F60005"/>
            </g>
        </g>
        <path id="Vector_25" d="M230.447 310.696C262.584 292.602 300.599 282.596 334.33 291.478C334.88 303.351 333.423 314.469 334.375 324.715C335.144 332.985 336.805 340.461 340.043 346.535C319.643 369.243 303.968 382.661 287.754 383.632C265.881 384.941 238.889 368.412 224.218 344.629C227.568 340.974 231.824 336.11 236.555 330.613C233.836 319.184 232.313 316.123 230.451 310.694L230.447 310.696Z" fill="#CC9545"/>
        <path id="Vector_26" opacity="0.315" d="M186.083 94.772C180.555 84.889 180.929 74.735 186.743 65.29L188.186 76.524L192.618 73.557C193.047 76.047 195.856 79.295 199.531 81.658C200.851 75.168 205.712 68.672 215.197 64.45C216.152 65.84 218.037 70.096 221.009 73.04L226.628 62.555C232.24 59.897 237.666 57.201 245.511 54.99C249.219 58.906 254.598 62.65 259.331 65.7C266.887 60.712 269.832 55.291 272.934 49.886L296.621 55.916C299.05 62.418 299.448 68.466 299.348 72.959C306.711 68.058 312.363 61.757 314.659 52.711C317.047 60.487 318.087 69.611 318.169 79.694C322.825 73.909 327.513 68.16 328.289 57.953L334.462 63.018L331.892 44.566L345.753 60.861L346 65.5L345.5 70.5L344.5 74L343 77.5L342.818 89.533C342.118 94 339.424 98.927 335.322 101.619C334.626 97.274 334.168 93.007 329.673 87.396L323.04 87.59C321.099 92.885 315.847 95.531 310.734 98.289C309.185 93.397 308.338 88.506 304.969 83.614L287.817 80.931C286.98 88.721 279.325 93.703 274.044 98.318C265.428 93.832 261.324 89.105 257.68 81.868L241.744 81.575C240.297 87.205 239.189 90.261 241.008 94.607C231.647 91.823 225.761 86.721 220.258 81.366C216.665 87.792 217.025 92.636 216.511 97.832C207.191 96.105 203.951 94.574 198.032 86.665L186.083 94.772Z" fill="black"/>
        <path id="Vector_27" opacity="0.6" d="M269.427 127.74L268.5 126.214V128V136V137.225L269.357 136.35L272.357 133.288L272.629 133.011L272.427 132.679L269.427 127.74Z" fill="black" stroke="#070707"/>
        <path id="Vector_28" opacity="0.315" d="M335.022 97.22C337.729 110.698 336.804 125.993 333.983 142.235C320.908 155.683 304.91 163.286 288.173 169.41L288.935 183.461L310.091 192.098C292.856 198.394 276.129 207.739 257.154 203.596C264.581 201.255 277.923 196.722 280.856 188.898L245.686 182.056L245.268 171.708L214.715 159.068C242.291 165.059 279.315 163.539 301.77 156.048C323.469 148.81 331.363 130.662 335.025 97.218L335.022 97.22Z" fill="black"/>
        <g id="mage-sword">
            <path id="Vector_29" d="M125.354 349.479L138.686 346.536L155.999 388.089L137.993 393.802L125.354 349.479Z" fill="#4F4A3A"/>
            <path id="Vector_30" d="M128.136 319.021C137.22 319.021 144.584 326.385 144.584 335.469C144.584 344.553 137.22 351.917 128.136 351.917C119.052 351.917 111.688 344.553 111.688 335.469C111.688 326.386 119.052 319.022 128.135 319.021H128.136ZM125.7 404.723C136.64 385.451 154.859 384.071 173.66 389.141L173.314 400.221C166.001 397.836 158.317 399.319 151.419 401.126C144.984 402.811 139.105 407.261 133.666 411.648L125.7 404.723Z" fill="#68747D"/>
            <path id="Vector_31" d="M139.166 407.568C146.575 401.653 156.226 399.124 165.854 398.508L213.317 568.958C214.891 578.795 214.373 586.122 212.689 592.05C207.216 587.704 202.188 581.94 198.339 572.395L139.166 407.568Z" fill="#FAF8F6"/>

            <path id="Vector_33" opacity="0.343" d="M121.537 323.643L127.413 322.419C126.687 331.07 127.027 339.721 130.841 348.373L126.434 349.107C120.274 341.525 117.914 333.182 121.537 323.643ZM130.351 322.42L132.922 322.909C132.202 331.556 132.792 339.766 134.024 347.761L132.188 348.251C130.593 340.077 129.072 331.871 130.351 322.419V322.42ZM143.327 409.11L151.162 405.683L209.838 584.462C207.154 581.367 204.471 578.587 201.787 572.02L143.327 409.11Z" fill="black"/>
            <path id="Vector_34" opacity="0.343" d="M126.74 352.941L139.551 348.786L154.614 385.663L147.073 382.361L140.768 367.077L130.895 368.003L126.74 352.941ZM126.566 404.552L132.579 405.87C143.292 399.532 154.053 393.27 168.825 393.247L173.312 389.662L173.075 400.262L166.283 399.968L211.751 569.835L163.391 416.758L143.151 418.126L138.245 408.611L133.319 410.785L126.566 404.552Z" fill="black"/>
        </g>
        <path id="Vector_35" d="M222.658 118.974C226.948 117.541 231 114.845 232.681 113.522L233.644 112.765L234.08 112.423L233.695 112.024L232.851 111.15L232.851 111.15L205.564 111.497L205.07 111.579C205.07 111.579 205.07 111.579 205.07 111.579C205.563 114.55 206.881 117.056 209.249 118.432C211.301 119.626 213.037 120.326 215.098 120.429C217.142 120.532 219.455 120.045 222.658 118.974ZM222.658 118.974L222.5 118.5M222.658 118.974L222.5 118.5M222.5 118.5C216.125 120.631 213.536 120.348 209.5 118L232.371 113.129C230.718 114.43 226.718 117.091 222.5 118.5ZM224.423 102.776L224.9 103.075C224.9 103.075 224.9 103.075 224.9 103.076C225.462 103.429 227.016 104.449 228.353 105.341L228.354 105.341C229.7 106.237 232.5 108.007 234.573 109.285L234.574 109.285C236.497 110.47 237.743 111.382 238.506 112.179C239.254 112.961 239.503 113.595 239.5 114.244C239.496 114.986 239.369 115.191 239.26 115.27C239.196 115.316 239.079 115.366 238.844 115.384C238.608 115.402 238.294 115.385 237.872 115.329L237.872 115.329C236.805 115.189 235.342 115.476 233.19 116.227C231.021 116.984 228.077 118.241 224.014 120.116C219.002 122.429 216.294 123.506 213.842 124.021C214.144 123.909 214.426 123.792 214.64 123.674C214.746 123.615 214.86 123.542 214.953 123.455C214.979 123.431 215.012 123.396 215.046 123.352C215.115 123.324 215.178 123.297 215.235 123.271C215.329 123.228 215.441 123.174 215.53 123.107C215.568 123.079 215.657 123.009 215.717 122.892C215.751 122.825 215.783 122.729 215.775 122.613C215.767 122.492 215.719 122.392 215.661 122.318C215.56 122.192 215.43 122.144 215.382 122.128C215.318 122.106 215.252 122.093 215.197 122.085C214.987 122.053 214.643 122.046 214.179 122.049C213.701 122.052 213.055 122.067 212.217 122.09C209.782 122.155 208.125 122.1 207.104 121.92C206.587 121.829 206.293 121.715 206.147 121.613C206.08 121.566 206.063 121.535 206.06 121.529L206.06 121.528C206.059 121.526 206.054 121.516 206.058 121.483C206.083 121.316 206.103 121.11 206.055 120.91C205.998 120.674 205.857 120.488 205.647 120.363C205.465 120.255 205.247 120.201 205.03 120.166C204.805 120.129 204.527 120.104 204.196 120.082C203.829 120.056 203.579 120.035 203.397 120.003C203.212 119.971 203.164 119.937 203.156 119.931C203.156 119.931 203.156 119.931 203.156 119.931C203.155 119.93 203.153 119.928 203.148 119.92C203.141 119.908 203.128 119.881 203.114 119.827C203.083 119.708 203.062 119.533 203.036 119.242C202.987 118.684 202.9 118.218 202.491 117.791C202.134 117.418 201.552 117.104 200.691 116.672L200.691 116.671C199.418 116.032 197.685 114.889 196.346 113.88C195.7 113.392 195.162 112.948 194.818 112.617C194.916 112.589 195.004 112.561 195.083 112.533C195.196 112.494 195.309 112.447 195.41 112.387C195.511 112.328 195.627 112.239 195.711 112.103C195.906 111.787 195.789 111.468 195.704 111.293C195.616 111.112 195.469 110.9 195.315 110.677L195.309 110.668L195.308 110.668C194.991 110.209 194.476 109.377 194.135 108.761L194.498 104.038L194.505 103.953C194.521 103.963 194.536 103.974 194.552 103.985L194.552 103.986C195.922 104.962 197.243 105.494 199.141 105.603C201.003 105.71 203.418 105.41 206.98 104.765L206.98 104.765C209.102 104.38 210.977 103.902 212.708 103.459L212.714 103.458C216.69 102.443 219.888 101.633 223.801 102.442L224.096 102.962L224.423 102.776ZM194.483 112.24C194.483 112.24 194.485 112.243 194.487 112.249C194.484 112.243 194.482 112.239 194.483 112.24Z" fill="black" stroke="black"/>
        <path id="Vector_36" d="M319.9 104.896C320.232 103.98 320.599 102.156 320.823 100.587C320.937 99.798 321.017 99.0503 321.038 98.4925C321.048 98.2183 321.045 97.9646 321.017 97.768C321.004 97.6748 320.979 97.5536 320.924 97.4422C320.873 97.3411 320.718 97.1041 320.402 97.1041L320.4 97.1042C320.152 97.105 319.336 97.1765 318.267 97.281C317.181 97.3872 315.796 97.5315 314.378 97.6852C311.547 97.9919 308.563 98.3379 307.568 98.492L307.568 98.492C300.918 99.5221 294.579 103.062 291.849 107.384L291.849 107.384C291.606 107.77 291.397 108.115 291.285 108.413C291.169 108.719 291.109 109.104 291.36 109.452C291.569 109.743 291.929 109.898 292.279 110.012C292.647 110.131 293.137 110.243 293.744 110.374L299.186 112.265C301.391 113.183 303.197 113.496 304.464 113.577C305.099 113.617 305.597 113.599 305.941 113.57C306.114 113.556 306.248 113.538 306.341 113.524C306.387 113.517 306.424 113.511 306.45 113.506L306.481 113.5L306.491 113.498L306.494 113.497L306.495 113.497L306.496 113.497C306.496 113.497 306.496 113.497 306.39 113.008M319.9 104.896L319.43 104.726M319.9 104.896C319.9 104.896 319.9 104.896 319.9 104.896L319.43 104.726M319.9 104.896C319.412 106.244 318.289 107.442 316.955 108.468C315.612 109.502 314.003 110.403 312.467 111.142C310.928 111.882 309.447 112.468 308.352 112.868C307.804 113.068 307.351 113.222 307.035 113.326C306.877 113.379 306.753 113.418 306.668 113.445C306.625 113.459 306.592 113.469 306.57 113.476L306.545 113.484L306.538 113.486L306.536 113.486L306.535 113.486C306.535 113.487 306.535 113.487 306.39 113.008M319.43 104.726C320.056 102.997 320.876 97.6041 320.402 97.6041L319.43 104.726ZM306.39 113.008L306.535 113.487L306.516 113.492L306.496 113.497L306.39 113.008ZM333.005 96.1898L332.973 96.218L332.973 96.2183C332.351 96.7567 331.132 97.5349 330.295 97.9221C329.558 98.2619 329.045 98.5494 328.573 99.112C328.125 99.6447 327.73 100.407 327.141 101.629C325.096 105.862 323.555 108.022 321.272 109.913C320.6 110.47 320.082 110.903 319.717 111.237C319.534 111.405 319.38 111.556 319.261 111.693C319.148 111.823 319.035 111.974 318.973 112.14C318.903 112.33 318.887 112.588 319.063 112.814C319.203 112.993 319.405 113.069 319.536 113.107C319.809 113.187 320.21 113.218 320.645 113.25L320.993 113.275L320.787 113.47L320.787 113.471C319.805 114.404 318.113 115.257 316.194 115.839C314.282 116.42 312.213 116.711 310.513 116.57L310.513 116.57C309.985 116.526 309.571 116.495 309.271 116.485C309.122 116.479 308.989 116.479 308.878 116.486C308.793 116.492 308.632 116.505 308.491 116.583C308.41 116.628 308.271 116.731 308.221 116.927C308.171 117.119 308.24 117.275 308.285 117.351C308.362 117.479 308.483 117.568 308.551 117.616C308.44 117.588 308.325 117.556 308.204 117.521C307.456 117.298 306.513 116.873 306.131 116.605L306.131 116.604C305.826 116.391 305.386 116.234 304.941 116.129C304.484 116.021 303.971 115.957 303.487 115.957C301.932 115.957 299.594 115.556 297.203 114.931C294.817 114.306 292.429 113.471 290.775 112.628C290.35 112.411 289.855 112.216 289.396 112.075C288.948 111.937 288.489 111.835 288.15 111.833H288.15C287.687 111.831 287.379 111.801 287.181 111.746C287.085 111.719 287.036 111.692 287.013 111.676C286.996 111.664 286.994 111.658 286.993 111.656C286.993 111.656 286.993 111.656 286.993 111.656C286.985 111.637 286.957 111.535 287.041 111.242C287.121 110.962 287.28 110.589 287.526 110.09L287.526 110.09C289.419 106.241 292.644 102.903 296.905 100.414L296.905 100.414C302.467 97.165 306.608 96.1072 315.476 95.7036L315.476 95.7036C318.757 95.5541 320.926 95.3879 322.762 95.0592C324.607 94.7286 326.101 94.2362 328.035 93.4506C328.035 93.4505 328.035 93.4505 328.035 93.4504L329.384 92.9056L329.268 94.0058L329.268 94.0083L329.075 95.9363L329.014 96.5365L329.615 96.4843L332.079 96.2703L333.005 96.1898ZM309.808 117.762C309.807 117.762 309.805 117.763 309.803 117.764C309.805 117.763 309.807 117.762 309.808 117.762C309.808 117.762 309.808 117.762 309.808 117.762Z" fill="black" stroke="black"/>
        <g id="mage-helmet">
            <g id="Vector_37">
                <path d="M200.978 43.2103C202.277 36.5463 205.534 30.8623 215.903 28.7333C239.438 15.6953 264.151 5.01034 300.534 17.6713C310.754 19.4973 314.824 23.6893 316.597 28.7633C328.331 37.3923 337.741 47.9563 345.56 59.8463C346.618 65.3903 345.575 70.5833 343.881 75.6683C339.532 74.5313 335.453 72.8883 330.715 72.4823C326.53 78.1713 321.49 82.1503 315.922 85.0723C316.152 79.7393 315.105 73.9793 312.565 67.7223C306.87 74.1513 301.467 77.9383 296.233 80.2193C296.899 75.5733 297.283 70.8703 295.673 65.7693C290.099 62.8743 283.318 60.9453 275.435 59.8973C272.083 64.5273 267.743 67.9723 262.084 69.8333C257.141 67.9263 252.212 65.9083 247.72 60.3863C241.95 62.1813 236.319 64.0473 231.46 66.3003C229.413 71.7973 229.03 76.8793 228.799 81.9223C223.102 79.5823 218.441 75.8623 215.51 69.8343L209.622 75.4443C206.426 81.8683 207.832 85.6623 207.561 90.4143C201.895 87.7263 198.393 84.6043 194.989 81.4633L185.779 89.1073C179.209 71.8133 192.325 57.8933 200.978 43.2103Z" fill="#9B8476"/>
                <path d="M201.839 43.7181L201.926 43.5702L201.959 43.4017C202.59 40.1657 203.676 37.2753 205.781 34.9409C207.879 32.6149 211.075 30.7453 216.104 29.7129L216.253 29.6822L216.387 29.6081C228.135 23.1001 240.085 17.2329 253.595 14.546C267.083 11.8635 282.176 12.3419 300.205 18.6158L300.28 18.6418L300.358 18.6557C305.366 19.5505 308.775 21.0093 311.128 22.7958C313.466 24.5709 314.821 26.7139 315.653 29.0932L315.755 29.3855L316.004 29.569C327.572 38.0758 336.87 48.4883 344.614 60.2279C345.507 65.1418 344.694 69.8013 343.223 74.4546C342.332 74.206 341.435 73.9363 340.527 73.6635C337.458 72.7412 334.272 71.7835 330.8 71.486L330.241 71.4381L329.909 71.8898C326.202 76.9295 321.808 80.5954 316.952 83.3686C316.914 78.3711 315.804 73.0446 313.491 67.3462L312.885 65.8527L311.816 67.0593C306.802 72.7197 302.047 76.2706 297.465 78.5429C297.965 74.4147 298.09 70.1066 296.626 65.4684L296.501 65.073L296.134 64.8819C290.429 61.9192 283.529 59.9647 275.566 58.9061L274.975 58.8274L274.625 59.3109C271.449 63.697 267.381 66.9579 262.107 68.7704C257.31 66.9123 252.713 64.9399 248.495 59.7553L248.068 59.2305L247.423 59.4315C241.651 61.227 235.964 63.1096 231.039 65.3931L230.666 65.5661L230.522 65.9514C228.618 71.0647 228.121 75.8199 227.871 80.4262C222.961 78.1456 218.988 74.7019 216.409 69.3971L215.811 68.1664L214.82 69.1103L208.932 74.7203L208.805 74.8416L208.726 74.9989C206.26 79.9553 206.404 83.5883 206.537 86.9416C206.562 87.5744 206.586 88.1972 206.593 88.8171C201.872 86.3609 198.759 83.5821 195.667 80.7284L195.023 80.1348L194.35 80.6938L186.245 87.4205C183.73 79.6416 185.289 72.5458 188.573 65.6076C190.314 61.9308 192.53 58.3191 194.869 54.6855C195.474 53.7464 196.088 52.8044 196.704 51.8597C198.458 49.167 200.228 46.4522 201.839 43.7181Z" stroke="black" stroke-opacity="0.44" stroke-width="2"/>
            </g>
            <g id="Vector_38">
                <mask id="path-39-inside-1" fill="white">
                    <path fill-rule="evenodd" clip-rule="evenodd" d="M313.187 35.2121C312.922 35.2211 312.599 35.2521 312.202 35.2981C308.227 35.7651 306.407 36.6521 296.498 42.9681C293.103 45.1311 290.454 46.1491 288.218 46.1491C286.912 46.1491 286.91 46.1491 286.91 47.5631V48.9781L289.396 48.8171C290.941 48.7141 292.723 48.3121 294.109 47.7571C296.042 46.9811 297.051 46.8271 301.736 46.6211L307.135 46.3851L308.388 45.1751C309.621 43.9781 312.962 39.1391 312.962 38.5551C312.962 38.3891 313.579 38.0101 314.334 37.7081C315.94 37.0651 315.979 36.9291 314.859 35.8761C314.303 35.3551 313.984 35.1861 313.187 35.2121ZM272.215 37.3761C271.294 37.3961 270.492 38.1291 269.43 39.7221C268.388 41.3183 267.416 42.9589 266.516 44.6391L265.156 47.2421L265.959 47.8961C267.061 48.7881 267.333 48.7241 267.876 47.4351C268.646 45.6051 271.653 41.5581 273.361 40.0551L274.957 38.6511L274.089 38.0831C273.364 37.6081 272.767 37.3641 272.215 37.3761ZM252.205 38.9831L250.962 39.6151C250.278 39.9641 249.441 40.5531 249.098 40.9331C248.488 41.6071 248.51 41.6631 250.019 43.1711C251.82 44.9731 254.479 48.5091 255.418 50.3491C256.14 51.7621 256.17 51.7831 257.068 51.3021C258.341 50.6211 258.144 49.8981 255.161 44.4141L252.205 38.9831ZM211.155 45.8071C208.978 45.8121 208.899 45.8441 207.792 47.1771L206.656 48.5491H207.652C208.316 48.5491 209.397 49.1101 210.877 50.2311C212.1 51.1571 213.699 52.2371 214.433 52.6311C216.13 53.5401 216.836 53.5301 222.467 52.4811C226.147 51.7951 227.661 51.6611 229.859 51.8381C232.029 52.0121 232.843 51.9391 233.662 51.5161C235.572 50.5281 236.554 48.3151 235.675 46.9741L235.118 46.1281L233.565 47.6811C231.402 49.8441 231.137 49.8581 224.599 48.2171C217.433 46.4181 213.999 45.7991 211.155 45.8071ZM310.04 40.0541C310.058 40.0541 310.076 40.0581 310.083 40.0641C310.291 40.2731 307.843 43.0271 307.094 43.4281C306.728 43.6251 305.239 43.9971 303.784 44.2531C302.329 44.5101 300.675 44.8231 300.11 44.9501C299.377 45.1131 299.69 44.8231 301.192 43.9641C303.435 42.6811 309.47 40.0241 310.04 40.0541ZM212.419 48.9021C212.381 48.9021 212.35 48.8981 212.323 48.9021C211.917 48.9711 212.777 49.7051 214.347 50.6061C216.333 51.7441 216.478 51.7621 221.246 51.1841L224.663 50.7661L222.103 50.3161C219.796 49.9071 213.104 48.9291 212.419 48.9021Z"/>
                </mask>
                <path fill-rule="evenodd" clip-rule="evenodd" d="M313.187 35.2121C312.922 35.2211 312.599 35.2521 312.202 35.2981C308.227 35.7651 306.407 36.6521 296.498 42.9681C293.103 45.1311 290.454 46.1491 288.218 46.1491C286.912 46.1491 286.91 46.1491 286.91 47.5631V48.9781L289.396 48.8171C290.941 48.7141 292.723 48.3121 294.109 47.7571C296.042 46.9811 297.051 46.8271 301.736 46.6211L307.135 46.3851L308.388 45.1751C309.621 43.9781 312.962 39.1391 312.962 38.5551C312.962 38.3891 313.579 38.0101 314.334 37.7081C315.94 37.0651 315.979 36.9291 314.859 35.8761C314.303 35.3551 313.984 35.1861 313.187 35.2121ZM272.215 37.3761C271.294 37.3961 270.492 38.1291 269.43 39.7221C268.388 41.3183 267.416 42.9589 266.516 44.6391L265.156 47.2421L265.959 47.8961C267.061 48.7881 267.333 48.7241 267.876 47.4351C268.646 45.6051 271.653 41.5581 273.361 40.0551L274.957 38.6511L274.089 38.0831C273.364 37.6081 272.767 37.3641 272.215 37.3761ZM252.205 38.9831L250.962 39.6151C250.278 39.9641 249.441 40.5531 249.098 40.9331C248.488 41.6071 248.51 41.6631 250.019 43.1711C251.82 44.9731 254.479 48.5091 255.418 50.3491C256.14 51.7621 256.17 51.7831 257.068 51.3021C258.341 50.6211 258.144 49.8981 255.161 44.4141L252.205 38.9831ZM211.155 45.8071C208.978 45.8121 208.899 45.8441 207.792 47.1771L206.656 48.5491H207.652C208.316 48.5491 209.397 49.1101 210.877 50.2311C212.1 51.1571 213.699 52.2371 214.433 52.6311C216.13 53.5401 216.836 53.5301 222.467 52.4811C226.147 51.7951 227.661 51.6611 229.859 51.8381C232.029 52.0121 232.843 51.9391 233.662 51.5161C235.572 50.5281 236.554 48.3151 235.675 46.9741L235.118 46.1281L233.565 47.6811C231.402 49.8441 231.137 49.8581 224.599 48.2171C217.433 46.4181 213.999 45.7991 211.155 45.8071ZM310.04 40.0541C310.058 40.0541 310.076 40.0581 310.083 40.0641C310.291 40.2731 307.843 43.0271 307.094 43.4281C306.728 43.6251 305.239 43.9971 303.784 44.2531C302.329 44.5101 300.675 44.8231 300.11 44.9501C299.377 45.1131 299.69 44.8231 301.192 43.9641C303.435 42.6811 309.47 40.0241 310.04 40.0541ZM212.419 48.9021C212.381 48.9021 212.35 48.8981 212.323 48.9021C211.917 48.9711 212.777 49.7051 214.347 50.6061C216.333 51.7441 216.478 51.7621 221.246 51.1841L224.663 50.7661L222.103 50.3161C219.796 49.9071 213.104 48.9291 212.419 48.9021Z" fill="#0C0B0B"/>
                <path d="M267.746 6.0001H268.246V5.50089L267.747 5.5001L267.746 6.0001ZM218.631 20.2481L218.395 19.8075L218.395 19.8075L218.631 20.2481ZM211.326 23.5041L211.172 23.0283L211.172 23.0284L211.326 23.5041ZM198.546 36.1241L199.025 36.2665L199.025 36.2665L198.546 36.1241ZM196.157 41.0941L196.581 41.3598L196.581 41.3597L196.157 41.0941ZM190.823 49.5561L191.246 49.8231L191.246 49.823L190.823 49.5561ZM185.37 59.0261L184.921 58.806L184.921 58.8067L185.37 59.0261ZM183.539 62.7761L183.09 62.5567L183.077 62.5817L183.068 62.6079L183.539 62.7761ZM181.794 67.6601L181.323 67.4919L181.084 68.1601H181.794V67.6601ZM351.335 79.5611L350.878 79.3589L350.731 79.6899L351 79.9324L351.335 79.5611ZM354.043 82.0041L353.708 82.3754L354.253 82.867L354.511 82.1799L354.043 82.0041ZM354.739 80.1511L355.207 80.3269L355.207 80.3263L354.739 80.1511ZM347.979 57.3231L347.616 57.6672L347.616 57.6672L347.979 57.3231ZM344.354 52.7481L344.766 52.4657L344.766 52.4657L344.354 52.7481ZM320.187 26.3001L319.877 26.6927L319.877 26.6928L320.187 26.3001ZM315.811 21.6301L316.257 21.4042L316.257 21.4041L315.811 21.6301ZM300.943 11.9361L300.822 12.4212L300.822 12.4212L300.943 11.9361ZM295.63 10.4041L295.795 9.93219L295.795 9.93202L295.63 10.4041ZM289.973 8.8291L290.09 8.3429L290.089 8.34284L289.973 8.8291ZM267.746 6.0011H267.246V6.50027L267.745 6.5011L267.746 6.0011ZM269.149 9.4281V8.9281L269.145 9.92808L269.149 9.4281ZM303.386 16.2841L303.237 16.7614L303.237 16.7614L303.386 16.2841ZM313.037 23.6861L313.478 23.451L313.478 23.451L313.037 23.6861ZM317.74 28.5931L318.049 28.1998L318.049 28.1998L317.74 28.5931ZM340.075 52.6311L339.668 52.9217L339.668 52.9217L340.075 52.6311ZM342.592 56.1551L343.092 56.1357L343.086 55.9862L342.999 55.8645L342.592 56.1551ZM342.71 59.1971L342.21 59.2165L342.21 59.2169L342.71 59.1971ZM341.424 68.6351L340.999 68.3721L340.998 68.3732L341.424 68.6351ZM336.476 67.8421L336.352 68.3264L336.352 68.3265L336.476 67.8421ZM330.209 66.5781L330.189 67.0777L330.19 67.0777L330.209 66.5781ZM328.645 66.5141L328.665 66.0145L328.436 66.0051L328.279 66.1734L328.645 66.5141ZM325.335 70.0701L325.701 70.411L325.701 70.4108L325.335 70.0701ZM315.908 74.9981L315.41 75.0401L315.41 75.0403L315.908 74.9981ZM313.723 65.5181L313.25 65.6791L313.25 65.6792L313.723 65.5181ZM311.484 62.4971L311.353 62.9796L311.354 62.9799L311.484 62.4971ZM310.145 62.1331L310.276 61.6506L310.003 61.5763L309.799 61.7725L310.145 62.1331ZM307.145 65.0141L306.799 64.6535L306.798 64.6542L307.145 65.0141ZM297.098 72.8021L297.101 72.3021H297.098V72.8021ZM296.969 69.1171L296.469 69.1211L296.469 69.1213L296.969 69.1171ZM295.577 60.5901L295.995 60.3163L295.995 60.316L295.577 60.5901ZM277.816 54.4301L277.903 53.9377L277.902 53.9377L277.816 54.4301ZM270.146 57.3121L270.499 57.666L270.499 57.666L270.146 57.3121ZM249.91 57.2161L249.566 57.5786L249.566 57.5788L249.91 57.2161ZM246.494 54.5381L246.373 55.0232L246.373 55.0233L246.494 54.5381ZM228.914 61.0081L228.535 60.6821L228.535 60.6823L228.914 61.0081ZM226.044 72.3731L226.541 72.4223L226.542 72.421L226.044 72.3731ZM225.798 74.8591L225.559 75.2985L226.221 75.6581L226.296 74.9083L225.798 74.8591ZM224.062 73.9161L224.301 73.4767L224.301 73.4767L224.062 73.9161ZM216.832 66.7391L217.257 66.4765L217.257 66.4765L216.832 66.7391ZM211.197 65.8921L210.868 65.5153L210.868 65.5153L211.197 65.8921ZM204.984 75.1161L205.47 75.2322L205.47 75.232L204.984 75.1161ZM204.33 80.0001L204.829 80.0363L204.829 80.0362L204.33 80.0001ZM204.105 83.0961L203.826 83.5114L204.541 83.9907L204.604 83.1324L204.105 83.0961ZM202.22 81.8321L202.498 81.4168L202.497 81.416L202.22 81.8321ZM197.528 78.2321L197.849 77.8486L197.849 77.8484L197.528 78.2321ZM188.808 78.8321L188.488 78.4482L188.487 78.4486L188.808 78.8321ZM185.273 81.7891L184.798 81.944L185.027 82.647L185.594 82.1726L185.273 81.7891ZM184.952 80.8041L185.427 80.6492L185.427 80.6489L184.952 80.8041ZM184.62 75.2011L185.12 75.2001L185.12 75.1999L184.62 75.2011ZM185.552 67.4881L185.073 67.3432L185.073 67.3432L185.552 67.4881ZM192.846 52.7481L192.423 52.4811L192.423 52.4812L192.846 52.7481ZM198.192 44.2971L198.614 44.5649L198.614 44.5648L198.192 44.2971ZM201.566 37.9551L202.052 38.0723L202.052 38.0722L201.566 37.9551ZM212.996 26.5571L212.877 26.0715L212.877 26.0715L212.996 26.5571ZM221.909 22.4111L221.68 21.9667L221.68 21.9667L221.909 22.4111ZM264.994 9.4921L265.013 9.99172L265.014 9.99172L264.994 9.4921ZM269.15 9.4281V9.9281L269.154 8.92812L269.15 9.4281ZM274.903 57.4081L274.99 56.9158L274.403 56.8117V57.4081H274.903ZM277.56 57.8791L277.473 58.3714L277.473 58.3715L277.56 57.8791ZM290.404 61.5751L290.198 62.0309L290.198 62.0309L290.404 61.5751ZM293.124 64.0281L292.643 64.1662L292.644 64.1668L293.124 64.0281ZM293.296 74.5801L293.78 74.7054L293.78 74.7047L293.296 74.5801ZM294.271 76.4331L294.574 76.0358L294.574 76.0354L294.271 76.4331ZM295.491 77.3651L295.187 77.7624L295.43 77.9475L295.705 77.8169L295.491 77.3651ZM297.591 76.3691L297.805 76.8209L297.806 76.8206L297.591 76.3691ZM307.586 69.2881L307.923 69.657L307.924 69.6569L307.586 69.2881ZM310.489 66.6311L310.965 66.4777L310.726 65.7364L310.151 66.2623L310.489 66.6311ZM311.014 68.2601L311.49 68.1068L311.49 68.1067L311.014 68.2601ZM314.292 81.5321L314.086 81.9879L314.087 81.9881L314.292 81.5321ZM315.577 82.1101L315.372 82.5661L315.613 82.6746L315.838 82.5363L315.577 82.1101ZM317.934 80.6641L317.673 80.2376L317.672 80.2379L317.934 80.6641ZM328.967 71.1731L328.57 70.8693L328.57 70.8696L328.967 71.1731ZM334.293 70.8751L334.647 71.2287L334.649 71.2258L334.293 70.8751ZM194.508 80.2491L194.823 79.861L194.201 79.3557L194.021 80.1366L194.508 80.2491ZM196.394 81.7811L196.079 82.1692L196.08 82.1701L196.394 81.7811ZM203.346 86.4941L203.1 86.9295L203.102 86.9305L203.346 86.4941ZM205.338 87.6081L205.094 88.0445L205.359 88.1928L205.613 88.0257L205.338 87.6081ZM206.656 86.7401L206.931 87.1577L206.932 87.1572L206.656 86.7401ZM207.984 85.8621L208.26 86.2792L208.487 86.1288L208.484 85.8561L207.984 85.8621ZM207.931 81.4701L207.431 81.476L207.431 81.4761L207.931 81.4701ZM211.541 70.2971L211.211 69.9218L211.211 69.9219L211.541 70.2971ZM213.801 68.6801L213.523 69.0957L213.524 69.0961L213.801 68.6801ZM215.483 70.8001L215.886 70.5038L215.886 70.5037L215.483 70.8001ZM223.967 77.7851L224.199 77.3423L224.199 77.3423L223.967 77.7851ZM226.559 79.1451L226.327 79.5879L226.57 79.7155L226.808 79.5786L226.559 79.1451ZM227.845 78.4061L227.598 77.9711L227.596 77.9726L227.845 78.4061ZM229.13 77.6781L229.376 78.1131L229.61 77.9808L229.629 77.7129L229.13 77.6781ZM229.366 74.2931L228.867 74.2582L228.867 74.2583L229.366 74.2931ZM230.93 64.9951L231.408 65.1425L231.408 65.1423L230.93 64.9951ZM240.185 59.8851L240.023 59.4121L240.023 59.4121L240.185 59.8851ZM245.755 57.9781L246.103 57.6194L245.883 57.4057L245.593 57.5051L245.755 57.9781ZM247.576 59.7461L247.924 59.3875L247.924 59.3874L247.576 59.7461ZM259.97 66.8691L260.05 66.3756L260.05 66.3755L259.97 66.8691ZM272.075 60.2391L272.428 60.5929L272.429 60.5926L272.075 60.2391ZM274.903 57.4101L275.257 57.7636L275.403 57.6172V57.4101H274.903ZM346.364 60.4081L346.716 60.0532L345.965 60.7099L346.364 60.4081ZM348.132 62.7431L348.531 62.4424L348.531 62.4413L348.132 62.7431ZM338.106 71.8071L337.969 72.288L337.969 72.288L338.106 71.8071ZM344.148 71.4001L344.589 71.6362L344.589 71.6361L344.148 71.4001ZM346.14 62.5731L345.643 62.5214L345.643 62.5222L346.14 62.5731ZM346.365 60.4091L346.862 60.4608L346.887 60.2228L346.717 60.0542L346.365 60.4091ZM181.441 69.9731L181.932 70.0682L181.932 70.068L181.441 69.9731ZM183.594 85.5061L183.416 85.9735L183.416 85.9735L183.594 85.5061ZM187.782 84.1661L187.457 83.7862L187.456 83.7865L187.782 84.1661ZM267.747 5.5001C251.842 5.47493 236.539 10.0751 218.395 19.8075L218.867 20.6887C236.917 11.0071 252.056 6.47527 267.745 6.5001L267.747 5.5001ZM218.395 19.8075C216.099 21.0391 212.843 22.4887 211.172 23.0283L211.48 23.9799C213.227 23.4155 216.541 21.9371 218.867 20.6887L218.395 19.8075ZM211.172 23.0284C207.658 24.165 204.871 25.73 202.713 27.8609C200.554 29.9934 199.051 32.6673 198.067 35.9817L199.025 36.2665C199.971 33.0829 201.398 30.5658 203.416 28.5723C205.436 26.5772 208.074 25.0812 211.48 23.9798L211.172 23.0284ZM198.067 35.9817C197.72 37.1491 196.665 39.3429 195.733 40.8285L196.581 41.3597C197.541 39.8273 198.644 37.5491 199.025 36.2665L198.067 35.9817ZM195.733 40.8284C194.788 42.3357 192.387 46.142 190.4 49.2892L191.246 49.823C193.233 46.6762 195.634 42.8685 196.581 41.3598L195.733 40.8284ZM190.4 49.2891C188.408 52.4441 185.943 56.7211 184.921 58.806L185.819 59.2462C186.819 57.2071 189.262 52.9641 191.246 49.8231L190.4 49.2891ZM184.921 58.8067L183.09 62.5567L183.988 62.9955L185.819 59.2455L184.921 58.8067ZM183.068 62.6079L181.323 67.4919L182.265 67.8283L184.01 62.9443L183.068 62.6079ZM351 79.9324L353.708 82.3754L354.378 81.6329L351.67 79.1899L351 79.9324ZM354.511 82.1799L355.207 80.3269L354.271 79.9753L353.575 81.8283L354.511 82.1799ZM355.207 80.3263C356.661 76.4417 356.82 72.5661 355.665 68.6697C354.514 64.7825 352.063 60.9019 348.342 56.979L347.616 57.6672C351.267 61.5153 353.613 65.2627 354.706 68.9538C355.797 72.6356 355.65 76.2885 354.271 79.9759L355.207 80.3263ZM348.342 56.979C347.351 55.9349 345.92 54.1504 344.766 52.4657L343.941 53.0305C345.118 54.7498 346.583 56.5774 347.616 57.6672L348.342 56.979ZM344.766 52.4657C338.539 43.3685 327.967 31.7953 320.496 25.9074L319.877 26.6928C327.257 32.5089 337.762 44.0037 343.941 53.0305L344.766 52.4657ZM320.496 25.9075C318.121 24.0337 316.847 22.5699 316.257 21.4042L315.365 21.856C316.053 23.2143 317.461 24.7865 319.877 26.6927L320.496 25.9075ZM316.257 21.4041C313.753 16.4619 309.038 13.4394 301.064 11.451L300.822 12.4212C308.664 14.3768 313.049 17.2843 315.365 21.8561L316.257 21.4041ZM301.064 11.451C299.281 11.0059 296.906 10.3211 295.795 9.93219L295.465 10.876C296.616 11.2791 299.023 11.9723 300.822 12.4212L301.064 11.451ZM295.795 9.93202C294.639 9.52879 292.075 8.81922 290.09 8.3429L289.856 9.31531C291.831 9.78898 294.357 10.4894 295.465 10.8762L295.795 9.93202ZM290.089 8.34284C282.31 6.48029 274.972 5.51318 267.747 5.5011L267.745 6.5011C274.88 6.51303 282.14 7.46791 289.857 9.31536L290.089 8.34284ZM268.246 6.0011V6.0001H267.246V6.0011H268.246ZM269.145 9.92808C278.614 10.0094 287.362 11.811 303.237 16.7614L303.535 15.8068C287.63 10.8472 278.77 9.01076 269.153 8.92812L269.145 9.92808ZM303.237 16.7614C305.707 17.5313 307.547 18.3989 309.016 19.5256C310.479 20.6488 311.598 22.049 312.596 23.9213L313.478 23.451C312.428 21.4802 311.223 19.9594 309.624 18.7323C308.03 17.5088 306.069 16.5969 303.535 15.8068L303.237 16.7614ZM312.596 23.9212C313.564 25.7392 314.435 26.6337 317.431 28.9864L318.049 28.1998C315.079 25.8685 314.346 25.079 313.478 23.451L312.596 23.9212ZM317.431 28.9864C324.575 34.5955 333.232 43.9094 339.668 52.9217L340.482 52.3405C334.002 43.2668 325.281 33.8788 318.049 28.1998L317.431 28.9864ZM339.668 52.9217L342.185 56.4457L342.999 55.8645L340.482 52.3405L339.668 52.9217ZM342.092 56.1745L342.21 59.2165L343.21 59.1777L343.092 56.1357L342.092 56.1745ZM342.21 59.2169C342.265 60.6029 342.11 62.6679 341.857 64.5263C341.731 65.4528 341.582 66.3173 341.426 67.0101C341.265 67.7298 341.11 68.1917 340.999 68.3721L341.849 68.8981C342.062 68.5545 342.244 67.9315 342.402 67.2294C342.566 66.5005 342.719 65.6063 342.848 64.6611C343.104 62.7763 343.268 60.6463 343.21 59.1773L342.21 59.2169ZM340.998 68.3732C341.056 68.2786 341.131 68.2516 341.136 68.25C341.14 68.2486 341.114 68.2575 341.038 68.2607C340.885 68.2671 340.635 68.2479 340.253 68.187C339.494 68.0661 338.323 67.7992 336.6 67.3578L336.352 68.3265C338.075 68.768 339.287 69.0456 340.095 69.1745C340.496 69.2384 340.825 69.2705 341.08 69.2598C341.206 69.2545 341.34 69.2378 341.465 69.1944C341.59 69.1509 341.746 69.0656 341.85 68.897L340.998 68.3732ZM336.6 67.3578C335.301 67.0247 333.942 66.715 332.797 66.4841C331.668 66.2563 330.708 66.0968 330.228 66.0785L330.19 67.0777C330.575 67.0924 331.457 67.2339 332.6 67.4644C333.727 67.6917 335.069 67.9975 336.352 68.3264L336.6 67.3578ZM330.229 66.0785L328.665 66.0145L328.625 67.0137L330.189 67.0777L330.229 66.0785ZM328.279 66.1734L324.969 69.7294L325.701 70.4108L329.011 66.8548L328.279 66.1734ZM324.969 69.7293C323.588 71.2119 321.555 73.0803 319.767 74.5794C318.874 75.3285 318.05 75.9793 317.405 76.4402C317.081 76.6714 316.811 76.8488 316.605 76.9663C316.502 77.0252 316.423 77.064 316.367 77.0866C316.3 77.1143 316.307 77.1011 316.358 77.1011V78.1011C316.507 78.1011 316.647 78.0525 316.745 78.0125C316.856 77.9673 316.976 77.9059 317.1 77.8352C317.349 77.6935 317.65 77.4938 317.986 77.2537C318.66 76.7721 319.506 76.1035 320.41 75.3456C322.216 73.8304 324.282 71.9333 325.701 70.411L324.969 69.7293ZM316.358 77.1011C316.55 77.1011 316.664 77.2099 316.696 77.2434C316.734 77.2836 316.751 77.3174 316.752 77.3194C316.756 77.3269 316.747 77.3113 316.731 77.2552C316.7 77.1499 316.663 76.9803 316.623 76.7508C316.545 76.2969 316.466 75.6611 316.406 74.956L315.41 75.0403C315.471 75.7651 315.553 76.4308 315.638 76.9209C315.68 77.1635 315.725 77.3765 315.771 77.5358C315.793 77.612 315.823 77.6992 315.862 77.7764C315.881 77.8133 315.915 77.8737 315.971 77.9318C316.019 77.9831 316.15 78.1011 316.358 78.1011V77.1011ZM316.406 74.9561C316.154 71.9628 315.522 69.2512 314.196 65.357L313.25 65.6792C314.558 69.525 315.166 72.1534 315.41 75.0401L316.406 74.9561ZM314.196 65.3571C313.98 64.7204 313.807 64.2207 313.652 63.8305C313.497 63.4427 313.346 63.1297 313.163 62.8813C312.759 62.3347 312.252 62.1861 311.614 62.0143L311.354 62.9799C312.005 63.1551 312.183 63.238 312.359 63.4757C312.465 63.6194 312.578 63.8367 312.723 64.201C312.867 64.5627 313.031 65.0369 313.25 65.6791L314.196 65.3571ZM311.615 62.0146L310.276 61.6506L310.014 62.6156L311.353 62.9796L311.615 62.0146ZM309.799 61.7725L306.799 64.6535L307.491 65.3747L310.491 62.4937L309.799 61.7725ZM306.798 64.6542C305.315 66.0843 303.002 68.02 300.964 69.6001C299.946 70.3895 299.003 71.0848 298.274 71.5804C297.908 71.8289 297.603 72.0221 297.372 72.1511C297.257 72.2159 297.168 72.2596 297.106 72.2856C297.026 72.3192 297.038 72.3018 297.101 72.3021L297.095 73.3021C297.249 73.3029 297.397 73.2478 297.491 73.2086C297.603 73.1619 297.728 73.0979 297.861 73.0236C298.128 72.8743 298.46 72.6629 298.835 72.4076C299.589 71.8957 300.55 71.1866 301.577 70.3904C303.629 68.7992 305.973 66.8389 307.492 65.374L306.798 64.6542ZM297.098 72.3021C297.269 72.3021 297.385 72.386 297.44 72.4387C297.494 72.4899 297.523 72.5408 297.535 72.5633C297.559 72.6099 297.569 72.6479 297.571 72.6533C297.576 72.6718 297.576 72.6781 297.573 72.6587C297.568 72.6262 297.563 72.5667 297.556 72.4759C297.543 72.2978 297.531 72.0342 297.519 71.7022C297.496 71.04 297.477 70.1234 297.469 69.1129L296.469 69.1213C296.478 70.1378 296.496 71.0637 296.52 71.7372C296.532 72.0731 296.545 72.3507 296.559 72.5468C296.566 72.6431 296.573 72.729 296.582 72.7951C296.586 72.825 296.593 72.8689 296.605 72.9127C296.61 72.9307 296.623 72.9783 296.651 73.0313C296.665 73.057 296.695 73.1103 296.751 73.1631C296.808 73.2174 296.926 73.3021 297.098 73.3021V72.3021ZM297.469 69.1131C297.453 67.1388 297.307 65.2912 297.059 63.773C296.816 62.2782 296.463 61.0317 295.995 60.3163L295.159 60.8639C295.503 61.3895 295.831 62.4525 296.072 63.9339C296.31 65.392 296.454 67.1874 296.469 69.1211L297.469 69.1131ZM295.995 60.316C295.804 60.0237 295.471 59.7485 295.087 59.4922C294.691 59.2278 294.19 58.9515 293.61 58.6697C292.45 58.1057 290.939 57.502 289.239 56.9125C285.838 55.7331 281.641 54.5958 277.903 53.9377L277.729 54.9225C281.409 55.5704 285.555 56.6932 288.911 57.8573C290.59 58.4394 292.061 59.0284 293.173 59.569C293.729 59.8396 294.187 60.0937 294.532 60.324C294.889 60.5625 295.082 60.7465 295.159 60.8642L295.995 60.316ZM277.902 53.9377C276.865 53.7552 276.062 53.6048 275.409 53.5476C274.742 53.4891 274.181 53.522 273.623 53.7322C273.074 53.9387 272.572 54.3003 271.991 54.8164C271.413 55.3309 270.716 56.0364 269.793 56.9582L270.499 57.666C271.437 56.7298 272.105 56.0535 272.656 55.5637C273.205 55.0754 273.598 54.81 273.975 54.6681C274.343 54.5297 274.738 54.4926 275.322 54.5438C275.919 54.5961 276.663 54.735 277.729 54.9226L277.902 53.9377ZM269.793 56.9582C268.198 58.55 266.28 60.0879 264.562 61.2251C263.703 61.7937 262.903 62.2565 262.225 62.575C261.528 62.9026 261.022 63.0471 260.73 63.0471V64.0471C261.258 64.0471 261.934 63.8163 262.65 63.4801C263.385 63.1347 264.229 62.6449 265.114 62.0589C266.884 60.8868 268.854 59.3072 270.499 57.666L269.793 56.9582ZM260.73 63.0471C260.618 63.0471 260.404 63.0072 260.076 62.8984C259.76 62.7934 259.376 62.6377 258.94 62.4385C258.069 62.0403 257.016 61.4812 255.928 60.8444C253.743 59.5656 251.468 58.0059 250.254 56.8534L249.566 57.5788C250.864 58.8113 253.218 60.4171 255.423 61.7075C256.53 62.3554 257.613 62.9318 258.525 63.3481C258.98 63.556 259.399 63.7272 259.761 63.8474C260.111 63.9637 260.451 64.0471 260.73 64.0471V63.0471ZM250.254 56.8536C249.526 56.1619 248.771 55.5094 248.138 55.0133C247.822 54.7656 247.531 54.5529 247.286 54.3927C247.062 54.2463 246.818 54.1035 246.615 54.0529L246.373 55.0233C246.37 55.0224 246.4 55.031 246.475 55.0708C246.544 55.1073 246.632 55.1599 246.738 55.2296C246.951 55.3687 247.218 55.5628 247.521 55.8004C248.126 56.2748 248.858 56.9063 249.566 57.5786L250.254 56.8536ZM246.615 54.053C246.43 54.0067 246.209 54.0134 246.004 54.0331C245.785 54.0542 245.526 54.097 245.239 54.156C244.663 54.2743 243.937 54.4648 243.117 54.7054C241.477 55.1872 239.431 55.8794 237.401 56.6266C235.371 57.3739 233.347 58.1791 231.751 58.8883C230.954 59.2426 230.257 59.5758 229.717 59.868C229.447 60.014 229.21 60.1531 229.017 60.2824C228.831 60.4066 228.656 60.541 228.535 60.6821L229.293 61.3341C229.324 61.2984 229.407 61.2244 229.573 61.1135C229.731 61.0078 229.938 60.8851 230.192 60.7476C230.701 60.4727 231.372 60.1513 232.157 59.8021C233.727 59.1044 235.73 58.3073 237.746 57.5651C239.764 56.8228 241.787 56.1384 243.399 55.6648C244.206 55.4278 244.903 55.2459 245.44 55.1356C245.709 55.0804 245.93 55.0449 246.1 55.0285C246.185 55.0203 246.252 55.0174 246.302 55.0182C246.355 55.019 246.375 55.0237 246.373 55.0232L246.615 54.053ZM228.535 60.6823C228.208 61.0621 227.9 61.6999 227.615 62.456C227.324 63.229 227.036 64.1822 226.769 65.2388C226.236 67.3524 225.779 69.91 225.546 72.3252L226.542 72.421C226.769 70.0572 227.217 67.5493 227.739 65.4836C227.999 64.4506 228.277 63.5358 228.551 62.8089C228.831 62.0651 229.089 61.5711 229.293 61.3339L228.535 60.6823ZM225.546 72.3239L225.3 74.8099L226.296 74.9083L226.541 72.4223L225.546 72.3239ZM226.037 74.4197L224.301 73.4767L223.823 74.3555L225.559 75.2985L226.037 74.4197ZM224.301 73.4767C223.222 72.891 221.86 71.7931 220.556 70.4985C219.256 69.2072 218.045 67.7526 217.257 66.4765L216.406 67.0017C217.247 68.3637 218.513 69.8795 219.852 71.2082C221.187 72.5336 222.626 73.7052 223.823 74.3555L224.301 73.4767ZM217.257 66.4765C216.783 65.7085 216.341 65.0909 215.894 64.6446C215.443 64.195 214.957 63.8898 214.396 63.8055C213.835 63.7213 213.281 63.8698 212.716 64.1665C212.156 64.461 211.55 64.921 210.868 65.5153L211.526 66.2689C212.189 65.6907 212.725 65.2915 213.182 65.0516C213.634 64.8139 213.969 64.7526 214.247 64.7944C214.525 64.8363 214.827 64.9932 215.188 65.3528C215.552 65.7159 215.945 66.2547 216.406 67.0017L217.257 66.4765ZM210.868 65.5153C208.73 67.3803 207.373 68.716 206.434 70.1118C205.486 71.5205 204.983 72.9616 204.498 75.0002L205.47 75.232C205.944 73.2426 206.412 71.9347 207.263 70.6699C208.123 69.3922 209.392 68.1299 211.526 66.2689L210.868 65.5153ZM204.498 75.0001C204.253 76.0267 203.955 78.252 203.831 79.964L204.829 80.0362C204.951 78.3482 205.243 76.1835 205.47 75.2322L204.498 75.0001ZM203.831 79.9639L203.606 83.0599L204.604 83.1324L204.829 80.0363L203.831 79.9639ZM204.383 82.6808L202.498 81.4168L201.941 82.2474L203.826 83.5114L204.383 82.6808ZM202.497 81.416C201.481 80.739 199.386 79.1347 197.849 77.8486L197.207 78.6156C198.758 79.9135 200.885 81.5432 201.943 82.2482L202.497 81.416ZM197.849 77.8484C196.886 77.0437 196.113 76.4115 195.436 75.9942C194.748 75.571 194.104 75.3341 193.399 75.3824C192.707 75.4298 192.036 75.7469 191.281 76.2526C190.526 76.759 189.629 77.4958 188.488 78.4482L189.128 79.216C190.28 78.2549 191.135 77.5547 191.838 77.0833C192.542 76.6111 193.037 76.4095 193.467 76.3801C193.883 76.3515 194.317 76.4796 194.911 76.8457C195.516 77.2179 196.23 77.7995 197.207 78.6158L197.849 77.8484ZM188.487 78.4486L184.952 81.4056L185.594 82.1726L189.129 79.2156L188.487 78.4486ZM185.748 81.6342L185.427 80.6492L184.477 80.959L184.798 81.944L185.748 81.6342ZM185.427 80.6489C185.401 80.5699 185.363 80.3604 185.323 80.0041C185.286 79.6637 185.251 79.2279 185.221 78.7252C185.161 77.7204 185.122 76.464 185.12 75.2001L184.12 75.2021C184.122 76.4832 184.162 77.7588 184.223 78.7845C184.253 79.2971 184.289 79.7511 184.33 80.1142C184.368 80.4613 184.414 80.7688 184.477 80.9593L185.427 80.6489ZM185.12 75.1999C185.115 73.1625 185.143 71.9416 185.27 70.8962C185.396 69.8596 185.622 68.9821 186.03 67.633L185.073 67.3432C184.66 68.7091 184.414 69.6521 184.278 70.7753C184.142 71.8896 184.115 73.1677 184.12 75.2023L185.12 75.1999ZM186.03 67.633C187.125 64.0176 190.001 58.1896 193.269 53.0151L192.423 52.4812C189.132 57.6927 186.205 63.6066 185.073 67.3432L186.03 67.633ZM193.269 53.0151C194.579 50.9412 196.983 47.1365 198.614 44.5649L197.77 44.0293C196.138 46.6017 193.733 50.4071 192.423 52.4811L193.269 53.0151ZM198.614 44.5648C199.521 43.134 200.31 41.7903 200.905 40.6734C201.491 39.5733 201.913 38.6478 202.052 38.0723L201.08 37.8379C200.975 38.2745 200.612 39.0969 200.023 40.2033C199.442 41.2929 198.667 42.6142 197.77 44.0294L198.614 44.5648ZM202.052 38.0722C203.409 32.4417 207.422 28.4398 213.115 27.0427L212.877 26.0715C206.826 27.5564 202.525 31.8385 201.08 37.838L202.052 38.0722ZM213.115 27.0427C213.392 26.9749 213.852 26.7996 214.417 26.562C214.994 26.3193 215.713 25.9974 216.523 25.6199C218.146 24.8647 220.147 23.8822 222.138 22.8555L221.68 21.9667C219.699 22.988 217.71 23.9645 216.101 24.7133C215.297 25.0878 214.59 25.4041 214.029 25.6402C213.456 25.8814 213.066 26.0253 212.877 26.0715L213.115 27.0427ZM222.138 22.8555C239.265 14.0267 250.911 10.544 265.013 9.99172L264.974 8.99249C250.683 9.55218 238.893 13.0935 221.68 21.9667L222.138 22.8555ZM265.014 9.99172C266.39 9.93758 267.768 9.91636 269.146 9.92808L269.154 8.92812C267.761 8.91626 266.367 8.93773 264.974 8.99249L265.014 9.99172ZM269.15 8.9281H269.149V9.9281H269.15V8.9281ZM274.816 57.9004L277.473 58.3714L277.647 57.3868L274.99 56.9158L274.816 57.9004ZM277.473 58.3715C282.55 59.2647 286.737 60.4698 290.198 62.0309L290.61 61.1193C287.051 59.5144 282.778 58.2895 277.647 57.3867L277.473 58.3715ZM290.198 62.0309C291.28 62.5186 291.787 62.7788 292.085 63.0483C292.343 63.2806 292.462 63.535 292.643 64.1662L293.605 63.8901C293.416 63.2333 293.235 62.7391 292.755 62.3059C292.316 61.9099 291.648 61.5876 290.61 61.1193L290.198 62.0309ZM292.644 64.1668C292.736 64.4883 292.824 65.1916 292.892 66.1415C292.958 67.0729 293.002 68.1936 293.02 69.3167C293.038 70.4398 293.031 71.5598 292.995 72.4896C292.958 73.4386 292.893 74.1385 292.812 74.4555L293.78 74.7047C293.893 74.2677 293.958 73.4616 293.994 72.5282C294.031 71.5757 294.038 70.4369 294.02 69.3005C294.002 68.1641 293.957 67.0246 293.889 66.0706C293.823 65.1351 293.731 64.3279 293.604 63.8894L292.644 64.1668ZM292.812 74.4548C292.702 74.8811 292.646 75.3012 292.874 75.7367C293.072 76.1161 293.461 76.4446 293.968 76.8308L294.574 76.0354C294.04 75.6286 293.839 75.4246 293.76 75.2727C293.709 75.177 293.686 75.0671 293.78 74.7054L292.812 74.4548ZM293.967 76.8304L295.187 77.7624L295.794 76.9678L294.574 76.0358L293.967 76.8304ZM295.705 77.8169L297.805 76.8209L297.377 75.9173L295.277 76.9133L295.705 77.8169ZM297.806 76.8206C300.85 75.3719 304.546 72.7477 307.923 69.657L307.248 68.9192C303.918 71.9665 300.304 74.5243 297.376 75.9176L297.806 76.8206ZM307.924 69.6569L310.827 66.9999L310.151 66.2623L307.248 68.9193L307.924 69.6569ZM310.013 66.7845L310.538 68.4135L311.49 68.1067L310.965 66.4777L310.013 66.7845ZM310.538 68.4135C311.359 70.9619 312.099 75.0686 312.099 77.0221H313.099C313.099 74.9356 312.333 70.7224 311.49 68.1068L310.538 68.4135ZM312.099 77.0221C312.099 78.5859 312.159 79.6442 312.44 80.3948C312.749 81.2192 313.305 81.6354 314.086 81.9879L314.497 81.0763C313.846 80.7828 313.556 80.5235 313.376 80.0441C313.169 79.491 313.099 78.6173 313.099 77.0221H312.099ZM314.087 81.9881L315.372 82.5661L315.782 81.6541L314.497 81.0761L314.087 81.9881ZM315.838 82.5363L318.195 81.0903L317.672 80.2379L315.316 81.6839L315.838 82.5363ZM318.195 81.0906C322.31 78.5722 327.052 74.5036 329.364 71.4766L328.57 70.8696C326.35 73.7746 321.712 77.766 317.673 80.2376L318.195 81.0906ZM329.364 71.4769C329.588 71.1839 329.816 70.9221 329.998 70.7381C330.09 70.6451 330.162 70.5805 330.211 70.543C330.236 70.5238 330.245 70.5196 330.239 70.5225C330.236 70.5241 330.222 70.5314 330.2 70.5389C330.179 70.5458 330.134 70.5591 330.071 70.5591V69.5591C329.926 69.5591 329.813 69.6164 329.767 69.6412C329.706 69.6739 329.649 69.7136 329.601 69.7509C329.502 69.8265 329.395 69.9255 329.288 70.0343C329.07 70.2541 328.815 70.5493 328.57 70.8693L329.364 71.4769ZM330.071 70.5591C330.181 70.5591 330.268 70.527 330.317 70.5062C330.37 70.4831 330.417 70.4554 330.453 70.4316C330.526 70.3843 330.6 70.3249 330.667 70.2679C330.799 70.1563 330.973 69.9951 331.139 69.8467C331.497 69.5267 331.894 69.1989 332.277 69.0183C332.654 68.8401 332.889 68.8582 333.07 69.0014C333.308 69.1897 333.616 69.7043 333.798 70.9476L334.788 70.8026C334.598 69.5114 334.246 68.6568 333.69 68.2169C333.076 67.7318 332.382 67.8627 331.849 68.1141C331.322 68.3631 330.83 68.7818 330.473 69.1009C330.281 69.2719 330.141 69.4035 330.021 69.5046C329.963 69.554 329.927 69.581 329.908 69.5936C329.898 69.5997 329.903 69.5952 329.92 69.588C329.932 69.5829 329.988 69.5591 330.071 69.5591V70.5591ZM194.567 82.2146L194.995 80.3616L194.021 80.1366L193.593 81.9896L194.567 82.2146ZM194.193 80.6372L196.079 82.1692L196.709 81.393L194.823 79.861L194.193 80.6372ZM196.08 82.1701C198.382 84.0286 200.428 85.4211 203.1 86.9295L203.592 86.0587C200.967 84.5771 198.966 83.2156 196.708 81.3921L196.08 82.1701ZM203.102 86.9305L205.094 88.0445L205.582 87.1717L203.59 86.0577L203.102 86.9305ZM205.613 88.0257L206.931 87.1577L206.381 86.3225L205.063 87.1905L205.613 88.0257ZM206.932 87.1572L208.26 86.2792L207.708 85.445L206.38 86.323L206.932 87.1572ZM208.484 85.8561L208.431 81.4641L207.431 81.4761L207.484 85.8681L208.484 85.8561ZM208.431 81.4642C208.395 78.3943 208.579 76.3026 209.104 74.6773C209.622 73.0754 210.483 71.8952 211.871 70.6724L211.211 69.9219C209.719 71.235 208.738 72.5598 208.153 74.3696C207.575 76.1561 207.394 78.3829 207.431 81.476L208.431 81.4642ZM211.871 70.6724C212.417 70.192 212.935 69.7761 213.327 69.4948C213.525 69.3526 213.68 69.2533 213.784 69.1971C213.838 69.1676 213.86 69.1604 213.857 69.1613C213.856 69.1616 213.829 69.1704 213.785 69.1722C213.746 69.1737 213.637 69.1722 213.523 69.0957L214.079 68.2646C213.948 68.1766 213.815 68.1702 213.746 68.1729C213.671 68.1759 213.607 68.192 213.563 68.2055C213.474 68.2329 213.386 68.2755 213.309 68.3172C213.15 68.4031 212.956 68.5307 212.744 68.6822C212.318 68.9881 211.774 69.4262 211.211 69.9218L211.871 70.6724ZM213.524 69.0961C213.488 69.0726 213.48 69.0584 213.518 69.0981C213.544 69.126 213.582 69.1676 213.63 69.2238C213.726 69.3357 213.853 69.4913 214.004 69.681C214.304 70.0596 214.687 70.5622 215.08 71.0965L215.886 70.5037C215.487 69.962 215.096 69.4496 214.787 69.0597C214.633 68.8652 214.497 68.6982 214.389 68.5722C214.335 68.5095 214.285 68.4534 214.241 68.4078C214.209 68.3738 214.147 68.3101 214.078 68.2641L213.524 69.0961ZM215.08 71.0964C216.977 73.6746 220.382 76.4696 223.735 78.2279L224.199 77.3423C220.954 75.6406 217.677 72.9376 215.886 70.5038L215.08 71.0964ZM223.735 78.2279L226.327 79.5879L226.791 78.7023L224.199 77.3423L223.735 78.2279ZM226.808 79.5786L228.094 78.8396L227.596 77.9726L226.31 78.7116L226.808 79.5786ZM228.091 78.8411L229.376 78.1131L228.883 77.2431L227.598 77.9711L228.091 78.8411ZM229.629 77.7129L229.865 74.3279L228.867 74.2583L228.631 77.6433L229.629 77.7129ZM229.865 74.328C230.129 70.5502 230.599 67.7633 231.408 65.1425L230.452 64.8477C229.615 67.5629 229.135 70.43 228.867 74.2582L229.865 74.328ZM231.408 65.1423C231.578 64.5896 231.687 64.2564 231.873 63.9755C232.046 63.7126 232.31 63.4643 232.847 63.1677C233.962 62.552 236.051 61.8303 240.347 60.3581L240.023 59.4121C235.784 60.865 233.577 61.6222 232.364 62.2923C231.737 62.6385 231.329 62.9848 231.038 63.4247C230.76 63.8466 230.613 64.3246 230.452 64.8479L231.408 65.1423ZM240.347 60.3581L245.917 58.4511L245.593 57.5051L240.023 59.4121L240.347 60.3581ZM245.407 58.3368L247.228 60.1048L247.924 59.3874L246.103 57.6194L245.407 58.3368ZM247.227 60.1047C248.828 61.6604 251.213 63.3432 253.567 64.6962C255.908 66.0417 258.292 67.1038 259.89 67.3627L260.05 66.3755C258.642 66.1474 256.39 65.165 254.066 63.8292C251.755 62.501 249.446 60.8658 247.924 59.3875L247.227 60.1047ZM259.89 67.3626C260.66 67.4876 261.569 67.3694 262.538 67.0848C263.513 66.7982 264.583 66.3325 265.69 65.7262C267.903 64.5137 270.3 62.7185 272.428 60.5929L271.722 59.8853C269.655 61.9498 267.333 63.686 265.21 64.8492C264.148 65.4308 263.145 65.8641 262.256 66.1253C261.36 66.3885 260.614 66.4671 260.05 66.3756L259.89 67.3626ZM272.429 60.5926L275.257 57.7636L274.549 57.0566L271.721 59.8856L272.429 60.5926ZM275.403 57.4101V57.4081H274.403V57.4101H275.403ZM345.965 60.7099L347.733 63.0449L348.531 62.4413L346.763 60.1063L345.965 60.7099ZM347.733 63.0438C352.113 68.8622 353.104 74.3253 350.878 79.3589L351.792 79.7633C354.208 74.3009 353.057 68.454 348.531 62.4424L347.733 63.0438ZM334.779 70.7564C334.637 70.1761 334.558 69.8735 334.522 69.7531C334.517 69.7368 334.511 69.7191 334.505 69.7022C334.502 69.6937 334.498 69.6822 334.493 69.6694C334.489 69.6602 334.479 69.6342 334.461 69.6041C334.454 69.5905 334.434 69.5573 334.402 69.5206C334.385 69.5019 334.356 69.4715 334.314 69.4416C334.273 69.4128 334.197 69.3685 334.091 69.3545C333.971 69.3389 333.85 69.3667 333.749 69.4336C333.659 69.4932 333.61 69.5672 333.586 69.6115C333.541 69.6935 333.532 69.7672 333.529 69.7852C333.522 69.8354 333.525 69.8762 333.525 69.8846C333.526 69.9007 333.528 69.9144 333.529 69.9232C333.535 69.9756 333.551 70.0561 333.566 70.1259C333.599 70.283 333.653 70.5123 333.703 70.701C333.727 70.7935 333.754 70.8868 333.778 70.959C333.789 70.9902 333.807 71.0416 333.833 71.0904C333.84 71.1045 333.851 71.124 333.865 71.1458C333.878 71.1651 333.904 71.2011 333.943 71.2384C333.977 71.2696 334.067 71.3471 334.211 71.37C334.29 71.3826 334.375 71.3771 334.46 71.347C334.542 71.3177 334.603 71.2718 334.646 71.2287L333.939 70.5216C333.982 70.4794 334.042 70.4342 334.123 70.4053C334.206 70.3756 334.291 70.3702 334.368 70.3825C334.51 70.4051 334.598 70.4811 334.628 70.5096C334.665 70.5443 334.688 70.5766 334.697 70.5912C334.709 70.6082 334.716 70.6219 334.72 70.6292C334.731 70.6509 334.733 70.6595 334.725 70.6357C334.712 70.5979 334.692 70.5323 334.669 70.4451C334.624 70.2745 334.575 70.0617 334.544 69.9188C334.527 69.8386 334.522 69.8047 334.522 69.8062C334.522 69.8086 334.523 69.817 334.524 69.8288C334.524 69.833 334.527 69.8705 334.52 69.9185C334.518 69.9354 334.508 70.0083 334.464 70.0898C334.44 70.1339 334.391 70.2076 334.301 70.2672C334.201 70.3339 334.08 70.3617 333.961 70.3461C333.854 70.3321 333.779 70.2879 333.738 70.2593C333.696 70.2296 333.667 70.1994 333.651 70.181C333.619 70.145 333.6 70.1127 333.593 70.1004C333.577 70.0727 333.568 70.0504 333.567 70.0462C333.563 70.0384 333.562 70.0331 333.561 70.0322C333.561 70.0304 333.562 70.0331 333.565 70.043C333.592 70.1319 333.664 70.4056 333.807 70.9938L334.779 70.7564ZM334.649 71.2258C334.542 71.335 334.42 71.3572 334.403 71.3606C334.366 71.3682 334.338 71.3687 334.332 71.3688C334.316 71.369 334.314 71.3678 334.335 71.3701C334.372 71.3744 334.437 71.3848 334.534 71.4037C334.724 71.4407 335 71.5029 335.343 71.5865C336.027 71.7533 336.958 72.0003 337.969 72.288L338.243 71.3262C337.223 71.0359 336.279 70.7854 335.58 70.615C335.231 70.53 334.938 70.4636 334.725 70.4221C334.62 70.4017 334.525 70.3853 334.448 70.3766C334.412 70.3724 334.364 70.3681 334.316 70.3689C334.292 70.3693 334.252 70.3709 334.204 70.3806C334.177 70.386 334.048 70.4113 333.937 70.5244L334.649 71.2258ZM337.969 72.288C339.945 72.8502 341.34 73.1366 342.356 73.0681C342.88 73.0328 343.328 72.9026 343.71 72.6496C344.092 72.3972 344.368 72.0477 344.589 71.6362L343.707 71.164C343.54 71.476 343.363 71.6801 343.158 71.8159C342.954 71.9511 342.684 72.0438 342.289 72.0704C341.469 72.1256 340.231 71.892 338.243 71.3262L337.969 72.288ZM344.589 71.6361C344.748 71.3395 344.934 70.7645 345.123 70.0902C345.317 69.3957 345.529 68.5399 345.732 67.6419C346.136 65.8515 346.511 63.8614 346.637 62.624L345.643 62.5222C345.522 63.6988 345.158 65.6422 344.756 67.4218C344.556 68.3088 344.348 69.1471 344.16 69.8205C343.966 70.5141 343.805 70.9807 343.707 71.1641L344.589 71.6361ZM346.637 62.6248L346.862 60.4608L345.868 60.3574L345.643 62.5214L346.637 62.6248ZM346.717 60.0542L346.716 60.0532L346.012 60.763L346.013 60.764L346.717 60.0542ZM181.794 68.1601C181.567 68.1601 181.433 68.017 181.381 67.9388C181.334 67.8676 181.319 67.8031 181.315 67.7841C181.308 67.7574 181.307 67.7374 181.306 67.7296C181.305 67.7204 181.305 67.7148 181.305 67.7141C181.305 67.7131 181.305 67.7192 181.304 67.735C181.303 67.7499 181.302 67.7697 181.299 67.7948C181.289 67.8978 181.268 68.0563 181.237 68.2632C181.173 68.6739 181.072 69.2454 180.95 69.8782L181.932 70.068C182.056 69.4278 182.159 68.8428 182.225 68.4153C182.258 68.203 182.282 68.022 182.295 67.8902C182.301 67.8273 182.306 67.7596 182.305 67.7005C182.305 67.6761 182.303 67.6213 182.289 67.5601C182.283 67.5332 182.265 67.4626 182.216 67.3874C182.161 67.3052 182.024 67.1601 181.794 67.1601V68.1601ZM180.95 69.8781C180.364 72.9054 180.385 76.6479 180.813 79.7335C181.027 81.2768 181.345 82.678 181.752 83.7554C181.955 84.2936 182.186 84.7675 182.448 85.1417C182.706 85.5101 183.024 85.8245 183.416 85.9735L183.772 85.0387C183.644 84.9902 183.469 84.8562 183.267 84.5679C183.069 84.2855 182.873 83.8946 182.687 83.4023C182.316 82.4189 182.011 81.0969 181.803 79.5962C181.387 76.5938 181.371 72.9648 181.932 70.0682L180.95 69.8781ZM183.416 85.9735C184.219 86.2788 184.903 86.4046 185.671 86.1586C186.391 85.9277 187.13 85.3833 188.107 84.5457L187.456 83.7865C186.47 84.6319 185.87 85.0445 185.365 85.2063C184.907 85.3531 184.478 85.3074 183.772 85.0387L183.416 85.9735ZM188.107 84.546C189.34 83.4909 190.05 82.9163 190.411 82.694C190.5 82.6386 190.536 82.6258 190.535 82.6263C190.534 82.6267 190.495 82.6392 190.434 82.6357C190.366 82.6318 190.258 82.6058 190.163 82.515C190.074 82.4282 190.047 82.3308 190.039 82.2813C190.035 82.2559 190.035 82.2365 190.035 82.2257C190.035 82.2146 190.036 82.2081 190.036 82.2074C190.036 82.207 190.035 82.2177 190.027 82.2427C190.02 82.2667 190.009 82.2982 189.994 82.3381L190.928 82.6961C190.969 82.5893 191.008 82.4693 191.026 82.3537C191.034 82.2956 191.041 82.2149 191.027 82.1257C191.012 82.0343 190.971 81.9046 190.858 81.7954C190.62 81.5658 190.323 81.645 190.24 81.6708C190.119 81.7082 189.997 81.7743 189.886 81.8427C189.443 82.1154 188.666 82.7513 187.457 83.7862L188.107 84.546ZM313.187 35.2121L313.154 34.2126L313.153 34.2127L313.187 35.2121ZM312.202 35.2981L312.087 34.3047L312.085 34.3049L312.202 35.2981ZM296.498 42.9681L297.035 43.8115L297.035 43.8114L296.498 42.9681ZM286.91 48.9781H285.91V50.045L286.975 49.976L286.91 48.9781ZM289.396 48.8171L289.461 49.815L289.462 49.8149L289.396 48.8171ZM294.109 47.7571L294.481 48.6854L294.481 48.6851L294.109 47.7571ZM301.736 46.6211L301.692 45.6221L301.692 45.6221L301.736 46.6211ZM307.135 46.3851L307.179 47.3842L307.557 47.3676L307.83 47.1044L307.135 46.3851ZM308.388 45.1751L309.083 45.8944L309.084 45.8926L308.388 45.1751ZM314.334 37.7081L314.705 38.6366L314.706 38.6365L314.334 37.7081ZM314.859 35.8761L315.544 35.1475L315.543 35.1464L314.859 35.8761ZM272.215 37.3761L272.237 38.3759L272.237 38.3759L272.215 37.3761ZM269.43 39.7221L268.598 39.1674L268.592 39.1756L269.43 39.7221ZM266.516 44.6391L265.634 44.1669L265.63 44.176L266.516 44.6391ZM265.156 47.2421L264.27 46.779L263.892 47.5022L264.524 48.0175L265.156 47.2421ZM265.959 47.8961L265.327 48.6715L265.33 48.6734L265.959 47.8961ZM267.876 47.4351L268.797 47.8233L268.798 47.8229L267.876 47.4351ZM273.361 40.0551L272.7 39.3043L272.7 39.3044L273.361 40.0551ZM274.957 38.6511L275.617 39.4019L276.604 38.5339L275.504 37.8143L274.957 38.6511ZM274.089 38.0831L273.541 38.9196L273.541 38.9199L274.089 38.0831ZM252.205 38.9831L253.083 38.505L252.618 37.651L251.752 38.0917L252.205 38.9831ZM250.962 39.6151L250.509 38.7237L250.507 38.7244L250.962 39.6151ZM249.098 40.9331L249.839 41.6041L249.84 41.6031L249.098 40.9331ZM250.019 43.1711L250.726 42.4642L250.726 42.4638L250.019 43.1711ZM255.418 50.3491L254.527 50.8037L254.527 50.8041L255.418 50.3491ZM257.068 51.3021L256.596 50.4203L256.596 50.4206L257.068 51.3021ZM255.161 44.4141L256.039 43.9363L256.039 43.936L255.161 44.4141ZM310.04 40.0541L309.987 41.0527L310.014 41.0541H310.04V40.0541ZM310.083 40.0641L310.792 39.3587L310.764 39.3306L310.734 39.3048L310.083 40.0641ZM307.094 43.4281L306.622 42.5465L306.62 42.5476L307.094 43.4281ZM303.784 44.2531L303.611 43.2682L303.61 43.2683L303.784 44.2531ZM300.11 44.9501L300.327 45.9263L300.329 45.9258L300.11 44.9501ZM301.192 43.9641L301.688 44.8322L301.688 44.8321L301.192 43.9641ZM211.155 45.8071L211.157 46.8071L211.158 46.8071L211.155 45.8071ZM207.792 47.1771L207.023 46.5382L207.022 46.5394L207.792 47.1771ZM206.656 48.5491L205.886 47.9114L204.53 49.5491H206.656V48.5491ZM210.877 50.2311L210.273 51.0282L210.273 51.0284L210.877 50.2311ZM214.433 52.6311L213.96 53.5122L213.961 53.5126L214.433 52.6311ZM222.467 52.4811L222.65 53.4642L222.65 53.4642L222.467 52.4811ZM229.859 51.8381L229.779 52.8349L229.779 52.8349L229.859 51.8381ZM233.662 51.5161L234.121 52.4046L234.121 52.4043L233.662 51.5161ZM235.675 46.9741L236.511 46.4259L236.51 46.4242L235.675 46.9741ZM235.118 46.1281L235.953 45.5782L235.278 44.5534L234.411 45.421L235.118 46.1281ZM233.565 47.6811L232.858 46.974L232.858 46.974L233.565 47.6811ZM224.599 48.2171L224.355 49.187L224.355 49.187L224.599 48.2171ZM212.323 48.9021L212.176 47.9129L212.166 47.9145L212.155 47.9162L212.323 48.9021ZM212.419 48.9021L212.458 47.9029L212.439 47.9021H212.419V48.9021ZM222.103 50.3161L221.928 51.3008L221.93 51.301L222.103 50.3161ZM224.663 50.7661L224.784 51.7587L224.836 49.7812L224.663 50.7661ZM221.246 51.1841L221.366 52.1768L221.367 52.1767L221.246 51.1841ZM214.347 50.6061L213.849 51.4734L213.85 51.4738L214.347 50.6061ZM313.153 34.2127C312.845 34.2231 312.488 34.2583 312.087 34.3047L312.317 36.2915C312.71 36.2459 312.999 36.2191 313.221 36.2115L313.153 34.2127ZM312.085 34.3049C310.004 34.5495 308.443 34.9148 306.136 36.0411C303.885 37.1405 300.903 38.9748 295.96 42.1248L297.035 43.8114C302.002 40.6454 304.884 38.8782 307.014 37.8383C309.088 36.8254 310.425 36.5137 312.319 36.2913L312.085 34.3049ZM295.961 42.1247C292.615 44.2563 290.165 45.1491 288.218 45.1491V47.1491C290.743 47.1491 293.591 46.0059 297.035 43.8115L295.961 42.1247ZM288.218 45.1491C287.918 45.1491 287.601 45.1474 287.343 45.1783C287.085 45.2094 286.667 45.2937 286.341 45.6462C286.029 45.9829 285.962 46.3938 285.936 46.6426C285.909 46.9052 285.91 47.2319 285.91 47.5631H287.91C287.91 47.3837 287.91 47.2394 287.912 47.1156C287.915 46.991 287.919 46.9071 287.925 46.8487C287.932 46.788 287.937 46.7847 287.928 46.8113C287.917 46.8447 287.884 46.923 287.808 47.0055C287.645 47.1813 287.473 47.1772 287.582 47.1641C287.626 47.1587 287.696 47.1541 287.809 47.1516C287.921 47.1492 288.051 47.1491 288.218 47.1491V45.1491ZM285.91 47.5631V48.9781H287.91V47.5631H285.91ZM286.975 49.976L289.461 49.815L289.331 47.8192L286.845 47.9802L286.975 49.976ZM289.462 49.8149C291.109 49.7051 292.994 49.2806 294.481 48.6854L293.737 46.8288C292.452 47.3436 290.773 47.7231 289.329 47.8193L289.462 49.8149ZM294.481 48.6851C296.244 47.9775 297.104 47.8257 301.78 47.6201L301.692 45.6221C296.998 45.8285 295.84 45.9847 293.736 46.8291L294.481 48.6851ZM301.78 47.6202L307.179 47.3842L307.091 45.3861L301.692 45.6221L301.78 47.6202ZM307.83 47.1044L309.083 45.8944L307.693 44.4558L306.44 45.6658L307.83 47.1044ZM309.084 45.8926C309.781 45.216 310.976 43.6279 311.96 42.2036C312.462 41.4769 312.931 40.7609 313.278 40.1818C313.451 39.894 313.602 39.6257 313.713 39.3997C313.768 39.2875 313.822 39.1698 313.863 39.0556C313.895 38.9704 313.962 38.7778 313.962 38.5551H311.962C311.962 38.4054 312.003 38.319 311.985 38.3694C311.977 38.3909 311.957 38.4382 311.919 38.5166C311.842 38.6716 311.723 38.8865 311.563 39.1533C311.245 39.6831 310.802 40.3611 310.315 41.0669C309.32 42.5073 308.227 43.9372 307.691 44.4576L309.084 45.8926ZM313.962 38.5551C313.962 38.8272 313.845 39.0046 313.815 39.0477C313.793 39.0806 313.774 39.1028 313.763 39.1143C313.752 39.1264 313.745 39.1328 313.744 39.1336C313.743 39.1345 313.754 39.1248 313.782 39.105C313.808 39.086 313.844 39.0621 313.89 39.0339C314.079 38.9171 314.368 38.7714 314.705 38.6366L313.963 36.7796C313.545 36.9468 313.148 37.1416 312.84 37.3313C312.69 37.4238 312.531 37.5336 312.396 37.6567C312.329 37.7174 312.242 37.8054 312.164 37.9191C312.098 38.0159 311.962 38.2415 311.962 38.5551H313.962ZM314.706 38.6365C315.099 38.4788 315.464 38.3269 315.742 38.1696C315.972 38.0401 316.426 37.7604 316.58 37.2213C316.753 36.6186 316.442 36.1372 316.274 35.9144C316.086 35.6647 315.816 35.4029 315.544 35.1475L314.174 36.6047C314.311 36.7332 314.42 36.8386 314.507 36.9284C314.597 37.0199 314.648 37.0802 314.677 37.1179C314.708 37.1597 314.686 37.1407 314.662 37.0725C314.649 37.0342 314.635 36.9767 314.631 36.9039C314.627 36.8291 314.635 36.7494 314.657 36.6704C314.703 36.5108 314.788 36.4221 314.813 36.398C314.835 36.3773 314.829 36.3884 314.76 36.4277C314.694 36.4648 314.598 36.5121 314.46 36.573C314.323 36.6333 314.16 36.7007 313.962 36.7797L314.706 38.6365ZM315.543 35.1464C315.247 34.8689 314.92 34.5927 314.499 34.4165C314.065 34.2346 313.624 34.1973 313.154 34.2126L313.22 36.2116C313.547 36.2009 313.664 36.2351 313.727 36.2615C313.804 36.2935 313.915 36.3623 314.175 36.6058L315.543 35.1464ZM272.193 36.3763C271.441 36.3927 270.796 36.7093 270.224 37.2004C269.671 37.6752 269.145 38.3473 268.598 39.1674L270.262 40.2768C270.777 39.5039 271.183 39.013 271.527 38.718C271.851 38.4394 272.068 38.3795 272.237 38.3759L272.193 36.3763ZM268.592 39.1756C267.535 40.7959 266.548 42.4613 265.634 44.1669L267.397 45.1113C268.284 43.4565 269.241 41.8407 270.267 40.2686L268.592 39.1756ZM265.63 44.176L264.27 46.779L266.042 47.7052L267.402 45.1022L265.63 44.176ZM264.524 48.0175L265.327 48.6715L266.59 47.1207L265.787 46.4667L264.524 48.0175ZM265.33 48.6734C265.611 48.9014 265.9 49.1186 266.182 49.2669C266.46 49.4132 266.88 49.5712 267.36 49.4559C267.845 49.3396 268.146 49.0048 268.327 48.7426C268.507 48.4796 268.659 48.1532 268.797 47.8233L266.954 47.0469C266.891 47.1972 266.837 47.3179 266.788 47.4151C266.739 47.5135 266.703 47.5744 266.678 47.6101C266.62 47.6946 266.682 47.5618 266.894 47.5111C267.101 47.4614 267.212 47.5487 267.112 47.4964C267.071 47.4746 267.007 47.436 266.915 47.3705C266.824 47.3058 266.717 47.2232 266.588 47.1188L265.33 48.6734ZM268.798 47.8229C269.133 47.027 270.014 45.6396 271.069 44.219C272.119 42.8065 273.248 41.4867 274.022 40.8058L272.7 39.3044C271.766 40.1265 270.537 41.5817 269.464 43.026C268.397 44.4621 267.389 46.0132 266.954 47.0473L268.798 47.8229ZM274.021 40.8059L275.617 39.4019L274.296 37.9003L272.7 39.3043L274.021 40.8059ZM275.504 37.8143L274.636 37.2463L273.541 38.9199L274.409 39.4879L275.504 37.8143ZM274.637 37.2466C273.86 36.7379 273.053 36.3577 272.193 36.3763L272.237 38.3759C272.481 38.3706 272.867 38.4783 273.541 38.9196L274.637 37.2466ZM251.752 38.0917L250.509 38.7237L251.415 40.5065L252.658 39.8745L251.752 38.0917ZM250.507 38.7244C249.767 39.1019 248.812 39.7571 248.356 40.2631L249.84 41.6031C250.07 41.349 250.788 40.8263 251.416 40.5059L250.507 38.7244ZM248.356 40.2621C248.23 40.4024 248.008 40.6409 247.873 40.9175C247.688 41.2976 247.672 41.7124 247.839 42.1195C247.969 42.435 248.198 42.7139 248.409 42.9484C248.635 43.2003 248.94 43.5069 249.312 43.8784L250.726 42.4638C250.343 42.0813 250.08 41.8154 249.896 41.6116C249.698 41.3904 249.677 41.3304 249.689 41.3592C249.702 41.3922 249.726 41.4677 249.723 41.5712C249.72 41.6756 249.691 41.7534 249.671 41.7926C249.657 41.8234 249.65 41.8245 249.683 41.7832C249.716 41.7422 249.762 41.6891 249.839 41.6041L248.356 40.2621ZM249.312 43.878C251.055 45.6224 253.645 49.0755 254.527 50.8037L256.309 49.8945C255.313 47.9427 252.585 44.3238 250.726 42.4642L249.312 43.878ZM254.527 50.8041C254.702 51.1456 254.858 51.4509 255.001 51.6843C255.13 51.8943 255.339 52.2057 255.675 52.401C256.101 52.6477 256.524 52.6048 256.829 52.5098C257.08 52.4319 257.342 52.2896 257.54 52.1836L256.596 50.4206C256.482 50.4814 256.4 50.5246 256.333 50.5572C256.301 50.5728 256.277 50.5835 256.259 50.5908C256.242 50.5981 256.235 50.6002 256.236 50.5998C256.236 50.5997 256.294 50.5814 256.386 50.5855C256.49 50.5901 256.593 50.6212 256.679 50.6707C256.753 50.714 256.786 50.7548 256.781 50.7487C256.775 50.7421 256.751 50.7123 256.707 50.6392C256.613 50.4863 256.495 50.2591 256.308 49.8941L254.527 50.8041ZM257.54 52.1839C257.903 51.9896 258.38 51.6858 258.636 51.1255C258.894 50.5606 258.83 49.9569 258.674 49.3928C258.373 48.3034 257.505 46.6313 256.039 43.9363L254.282 44.8919C255.8 47.681 256.522 49.1123 256.747 49.9257C256.854 50.313 256.787 50.3604 256.817 50.294C256.845 50.2321 256.87 50.2741 256.596 50.4203L257.54 52.1839ZM256.039 43.936L253.083 38.505L251.327 39.4612L254.283 44.8922L256.039 43.936ZM310.04 41.0541C309.98 41.0541 309.914 41.048 309.842 41.0315C309.805 41.0231 309.754 41.009 309.694 40.9844C309.642 40.9628 309.54 40.9155 309.432 40.8234L310.734 39.3048C310.541 39.1394 310.338 39.0934 310.289 39.0822C310.202 39.0622 310.118 39.0541 310.04 39.0541V41.0541ZM309.374 40.7695C309.004 40.3971 309.108 39.9506 309.113 39.9258C309.133 39.8323 309.162 39.7825 309.152 39.8017C309.139 39.8269 309.094 39.9028 308.998 40.0365C308.814 40.2922 308.528 40.6406 308.2 41.0098C307.874 41.3765 307.523 41.745 307.214 42.0408C307.06 42.1889 306.923 42.3124 306.809 42.4058C306.753 42.4523 306.707 42.4878 306.671 42.5134C306.633 42.5405 306.618 42.5486 306.622 42.5465L307.566 44.3097C307.89 44.136 308.275 43.7945 308.598 43.4846C308.953 43.1448 309.341 42.7365 309.695 42.3384C310.046 41.9429 310.381 41.5385 310.62 41.2065C310.736 41.0464 310.853 40.8697 310.938 40.7028C310.977 40.6258 311.037 40.4951 311.07 40.338C311.089 40.2497 311.188 39.7572 310.792 39.3587L309.374 40.7695ZM306.62 42.5476C306.621 42.5469 306.541 42.5834 306.33 42.6493C306.14 42.7084 305.894 42.7763 305.605 42.8482C305.029 42.9918 304.316 43.1441 303.611 43.2682L303.957 45.238C304.706 45.1062 305.465 44.9444 306.089 44.7888C306.401 44.711 306.686 44.633 306.924 44.5589C307.14 44.4916 307.384 44.4078 307.568 44.3087L306.62 42.5476ZM303.61 43.2683C302.157 43.525 300.481 43.8417 299.891 43.9744L300.329 45.9258C300.869 45.8045 302.501 45.4952 303.958 45.2379L303.61 43.2683ZM299.893 43.9739C299.858 43.9816 299.831 43.987 299.811 43.9905C299.791 43.9941 299.782 43.995 299.783 43.9949C299.783 43.9949 299.789 43.9944 299.797 43.994C299.806 43.9936 299.821 43.9931 299.842 43.9938C299.87 43.9947 299.967 43.999 300.09 44.0423C300.211 44.0848 300.474 44.2084 300.629 44.5219C300.79 44.846 300.724 45.1428 300.672 45.284C300.622 45.4192 300.554 45.5037 300.534 45.5284C300.519 45.546 300.508 45.5585 300.501 45.5656C300.493 45.573 300.489 45.5772 300.488 45.5782C300.486 45.5797 300.492 45.5744 300.508 45.5615C300.524 45.5491 300.546 45.5325 300.576 45.5113C300.636 45.4687 300.717 45.4145 300.822 45.3477C301.033 45.214 301.319 45.0434 301.688 44.8322L300.696 43.096C299.977 43.5067 299.412 43.8517 299.138 44.1025C299.091 44.1454 298.897 44.3177 298.797 44.5885C298.735 44.7538 298.669 45.0709 298.838 45.4115C299.002 45.7414 299.281 45.8776 299.427 45.9289C299.68 46.018 299.919 45.9914 299.986 45.9846C300.1 45.973 300.218 45.9506 300.327 45.9263L299.893 43.9739ZM301.688 44.8321C302.762 44.2179 304.792 43.2502 306.647 42.4316C307.569 42.0246 308.433 41.6616 309.095 41.4039C309.428 41.2745 309.698 41.1761 309.895 41.1125C309.995 41.0804 310.062 41.0614 310.103 41.0517C310.175 41.0346 310.109 41.0591 309.987 41.0527L310.093 39.0555C309.9 39.0454 309.72 39.0871 309.639 39.1062C309.528 39.1328 309.405 39.169 309.281 39.2092C309.03 39.2902 308.718 39.4045 308.37 39.54C307.67 39.8122 306.778 40.188 305.84 40.6018C303.974 41.425 301.865 42.4273 300.695 43.0961L301.688 44.8321ZM211.153 44.8071C210.618 44.8083 210.166 44.8109 209.793 44.8386C209.413 44.8667 209.048 44.9244 208.695 45.068C207.987 45.3565 207.53 45.9278 207.023 46.5382L208.561 47.816C209.161 47.0934 209.297 46.9822 209.449 46.9202C209.527 46.8886 209.659 46.854 209.941 46.8331C210.229 46.8117 210.604 46.8084 211.157 46.8071L211.153 44.8071ZM207.022 46.5394L205.886 47.9114L207.426 49.1869L208.562 47.8149L207.022 46.5394ZM206.656 49.5491H207.652V47.5491H206.656V49.5491ZM207.652 49.5491C207.74 49.5491 208.002 49.5988 208.496 49.8566C208.967 50.1015 209.558 50.4862 210.273 51.0282L211.481 49.434C210.716 48.855 210.027 48.3987 209.42 48.0828C208.839 47.7799 208.228 47.5491 207.652 47.5491V49.5491ZM210.273 51.0284C211.509 51.9639 213.157 53.0811 213.96 53.5122L214.906 51.75C214.241 51.3931 212.691 50.3503 211.481 49.4338L210.273 51.0284ZM213.961 53.5126C214.407 53.7517 214.845 53.9615 215.342 54.1013C215.847 54.2434 216.37 54.3016 216.993 54.2902C218.187 54.2683 219.864 53.9831 222.65 53.4642L222.284 51.498C219.438 52.0281 217.947 52.2724 216.956 52.2905C216.487 52.2991 216.164 52.2549 215.883 52.176C215.595 52.0948 215.307 51.965 214.905 51.7496L213.961 53.5126ZM222.65 53.4642C226.296 52.7846 227.71 52.6683 229.779 52.8349L229.939 50.8413C227.612 50.654 225.998 50.8056 222.284 51.498L222.65 53.4642ZM229.779 52.8349C231.948 53.0089 233.024 52.9709 234.121 52.4046L233.203 50.6276C232.661 50.9073 232.109 51.0153 229.939 50.8413L229.779 52.8349ZM234.121 52.4043C235.277 51.8067 236.161 50.837 236.628 49.7828C237.09 48.7428 237.197 47.4715 236.511 46.4259L234.839 47.5223C235.032 47.8177 235.088 48.3234 234.8 48.9722C234.519 49.6067 233.957 50.2375 233.202 50.6279L234.121 52.4043ZM236.51 46.4242L235.953 45.5782L234.283 46.678L234.84 47.524L236.51 46.4242ZM234.411 45.421L232.858 46.974L234.272 48.3882L235.825 46.8352L234.411 45.421ZM232.858 46.974C231.764 48.0676 231.399 48.3335 230.663 48.3774C230.218 48.4039 229.607 48.3407 228.65 48.1492C227.7 47.9593 226.483 47.6589 224.842 47.2472L224.355 49.187C225.984 49.5958 227.251 49.9091 228.258 50.1104C229.257 50.3102 230.073 50.4161 230.782 50.3738C232.354 50.2802 233.203 49.4576 234.272 48.3882L232.858 46.974ZM224.842 47.2472C217.685 45.4504 214.138 44.7987 211.152 44.8071L211.158 46.8071C213.86 46.7995 217.181 47.3858 224.355 49.187L224.842 47.2472ZM212.469 49.8913C212.426 49.8978 212.391 49.8995 212.37 49.9001C212.349 49.9006 212.335 49.9001 212.335 49.9001C212.335 49.9001 212.336 49.9001 212.339 49.9003C212.342 49.9004 212.349 49.9007 212.356 49.9009C212.37 49.9014 212.392 49.9021 212.419 49.9021V47.9021C212.427 47.9021 212.431 47.9023 212.428 47.9022C212.426 47.9021 212.424 47.902 212.419 47.9018C212.414 47.9017 212.407 47.9014 212.398 47.9011C212.382 47.9006 212.353 47.8998 212.318 47.9007C212.283 47.9017 212.234 47.9044 212.176 47.9129L212.469 49.8913ZM212.38 49.9013C212.38 49.9013 212.38 49.9013 212.38 49.9014C212.381 49.9014 212.382 49.9014 212.383 49.9015C212.384 49.9016 212.387 49.9017 212.391 49.902C212.398 49.9024 212.408 49.9031 212.42 49.9041C212.444 49.9061 212.476 49.909 212.515 49.9129C212.594 49.9208 212.696 49.9322 212.819 49.9468C213.065 49.9761 213.386 50.0174 213.764 50.068C214.518 50.1692 215.487 50.3062 216.508 50.4554C218.555 50.7543 220.791 51.0991 221.928 51.3008L222.278 49.3315C221.108 49.1241 218.845 48.7754 216.797 48.4764C215.771 48.3265 214.794 48.1884 214.03 48.0858C213.296 47.9874 212.689 47.912 212.458 47.9029L212.38 49.9013ZM221.93 51.301L224.49 51.751L224.836 49.7812L222.276 49.3312L221.93 51.301ZM224.542 49.7735L221.125 50.1915L221.367 52.1767L224.784 51.7587L224.542 49.7735ZM221.126 50.1914C218.689 50.4868 217.589 50.6058 216.838 50.5422C216.201 50.4883 215.841 50.3098 214.844 49.7385L213.85 51.4738C214.839 52.0404 215.544 52.4399 216.669 52.535C217.678 52.6205 219.035 52.4595 221.366 52.1768L221.126 50.1914ZM214.845 49.7388C214.081 49.3005 213.533 48.9265 213.24 48.6784C213.062 48.5286 213.084 48.5115 213.135 48.61C213.152 48.6431 213.318 48.959 213.147 49.3545C212.959 49.7904 212.566 49.8751 212.49 49.888L212.155 47.9162C211.978 47.9463 211.524 48.0691 211.311 48.5619C211.116 49.0142 211.294 49.4058 211.36 49.5315C211.507 49.8152 211.765 50.0509 211.948 50.2058C212.376 50.5673 213.043 51.0107 213.849 51.4734L214.845 49.7388Z" fill="black" mask="url(#path-39-inside-1)"/>
            </g>
            <path id="Vector_39" d="M211.08 49.05C215.784 49.545 220.667 50.214 224.313 51.116C221.406 51.196 218.607 51.408 216.027 51.895C214.191 51.605 212.043 50.062 211.079 49.051L211.08 49.05ZM309.594 39.914C305.214 41.703 300.713 43.708 297.464 45.592C300.277 44.857 303.024 44.28 305.638 44.026C307.32 43.236 308.952 41.154 309.594 39.914V39.914Z" fill="#D40301"/>
            <path id="Vector_40" d="M205.979 109.92C215.383 104.62 224.543 103.243 233.04 112.604C228.294 116.681 223.198 117.775 217.804 119.692C215.34 120.376 212.442 120.137 208.144 116.922C206.257 114.297 206.05 112.092 205.979 109.92V109.92ZM300.825 101.028C307.277 98.262 314.079 98.653 320.736 97.738C321.472 110.74 313.061 113.038 303.076 113.494C298.826 111.34 294.946 110.05 291.389 109.512C293.009 106.139 295.976 103.248 300.825 101.028V101.028Z" fill="white" fill-opacity="0.922"/>
        </g>
        <g id="mage-right-hand">
            <path id="Vector_41" d="M443.242 324.521C440.493 310.662 429.657 303.189 418.3 296.127V296.126C405.126 309.595 399.506 325.308 403.41 343.852C406.198 348.269 409.347 350.161 412.593 351.371C413.571 354.933 414.473 359.273 416.798 361.14C419.333 363.176 424.76 363.546 427.173 363.924C428.783 365.517 430.449 367.644 432.629 367.767C435.965 367.956 440.544 366.367 443.761 364.974C444.331 359.681 444.425 354.103 443.369 347.834C449.989 349.732 453.976 347.022 456.689 342.083L456.56 341.949C451.224 336.407 447.267 332.296 443.242 324.521Z" fill="#F6D3CD" fill-opacity="0.961"/>
            <path id="Vector_3" d="M454.78 345.02C465.632 348.837 466.188 368.616 471.25 381.41C476.825 387.756 485.023 393.86 494.268 396.532C500.454 398.319 508.418 401.053 514.261 403.931L580.142 454.835C578.542 457.662 576.356 459.515 573.776 460.711C554.603 446.191 537.43 433.527 515.496 417.383C506.006 411.937 492.486 406.827 479.197 401.698C472.435 398.685 466.09 394.838 461.911 386.66C457.561 373.676 456.797 355.8 448.85 347.719L454.78 345.02Z" fill="#AC4918"/>
            <path id="Vector_4" d="M445.592 347.343C447.777 353.322 452.107 358.249 456.412 361.107C463.398 365.745 471.085 365.787 479.427 369.956C495.783 379.425 500.327 391.227 505.337 401.088L490.645 396.191C486.595 385.694 478.841 381.285 470.265 378.224C461.157 374.307 452.055 370.32 443.267 362.891L440.83 346.996L445.592 347.343Z" fill="#BF5B20"/>
        </g>
    </g>
    <defs>
        <filter id="filter0_f" x="290.234" y="227.27" width="60.7093" height="50.7199" filterUnits="userSpaceOnUse" color-interpolation-filters="sRGB">
            <feFlood flood-opacity="0" result="BackgroundImageFix"/>
            <feBlend mode="normal" in="SourceGraphic" in2="BackgroundImageFix" result="shape"/>
            <feGaussianBlur stdDeviation="1.71704" result="effect1_foregroundBlur"/>
        </filter>
        <filter id="filter1_f" x="132.707" y="229.39" width="67.3579" height="83.8211" filterUnits="userSpaceOnUse" color-interpolation-filters="sRGB">
            <feFlood flood-opacity="0" result="BackgroundImageFix"/>
            <feBlend mode="normal" in="SourceGraphic" in2="BackgroundImageFix" result="shape"/>
            <feGaussianBlur stdDeviation="1.71704" result="effect1_foregroundBlur"/>
        </filter>
        <filter id="filter2_f" x="243.769" y="232.67" width="47.2436" height="48.3008" filterUnits="userSpaceOnUse" color-interpolation-filters="sRGB">
            <feFlood flood-opacity="0" result="BackgroundImageFix"/>
            <feBlend mode="normal" in="SourceGraphic" in2="BackgroundImageFix" result="shape"/>
            <feGaussianBlur stdDeviation="1.71704" result="effect1_foregroundBlur"/>
        </filter>
        <filter id="filter3_f" x="298.693" y="190.313" width="56.2111" height="38.1043" filterUnits="userSpaceOnUse" color-interpolation-filters="sRGB">
            <feFlood flood-opacity="0" result="BackgroundImageFix"/>
            <feBlend mode="normal" in="SourceGraphic" in2="BackgroundImageFix" result="shape"/>
            <feGaussianBlur stdDeviation="1.71704" result="effect1_foregroundBlur"/>
        </filter>
        <filter id="filter4_f" x="352.204" y="228.318" width="60.0486" height="95.6816" filterUnits="userSpaceOnUse" color-interpolation-filters="sRGB">
            <feFlood flood-opacity="0" result="BackgroundImageFix"/>
            <feBlend mode="normal" in="SourceGraphic" in2="BackgroundImageFix" result="shape"/>
            <feGaussianBlur stdDeviation="1.71704" result="effect1_foregroundBlur"/>
        </filter>
        <filter id="filter5_f" x="395.506" y="290.336" width="22.9171" height="42.251" filterUnits="userSpaceOnUse" color-interpolation-filters="sRGB">
            <feFlood flood-opacity="0" result="BackgroundImageFix"/>
            <feBlend mode="normal" in="SourceGraphic" in2="BackgroundImageFix" result="shape"/>
            <feGaussianBlur stdDeviation="1.71704" result="effect1_foregroundBlur"/>
        </filter>
        <filter id="filter6_f" x="129.917" y="75.055" width="53.715" height="153.061" filterUnits="userSpaceOnUse" color-interpolation-filters="sRGB">
            <feFlood flood-opacity="0" result="BackgroundImageFix"/>
            <feBlend mode="normal" in="SourceGraphic" in2="BackgroundImageFix" result="shape"/>
            <feGaussianBlur stdDeviation="1.26592" result="effect1_foregroundBlur"/>
        </filter>
        <filter id="filter7_f" x="170.619" y="173.639" width="58.0194" height="126.065" filterUnits="userSpaceOnUse" color-interpolation-filters="sRGB">
            <feFlood flood-opacity="0" result="BackgroundImageFix"/>
            <feBlend mode="normal" in="SourceGraphic" in2="BackgroundImageFix" result="shape"/>
            <feGaussianBlur stdDeviation="1.26592" result="effect1_foregroundBlur"/>
        </filter>
        <filter id="filter8_f" x="184.425" y="350.717" width="88.9741" height="94.8729" filterUnits="userSpaceOnUse" color-interpolation-filters="sRGB">
            <feFlood flood-opacity="0" result="BackgroundImageFix"/>
            <feBlend mode="normal" in="SourceGraphic" in2="BackgroundImageFix" result="shape"/>
            <feGaussianBlur stdDeviation="1.71704" result="effect1_foregroundBlur"/>
        </filter>
        <filter id="filter9_f" x="309.82" y="352.531" width="71.5091" height="101.466" filterUnits="userSpaceOnUse" color-interpolation-filters="sRGB">
            <feFlood flood-opacity="0" result="BackgroundImageFix"/>
            <feBlend mode="normal" in="SourceGraphic" in2="BackgroundImageFix" result="shape"/>
            <feGaussianBlur stdDeviation="1.71704" result="effect1_foregroundBlur"/>
        </filter>
        <filter id="filter10_f" x="334.999" y="108.468" width="54.396" height="90.8819" filterUnits="userSpaceOnUse" color-interpolation-filters="sRGB">
            <feFlood flood-opacity="0" result="BackgroundImageFix"/>
            <feBlend mode="normal" in="SourceGraphic" in2="BackgroundImageFix" result="shape"/>
            <feGaussianBlur stdDeviation="1.26592" result="effect1_foregroundBlur"/>
        </filter>
    </defs>
</svg>