<svg width="500" height="500" viewBox="0 0 500 500" fill="none" xmlns="http://www.w3.org/2000/svg">
<g clip-path="url(#clip0)">
<path d="M175.677 200.438L189.841 183.436L234.513 184.266L253.845 195.047L197.951 234.28L175.677 200.438Z" fill="#E4D7C3" stroke="#2B0000" stroke-width="6"/>
<path d="M176.519 199.536C185.501 212.758 192.576 223.263 199.346 233.33C216.604 217.288 233.861 206.457 251.119 195.896L231.992 255.54L250.484 306.752C233.229 318.565 186.206 313.782 157.282 305.29L160.485 287.514C156.968 257.089 154.759 226.827 176.521 199.535L176.519 199.536Z" fill="#107178" stroke="#2B0000" stroke-width="4"/>
<path d="M157.185 304.358C188.491 310.691 233.184 315.99 251.741 305.856L275.275 354.673C223.683 366.367 187.079 347.029 153.402 332.811L157.185 304.358Z" fill="#48211D" stroke="#2B0000" stroke-width="5"/>
<path d="M200.894 263.926C203.656 263.768 217.074 273.064 230.522 287.886C220.054 282.977 211.159 270.795 200.457 267.781C192.841 265.636 183.585 269.215 175.469 273.211C179.044 269.276 191.823 264.395 200.894 263.926Z" fill="#2B0000"/>
<path opacity="0.32922" d="M204.218 184.631C199.086 184.718 193.822 186.593 188.608 187.71L178.202 201.481L199.843 232.928C215.912 219.729 232.3 207.35 249.485 196.935L249.982 194.589C232.964 197.713 219.643 189.586 209.293 185.234C207.621 184.773 205.93 184.602 204.219 184.631L204.218 184.631ZM191.936 201.982C208.715 201.901 209.325 211.412 232.192 206.824L228.32 208.603C218.702 212.767 208.398 222.246 200.044 226.861C193.197 218.469 187.332 213.949 183.567 202.93L187.412 202.297C189.019 202.088 190.514 201.989 191.936 201.982V201.982Z" fill="black"/>
<path opacity="0.32922" d="M164.016 229.222C164.657 240.345 162.841 250.621 167.745 261.744C181.181 260.232 184.408 257.747 194.006 257.439C201.366 257.203 208.286 260.863 221.933 262.39C220.368 247.247 226.102 234.129 235.634 225.41C219.568 259.852 238.509 285.104 251.086 312.027C221.19 316.297 190.844 314.457 160.155 308.003L164.145 287.457C159.441 268.254 156.22 248.984 164.018 229.222H164.016Z" fill="black"/>
<path opacity="0.037037" d="M162.439 309.75C190.106 314.399 220.294 318.185 249.222 313.794L252.374 318.286C226.598 323.151 191.579 319.773 161.178 311.547L162.439 309.75Z" fill="white"/>
<path opacity="0.074074" d="M134.386 250.899L135.713 251.649L136.669 250.574C143.092 251.902 149.466 252.36 155.337 244.063L158.131 243.337L156.029 254.643L151.512 266.772C145.431 266.8 141.078 263.292 137.223 258.761L134.386 250.899Z" fill="white"/>
<path opacity="0.074074" d="M233.466 239.817L235.606 242.318C243.999 253.846 266.892 250.316 270.453 246.975L274.231 245.208C274.119 253.614 276.039 253.858 278.013 260.033L275.63 259.435C262.954 270.167 249.652 266.592 236.439 265.088L234.096 266.322C228.842 257.488 229.786 248.652 233.466 239.817Z" fill="white"/>
<path opacity="0.074074" d="M166.223 242.216C174.067 249.495 182.41 250.044 190.807 249.853L194.427 252.935L197.786 250.909C207.917 249.871 215.315 245.913 222.117 241.317L219.385 258.987C209.644 258.144 201.451 256.701 196.072 254.691L191.003 254.282C182.411 257.044 174.739 257.639 168.323 257.789L166.223 242.216Z" fill="white"/>
<path opacity="0.074074" d="M204.254 232.48C212.379 225.156 220.503 219.141 228.629 214.211L230.099 217.805C220.138 223.595 211.961 229.385 202.993 235.176L204.254 232.48Z" fill="white"/>
<path d="M351.079 256.753L382.282 238.646L397.586 246.799C393.783 265.806 381.262 285.255 362.371 298.367L351.079 256.753Z" fill="#784421" stroke="#2B0000" stroke-width="5"/>
<path d="M361.364 286.3C354.142 266.495 370.348 247.733 383.377 240.979L394.818 247.359C404.237 247.234 429.99 265.596 421.711 274.456C409.339 279.031 399.545 282.966 383.651 293.515C376.221 289.52 368.792 287.48 361.363 286.298L361.364 286.3Z" fill="#E4D7C3" stroke="#2B0000" stroke-width="5"/>
<path d="M403.973 302.92L432.785 281.91L459.395 303.944C462.513 307.5 459.575 321.246 461.883 323.061C464.521 325.149 486.028 324.282 488.07 327.486C490.892 330.115 491.17 351.007 498.174 357.557C488.078 354.045 481.806 352.583 475.512 349.699C471.67 346.521 473.601 341.611 471.45 340.175C466.948 338.009 435.403 337.504 428.969 333.677C426.086 330.425 423.944 317.406 420.316 314.144L403.973 302.92Z" fill="#E6E6E6" stroke="#4D4D4D" stroke-width="4"/>
<path d="M419.382 291.222L404.401 302.325L420.728 313.54C424.355 316.802 426.503 329.825 429.388 333.077C435.822 336.904 467.376 337.41 471.879 339.576C474.029 341.011 472.082 345.924 475.923 349.102C482.218 351.985 488.497 353.451 498.594 356.963C489.021 349.049 483.961 348.598 480.139 333.47C475.436 330.729 454.033 332.479 447.312 327.637C444.299 323.523 446.906 312.144 443.117 308.017L419.382 291.222Z" fill="#CCCCCC"/>
<path d="M381.98 294.66C396 284.059 417.085 273.582 426.852 268.93C430.696 267.412 441.597 277.012 439.481 278.354C429.179 287.203 412.982 298.797 397.878 306.414C395.44 308.32 379.852 298.578 381.979 294.66H381.98Z" fill="#B2B269" stroke="#2B0000" stroke-width="5"/>
<path opacity="0.49383" d="M383.474 259.189C380.197 264.255 372.773 273.33 384.01 284.71L421.065 271.683L383.92 293.495L362.525 287.14C361.446 277.458 364.604 267.953 370.25 258.553L383.474 259.189Z" fill="black"/>
<path opacity="0.30864" d="M387.634 295.503C400.023 286.98 413.195 279.334 428.346 273.902C431.833 275.452 434.167 277.471 434.883 280.15C423.634 290.966 410.31 298.237 397.143 305.774C392.999 303.045 389.415 299.916 387.634 295.503Z" fill="black"/>
<path d="M79.4395 278.006L116.421 307.656C114.894 313.655 109.857 317.154 105.074 320.833L64.7308 301.664C64.3772 291.653 70.6906 284.336 79.4395 278.004V278.006Z" fill="#E4D7C3" stroke="#2B0000" stroke-width="5"/>
<path d="M39.3983 330.207L57.0632 316.281L85.6412 331.335L65.9358 346.566C57.9481 354.953 63.9102 363.045 56.1866 367.815C48.5897 372.506 30.5023 368.694 28.4949 371.932C26.4874 375.169 26.4277 379.757 22.4724 382.841C19.9567 384.802 8.89188 386.988 0.525391 388.089C8.31761 382.053 11.2865 375.8 12.4855 369.662C13.276 365.617 11.3466 361.012 14.0904 357.426C18.6451 351.472 29.6749 352.11 34.8819 346.435C38.8481 342.111 35.883 333.34 39.399 330.207H39.3983Z" fill="#E6E6E6" stroke="#4D4D4D" stroke-width="4"/>
<path d="M50.4301 337.62L68.095 322.346L85.1154 330.811L65.4103 346.042C57.4227 354.429 63.3848 362.521 55.6612 367.291C48.0643 371.982 29.9769 368.171 27.9695 371.408C25.962 374.645 25.9023 379.233 21.947 382.317C19.4313 384.279 8.36648 386.464 0 387.565C9.89388 383.626 13.8988 380.345 17.4237 374.679C19.475 371.382 20.2772 366.178 23.021 362.592C27.5757 356.638 38.1854 361.17 43.3924 355.494C47.3586 351.172 46.915 340.753 50.4309 337.62H50.4301Z" fill="#CCCCCC"/>
<path d="M55.4847 297.62C75.3512 305.811 94.1008 314.638 111.169 324.425C110.118 327.166 101.924 336.461 97.3004 337.603C79.2295 329.493 61.1588 319.403 43.0873 308.103C43.2624 304.609 52.8735 298.869 55.4847 297.621V297.62Z" fill="#B2B269" stroke="#2B0000" stroke-width="5"/>
<path opacity="0.49383" d="M77.5508 280.103L115.794 310.052L105.708 320.833L64.9426 301.217L94.9972 310.782L97.3748 306.97C82.9777 300.756 78.8825 291.955 73.669 283.431L77.5508 280.103Z" fill="black"/>
<path opacity="0.2963" d="M56.3248 301.813L105.705 325.474L97.2997 335.806C78.128 327.295 62.9309 318.155 48.7603 308.852L56.3248 301.813Z" fill="black"/>
<path opacity="0.2963" d="M52.963 319.034L56.9554 317.386L85.1127 332.51L66.0691 346.638L58.6369 365.754L53.9609 334.884L59.8038 329.356L52.963 319.034Z" fill="black"/>
<path opacity="0.30864" d="M434.138 283.394L441.702 289.384L435.212 301.916L439.657 305.308L431.616 335.206L428.097 333.926L420.415 314.784L404.72 303.311L434.138 283.394Z" fill="black"/>
<path d="M187.444 375.34L236.404 362.012L312.679 375.34L305.535 408.433C286.981 422.918 268.428 438.086 249.876 450.318C231.533 439.038 211.638 433.294 192.275 425.654L187.444 375.34Z" fill="#3D1311" stroke="#2B0000" stroke-width="4"/>
<path opacity="0.3251" d="M236.414 362.015L187.451 375.34L192.287 425.655C205.618 430.914 219.195 435.281 232.35 441.168C239.243 432.797 245.724 425.05 255.544 417.482C267.256 420.774 276.012 423.396 282.581 426.44C290.232 420.489 297.895 414.411 305.546 408.437L312.679 375.34L236.414 362.015Z" fill="black"/>
<path d="M144.576 327.721H309.735L318.143 364.56L265.191 399.344C256.931 390.944 248.55 382.285 239.186 371.525C234.053 386.384 231.662 401.243 228.637 416.103L134.905 413.675L144.576 327.721Z" fill="#775451" stroke="#2B0000" stroke-width="6"/>
<path d="M129.032 390.912L164.504 414.502C168.713 407.172 173.608 401.637 178.649 396.481C201.063 395.381 222.449 399.399 243.763 403.789C228.469 422.857 224.47 441.924 228.213 460.993C192.631 465.345 157.051 468.443 121.467 460.993L137.675 442.346C131.229 425.202 129.981 408.057 129.031 390.913L129.032 390.912Z" fill="#48211D" stroke="#2B0000" stroke-width="4"/>
<path opacity="0.32922" d="M137.569 442.279L131.339 417.166L156.098 409.713L165.771 415.027C164.028 428.548 172.712 440.582 178.294 453.06C165.241 447.549 152.226 441.979 142.271 431.503L140.278 443.44L131.933 457.279C159.885 463.311 192.652 459.548 223.705 457.294C221.072 443.409 221.113 431.642 224.743 417.757C217.844 409.255 207.274 405.461 196.487 401.946C211.643 401.701 227.807 405.115 238.904 409.242C226.301 426.217 228.17 442.629 227.908 460.701C189.748 465.775 153.022 468.493 122.71 460.701L137.569 442.279Z" fill="black"/>
<path d="M152.272 464.081L162.673 439.728L164.159 414.315" stroke="#2B0000" stroke-width="2"/>
<path d="M256.789 404.988C280.458 378.183 309.535 362.069 343.289 355.226L393.37 390.911L404.304 422.057C409.967 431.493 415.236 441.574 419.006 454.104C394.211 462.9 346.72 465.166 310.577 462.789L311.129 447.488C297.223 430.844 276.555 418.179 256.784 404.989L256.789 404.988Z" fill="#48211D" stroke="#2B0000" stroke-width="4"/>
<path d="M365.635 462.614L357.022 433.39L324.926 379.369" stroke="#2B0000" stroke-width="2"/>
<path opacity="0.2963" d="M276.94 418.757L275.662 386.672L394.617 391.015L400.002 409.733C375.022 415.653 351.045 426.587 328.44 444.36C347.573 452.614 376.252 454.818 413.493 450.508L418.986 454.546C385.617 462.683 348.754 463.848 309.928 463.652L310.675 447.722L276.94 418.757Z" fill="black"/>
<path opacity="0.1893" d="M156.885 309.91C163.343 313.559 173.034 314.905 174.521 322.096C169.933 323.578 165.346 325.256 160.759 330.614C197.439 343.607 234.869 358.114 261.568 350.871C253.356 342.762 239.257 337.45 223.989 332.694C225.91 326.659 242.702 322.611 256.663 318.185L270.402 357.981C231.068 364.435 199.57 358.143 167.957 349.735C158.583 362.658 155.234 388.414 160.723 408.251L164.127 409.739L169.77 400.769L174.117 401.182L163.598 412.753L156.586 409.018C154.256 376.847 150.138 345.312 156.882 309.907L156.885 309.91Z" fill="black"/>
<path opacity="0.32922" d="M216.915 365.604C225.168 363.614 233.421 364.053 241.675 366.581L262.809 388.05L274.295 382.148L269.811 358.191L279.618 385.51L262.085 397.369L238.608 371.957L230.904 400.685L227.432 399.87C225.599 388.448 228.883 377.026 216.916 365.604H216.915Z" fill="black"/>
<path d="M119.412 142.646L267.688 164.603L259.817 183.756L228.018 192.824L205.458 189.456C198.05 186.507 190.643 191.384 183.235 193.283L160.787 189.483C132.511 176.523 132.553 158.377 119.412 142.646L119.412 142.646Z" fill="#521210" stroke="#2B0000" stroke-width="4"/>
<path d="M300.989 118.03C301.07 126.675 298.764 135.246 294.2 143.251C289.638 151.254 282.91 158.533 274.403 164.666C265.897 170.8 255.781 175.669 244.637 178.991C233.493 182.312 221.542 184.022 209.471 184.022C197.401 184.022 185.45 182.312 174.306 178.991C163.162 175.669 153.046 170.8 144.539 164.666C136.033 158.533 129.305 151.254 124.742 143.251C120.179 135.246 117.872 126.675 117.953 118.03C117.872 109.384 120.179 100.813 124.742 92.8091C129.305 84.805 136.033 77.5264 144.539 71.3926C153.046 65.2588 163.162 60.3911 174.306 57.069C185.45 53.7474 197.401 52.0368 209.471 52.0368C221.542 52.0368 233.493 53.7474 244.637 57.069C255.781 60.3911 265.897 65.2588 274.403 71.3926C282.91 77.5264 289.638 84.805 294.2 92.8091C298.764 100.813 301.07 109.384 300.989 118.03Z" fill="#E4D7C3" stroke="#2B0000" stroke-width="6"/>
<path d="M254.98 135.003L263.291 142.444C263.941 156.465 251.017 162.078 236.575 162.643C232.953 163.249 230.365 164.641 225.295 164.343C227.679 161.988 228.725 160.2 230.036 158.117C236.627 147.645 246.171 140.458 254.98 135.003Z" fill="black"/>
<path opacity="0.14815" d="M248.53 58.7277C274.496 70.2946 291.775 90.9051 291.775 114.418C291.775 150.619 250.813 179.968 200.268 179.968C186.282 179.968 173.033 177.717 161.177 173.699C175.203 179.958 191.76 183.578 209.501 183.578C260.045 183.578 301.022 154.229 301.022 118.027C301.022 91.8247 279.55 69.2194 248.529 58.7267L248.53 58.7277Z" fill="black"/>
<path d="M171.93 153.886C175.866 159.457 181.873 163.379 188.302 166.966C186.082 167.785 183.863 167.811 181.643 167.849C179.779 168.907 177.143 169.841 172.769 170.499C171.756 166.728 171.21 159.562 171.929 153.886L171.93 153.886Z" fill="black"/>
<path d="M171.821 161.328C174.106 162.996 176.675 164.595 179.798 166.063C177.209 166.485 174.62 166.932 172.031 166.966C171.279 164.935 171.453 162.781 171.821 161.328Z" fill="white"/>
<path opacity="0.59259" d="M217.178 96.5207L150.843 103.813L130.388 152.665C129.65 153.988 129.001 155.315 128.466 156.647C130.885 161.083 133.225 165.535 136.271 169.856C136.435 169.655 136.599 169.445 136.765 169.251C136.686 169.559 136.592 169.88 136.518 170.209C141.52 177.2 148.464 183.833 160.791 189.483L169.531 190.962C170.223 187.899 171.054 184.803 172.037 181.688C172.589 184.615 173.743 188.163 175.401 191.957L183.232 193.278C185.503 192.696 187.779 191.839 190.05 191.008C191.105 186.193 193.944 184.638 197.218 182.448C170.1 161.293 190.378 115.198 205.833 105.916L217.178 96.5207Z" fill="black"/>
<path d="M132.729 96.5015L193.12 89.6556L195.4 102.706C177.51 107.746 167.366 136.736 166.83 155.733C166.359 172.42 169.335 189.635 177.821 207.342C163.681 198.978 153.949 180.049 152.028 169.549C149.431 178.019 148.001 186.274 147.442 194.368C143.149 190.882 141.314 184.804 140.576 177.571L136.735 186.246L133.165 179.793L130.172 182.811C128.953 180.851 128.568 178.584 128.035 176.371L124.572 180.023C118.013 170.007 118.725 162.636 119.912 157.881C117.647 160.622 115.5 164.068 115.274 166.809C109.019 158.38 109.802 150.263 114.105 142.326L132.729 96.5015Z" fill="#B99176" stroke="#2B0000" stroke-width="4"/>
<path opacity="0.26749" d="M194.582 89.6582L133.12 96.5928L114.168 143.048C109.789 151.095 108.986 159.329 115.347 167.877C115.578 165.099 117.771 161.599 120.076 158.819C118.869 163.641 118.14 171.115 124.817 181.269L128.343 177.572C128.885 179.815 129.28 182.114 130.521 184.1L133.565 181.039L137.199 187.576L141.11 178.784C141.862 186.117 143.719 192.278 148.088 195.812C148.658 187.605 150.115 179.242 152.757 170.655C154.712 181.301 164.62 200.486 179.013 208.964C170.376 191.01 167.355 173.559 167.834 156.644C168.381 137.384 178.697 107.998 196.906 102.888L194.584 89.6556L194.582 89.6582ZM187.109 92.6742C187.486 94.7832 187.864 96.89 188.241 98.9989C189.061 99.9637 187.685 100.527 186.64 100.856C178.111 105.494 173.086 112.742 169.204 119.848C157.438 142.862 157.314 168.42 164.548 192.222C159.243 185.123 155.751 177.335 153.826 169.357C154.369 166.679 149.277 164.244 146.547 166.331C144.047 170.105 143.13 174.392 142.239 178.538C141.649 174.791 140.876 171.007 139.496 167.349C137.208 170.632 134.782 173.859 133.046 177.317C132.095 176.748 130.841 176.463 129.617 176.557C128.956 175.355 129.075 173.613 128.209 172.285C126.193 172.198 124.094 172.594 122.541 173.549C118.405 165.516 121.661 156.78 122.313 148.49C118.624 151.1 114.858 153.719 112.097 156.911C111.759 154.839 111.837 152.717 112.205 150.666C118.723 133.275 126.333 116.094 133.166 98.7598L187.108 92.6737L187.109 92.6742Z" fill="black"/>
<path d="M254.839 139.378C260.742 141.712 258.907 151.764 251.755 156.121C247.273 158.851 241.866 159.11 236.787 158.622C239.075 151.5 246.132 144.691 254.839 139.378Z" fill="white"/>
<path opacity="0.58848" d="M214.033 49.3196C205.859 49.4671 196.892 51.5582 189.565 53.5052C150.433 61.5052 119.028 90.5404 121.293 128.013L122.968 134.664C121.13 140.003 114.228 141.033 115.782 146.011C120.025 136.624 139.404 133.666 148.526 126.239C158.4 118.201 167.668 104.826 176.465 101.265C180.681 100.76 195.232 103.837 193.129 109.578C194.69 110.163 196.239 110.902 197.76 111.837C214.679 122.237 234.031 129.063 247.979 143.994C256.871 152.507 263.108 160.985 245.265 180.037C235.841 187.193 225.38 191.087 213.693 191.125C214.494 191.503 215.296 191.87 216.096 192.223C216.85 192.556 217.602 192.874 218.356 193.172C218.733 193.32 219.108 193.463 219.486 193.6C219.49 193.601 219.495 193.599 219.499 193.6C221.193 194.215 222.883 194.713 224.576 194.995C224.581 194.995 224.586 194.994 224.59 194.995C224.774 195.025 224.964 195.053 225.148 195.079C225.358 195.1 225.575 195.119 225.784 195.134C225.789 195.135 225.793 195.134 225.798 195.134C235.158 193.009 246.816 187.97 268.577 186.288C281.92 185.257 297.816 171.852 300.487 158.326C302.083 150.242 297.818 141.49 293.175 132.69C287.951 102.365 275.562 77.0632 235.205 59.3226C231.535 51.4787 223.299 49.1465 214.036 49.3138L214.033 49.3196Z" fill="black"/>
<path d="M191.873 39.3596C209.738 34.7943 236.141 29.5278 244.038 45.7545C290.163 65.2495 304.309 93.0591 310.282 126.382C315.588 136.053 320.474 145.677 318.65 154.562C315.597 169.426 297.421 184.157 282.171 185.29C248.058 187.825 235.676 197.289 221.983 195.932C215.949 195.093 209.915 191.517 203.882 188.843C223.714 193.271 240.744 189.223 255.539 178.42C275.931 157.481 268.793 148.16 258.632 138.804C242.689 122.395 220.569 114.895 201.232 103.466C192.483 98.2941 182.905 98.5695 175.095 98.5394C165.042 102.453 155.574 113.263 144.969 121.395C134.422 129.483 118.843 135.374 113.994 145.691C112.217 140.221 113.663 134.421 115.764 128.553L113.84 121.243C111.251 80.0617 147.145 48.1495 191.871 39.3596H191.873Z" fill="#77160F" stroke="#2B0000" stroke-width="6"/>
<path opacity="0.53498" d="M221.695 34.7568C211.875 34.6157 200.809 37.0786 191.878 39.3613C174.131 42.8499 157.771 49.9772 144.659 59.8817C161.049 47.7792 183.364 40.2451 207.425 40.2451C254.257 40.2451 289.972 68.7868 287.192 104.001C285.967 119.504 277.481 133.711 264.373 144.763C270.573 152.557 271.681 161.856 255.542 178.426C240.746 189.229 223.713 193.271 203.881 188.844C209.914 191.518 215.951 195.093 221.985 195.932C235.677 197.288 248.066 187.826 282.178 185.29C297.427 184.157 315.606 169.43 318.659 154.566C320.483 145.68 315.588 136.051 310.282 126.381C304.307 93.0576 290.162 65.2469 244.034 45.75C240.087 37.6367 231.517 34.8961 221.696 34.755L221.695 34.7568ZM133.189 70.152C120.131 84.0731 112.601 101.606 113.839 121.248L115.761 128.56C113.661 134.426 112.218 140.224 113.995 145.693C116.122 141.168 120.315 137.494 125.241 134.113C119.547 125.145 116.732 114.894 117.592 104.001C118.575 91.5648 124.225 79.9611 133.19 70.1509L133.189 70.152Z" fill="black"/>
<path opacity="0.44856" d="M175.1 96.4372C165.047 100.351 155.576 111.16 144.971 119.292C134.423 127.38 118.845 133.272 113.996 143.589C113.539 142.179 113.305 140.749 113.231 139.301C113.113 141.469 113.319 143.604 113.996 145.691C118.845 135.375 134.423 129.482 144.971 121.395C155.576 113.262 165.047 102.453 175.1 98.5399C182.91 98.5695 192.481 98.2982 201.23 103.469C220.566 114.899 242.69 122.398 258.631 138.808C263.748 143.519 268.098 148.217 268.553 154.398C269.046 147.152 264.312 141.927 258.631 136.697C242.685 120.286 220.563 112.788 201.23 101.358C192.478 96.1877 182.907 96.4673 175.098 96.4377L175.1 96.4372ZM113.723 115.832C113.689 117.617 113.727 119.422 113.84 121.246L115.45 127.366C115.556 127.061 115.652 126.752 115.762 126.446L113.84 119.143C113.77 118.034 113.737 116.927 113.723 115.832ZM319.009 149.59C318.96 150.554 318.84 151.506 318.645 152.455C315.592 167.318 297.414 182.055 282.165 183.188C248.051 185.724 235.673 195.186 221.984 193.83C218.321 193.32 214.661 191.794 210.997 190.081C208.667 189.79 206.292 189.382 203.88 188.844C209.914 191.518 215.95 195.093 221.984 195.932C235.675 197.288 248.051 187.825 282.164 185.29C297.413 184.157 315.592 169.43 318.645 154.565C318.98 152.933 319.088 151.268 319.008 149.589L319.009 149.59Z" fill="black"/>
<path d="M174.83 98.2204C166.905 84.2495 173.363 70.6753 181.758 59.2505C192.921 44.0623 211.954 32.5898 235.979 37.8385" stroke="#2B0000" stroke-width="4"/>
<path d="M112.738 119.232C177.619 127.624 250.62 116.051 300.391 91.2687C305.944 93.0648 306.925 96.3159 307.527 99.6878C260.969 120.834 177.629 138.425 110.428 127.2C109.385 123.988 109.867 121.244 112.737 119.232H112.738Z" fill="#B2B269" stroke="#2B0000" stroke-width="4"/>
<path opacity="0.32099" d="M186.03 75.4824L189.599 78.7905C180.39 82.8657 171.894 88.5685 165.03 94.583L160.317 92.847C165.52 84.3211 178.325 78.7147 186.029 75.4824H186.03Z" fill="black"/>
<path d="M184.667 74.806L188.236 78.1136C179.027 82.1888 170.531 87.8921 163.667 93.9061L158.954 92.1711C164.157 83.6437 176.961 78.0373 184.666 74.805L184.667 74.806Z" fill="#3B2321" stroke="#2B0000" stroke-width="3"/>
<path opacity="0.32099" d="M161.474 77.3615C169.654 81.0799 179.389 86.8682 185.822 88.2614L183.303 94.2002C174.26 90.2619 166.522 85.4139 158.742 80.5954L161.474 77.3615Z" fill="black"/>
<path d="M161.997 76.2339C170.177 79.9523 179.913 85.7407 186.346 87.1338L183.827 93.0726C174.788 89.1333 167.05 84.2842 159.266 79.4652L161.997 76.2339Z" fill="#3B2321" stroke="#2B0000" stroke-width="3"/>
<path opacity="0.32099" d="M170.949 61.6452C178.615 55.2801 188.787 51.8765 199.705 50.9709L199.81 55.4061C188.907 55.4217 181.664 60.2438 173.992 64.5015L170.949 61.6452Z" fill="black"/>
<path opacity="0.049383" d="M207.645 41.2402C179.715 41.2402 154.899 50.8425 141.725 64.9694C157.266 56.7043 177.652 51.6583 199.724 51.6583C237.585 51.6583 268.769 66.5047 278.373 86.9787C278.39 86.7588 278.412 86.5394 278.425 86.3185C279.825 61.4237 248.137 41.2405 207.643 41.2405L207.645 41.2402Z" fill="white"/>
<path d="M170.25 60.5985C177.917 54.2339 188.089 50.8302 199.007 49.9245L199.112 54.3594C188.209 54.375 180.966 59.1976 173.294 63.4554L170.25 60.5985Z" fill="#3B2321" stroke="#2B0000" stroke-width="3"/>
<path opacity="0.32099" d="M180.324 48.7216C186.367 52.2562 191.577 57.3812 196.801 62.4777L190.925 66.4621C186.22 60.527 180.98 55.0539 173.499 51.5029L180.324 48.7216Z" fill="black"/>
<path d="M180.956 47.6694C186.999 51.2038 192.209 56.3288 197.433 61.4253L191.553 65.4097C186.848 59.4746 181.608 54.002 174.131 50.4504L180.956 47.6694Z" fill="#3B2321" stroke="#2B0000" stroke-width="3"/>
<path d="M156.574 156.371C155.387 163.66 156.153 170.481 157.316 177.208L154.793 177.952C154.07 169.482 154.175 160.422 156.574 156.371Z" fill="#2B0000"/>
<path opacity="0.2716" d="M109.524 121.822C172.115 134.096 259.736 117.733 305.738 94.3947L307.222 100.348L304.063 101.808L304.901 104.503C289.901 110.907 266.217 118.165 240.763 124.381L243.029 126.691C220.455 134.795 195.395 136.952 176.461 136.84L177.091 134.518C172.711 129.125 144.135 134.116 127.558 133.6L125.861 133.91L114.567 132.24L115.088 128.352L110.293 126.866L109.524 121.822Z" fill="black"/>
<path opacity="0.23045" d="M198.997 49.9313C198.844 49.944 198.695 49.9641 198.542 49.9778C198.067 51.6309 197.158 53.1654 195.932 54.5078C196.958 54.4123 198.017 54.3605 199.113 54.3589L198.997 49.9314V49.9313ZM192.88 57.0472C191.03 58.2142 188.845 59.0824 186.451 59.5492C188.257 61.4113 189.945 63.3781 191.555 65.4097L197.425 61.4284C195.917 59.9564 194.403 58.4844 192.878 57.0472H192.88ZM173.672 58.0612C172.482 58.8496 171.336 59.6934 170.243 60.6006L173.295 63.4564C175.49 62.238 177.647 60.9834 179.866 59.8008C177.62 59.543 175.528 58.9367 173.672 58.0612Z" fill="black"/>
<path opacity="0.31041" d="M186.28 76.3013C186.153 77.4066 185.831 78.4751 185.332 79.473C186.295 79.0036 187.26 78.5487 188.241 78.1151L186.279 76.3008L186.28 76.3013ZM179.838 84.8869C177.255 86.2998 174.074 87.1379 170.643 87.1379C168.385 87.1379 166.245 86.7733 164.305 86.1239C162.158 87.9507 160.304 89.9611 158.955 92.1701L163.67 93.9097C166.289 91.6146 169.145 89.362 172.189 87.2308C175.883 89.307 179.72 91.2837 183.825 93.0721L186.345 87.1374C184.427 86.722 182.218 85.9118 179.838 84.8864V84.8869Z" fill="black"/>
<path opacity="0.39095" d="M113.241 121.057C185.186 129.064 255.882 114.772 300.237 93.0933L301.916 95.0648C248.908 117.716 183.608 130.111 112.821 122.277L113.241 121.057Z" fill="white"/>
<path opacity="0.11934" d="M124.96 138.619L137.261 137.29L141.319 138.773L147.042 138.197L152.227 140.219L159.083 139.426C162.408 137.467 164.004 135.726 167.558 134.048C163.281 145.245 163.063 152.723 162.511 162.219C160.417 159.666 158.236 157.236 157.291 153.036C153.169 154.761 151.12 156.487 149.75 158.211L145.463 154.072L140.25 156.126L135.405 153.066L130.014 154.095L126.058 149.838L119.135 150.981L113.679 152.758C114.611 147.194 119.142 142.057 124.96 138.619L124.96 138.619Z" fill="white"/>
<path d="M76.4972 272.912C99.9138 251.465 118.826 233.228 133.277 218.17C136.847 210.445 140.191 202.526 149.208 199.459L192.488 185.161C154.006 218.633 157.35 257.798 163.556 287.245C150.12 343.211 146.543 391.245 163.911 440.029C144.475 426.755 126.655 412.137 113.901 393.308C119.958 361.299 122.841 343.609 134.761 313.396C106.01 311.748 80.5417 287.661 76.4972 272.914V272.912Z" fill="#77160F" stroke="#2B0000" stroke-width="6"/>
<path d="M252.864 190.891L285.556 183.807C293.227 186.943 310.027 194.947 308.853 200.252C331.784 214.129 381.645 234.659 397.949 240.276L398.225 247.047L395.534 246.79C392.559 244.694 388.458 242.616 385.992 243C371.885 245.198 353.26 282.431 365.625 296.187L360.208 300.235L294.035 260.549C295.335 266.298 296.411 272.367 299.233 275.947C348.787 327.142 382.78 335.004 411.104 387.838C353.995 394.242 323.267 426.262 292.531 459.205C290.778 410.744 276.034 363.352 253.623 314.903C246.127 298.693 235.125 281.846 230.154 265.209C221.051 240.685 248.186 204.165 252.864 190.878V190.891Z" fill="#77160F" stroke="#2B0000" stroke-width="6"/>
<path d="M128.191 238.622C133.965 251.858 139.097 266.924 145.876 277.293C147.67 280.287 148.241 284.152 148.363 288.338L136.596 313.046L133.234 312.896L143.328 289.009C143.459 286.341 142.558 282.175 140.469 279.507C134.248 265.38 131.718 252.75 128.191 238.622Z" fill="#2B0000"/>
<path d="M278.64 247.155C282.889 254.359 287.53 262.483 293.559 263.926L296.921 273.211C289.143 270.848 277.887 256.059 278.64 247.155Z" fill="#2B0000"/>
<path d="M308.058 200.136L310.37 202.158C308.418 204.105 308.663 206.314 308.268 208.447C306.931 205.677 305.569 202.907 308.058 200.136Z" fill="#2B0000"/>
<path opacity="0.34156" d="M118.312 258.539C121.814 259.977 124.424 260.227 130.548 265.807C132.565 259.681 130.598 251.285 130.079 243.714L145.624 288.171L133.652 313.344C106.119 304.728 89.2093 291.914 84.6912 277.556C95.5459 286.53 110.59 290.183 123.766 289.663L133.85 285.556C131.302 281.543 123.184 277.531 116.432 273.518C121.399 273.946 126.367 274.35 131.335 275.555C129.462 268.418 123.324 263.812 118.313 258.538L118.312 258.539Z" fill="black"/>
<path opacity="0.34156" d="M300.286 249.851C310.641 258.589 325.639 263.219 337.064 268.528L376.353 243.862C355.384 260.758 354.688 279.901 358.702 299.568L293.153 259.539L295.661 273.662C281.303 264.3 275.007 252.609 276.003 240.384C279.173 245.005 285.817 253.046 292.086 253.557C290.858 244.604 295.466 232.957 299.848 226.7C297.666 236.185 295.957 242.602 300.284 249.853L300.286 249.851Z" fill="black"/>
<path opacity="0.34156" d="M138.275 260.333C142.027 265.328 143.631 270.425 155.325 275.042C153.063 267.443 155.601 258.947 156.556 254.044C157.12 266.867 158.671 276.581 160.339 287.437C159.131 294.463 157.923 300.109 156.716 305.539C148.797 309.414 140.878 316.712 132.959 325.765C136.321 315.964 142.723 301.83 148.781 288.186C149.834 276.634 139.287 271.391 138.275 260.333H138.275Z" fill="black"/>
<path opacity="0.2963" d="M124.825 341.797C123.042 357.546 125.476 389.88 146.93 405.365C145.906 393.257 148.413 382.659 152.983 372.942C153.392 395.204 157.618 417.467 164.75 439.731C145.282 425.753 126.727 411.34 113.898 394.209C114.906 376.738 119.368 359.268 124.825 341.798V341.797Z" fill="black"/>
<path opacity="0.28807" d="M288.83 267.763L297.449 272.422L339.278 312.697C363.551 332.204 387.174 351.919 404.428 373.648L384.347 361.884L368.161 351.547C361.684 351.068 357.246 348.556 354.732 344.125L348.083 340.451L340.239 346.542C314.805 321.132 297.606 294.877 288.823 267.766L288.83 267.763Z" fill="black"/>
<path opacity="0.34156" d="M262.248 323.528C286.328 336.147 309.026 350.978 328.639 370.761C351.617 368.289 377.956 368.268 402.613 373.545L411.019 387.321C353.224 395.132 321.641 426.637 292.506 460.39C293.264 413.124 283.292 367.602 262.246 323.526L262.248 323.528Z" fill="black"/>
</g>
<defs>
<clipPath id="clip0">
<rect width="500" height="500" fill="white"/>
</clipPath>
</defs>
</svg>
