<svg width="500" height="500" viewBox="0 0 719 964" fill="none" xmlns="http://www.w3.org/2000/svg">
    <style>
        #rogue-cloak {
          transform-box: fill-box;
          transform-origin: top;
          animation: rotateCloakRogue 2s linear infinite;
        }

        #rogue-head {
          transform-box: fill-box;
          transform-origin: right;
          animation: rotateHeadRogue 2s linear infinite;
        }

        #rogue-hands {
          transform-box: fill-box;
          transform-origin: top;
          animation: rotateCloakRogue 2s linear infinite;
        }

        #rogue-chest {
          transform-box: fill-box;
          transform-origin: left;
          animation: breathRogue 2s linear infinite;
        }

        #rogue-bang {
          transform-box: fill-box;
          transform-origin: top;
          animation: rotateRogueBang 2s linear infinite;
        }


        @keyframes rotateCloakRogue {
          0% {
            transform: rotateZ(360deg);
          }
          50% {
            transform: rotateZ(358deg);
          }
          100% {
            transform: rotateZ(360deg);
          }
        }

        @keyframes rotateHeadRogue {
          0% {
            transform: rotateZ(0deg);
          }
          50% {
            transform: rotateZ(1deg);
          }
          100% {
            transform: rotateZ(0deg);
          }
        }

        @keyframes rotateRogueBang {
          0% {
            transform: rotateZ(0deg);
          }
          50% {
            transform: rotateZ(-3deg);
          }
          100% {
            transform: rotateZ(0deg);
          }
        }

         @keyframes breathRogue {
          0% {
            transform: scale(1.0);
          }
          50% {
            transform: scale(1.03);
          }
          100% {
            transform: scale(1.0);
          }
        }
    </style>
    <g id="assassina-2-etapa 1" clip-path="url(#clip0)">
        <g id="rogue-chest">
            <path id="path5805" d="M252.624 386.445L272.991 353.664L337.23 355.264L365.029 376.051L284.653 451.692L252.624 386.445Z" fill="#E4D7C3" stroke="#2B0000" stroke-width="6"/>
            <path id="path5807" d="M253.834 384.706C266.75 410.198 276.925 430.451 286.659 449.861C311.476 418.931 336.292 398.049 361.109 377.688L333.605 492.681L360.196 591.417C335.383 614.193 267.764 604.971 226.172 588.6L230.777 554.328C225.72 495.668 222.543 437.322 253.837 384.704L253.834 384.706Z" fill="#107178" stroke="#2B0000" stroke-width="4"/>
            <path id="path5809" d="M226.032 586.803C271.05 599.012 335.318 609.228 362.003 589.69L395.845 683.81C321.656 706.355 269.02 669.071 220.592 641.659L226.032 586.803Z" fill="#48211D" stroke="#2B0000" stroke-width="5"/>
            <path id="path5885" d="M288.886 508.85C292.857 508.544 312.153 526.467 331.491 555.044C316.438 545.579 303.647 522.093 288.257 516.282C277.306 512.147 263.995 519.047 252.324 526.75C257.465 519.165 275.842 509.753 288.886 508.85Z" fill="#2B0000"/>
            <path id="path5917" opacity="0.32922" d="M293.666 355.968C286.285 356.136 278.716 359.752 271.219 361.905L256.255 388.456L287.374 449.085C310.482 423.637 334.048 399.77 358.76 379.69L359.474 375.168C335.002 381.19 315.847 365.522 300.964 357.131C298.559 356.242 296.127 355.913 293.667 355.969L293.666 355.968ZM276.004 389.421C300.132 389.265 301.01 407.603 333.892 398.757L328.324 402.187C314.494 410.215 299.677 428.49 287.664 437.388C277.818 421.209 269.384 412.494 263.97 391.25L269.499 390.028C271.809 389.626 273.959 389.435 276.004 389.422L276.004 389.421Z" fill="black"/>
            <path id="path5919" opacity="0.32922" d="M235.855 441.94C236.777 463.385 234.165 483.198 241.217 504.643C260.539 501.728 265.179 496.936 278.981 496.342C289.564 495.887 299.516 502.944 319.139 505.888C316.889 476.692 325.135 451.4 338.841 434.591C315.739 500.995 342.976 549.681 361.062 601.588C318.071 609.821 274.434 606.274 230.303 593.83L236.04 554.217C229.276 517.193 224.644 480.041 235.858 441.94L235.855 441.94Z" fill="black"/>
            <path id="path5937" opacity="0.037037" d="M233.587 597.199C273.373 606.161 316.783 613.461 358.381 604.994L362.914 613.655C325.848 623.036 275.49 616.522 231.774 600.663L233.587 597.199Z" fill="white"/>
            <path id="path5939" opacity="0.074074" d="M193.247 483.734L195.156 485.179L196.53 483.106C205.766 485.667 214.932 486.551 223.375 470.553L227.392 469.154L224.37 490.951L217.874 514.337C209.13 514.391 202.87 507.627 197.326 498.891L193.247 483.734Z" fill="white"/>
            <path id="path5941" opacity="0.074074" d="M335.724 462.368L338.801 467.189C350.871 489.416 383.791 482.609 388.912 476.168L394.344 472.761C394.183 488.967 396.944 489.438 399.783 501.343L396.356 500.19C378.128 520.882 358.999 513.99 340 511.089L336.63 513.469C329.075 496.436 330.432 479.402 335.724 462.368H335.724Z" fill="white"/>
            <path id="path5943" opacity="0.074074" d="M239.028 466.992C250.309 481.026 262.306 482.085 274.381 481.716L279.586 487.659L284.416 483.752C298.984 481.752 309.623 474.121 319.404 465.26L315.475 499.327C301.468 497.702 289.687 494.919 281.952 491.045L274.662 490.255C262.307 495.58 251.274 496.729 242.049 497.018L239.028 466.992Z" fill="white"/>
            <path id="path5945" opacity="0.074074" d="M293.717 448.221C305.401 434.1 317.084 422.503 328.768 412.999L330.883 419.928C316.558 431.092 304.8 442.255 291.904 453.419L293.717 448.221Z" fill="white"/>
        </g>
        <g id="rogue-hands">
            <path id="path5791" d="M504.852 495.019L549.721 460.11L571.728 475.829C566.26 512.474 548.255 549.971 521.089 575.252L504.852 495.019Z" fill="#784421" stroke="#2B0000" stroke-width="5"/>
            <path id="path5793" d="M519.641 551.986C509.256 513.802 532.561 477.63 551.296 464.607L567.748 476.909C581.293 476.667 618.325 512.069 606.421 529.151C588.63 537.972 574.546 545.558 551.69 565.897C541.006 558.194 530.323 554.262 519.64 551.983L519.641 551.986Z" fill="#E4D7C3" stroke="#2B0000" stroke-width="5"/>
            <path id="path5795" d="M580.913 584.03L622.345 543.523L660.61 586.004C665.094 592.86 660.869 619.363 664.188 622.861C667.981 626.887 698.908 625.216 701.845 631.392C705.903 636.461 706.303 676.741 716.374 689.37C701.856 682.599 692.837 679.78 683.786 674.219C678.262 668.092 681.038 658.626 677.945 655.858C671.471 651.681 626.11 650.707 616.858 643.329C612.711 637.059 609.631 611.958 604.415 605.669L580.913 584.03Z" fill="#E6E6E6" stroke="#4D4D4D" stroke-width="4"/>
            <path id="path5797" d="M603.071 561.476L581.529 582.882L605.007 604.506C610.223 610.795 613.312 635.902 617.46 642.172C626.712 649.55 672.087 650.526 678.562 654.702C681.654 657.47 678.854 666.941 684.378 673.068C693.429 678.628 702.459 681.454 716.978 688.225C703.212 672.967 695.936 672.097 690.44 642.93C683.677 637.646 652.9 641.02 643.234 631.685C638.902 623.752 642.651 601.814 637.202 593.856L603.071 561.476Z" fill="#CCCCCC"/>
            <path id="path5879" d="M549.287 568.105C569.448 547.665 599.768 527.466 613.813 518.497C619.341 515.571 635.016 534.08 631.974 536.666C617.159 553.727 593.868 576.081 572.148 590.766C568.642 594.44 546.227 575.659 549.286 568.105H549.287Z" fill="#B2B269" stroke="#2B0000" stroke-width="5"/>
            <path id="path5931" opacity="0.49383" d="M551.436 499.716C546.723 509.483 536.047 526.981 552.206 548.92L605.492 523.805L552.077 565.859L521.311 553.606C519.76 534.939 524.3 516.614 532.42 498.49L551.436 499.716Z" fill="black"/>
            <path id="path5933" opacity="0.30864" d="M557.417 569.73C575.233 553.297 594.175 538.556 615.961 528.084C620.976 531.072 624.332 534.965 625.362 540.129C609.185 560.983 590.026 575.001 571.092 589.533C565.133 584.27 559.979 578.238 557.417 569.73Z" fill="black"/>
            <path id="path5799" d="M114.234 535.996L167.414 593.16C165.217 604.727 157.975 611.473 151.097 618.567L93.0828 581.608C92.5744 562.307 101.653 548.2 114.234 535.991L114.234 535.996Z" fill="#E4D7C3" stroke="#2B0000" stroke-width="5"/>
            <path id="path5801" d="M56.6548 636.64L82.0569 609.79L123.152 638.814L94.8156 668.179C83.3294 684.349 91.9029 699.95 80.7963 709.147C69.872 718.192 43.8623 710.842 40.9756 717.084C38.0888 723.325 38.003 732.171 32.3153 738.117C28.6977 741.899 12.7865 746.113 0.755493 748.235C11.9607 736.599 16.23 724.543 17.9542 712.709C19.0909 704.909 16.3164 696.031 20.262 689.117C26.8117 677.638 42.6725 678.868 50.1602 667.926C55.8636 659.59 51.5997 642.68 56.6558 636.64L56.6548 636.64Z" fill="#E6E6E6" stroke="#4D4D4D" stroke-width="4"/>
            <path id="path5803" d="M72.5185 650.932L97.9206 621.484L122.396 637.804L94.06 667.169C82.5739 683.34 91.1474 698.941 80.0408 708.137C69.1164 717.182 43.1068 709.833 40.2201 716.074C37.3333 722.315 37.2475 731.161 31.5598 737.107C27.9422 740.889 12.031 745.103 0 747.225C14.2274 739.631 19.9865 733.305 25.0553 722.382C28.005 716.025 29.1586 705.992 33.1042 699.077C39.6538 687.599 54.9106 696.335 62.3982 685.393C68.1016 677.059 67.4637 656.971 72.5196 650.932L72.5185 650.932Z" fill="#CCCCCC"/>
            <path id="path5881" d="M79.787 573.812C108.355 589.604 135.317 606.623 159.861 625.492C158.35 630.776 146.566 648.697 139.918 650.898C113.932 635.263 87.9464 615.809 61.9596 594.023C62.2114 587.286 76.0321 576.219 79.787 573.813V573.812Z" fill="#B2B269" stroke="#2B0000" stroke-width="5"/>
            <path id="path5925" opacity="0.49383" d="M111.518 540.038L166.512 597.78L152.008 618.567L93.3875 580.746L136.606 599.187L140.025 591.838C119.322 579.858 113.433 562.89 105.936 546.455L111.518 540.038Z" fill="black"/>
            <path id="path5927" opacity="0.2963" d="M80.9951 581.896L152.004 627.513L139.917 647.434C112.348 631.025 90.4947 613.402 70.1173 595.466L80.9951 581.896Z" fill="black"/>
            <path id="path5929" opacity="0.2963" d="M76.1608 615.097L81.9019 611.921L122.392 641.08L95.0074 668.319L84.3199 705.174L77.5957 645.656L85.9978 634.998L76.1608 615.097Z" fill="black"/>
            <path id="path5935" opacity="0.30864" d="M624.29 546.384L635.168 557.932L625.835 582.094L632.227 588.633L620.664 646.278L615.603 643.81L604.557 606.904L581.987 584.783L624.29 546.384Z" fill="black"/>
        </g>
        <g id="rogue-legs">
            <path id="path5785" d="M269.545 723.655L339.949 697.959L449.633 723.655L439.359 787.459C412.679 815.386 386 844.63 359.321 868.213C332.945 846.465 304.336 835.391 276.492 820.661L269.545 723.655Z" fill="#3D1311" stroke="#2B0000" stroke-width="4"/>
            <path id="path5787" opacity="0.3251" d="M339.963 697.964L269.554 723.656L276.508 820.662C295.678 830.803 315.202 839.221 334.12 850.572C344.031 834.433 353.351 819.497 367.472 804.905C384.314 811.252 396.905 816.308 406.352 822.177C417.354 810.702 428.373 798.984 439.375 787.467L449.633 723.655L339.963 697.964Z" fill="black"/>
            <path id="path5789" d="M207.901 631.846H445.399L457.489 702.871L381.344 769.935C369.467 753.74 357.415 737.046 343.95 716.3C336.568 744.949 333.13 773.597 328.78 802.247L193.994 797.566L207.901 631.846Z" fill="#775451" stroke="#2B0000" stroke-width="6"/>
            <path id="path5811" d="M185.548 753.678L236.557 799.16C242.609 785.027 249.649 774.356 256.897 764.415C289.128 762.294 319.882 770.042 350.531 778.506C328.539 815.268 322.788 852.03 328.17 888.794C277.004 897.185 225.839 903.158 174.669 888.794L197.977 852.844C188.708 819.789 186.912 786.734 185.547 753.68L185.548 753.678Z" fill="#48211D" stroke="#2B0000" stroke-width="4"/>
            <path id="path5813" opacity="0.32922" d="M197.824 852.713L188.865 804.297L224.469 789.926L238.379 800.172C235.872 826.24 248.36 849.443 256.387 873.499C237.617 862.875 218.901 852.136 204.585 831.937L201.72 854.952L189.719 881.634C229.914 893.263 277.033 886.009 321.688 881.663C317.901 854.893 317.96 832.206 323.181 805.435C313.259 789.044 298.06 781.729 282.548 774.952C304.343 774.48 327.587 781.061 343.544 789.019C325.421 821.747 328.109 853.388 327.732 888.232C272.857 898.014 220.046 903.254 176.457 888.232L197.824 852.713Z" fill="black"/>
            <path id="path5815" d="M218.967 894.749L233.924 847.795L236.061 798.8" stroke="#2B0000" stroke-width="2"/>
            <path id="path5819" d="M369.262 780.816C403.299 729.136 445.111 698.069 493.65 684.876L565.666 753.677L581.389 813.725C589.533 831.919 597.11 851.355 602.53 875.512C566.875 892.472 498.583 896.84 446.61 892.257L447.403 862.756C427.406 830.668 397.686 806.25 369.255 780.818L369.262 780.816Z" fill="#48211D" stroke="#2B0000" stroke-width="4"/>
            <path id="path5821" d="M525.783 891.92L513.397 835.576L467.244 731.423" stroke="#2B0000" stroke-width="2"/>
            <path id="path5823" opacity="0.2963" d="M398.239 807.363L396.402 745.504L567.459 753.876L575.203 789.966C539.281 801.379 504.803 822.46 472.297 856.726C499.81 872.639 541.051 876.889 594.603 868.58L602.502 876.365C554.517 892.053 501.508 894.299 445.676 893.921L446.751 863.208L398.239 807.363Z" fill="black"/>
            <path id="path5921" opacity="0.1893" d="M225.601 597.506C234.887 604.542 248.823 607.136 250.961 621.002C244.364 623.858 237.768 627.094 231.171 637.424C283.918 662.474 337.741 690.444 376.135 676.479C364.326 660.846 344.051 650.604 322.096 641.434C324.859 629.799 349.005 621.994 369.081 613.46L388.838 690.188C332.276 702.63 286.981 690.5 241.522 674.289C228.043 699.204 223.227 748.863 231.12 787.107L236.014 789.976L244.13 772.683L250.381 773.479L235.254 795.788L225.17 788.587C221.82 726.561 215.898 665.761 225.597 597.5L225.601 597.506Z" fill="black"/>
            <path id="path5923" opacity="0.32922" d="M311.924 704.884C323.792 701.048 335.66 701.895 347.528 706.769L377.919 748.161L394.436 736.781L387.988 690.593L402.09 743.264L376.878 766.128L343.119 717.133L332.04 772.521L327.047 770.95C324.411 748.928 329.134 726.906 311.925 704.884L311.924 704.884Z" fill="black"/>
        </g>
        <g id="rogue-cloak">
            <path id="path5817" d="M110.003 526.174C143.676 484.824 170.872 449.663 191.652 420.631C196.786 405.737 201.595 390.47 214.561 384.556L276.798 356.99C221.461 421.524 226.27 497.035 235.194 553.808C215.872 661.711 210.729 754.32 235.704 848.376C207.755 822.784 182.13 794.601 163.789 758.297C172.499 696.584 176.645 662.479 193.786 604.227C152.442 601.05 115.819 554.61 110.003 526.178L110.003 526.174Z" fill="#77160F" stroke="#2B0000" stroke-width="6"/>
            <path id="path5825" d="M363.619 368.038L410.63 354.38C421.661 360.427 445.819 375.857 444.131 386.085C477.106 412.841 548.805 452.423 572.25 463.253L572.647 476.307L568.778 475.811C564.5 471.77 558.603 467.763 555.056 468.504C534.771 472.741 507.988 544.527 525.769 571.048L517.979 578.854L422.822 502.338C424.692 513.423 426.239 525.124 430.297 532.026C501.556 630.73 550.438 645.887 591.167 747.752C509.045 760.099 464.858 821.833 420.66 885.347C418.139 791.914 396.937 700.542 364.71 607.133C353.931 575.881 338.11 543.4 330.961 511.323C317.872 464.041 356.892 393.631 363.619 368.013V368.038Z" fill="#77160F" stroke="#2B0000" stroke-width="6"/>
            <path id="path5883" d="M184.338 460.064C192.641 485.583 200.021 514.63 209.77 534.621C212.35 540.393 213.171 547.845 213.346 555.915L196.425 603.553L191.59 603.264L206.106 557.209C206.294 552.065 204.999 544.034 201.995 538.89C193.048 511.652 189.41 487.302 184.338 460.064L184.338 460.064Z" fill="#2B0000"/>
            <path id="path5887" d="M400.685 476.515C406.795 490.405 413.468 506.068 422.138 508.85L426.973 526.75C415.788 522.194 399.602 493.681 400.685 476.515H400.685Z" fill="#2B0000"/>
            <path id="path5889" d="M442.988 385.863L446.312 389.76C443.505 393.515 443.858 397.774 443.29 401.886C441.367 396.545 439.408 391.204 442.988 385.863V385.863Z" fill="#2B0000"/>
            <path id="path5905" opacity="0.34156" d="M170.133 498.463C175.169 501.236 178.922 501.717 187.728 512.475C190.628 500.665 187.8 484.478 187.054 469.88L209.408 555.594L192.191 604.128C152.599 587.516 128.283 562.811 121.786 535.127C137.395 552.43 159.029 559.473 177.975 558.471L192.477 550.552C188.812 542.815 177.138 535.079 167.429 527.343C174.572 528.167 181.716 528.947 188.86 531.27C186.166 517.509 177.34 508.63 170.134 498.461L170.133 498.463Z" fill="black"/>
            <path id="path5907" opacity="0.34156" d="M431.811 481.713C446.702 498.56 468.269 507.486 484.698 517.722L541.195 470.165C511.042 502.741 510.041 539.65 515.813 577.567L421.554 500.391L425.16 527.62C404.514 509.571 395.46 487.031 396.892 463.461C401.451 472.37 411.005 487.873 420.019 488.857C418.254 471.597 424.88 449.141 431.181 437.077C428.044 455.364 425.586 467.737 431.808 481.716L431.811 481.713Z" fill="black"/>
            <path id="path5909" opacity="0.34156" d="M198.84 501.922C204.235 511.552 206.541 521.379 223.357 530.281C220.104 515.631 223.754 499.249 225.128 489.797C225.938 514.519 228.169 533.248 230.567 554.179C228.83 567.725 227.094 578.611 225.357 589.079C213.97 596.55 202.583 610.62 191.195 628.074C196.029 609.179 205.235 581.928 213.947 555.622C215.461 533.351 200.294 523.242 198.839 501.922L198.84 501.922Z" fill="black"/>
            <path id="path5911" opacity="0.2963" d="M179.499 658.984C176.935 689.349 180.435 751.689 211.286 781.543C209.813 758.199 213.418 737.766 219.989 719.033C220.578 761.954 226.655 804.876 236.91 847.801C208.915 820.851 182.233 793.064 163.786 760.034C165.235 726.351 171.651 692.669 179.499 658.986V658.984Z" fill="black"/>
            <path id="path5913" opacity="0.28807" d="M415.338 516.247L427.731 525.23L487.882 602.879C522.787 640.49 556.756 678.499 581.567 720.394L552.691 697.713L529.415 677.782C520.101 676.86 513.72 672.016 510.104 663.473L500.544 656.389L489.264 668.132C452.689 619.143 427.958 568.522 415.327 516.252L415.338 516.247Z" fill="black"/>
            <path id="path5915" opacity="0.34156" d="M377.113 623.762C411.739 648.091 444.38 676.686 472.583 714.827C505.625 710.061 543.501 710.021 578.958 720.194L591.045 746.755C507.936 761.815 462.52 822.557 420.623 887.632C421.714 796.503 407.374 708.737 377.11 623.759L377.113 623.762Z" fill="black"/>
        </g>
        <g id="rogue-head">
            <path id="path5829" d="M171.715 275.022L384.936 317.354L373.617 354.282L327.89 371.764L295.448 365.271C284.796 359.585 274.144 368.989 263.492 372.65L231.212 365.323C190.551 340.336 190.611 305.351 171.714 275.021L171.715 275.022Z" fill="#521210" stroke="#2B0000" stroke-width="4"/>
            <path id="path5831" d="M432.822 227.561C432.939 244.229 429.622 260.755 423.06 276.187C416.499 291.618 406.824 305.651 394.592 317.477C382.36 329.303 367.813 338.689 351.788 345.094C335.763 351.498 318.577 354.795 301.22 354.795C283.862 354.795 266.677 351.498 250.652 345.094C234.627 338.689 220.08 329.303 207.847 317.477C195.615 305.651 185.94 291.618 179.379 276.187C172.818 260.755 169.5 244.229 169.617 227.561C169.5 210.893 172.818 194.368 179.379 178.936C185.94 163.504 195.615 149.471 207.847 137.645C220.08 125.819 234.627 116.434 250.652 110.029C266.677 103.625 283.862 100.327 301.22 100.327C318.577 100.327 335.763 103.625 351.788 110.029C367.813 116.434 382.36 125.819 394.592 137.645C406.824 149.471 416.499 163.504 423.06 178.936C429.622 194.368 432.939 210.893 432.822 227.561Z" fill="#E4D7C3" stroke="#2B0000" stroke-width="6"/>
            <path id="path5851" d="M366.661 260.285L378.613 274.632C379.547 301.665 360.962 312.486 340.195 313.575C334.987 314.744 331.265 317.427 323.974 316.854C327.403 312.312 328.907 308.865 330.792 304.849C340.269 284.66 353.994 270.803 366.661 260.285V260.285Z" fill="black"/>
            <path id="path5833" opacity="0.14815" d="M357.386 113.227C394.725 135.528 419.573 175.265 419.573 220.597C419.573 290.393 360.669 346.979 287.986 346.979C267.873 346.979 248.821 342.638 231.773 334.892C251.942 346.96 275.751 353.938 301.263 353.938C373.945 353.938 432.869 297.353 432.869 227.556C432.869 177.038 401.993 133.455 357.385 113.225L357.386 113.227Z" fill="black"/>
            <path id="path5835" d="M247.235 296.692C252.895 307.433 261.534 314.994 270.778 321.91C267.586 323.49 264.395 323.54 261.203 323.613C258.522 325.652 254.732 327.454 248.442 328.722C246.985 321.451 246.2 307.636 247.234 296.693L247.235 296.692Z" fill="black"/>
            <path id="path5837" d="M247.079 311.04C250.365 314.256 254.059 317.34 258.549 320.17C254.827 320.984 251.104 321.845 247.381 321.91C246.299 317.994 246.549 313.842 247.079 311.04L247.079 311.04Z" fill="white"/>
            <g id='rogue-bang'>
                <path id="path5839" opacity="0.59259" d="M312.302 186.092L216.912 200.152L187.498 294.339C186.436 296.889 185.504 299.447 184.734 302.015C188.212 310.568 191.577 319.151 195.958 327.482C196.193 327.095 196.43 326.69 196.668 326.316C196.554 326.91 196.419 327.529 196.313 328.163C203.506 341.642 213.491 354.431 231.217 365.323L243.785 368.174C244.781 362.269 245.975 356.3 247.389 350.294C248.183 355.938 249.842 362.779 252.226 370.093L263.488 372.64C266.754 371.517 270.026 369.865 273.292 368.264C274.809 358.981 278.892 355.983 283.599 351.76C244.604 310.972 273.764 222.101 295.988 204.207L312.302 186.092Z" fill="black"/>
                <path id="path5841" d="M190.864 186.055L277.706 172.856L280.985 198.018C255.26 207.734 240.673 263.627 239.901 300.254C239.224 332.426 243.504 365.616 255.707 399.755C235.373 383.629 221.378 347.135 218.616 326.89C214.882 343.22 212.826 359.136 212.022 374.742C205.848 368.021 203.21 356.302 202.148 342.356L196.625 359.083L191.491 346.641L187.187 352.459C185.434 348.681 184.881 344.31 184.114 340.044L179.135 347.084C169.703 327.773 170.727 313.563 172.433 304.394C169.176 309.679 166.089 316.323 165.764 321.608C156.769 305.357 157.896 289.708 164.083 274.404L190.864 186.055Z" fill="#B99176" stroke="#2B0000" stroke-width="4"/>
                <path id="path5843" opacity="0.26749" d="M279.809 172.861L191.426 186.231L164.174 275.797C157.877 291.311 156.722 307.187 165.869 323.667C166.201 318.31 169.355 311.562 172.669 306.204C170.933 315.499 169.886 329.91 179.487 349.487L184.557 342.359C185.337 346.683 185.904 351.115 187.689 354.944L192.067 349.044L197.292 361.647L202.916 344.696C203.997 358.834 206.668 370.712 212.951 377.525C213.77 361.703 215.865 345.579 219.665 329.023C222.476 349.548 236.723 386.537 257.421 402.882C245 368.268 240.657 334.622 241.346 302.009C242.132 264.876 256.966 208.22 283.151 198.369L279.812 172.856L279.809 172.861ZM269.063 178.676C269.605 182.742 270.149 186.804 270.69 190.87C271.87 192.73 269.891 193.817 268.389 194.451C256.124 203.393 248.898 217.367 243.316 231.067C226.396 275.438 226.218 324.714 236.62 370.604C228.991 356.918 223.97 341.902 221.202 326.52C221.983 321.358 214.66 316.662 210.734 320.687C207.14 327.962 205.821 336.228 204.54 344.222C203.691 336.998 202.58 329.702 200.595 322.648C197.305 328.979 193.817 335.2 191.32 341.868C189.953 340.771 188.149 340.22 186.389 340.402C185.439 338.084 185.61 334.726 184.364 332.165C181.466 331.997 178.447 332.762 176.214 334.603C170.266 319.114 174.949 302.271 175.886 286.289C170.581 291.321 165.166 296.37 161.195 302.525C160.709 298.529 160.821 294.439 161.351 290.485C170.724 256.955 181.667 223.829 191.493 190.409L269.061 178.675L269.063 178.676Z" fill="black"/>
            </g>
            <path id="path5853" d="M366.458 268.721C374.947 273.22 372.308 292.601 362.024 301.001C355.579 306.265 347.804 306.765 340.5 305.823C343.79 292.092 353.938 278.965 366.458 268.721L366.458 268.721Z" fill="white"/>
            <path id="path5845" opacity="0.58848" d="M307.779 95.0882C296.025 95.3726 283.131 99.4042 272.594 103.158C216.323 118.582 171.162 174.562 174.419 246.809L176.828 259.632C174.185 269.925 164.26 271.912 166.495 281.509C172.596 263.411 200.463 257.708 213.581 243.389C227.779 227.892 241.106 202.104 253.756 195.239C259.819 194.266 280.743 200.197 277.72 211.266C279.964 212.394 282.192 213.819 284.379 215.622C308.708 235.673 336.537 248.833 356.594 277.62C369.38 294.033 378.349 310.38 352.691 347.112C339.14 360.908 324.097 368.416 307.291 368.49C308.442 369.217 309.596 369.925 310.746 370.606C311.831 371.248 312.911 371.862 313.996 372.435C314.538 372.722 315.078 372.996 315.621 373.26C315.627 373.262 315.634 373.258 315.639 373.26C318.075 374.446 320.506 375.406 322.941 375.95C322.947 375.951 322.955 375.949 322.96 375.95C323.225 376.009 323.498 376.062 323.763 376.112C324.065 376.152 324.377 376.189 324.678 376.219C324.684 376.22 324.691 376.219 324.697 376.219C338.157 372.121 354.922 362.406 386.214 359.164C405.401 357.175 428.259 331.33 432.1 305.253C434.395 289.667 428.262 272.793 421.585 255.827C414.073 197.359 396.258 148.578 338.225 114.374C332.948 99.2509 321.104 94.7545 307.784 95.077L307.779 95.0882Z" fill="black"/>
            <path id="path5847" d="M275.914 75.8853C301.603 67.0835 339.571 56.9296 350.926 88.2147C417.255 125.801 437.597 179.418 446.185 243.665C453.816 262.31 460.842 280.866 458.219 297.996C453.829 326.654 427.691 355.054 405.762 357.239C356.707 362.127 338.902 380.373 319.211 377.757C310.535 376.139 301.858 369.245 293.182 364.09C321.701 372.626 346.19 364.822 367.465 343.994C396.789 303.623 386.525 285.652 371.913 267.614C348.987 235.978 317.178 221.518 289.371 199.482C276.79 189.511 263.017 190.042 251.787 189.984C237.33 197.529 223.715 218.371 208.465 234.05C193.299 249.644 170.896 261.002 163.923 280.892C161.368 270.346 163.448 259.163 166.469 247.851L163.702 233.757C159.979 154.359 211.595 92.8323 275.91 75.8853H275.914Z" fill="#77160F" stroke="#2B0000" stroke-width="6"/>
            <path id="path5849" opacity="0.53498" d="M318.798 67.0112C304.676 66.7392 288.764 71.4876 275.92 75.8887C250.4 82.6147 226.874 96.356 208.02 115.452C231.589 92.1184 263.677 77.5926 298.277 77.5926C365.621 77.5926 416.98 132.621 412.982 200.514C411.22 230.403 399.017 257.795 380.169 279.103C389.084 294.129 390.677 312.058 367.47 344.005C346.193 364.833 321.699 372.626 293.181 364.091C301.857 369.246 310.538 376.139 319.214 377.756C338.903 380.372 356.719 362.128 405.772 357.24C427.7 355.055 453.841 326.661 458.231 298.003C460.855 280.872 453.816 262.307 446.185 243.662C437.594 179.415 417.253 125.796 350.921 88.2061C345.245 72.5636 332.922 67.2797 318.799 67.0077L318.798 67.0112ZM191.526 135.253C172.749 162.093 161.92 195.896 163.701 233.767L166.465 247.863C163.444 259.174 161.37 270.351 163.925 280.897C166.983 272.172 173.013 265.089 180.097 258.569C171.909 241.279 167.86 221.515 169.098 200.514C170.511 176.537 178.636 154.165 191.527 135.251L191.526 135.253Z" fill="black"/>
            <path id="path5855" opacity="0.44856" d="M251.794 185.931C237.337 193.476 223.718 214.316 208.468 229.995C193.301 245.589 170.899 256.949 163.927 276.839C163.269 274.122 162.932 271.365 162.826 268.572C162.656 272.753 162.953 276.868 163.927 280.893C170.899 261.003 193.301 249.642 208.468 234.049C223.718 218.369 237.337 197.53 251.794 189.985C263.025 190.042 276.788 189.519 289.369 199.489C317.174 221.525 348.988 235.984 371.911 267.622C379.269 276.704 385.525 285.763 386.179 297.679C386.888 283.709 380.081 273.636 371.911 263.551C348.981 231.912 317.17 217.456 289.369 195.418C276.783 185.45 263.021 185.989 251.791 185.932L251.794 185.931ZM163.534 223.324C163.485 226.766 163.539 230.246 163.702 233.762L166.017 245.562C166.169 244.973 166.308 244.377 166.466 243.787L163.702 229.708C163.601 227.57 163.554 225.435 163.534 223.324V223.324ZM458.735 288.409C458.664 290.269 458.492 292.103 458.212 293.933C453.822 322.59 427.681 351.002 405.753 353.187C356.697 358.075 338.898 376.319 319.213 373.704C313.945 372.721 308.682 369.778 303.414 366.476C300.063 365.915 296.648 365.129 293.18 364.091C301.856 369.246 310.536 376.139 319.213 377.756C338.901 380.372 356.698 362.127 405.752 357.24C427.68 355.055 453.822 326.661 458.211 298.002C458.693 294.855 458.848 291.644 458.734 288.408L458.735 288.409Z" fill="black"/>
            <path id="path5857" d="M251.406 189.369C240.01 162.433 249.296 136.262 261.368 114.235C277.42 84.9522 304.79 62.8332 339.338 72.9527" stroke="#2B0000" stroke-width="4"/>
            <path id="path5859" d="M162.117 229.88C255.416 246.06 360.392 223.746 431.962 175.966C439.947 179.429 441.358 185.697 442.224 192.198C375.274 232.967 255.43 266.884 158.796 245.242C157.296 239.048 157.989 233.758 162.116 229.88H162.117Z" fill="#B2B269" stroke="#2B0000" stroke-width="4"/>
            <path id="path5861" opacity="0.32099" d="M267.511 145.53L272.643 151.908C259.401 159.765 247.184 170.76 237.313 182.356L230.536 179.009C238.018 162.571 256.431 151.762 267.51 145.53L267.511 145.53Z" fill="black"/>
            <path id="path5863" d="M265.551 144.226L270.683 150.603C257.441 158.46 245.224 169.456 235.353 181.051L228.576 177.706C236.058 161.265 254.47 150.456 265.55 144.224L265.551 144.226Z" fill="#3B2321" stroke="#2B0000" stroke-width="3"/>
            <path id="path5865" opacity="0.32099" d="M232.199 149.153C243.962 156.322 257.962 167.482 267.212 170.168L263.59 181.618C250.586 174.025 239.459 164.678 228.271 155.388L232.199 149.153Z" fill="black"/>
            <path id="path5867" d="M232.952 146.979C244.715 154.148 258.715 165.308 267.965 167.994L264.343 179.444C251.345 171.849 240.218 162.5 229.024 153.209L232.952 146.979Z" fill="#3B2321" stroke="#2B0000" stroke-width="3"/>
            <path id="path5869" opacity="0.32099" d="M245.824 118.852C256.849 106.58 271.476 100.018 287.176 98.2719L287.327 106.823C271.649 106.853 261.233 116.15 250.201 124.359L245.824 118.852Z" fill="black"/>
            <path id="path5871" opacity="0.049383" d="M298.593 79.5111C258.43 79.5111 222.745 98.0243 203.8 125.261C226.149 109.326 255.464 99.5973 287.203 99.5973C341.647 99.5973 386.49 128.221 400.3 167.695C400.325 167.271 400.357 166.848 400.375 166.422C402.389 118.425 356.821 79.5118 298.59 79.5118L298.593 79.5111Z" fill="white"/>
            <path id="path5873" d="M244.82 116.834C255.845 104.563 270.472 98.0007 286.172 96.2544L286.323 104.805C270.645 104.835 260.229 114.133 249.197 122.342L244.82 116.834Z" fill="#3B2321" stroke="#2B0000" stroke-width="3"/>
            <path id="path5875" opacity="0.32099" d="M259.306 93.9353C267.996 100.75 275.488 110.631 283 120.457L274.55 128.139C267.785 116.696 260.249 106.144 249.492 99.2977L259.306 93.9353Z" fill="black"/>
            <path id="path5877" d="M260.215 91.9066C268.904 98.721 276.396 108.602 283.909 118.428L275.453 126.11C268.688 114.667 261.152 104.116 250.401 97.2685L260.215 91.9066Z" fill="#3B2321" stroke="#2B0000" stroke-width="3"/>
            <path id="path5895" opacity="0.2716" d="M157.495 234.873C247.501 258.538 373.501 226.99 439.651 181.993L441.785 193.471L437.243 196.286L438.447 201.481C416.878 213.829 382.82 227.823 346.217 239.806L349.476 244.261C317.015 259.885 280.978 264.044 253.751 263.828L254.657 259.351C248.358 248.953 207.266 258.576 183.428 257.581L180.988 258.178L164.747 254.959L165.496 247.462L158.602 244.598L157.495 234.873Z" fill="black"/>
            <path id="path5897" opacity="0.23045" d="M286.157 96.2676C285.937 96.292 285.723 96.3309 285.503 96.3572C284.82 99.5445 283.513 102.503 281.75 105.091C283.226 104.907 284.749 104.807 286.325 104.804L286.157 96.2677V96.2676ZM277.361 109.987C274.701 112.237 271.559 113.911 268.116 114.811C270.714 118.401 273.141 122.193 275.456 126.11L283.897 118.434C281.728 115.596 279.552 112.758 277.359 109.987L277.361 109.987ZM249.74 111.942C248.029 113.462 246.381 115.089 244.81 116.838L249.198 122.344C252.355 119.995 255.457 117.576 258.648 115.296C255.417 114.799 252.41 113.63 249.74 111.942L249.74 111.942Z" fill="black"/>
            <path id="path5899" opacity="0.31041" d="M267.87 147.109C267.688 149.24 267.225 151.3 266.507 153.224C267.892 152.319 269.28 151.442 270.69 150.606L267.869 147.108L267.87 147.109ZM258.607 163.662C254.893 166.386 250.319 168.002 245.385 168.002C242.138 168.002 239.061 167.299 236.271 166.047C233.183 169.569 230.517 173.445 228.577 177.704L235.357 181.058C239.123 176.633 243.231 172.29 247.608 168.181C252.92 172.184 258.437 175.995 264.341 179.443L267.964 168.001C265.206 167.2 262.029 165.638 258.607 163.661L258.607 163.662Z" fill="black"/>
            <path id="path5901" opacity="0.39095" d="M162.84 233.398C266.298 248.836 367.958 221.281 431.741 179.484L434.155 183.285C357.93 226.956 264.028 250.855 162.237 235.75L162.84 233.398Z" fill="white"/>
            <path id="path5903" opacity="0.11934" d="M179.693 267.257L197.382 264.696L203.217 267.554L211.446 266.444L218.903 270.342L228.762 268.813C233.543 265.036 235.838 261.679 240.948 258.444C234.798 280.033 234.484 294.449 233.691 312.759C230.679 307.837 227.544 303.152 226.185 295.054C220.257 298.38 217.31 301.706 215.341 305.031L209.176 297.05L201.68 301.01L194.712 295.112L186.96 297.095L181.271 288.887L171.316 291.091L163.471 294.518C164.81 283.791 171.326 273.885 179.692 267.258L179.693 267.257Z" fill="white"/>
        </g>

    </g>
    <defs>
        <clipPath id="clip0">
            <rect width="719" height="964" fill="white"/>
        </clipPath>
    </defs>
</svg>