<svg width="500" height="500" viewBox="0 0 500 500" fill="none" xmlns="http://www.w3.org/2000/svg">
<g id="viking 3">
<g id="warrior legs">
<path id="path6118" d="M191.909 411.041L275.522 417.336L278.765 486.167C269.157 488.72 262.098 488.211 254.964 487.794L224.931 492.146C208.485 494.928 184.452 493.048 170.546 492.081C167.443 489.629 164.375 487.165 166.488 482.973C172.006 476.773 178.028 470.686 181.371 464.003L191.909 411.041Z" fill="#3E3936"/>
<path id="path6122" d="M184.496 444.449L223.886 454.464C240.894 459.265 261.377 478.708 257.836 488.034C246.951 488.961 236.393 490.542 226.271 492.994C220.218 484.988 212.354 479.094 204.798 474.55C196.759 469.717 189.436 465.396 179.918 464.096C178.917 462.091 177.564 460.173 178.507 457.682L184.496 444.449Z" fill="#C8BEB7"/>
<path id="path6124" d="M234.522 419.266C246.258 420.928 257.773 423.613 270.537 420.48L273.774 443.005C261.271 445.349 248.601 444.527 235.739 440.038L234.522 419.266Z" fill="#C8BEB7"/>
<path id="path6126" opacity="0.375" d="M165.703 486.028C181.953 488.37 198.077 491.376 215.367 488.173C212.485 483.32 207.352 478.092 202.381 472.891C212.401 474.309 220.778 479.831 228.655 486.608C235.102 482.991 241.687 481.441 248.493 483.214C249.777 474.063 243.156 466.495 235.581 459.117C245.825 462.762 257.303 468.866 261.38 479.522L270.693 457.629L276.939 454.197L278.153 487.042L222.917 492.492C205.393 494.425 187.484 493.278 169.616 492.437L165.703 486.028Z" fill="black"/>
<path id="path6138" d="M305.47 451.632L369.853 449.852L383.58 463.077C387.231 469.629 393.252 476.536 392.259 482.392C392.099 486.038 391.503 489.422 388.826 491.557C360.145 493.884 332.94 492.378 305.469 491.557C300.499 488.954 300.982 482.715 299.46 477.813L305.47 451.632Z" fill="#3E3936"/>
<path id="path6140" d="M299.846 479.379C327.338 464.615 353.712 437.617 385.037 464.786C390.123 472.261 395.583 479.745 391.522 486.973C391.199 484.035 382.433 478.589 370.856 474.479C362.92 471.659 360.135 468.598 347.007 469.544C340.766 469.994 332.576 474.352 325.114 477.522C313.81 482.322 303.932 486.865 303.087 490.501C300.488 487.25 299.924 483.387 299.844 479.379H299.846Z" fill="#C8BEB7"/>
<path id="path6278" opacity="0.375" d="M237.086 418.732L267.57 420.351L270.742 433.191C265.529 429.726 244.034 428.383 237.628 431.681L237.086 418.732Z" fill="black"/>
<path id="path6280" opacity="0.375" d="M237.239 437.934C250.286 442.075 261.672 442.501 272.241 439.459L273.385 447.566C262.025 450.59 249.518 448.703 238.479 446.04L237.239 437.934Z" fill="black"/>
<path id="path6282" opacity="0.375" d="M306.575 478.658C324.233 473.282 341.054 466.133 358.252 456.381C369.202 456.063 376.974 462.895 386.116 466.641C389.227 475.697 395.948 485.902 388.596 491.629H301.994L383.607 487.546L384.599 485.063C376.493 478.175 364.036 473.535 356.089 468.818C366.742 469.733 377.065 473.242 386.562 477.407L382.758 470.331C374.427 466.324 365.171 458.604 358.434 460.018C343.07 468.458 321.229 477.449 306.573 478.658H306.575Z" fill="black"/>
</g>
<path id="path6114" d="M115.556 263.346L185.134 244.491L266.892 302.732L284.441 443.069C284.441 443.069 270.288 445.31 252.493 443.717C247.322 443.255 242.954 439.998 237.161 439.327C210.705 436.261 179.723 430.801 155.211 417.979C147.409 413.898 145.239 400.08 140.306 394.345C134.672 387.795 130.822 392.956 125.756 389.254C120.481 385.401 124 375.72 116.004 372.255C107.438 368.544 99.9318 371.199 92.2857 370.263C86.1468 369.513 80.73 368.01 77.3761 364.363C91.0177 360.099 96.0865 348.059 100.365 333.419C105.423 316.108 109.362 295.012 111.281 272.9C110.832 267.372 112.993 265.107 115.556 263.346V263.346Z" fill="#37392B"/>
<g id="warrior arm">
<path id="path6112" d="M405.973 90.8249L306.462 107.585L311.777 124.874L408.037 108.557C409.884 104.149 408.974 92.9297 405.972 90.8249H405.973ZM176.912 141.325L157.351 144.874L157.465 161.006L175.273 158.928L176.912 141.325ZM99.7176 155.081L49.0495 165.486C45.3436 170.824 49.3614 183.477 55.8154 182.565C72.5419 178.877 91.7641 174.307 111.812 169.447C106.571 164.893 102.657 160.081 99.7182 155.081H99.7176Z" fill="#6A644E"/>
<path id="path6156" d="M114.716 252.731L137.55 251.657C133.611 253.771 126.501 258.363 121.358 259.708C119.589 258.074 115.227 254.828 114.716 252.732V252.731Z" fill="#A16D65"/>
<path id="path6158" d="M140.235 119.404C134.205 119.227 126.642 121.303 124.356 122.939L123.712 125.977C121.764 126.986 120.383 126.434 119.006 125.878C108.539 131.873 92.2117 135.509 87.9305 143.997C85.5917 148.99 81.8257 155.029 80.9738 158.928L99.7156 155.081C102.655 160.081 106.569 164.892 111.809 169.447C100.858 172.102 90.1743 174.666 79.9882 177.051C80.0092 177.294 80.0288 177.536 80.0511 177.779C80.7438 180.324 82.1474 181.955 83.7084 183.383L87.4915 189.584C86.7451 190.635 85.5426 192.223 85.2077 193.303C84.2182 196.494 85.4967 199.286 86.3316 202.609L83.1428 206.452C83.9784 209.104 86.1926 211.391 88.8283 213.557C87.209 223.359 91.4115 230.667 94.2444 238.564C101.696 245.797 109.219 253.315 115.082 254.913C120.723 255.315 126.664 254.697 130.864 254.184C135.439 252.592 138.136 253.571 141.484 251.532C142.577 250.865 143.487 248.908 144.559 247.56C146.025 245.717 147.531 244.355 147.743 242.975C150.984 237.261 152.876 230.353 152.784 221.669C153.63 211.191 151.966 200.356 145.718 189.169C146.368 188.447 146.3 187.407 145.827 185.891L143.76 176.557C150.307 171.358 159.786 164.356 158.688 157.55C157.554 151.009 158.628 140.224 153.334 141.671C152.597 139.148 153.552 134.678 152.678 130.833C151.634 126.239 148.65 122.327 146.197 120.807C144.714 119.887 142.594 119.473 140.234 119.404L140.235 119.404Z" fill="#3E3936"/>
<path id="path6160" d="M137.626 175.591C130.782 175.502 123.991 177.716 116.218 178.946C108.202 180.214 99.2667 180.092 92.036 180.018C88.2877 179.292 86.0052 181.354 83.7005 183.373C83.7044 183.377 83.7064 183.38 83.709 183.383L87.4915 189.583C86.7457 190.633 85.5432 192.221 85.2084 193.301C84.2182 196.492 85.4974 199.285 86.3316 202.607L83.1435 206.45C83.979 209.102 86.1926 211.389 88.8289 213.557C88.8185 213.621 88.8093 213.684 88.7981 213.747C100.954 219.833 124.586 214.169 145.965 189.609C145.884 189.462 145.801 189.316 145.719 189.169C146.368 188.447 146.301 187.407 145.828 185.89L143.761 176.557C143.819 176.511 143.883 176.458 143.941 176.411C141.813 175.862 139.716 175.618 137.628 175.591H137.626Z" fill="#C8BEB7"/>
<path id="path6162" d="M285.916 35.8949C324.052 15.6954 365.185 9.91432 409.594 19.9116C404.467 30.7522 399.35 40.7834 396.604 52.1523C393.86 63.5046 393.484 76.1927 394.887 88.4642L400.749 87.599L402.931 114.277C388.301 116.276 374.664 117.932 364.119 118.529L360.998 94.5417L367.887 92.819C366.665 66.9681 364.682 60.5553 351.767 55.6714C341.803 51.9044 321.942 54.7753 310.918 60.9749C305.58 52.9932 296.269 44.5106 285.915 35.8962L285.916 35.8949Z" fill="#8C9CA9"/>
<path id="path6164" d="M300.813 37.6601C330.425 27.3986 361.975 23.3546 397.177 31.0217C390.959 50.3745 388.77 69.8405 388.283 89.3561L382.001 78.1002C381.973 72.6269 383.036 65.7571 381.83 61.4645C380.276 55.9331 375.739 53.6954 368.482 53.8777C354.126 44.886 334.22 44.4766 315.106 50.9732L300.813 37.6601Z" fill="#C9D0D7"/>
<path id="path6166" d="M369.399 99.2233L394.328 94.8685L395.356 109.209L369.516 112.012L369.399 99.2233Z" fill="#C9D0D7"/>
<path id="path6204" d="M96.1435 150.695C98.2864 150.297 99.367 152.509 100.693 154.12L98.0884 155.059C97.6481 153.77 97.2641 152.525 96.1435 150.695Z" fill="black"/>
<path id="path6206" d="M114.181 169.911C116.663 171.292 118.813 170.853 120.75 169.253C124.734 169.718 129.099 170.974 129.558 164.137L126.969 160.826L128.156 159.982C130.417 163.13 132.677 166.298 134.989 168.878L130.489 164.827C130.454 166.247 129.821 169.771 128.146 170.387C126.028 171.166 122.776 170.519 121.003 170.436C119.674 171.17 118.181 172.248 116.683 172.154C114.182 171.994 112.151 171.399 111.132 170.365L114.181 169.911Z" fill="black"/>
<path id="path6208" d="M151.776 140.54L152.781 143.2C145.165 143.695 140.555 144.947 136.091 146.236C135.088 148.441 134.1 156.953 135.783 159.976C137.292 162.687 143.009 162.872 146.079 163.184L145.755 164.238C142.659 165.851 140.016 165.84 137.626 164.934C139.67 164.974 140.891 164.49 142.108 164.004C137.818 163.286 135.212 162.06 134.218 159.444C132.666 155.363 133.334 148.423 134.108 144.123C139.241 142.678 144.869 141.398 151.776 140.541V140.54Z" fill="black"/>
<path id="path6210" d="M107.22 188.544C110.574 190.474 117.673 189.229 121.53 188.613L120.507 189.348C114.606 190.608 108.178 191.727 103.151 189.05L107.22 188.544Z" fill="black"/>
<path id="path6212" d="M100.912 202.596C105.851 203.583 110.322 202.318 114.55 199.876C116.661 199.095 118.197 199.184 119.552 199.544C113.098 201.863 106.818 205.481 99.8034 203.644L100.912 202.596Z" fill="black"/>
<path id="path6214" d="M88.8172 198.446L89.1055 201.388L87.1566 203.526L86.2045 201.408L88.8172 198.446Z" fill="black"/>
<path id="path6216" d="M143.284 178.555L143.427 180.651C140.296 183.989 136.329 187.346 134.511 190.655L133.268 191.632C135.241 186.94 139.73 183.764 143.284 178.555Z" fill="black"/>
<path id="path6244" opacity="0.48922" d="M407.993 23.6361C398.598 44.1569 392.039 65.3925 395.412 89.1308L400.252 87.9609L401.354 99.3515L407.903 99.3711L408.924 108.521L402.999 109.559L403.504 114.532L363.212 118.903L362.628 116.077L316.45 125.102L310.611 117.429L308.904 106.544L321.678 105.049L326.564 116.73L352.138 112.249L354.77 103.226L360.51 97.4609L368.984 101.715L369.681 105.895L394.172 105.165L393.65 99.444L398.478 99.0494L397.322 92.0924L391.818 91.5455L389.773 89.5117L378.432 90.4036C384.259 61.5942 390.693 33.772 407.993 23.6368V23.6361Z" fill="black"/>
<path id="path6248" opacity="0.35991" d="M82.7648 153.898L95.4705 148.819C101.911 154.994 107.496 160.295 115.556 165.557C119.354 164.477 123.162 163.531 127.132 165.199L130.138 159.184C129.589 154.089 129.147 143.119 137.871 143.156C137.283 149.111 137.742 153.752 139.393 156.892C145.239 158.35 151.317 158.882 157.97 157.137L158.261 151.828L170.702 151.261L167.755 159.666L158.975 161.027L144.091 176.284L82.3893 181.863L78.9456 177.484L55.8 182.63C51.4328 182.633 50.3994 179.034 48.4491 176.426C51.9904 177.523 56.1906 177.919 62.6779 175.883L101.298 166.175C97.6206 164.473 95.3073 161.916 92.6599 159.568L79.7929 157.872L82.7648 153.898Z" fill="black"/>
<path id="path6250" opacity="0.35991" d="M83.7031 206.45C107.193 213.337 126.629 202.682 144.368 184.679L146.244 190.892L146.948 193.684C132.818 213.366 108 231.426 88.2424 227.384L88.3991 213.746L83.7031 206.45Z" fill="black"/>
<path id="path6252" opacity="0.35991" d="M89.8447 185.958C102.361 188.102 114.796 188.592 127.083 186.062L124.746 187.615C115.872 191.375 105.148 191.157 93.9174 189.851L89.8447 185.958Z" fill="black"/>
<path id="path6254" opacity="0.35991" d="M94.0432 201.107C104.088 202.322 113.993 200.74 123.538 197.548L121.125 199.246C114.362 203.378 99.2733 204.16 95.5511 203.611L94.0432 201.107Z" fill="black"/>
<path id="path6256" opacity="0.35991" d="M152.963 215.048C144.31 231.454 134.033 238.693 123.475 243.221C114.321 247.149 103.41 243.396 93.2667 235.959C93.6035 236.822 93.9318 237.685 94.2451 238.559C101.697 245.791 109.22 253.309 115.083 254.907C120.723 255.309 126.664 254.695 130.865 254.182C135.44 252.591 138.137 253.565 141.484 251.526C142.577 250.859 143.488 248.902 144.56 247.555C146.026 245.711 147.533 244.349 147.744 242.969C150.985 237.255 152.877 230.348 152.785 221.663C152.963 219.473 153.025 217.27 152.963 215.048Z" fill="black"/>
<path id="path6228" opacity="0.34052" d="M287.396 34.5877C319.38 16.9047 355.723 7.49811 402.043 17.0542L395.838 21.3702C360.257 14.0178 325.77 16.2568 293.059 34.049L287.396 34.5877Z" fill="white"/>
</g>
<g id="warrior chest">
<path id="path6120" d="M233.9 343.344H272.623L270.142 418.596C257.056 419.772 245.715 420.199 235.141 417.928L233.9 343.344Z" fill="#81836D"/>
<path id="path6128" d="M111.781 252.555L150.541 221.372L237.471 191.548L300.028 234.248L299.264 448.941C291.144 451.27 282.847 454.998 275.201 453.536C273.122 441.218 272.075 428.355 268.32 415.781C262.353 395.797 252.748 374.051 245.537 355.785C235.602 387.254 234.531 419.233 238.453 452.257C224.018 458.604 170.264 454.906 163.283 440.357C165.491 426.304 166.246 401.492 167.642 380.52C169.686 349.777 171.874 321.555 175.389 316.633L173.772 268.354C169.823 274.757 163.052 276.792 153.503 280.655C143.648 284.642 132.559 287.271 125.623 285.124C114.797 275.348 114.982 263.658 111.78 252.555H111.781Z" fill="#715858"/>
<path id="path6130" d="M177.874 281.69C183.292 279.063 190.23 275.548 196.334 271.666C205.586 265.78 214.486 257.965 222.531 249.769C229.326 242.845 238.88 237.02 245.347 229.012C250.51 222.619 253.205 213.068 255.834 206.157L277.955 228.277C261.305 248.884 244.974 270.519 225.891 283.309L177.874 281.69Z" fill="#3E3936"/>
<path id="path6172" d="M175.984 280.745C188.741 279.407 197.89 283.018 213.969 281.271L265.08 285.367C272.395 284.938 279.298 284.097 287.801 284.857L289.149 318.241C281.345 320.667 272.984 319.932 264.421 318.057L210.819 319.214C197.077 319.514 186.346 318.059 175.581 316.622C173.992 315.292 172.592 313.79 172.95 310.689L173.29 286.976C173.237 284.233 174.24 282.229 175.986 280.744L175.984 280.745Z" fill="#3E3936"/>
<path id="path6178" d="M284.969 291.737C287.074 295.092 289.394 298.236 290.296 302.797C289.379 306.781 287.164 309.467 284.834 312.036C280.874 309.229 276.884 306.452 273.975 302.594C277.297 298.357 280.758 294.373 284.969 291.737Z" fill="#C9D0D7"/>
<path id="path6222" d="M213.679 286.401C214.261 283.58 216.079 281.882 219.458 281.604C232.682 282.525 245.584 283.904 260.509 282.395C263.938 282.269 264.864 284.436 265.272 287.079L265.469 314.345C264.756 317.316 263.929 320.156 260.226 319.64C245.919 321.262 231.611 322.312 217.303 320.163C213.971 320.286 211.102 319.777 211.285 315.131L213.679 286.401Z" fill="#C3B594"/>
<path id="path6176" d="M191.632 289.985C195.568 291.072 198.186 294.249 199.967 298.751C196.381 303.233 193.955 309.297 188.597 311.363C185.637 308.639 182.387 304.352 180.504 299.831C182.706 296.241 187.466 292.387 191.632 289.985Z" fill="#C9D0D7"/>
<path id="path6182" d="M256.709 237.143C258.141 241.242 254.93 246.678 254.686 249.687C252.286 249.288 248.25 248.467 245.648 249.755C243.781 247.149 244.916 241.811 244.165 238.02C249.105 235.672 254.185 235.531 256.709 237.143Z" fill="#C9D0D7"/>
<path id="path6184" d="M191.997 451.553C190.51 451.197 188.841 449.803 187.005 447.384C186.137 446.241 184.77 444.612 183.967 443.764C183.163 442.917 182.506 442.166 182.506 442.095C182.506 441.822 184.531 442.003 184.912 442.31C185.512 442.796 188.114 445.987 188.114 446.238C188.114 446.501 189.668 448.439 190.846 449.645C191.852 450.675 193.1 450.813 193.855 449.979C194.121 449.685 194.452 449.445 194.589 449.445C195.009 449.445 196.328 448.357 199.024 445.786C202.894 442.095 203.689 441.531 204.994 441.55C205.686 441.561 206.142 441.705 206.219 441.938C206.312 442.215 206.175 442.268 205.683 442.144C205.104 441.998 204.59 442.431 201.452 445.712C199.488 447.765 197.672 449.445 197.419 449.445C197.166 449.445 196.885 449.563 196.795 449.708C196.503 450.182 194.354 451.548 193.697 451.678C193.343 451.747 192.579 451.691 191.998 451.553H191.997ZM180.77 450.173C179.507 449.727 175.012 447.498 174.852 447.24C174.519 446.701 175.129 446.717 176.567 447.284C178.912 448.211 179.401 448.419 179.835 448.676C180.056 448.807 180.416 448.985 180.637 449.071C180.857 449.157 181.277 449.325 181.571 449.445C181.865 449.565 182.315 449.731 182.573 449.813C182.829 449.895 183.04 450.087 183.04 450.238C183.04 450.583 181.829 450.548 180.77 450.173ZM218.691 450.074C217.353 449.772 216.162 448.928 214.613 447.188C212.672 445.008 211.08 442.887 211.08 442.482C211.08 442.328 210.797 441.578 210.451 440.816C209.463 438.642 209.179 437.619 209.48 437.319C209.988 436.81 209.737 435.831 208.677 434.191C208.089 433.282 207.608 432.395 207.608 432.22C207.608 432.046 207.368 431.685 207.074 431.419C206.376 430.786 206.4 430.53 207.179 430.334C207.962 430.137 209.037 430.663 211.38 432.387C212.353 433.104 213.218 433.689 213.301 433.689C213.386 433.689 214.153 434.092 215.005 434.586C217.277 435.901 218.154 436.003 219.094 435.063C219.543 434.614 219.926 433.877 220.031 433.262C220.255 431.949 220.555 430.856 220.996 429.754C221.304 428.985 221.288 428.852 220.844 428.527C220.524 428.292 220.448 428.099 220.635 427.984C220.794 427.886 221.003 427.934 221.1 428.09C221.298 428.41 222.029 427.937 222.029 427.488C222.029 426.979 223.98 424.076 224.321 424.076C224.887 424.076 225.047 424.61 224.629 425.094C224.182 425.611 223.364 427.93 223.364 428.682C223.364 428.96 223.073 429.69 222.718 430.303C222.362 430.917 221.866 432.14 221.616 433.021C220.83 435.786 220.312 436.565 219.024 436.914C218.073 437.173 217.653 437.144 216.421 436.738C215.062 436.289 212.353 434.783 210.843 433.638C210.493 433.372 210.102 433.155 209.976 433.155C209.621 433.155 209.702 434.263 210.092 434.737C210.283 434.968 210.589 435.759 210.773 436.493C210.956 437.227 211.34 438.318 211.626 438.914C211.913 439.512 212.148 440.188 212.148 440.417C212.148 440.647 212.328 440.984 212.548 441.167C212.769 441.35 212.949 441.699 212.949 441.943C212.949 442.646 215.547 446.251 217.052 447.636C218.588 449.048 219.251 449.187 220.577 448.367C221.505 447.794 222.301 446.409 222.959 444.221C223.472 442.513 224.31 441.167 224.858 441.167C225.186 441.167 225.251 441.327 225.126 441.827C225.034 442.191 224.881 443.237 224.786 444.151C224.691 445.065 224.453 446.12 224.257 446.494C224.062 446.869 223.901 447.431 223.9 447.744C223.898 448.389 223.533 448.747 222.159 449.447C221.111 449.981 219.536 450.266 218.691 450.075V450.074ZM179.451 446.267C179.222 445.897 179.515 444.905 179.853 444.905C180.164 444.905 180.171 445.718 179.864 446.202C179.702 446.458 179.58 446.476 179.451 446.267ZM172.491 445.173C172.398 445.021 172.622 444.905 173.01 444.905C173.386 444.905 173.693 445.026 173.693 445.173C173.693 445.319 173.46 445.439 173.175 445.439C172.889 445.439 172.582 445.319 172.491 445.173ZM276.956 444.732C276.672 444.447 276.742 443.57 277.049 443.57C277.444 443.57 277.693 444.36 277.392 444.661C277.252 444.8 277.056 444.831 276.956 444.732ZM179.918 443.748C179.478 443.189 179.263 443.138 177.784 443.245C176.583 443.331 175.982 443.253 175.553 442.953C175.231 442.727 174.8 442.606 174.597 442.684C174.393 442.762 174.227 442.718 174.227 442.586C174.227 442.358 171.071 438.438 169.967 437.294C169.683 437.001 169.326 436.43 169.175 436.026C169.024 435.622 168.789 435.292 168.656 435.292C168.252 435.292 168.046 437.536 168.335 438.79C168.484 439.436 168.608 440.415 168.613 440.966C168.617 441.735 168.841 442.214 169.584 443.035C170.418 443.958 170.478 444.104 170.018 444.104C169.725 444.104 169.336 443.924 169.153 443.703C168.97 443.483 168.655 443.303 168.453 443.303C168.25 443.303 168.084 443.087 168.084 442.822C168.084 442.559 167.967 442.225 167.825 442.083C167.682 441.94 167.503 441.285 167.427 440.627C167.202 438.687 166.966 437.581 166.702 437.25C166.566 437.079 166.506 436.157 166.568 435.2C166.631 434.244 166.571 433.352 166.438 433.217C166.289 433.069 166.353 432.839 166.599 432.635C166.9 432.385 166.936 432.169 166.737 431.798C166.55 431.447 166.571 431.127 166.81 430.723C167.075 430.275 167.077 430.122 166.825 430.03C166.646 429.965 166.423 429.505 166.33 429.008C166.197 428.303 166.356 427.69 167.056 426.227C167.549 425.195 168.027 424.349 168.119 424.346C168.211 424.344 168.226 424.875 168.153 425.526C168.079 426.176 168.153 427.089 168.313 427.551C168.524 428.154 168.528 428.965 168.328 430.395C168.092 432.095 168.114 432.494 168.474 433.042C168.708 433.398 169.062 433.689 169.261 433.689C169.461 433.689 170.146 434.501 170.783 435.492C172.518 438.188 174.633 440.739 175.814 441.557C176.639 442.129 177.04 442.246 177.685 442.104C178.852 441.848 179.223 441.367 179.433 439.839C179.617 438.499 180.197 438.005 180.539 438.897C180.741 439.422 181.17 439.413 181.17 438.883C181.17 438.656 181.591 438.036 182.105 437.507C182.619 436.979 183.039 436.428 183.039 436.286C183.039 436.062 184.024 433.754 185.366 430.831C185.605 430.312 185.691 429.669 185.585 429.188C185.485 428.731 185.531 428.326 185.694 428.224C186.403 427.786 185.607 425.322 184.403 424.234C184.094 423.954 183.837 423.474 183.832 423.166C183.822 422.45 182.973 421.841 181.043 421.163C179.668 420.679 179.412 420.661 178.614 420.995C177.714 421.372 177.011 421.268 175.349 420.512C173.426 419.637 171.655 417.186 170.785 414.194C170.593 413.533 170.336 412.798 170.214 412.559C170.091 412.319 169.907 411.658 169.804 411.089C169.57 409.792 169.214 409.333 168.594 409.529C168.144 409.672 168.11 409.428 168.102 405.943C168.097 403.609 168.199 402.138 168.374 402.03C168.528 401.935 168.708 401.91 168.772 401.974C168.916 402.119 169.187 405.898 169.165 407.446C169.15 408.467 169.219 408.591 169.885 408.739C170.29 408.83 170.989 409.068 171.438 409.268C171.887 409.467 172.514 409.564 172.829 409.481C173.602 409.279 175.807 411.137 175.821 412C175.834 412.922 176.478 414.252 177.263 414.976C177.953 415.611 177.966 415.613 177.966 415.059C177.966 414.747 177.845 414.419 177.699 414.328C177.408 414.148 177.339 411.494 177.6 410.523C177.837 409.636 178.305 409.786 178.107 410.686C178.01 411.128 178.101 411.833 178.321 412.355C178.531 412.852 178.846 413.741 179.021 414.328C179.419 415.663 180.157 417.132 180.43 417.132C180.543 417.132 180.636 417.288 180.636 417.479C180.636 418.365 181.251 418.449 182.214 417.691C182.742 417.277 183.593 416.723 184.107 416.46C185.164 415.919 187.723 414.075 187.969 413.678C188.058 413.534 188.301 413.482 188.509 413.562C188.722 413.643 189.366 413.259 189.991 412.676C191.074 411.666 191.088 411.629 190.705 410.85C190.491 410.413 190.108 409.619 189.857 409.084C189.453 408.229 187.654 406.717 187.041 406.717C186.769 406.717 185.978 405.181 185.978 404.654C185.978 404.446 185.797 404.095 185.577 403.875C185.356 403.654 185.176 403.236 185.176 402.947C185.176 402.641 184.841 402.229 184.377 401.964C183.893 401.689 183.577 401.291 183.575 400.955C183.575 400.651 183.267 400.113 182.893 399.762C182.075 398.992 180.369 396.471 180.369 396.031C180.369 395.857 179.636 394.917 178.74 393.94C177.844 392.962 176.926 391.803 176.7 391.361C176.473 390.921 176.189 390.496 176.067 390.417C175.721 390.191 174.457 387.705 174.61 387.551C174.686 387.476 175.485 387.425 176.386 387.437C177.524 387.453 178.177 387.598 178.524 387.911C179.136 388.466 178.954 388.825 178.061 388.825C177.69 388.825 177.43 388.915 177.484 389.025C178.528 391.206 178.816 391.53 179.181 390.939C179.438 390.523 180.902 392.003 180.904 392.68C180.907 393.542 181.779 394.761 182.998 395.606C184.071 396.349 184.134 396.361 184.635 395.908C185.263 395.339 185.978 395.545 185.978 396.294C185.978 397.72 190.016 396.057 192.007 393.81C193.602 392.01 195.325 389.42 195.497 388.562C195.657 387.759 196.8 386.473 197.093 386.767C197.714 387.387 193.79 393.882 191.794 395.538C190.381 396.708 188.424 397.637 187.372 397.637C186.948 397.637 186.531 397.706 186.447 397.792C186.171 398.066 187.166 399.503 187.633 399.505C188.02 399.507 188.065 399.7 187.936 400.792C187.754 402.329 188.022 402.907 190.645 406.64C190.881 406.976 191.227 407.167 191.447 407.083C192.042 406.854 193.372 407.95 194.353 409.477C194.841 410.236 195.782 411.428 196.444 412.125C197.758 413.51 198.407 413.675 199.972 413.02C201.083 412.557 203.73 409.941 204.263 408.783C204.481 408.307 204.763 407.738 204.889 407.518C205.016 407.298 205.515 406.277 205.998 405.248C207.543 401.964 207.809 401.512 208.248 401.423C208.814 401.309 209.092 402.076 208.67 402.585C208.488 402.806 208.009 403.916 207.607 405.051C206.933 406.964 205.932 409.084 205.135 410.289C204.754 410.864 202.801 412.756 202.026 413.298C201.737 413.5 201.142 414.025 200.703 414.464C200.264 414.903 199.721 415.262 199.497 415.262C198.366 415.262 196.289 414.607 195.611 414.036C194.712 413.281 193.77 413.2 193.547 413.861C193.068 415.275 191.444 418.257 191.031 418.477C190.768 418.619 190.476 418.974 190.383 419.268C190.29 419.562 190.064 419.803 189.881 419.803C189.343 419.803 188.022 421.316 188.372 421.533C188.595 421.671 188.592 421.818 188.361 422.096C187.896 422.656 187.313 422.553 187.313 421.91C187.313 421.479 187.204 421.393 186.845 421.542C186.588 421.65 186.026 421.816 185.597 421.911C184.544 422.147 184.491 422.496 185.381 423.348C186.067 424.006 186.212 424.041 187.153 423.782C187.771 423.611 188.274 423.595 188.421 423.742C188.794 424.114 188.387 424.877 187.817 424.877C186.958 424.877 187.252 425.557 188.781 427.111C189.589 427.932 190.25 428.702 190.25 428.822C190.25 428.943 190.706 429.486 191.263 430.03C192.273 431.017 192.92 431.286 192.92 430.719C192.92 430.512 193.044 430.522 193.321 430.752C193.542 430.934 193.721 431.24 193.721 431.43C193.721 432.061 195.447 432.888 196.763 432.888C197.841 432.888 198.159 432.747 199.164 431.82C200.602 430.494 202.113 427.767 201.893 426.892C201.776 426.423 201.901 426.163 202.402 425.834C202.795 425.577 203.068 425.144 203.068 424.779C203.068 424.283 203.292 424.094 204.203 423.824C206.465 423.15 206.591 423.066 206.263 422.453C205.939 421.849 206.088 421.137 206.537 421.137C206.691 421.137 206.959 421.468 207.132 421.872C207.303 422.276 207.597 422.791 207.783 423.017C207.969 423.242 208.05 423.702 207.963 424.038C207.832 424.534 207.678 424.617 207.137 424.482C206.674 424.366 206.298 424.474 205.904 424.836C205.592 425.122 205.101 425.4 204.811 425.453C204.423 425.523 204.028 426.201 203.318 428.021C202.786 429.382 202.114 430.762 201.824 431.09C201.534 431.419 201.088 432.023 200.834 432.434C199.834 434.041 196.905 434.919 195.267 434.101C194.813 433.874 194.245 433.689 194.006 433.689C193.767 433.689 192.533 432.727 191.267 431.553C189.999 430.378 188.789 429.417 188.579 429.417C187.877 429.417 187.044 430.733 185.957 433.556C185.675 434.29 185.444 435.076 185.444 435.301C185.444 435.951 184.582 437.473 183.292 439.102C181.203 441.744 180.505 443.033 180.86 443.6C181.263 444.245 181.251 444.371 180.789 444.371C180.579 444.371 180.187 444.091 179.918 443.748ZM187.312 427.547C187.312 427.4 187.185 427.28 187.03 427.28C186.874 427.28 186.821 427.4 186.912 427.547C187.003 427.694 187.129 427.814 187.194 427.814C187.259 427.814 187.312 427.694 187.312 427.547ZM186.085 420.8C187.393 420.051 187.874 419.354 187.32 419.008C186.65 418.59 187.273 418.356 188.007 418.749C188.63 419.083 188.739 419.068 189.075 418.609C189.28 418.328 189.448 417.952 189.448 417.774C189.448 417.59 189.662 417.505 189.942 417.578C190.478 417.718 191.852 416.324 191.852 415.639C191.852 415.182 192.337 414.277 192.996 413.501C193.453 412.962 193.452 412.916 192.942 412.299L192.413 411.658L191.947 412.325C191.689 412.693 191.098 413.354 190.633 413.794C190.168 414.235 189.645 414.869 189.471 415.203C189.297 415.538 189.03 415.734 188.876 415.639C188.722 415.545 188.252 415.721 187.832 416.033C187.411 416.343 186.895 416.598 186.686 416.598C186.476 416.598 186.113 416.891 185.879 417.249C185.463 417.882 184.866 418.289 183.124 419.122C182.149 419.587 181.752 420.07 182.343 420.07C182.564 420.07 182.843 420.243 182.961 420.455C183.168 420.824 184.21 421.357 184.775 421.383C184.921 421.391 185.512 421.128 186.085 420.8ZM178.299 419.622C178.672 419.402 178.503 418.866 177.832 418.143C177.464 417.747 177.164 417.244 177.164 417.026C177.164 416.807 176.792 416.411 176.337 416.146C175.819 415.844 175.206 415.063 174.7 414.061C174.255 413.18 173.813 412.399 173.718 412.325C173.624 412.252 173.347 411.878 173.102 411.494C172.564 410.645 171.555 410.289 171.558 410.949C171.561 411.804 173.595 417.325 174.182 418.072C175.204 419.371 176.398 420.07 177.298 419.895C177.739 419.81 178.189 419.687 178.299 419.622V419.622ZM185.176 398.842C185.176 398.025 185.058 397.863 184.208 397.507C183.029 397.015 182.773 397.003 182.773 397.443C182.773 397.95 184.355 399.774 184.794 399.774C185.052 399.774 185.176 399.471 185.176 398.842ZM276.24 442.652C276.24 442.417 275.939 441.748 275.571 441.167C274.898 440.098 274.651 438.229 275.185 438.229C275.518 438.229 276.24 439.856 276.24 440.605C276.24 440.893 276.429 441.318 276.66 441.548C276.891 441.78 277.041 442.169 276.993 442.413C276.88 443 276.24 443.202 276.24 442.652ZM278.644 438.77C278.276 438.486 277.411 438.117 276.72 437.951C276.03 437.784 275.353 437.508 275.215 437.337C274.828 436.857 274.534 434.223 274.868 434.223C275.022 434.223 275.845 434.879 276.696 435.681C277.547 436.482 278.783 437.423 279.444 437.771C280.884 438.531 281.199 439.3 280.065 439.292C279.65 439.288 279.011 439.053 278.644 438.77ZM193.855 434.757C193.637 434.405 193.957 433.905 194.274 434.102C194.598 434.301 194.596 435.025 194.271 435.025C194.132 435.025 193.946 434.904 193.855 434.757ZM278.644 423.542C278.644 422.686 279.014 422.465 279.282 423.163C279.556 423.878 279.463 424.342 279.043 424.342C278.777 424.342 278.644 424.076 278.644 423.542ZM208.283 423.289C208.062 422.93 208.338 422.473 208.777 422.473C208.964 422.473 209.398 422.173 209.743 421.806C210.353 421.157 211.079 420.913 211.079 421.358C211.079 421.958 208.543 423.709 208.283 423.289ZM278.231 421.922C278.135 421.765 278.12 421.572 278.199 421.494C278.39 421.303 278.911 421.64 278.911 421.955C278.911 422.297 278.449 422.273 278.231 421.922ZM213.349 421.034C212.909 420.866 212.067 420.417 211.48 420.038C210.893 419.659 209.991 419.133 209.478 418.87C208.963 418.606 207.859 417.928 207.024 417.363C206.117 416.749 205.336 416.4 205.085 416.497C204.577 416.691 203.869 416.16 203.869 415.585C203.869 415.357 203.678 414.959 203.442 414.7C202.901 414.102 203.199 413.581 203.948 413.819C204.261 413.919 205.273 414.58 206.199 415.288C209.286 417.655 213.126 419.656 215.014 419.882C217.271 420.152 219.697 418.045 220.438 415.172C220.596 414.561 220.898 413.682 221.109 413.22C221.322 412.757 221.494 412.191 221.494 411.964C221.494 411.326 222.08 410.188 222.405 410.193C223.592 410.21 223.595 411.621 222.414 414.878C221.038 418.671 219.043 420.926 216.788 421.235C215.162 421.458 214.327 421.409 213.349 421.034ZM277.754 420.693C277.656 420.595 277.576 420.174 277.576 419.758C277.576 419.251 277.438 419.002 277.159 419.002C276.931 419.002 276.812 418.89 276.896 418.754C276.981 418.617 276.702 417.986 276.276 417.352C275.259 415.835 274.371 414.151 274.371 413.741C274.371 413.56 274.131 413.283 273.837 413.127C273.525 412.959 273.303 412.568 273.303 412.182C273.303 411.637 273.433 411.524 274.064 411.524C274.874 411.524 275.663 412.135 278.289 414.796C279.123 415.64 279.944 416.331 280.113 416.331C280.282 416.331 280.699 416.628 281.04 416.991C281.788 417.788 283.246 418.31 284.113 418.092C284.46 418.005 285.102 417.633 285.537 417.267L286.329 416.6L286.515 417.589C286.663 418.378 286.602 418.648 286.21 418.934C285.328 419.578 284.486 419.617 282.423 419.105C280.389 418.602 280.043 418.382 277.53 415.997C276.418 414.943 275.872 415.083 276.478 416.268C276.608 416.523 276.939 417.212 277.212 417.8C277.486 418.387 277.859 418.964 278.043 419.081C278.227 419.199 278.377 419.65 278.377 420.083C278.377 420.837 278.135 421.074 277.754 420.693H277.754ZM271.606 419.949C271.206 419.579 270.899 419.005 270.899 418.63C270.899 418.264 270.779 417.891 270.632 417.8C270.486 417.709 270.365 417.282 270.365 416.849C270.365 415.626 271.092 415.861 271.445 417.199C271.609 417.824 271.974 418.732 272.256 419.217C273.13 420.723 272.819 421.074 271.606 419.949ZM270.098 415.129C270.098 414.909 270.218 414.729 270.365 414.729C270.512 414.729 270.632 414.909 270.632 415.129C270.632 415.35 270.512 415.53 270.365 415.53C270.218 415.53 270.098 415.35 270.098 415.129ZM168.085 413.928C168.085 413.781 168.205 413.661 168.353 413.661C168.499 413.661 168.619 413.781 168.619 413.928C168.619 414.074 168.499 414.195 168.353 414.195C168.205 414.195 168.085 414.074 168.085 413.928ZM269.5 413.174C269.417 412.854 269.465 412.521 269.608 412.432C270.019 412.178 270.13 412.462 269.881 413.135L269.651 413.755L269.5 413.174ZM188.381 412.325C188.381 412.178 188.501 412.059 188.648 412.059C188.795 412.059 188.915 412.178 188.915 412.325C188.915 412.473 188.795 412.592 188.648 412.592C188.501 412.592 188.381 412.473 188.381 412.325ZM168.085 412.059C168.085 411.911 168.205 411.791 168.353 411.791C168.499 411.791 168.619 411.911 168.619 412.059C168.619 412.205 168.499 412.325 168.353 412.325C168.205 412.325 168.085 412.205 168.085 412.059ZM266.944 408.908C265.969 407.617 265.818 407.253 265.954 406.521C266.043 406.046 266.004 405.445 265.868 405.186C265.733 404.926 265.681 404.324 265.754 403.846C265.865 403.114 265.998 402.979 266.607 402.979C267.381 402.979 268.583 404.051 268.867 404.994C269.11 405.804 271.188 407.723 272.053 407.935C273.261 408.232 274.973 406.139 277.347 401.468C278.427 399.342 279.467 397.31 279.659 396.952C280.13 396.075 281.317 396.039 281.306 396.903C281.301 397.234 281.121 397.738 280.905 398.023C280.689 398.307 280.512 398.812 280.512 399.142C280.512 399.473 280.409 399.807 280.282 399.885C280.156 399.964 279.896 400.602 279.708 401.303C279.518 402.004 279.202 402.768 279.003 403C278.805 403.232 278.644 403.618 278.644 403.858C278.644 404.098 278.392 404.43 278.084 404.594C277.711 404.794 277.57 405.068 277.662 405.415C277.739 405.714 277.598 406.132 277.328 406.394C277.071 406.645 276.781 407.069 276.685 407.335C276.589 407.602 276.387 407.744 276.237 407.65C276.086 407.557 275.46 407.849 274.847 408.301C272.921 409.717 270.961 409.401 268.767 407.319C268.109 406.694 267.463 406.184 267.33 406.184C266.969 406.184 267.31 407.836 267.939 409.138C268.565 410.434 268.573 410.461 268.295 410.443C268.185 410.437 267.577 409.745 266.944 408.908ZM170.221 407.385C170.221 407.165 170.341 406.984 170.488 406.984C170.636 406.984 170.756 407.165 170.756 407.385C170.756 407.605 170.636 407.786 170.488 407.786C170.341 407.786 170.221 407.605 170.221 407.385ZM220.16 405.069C219.646 404.928 218.898 404.747 218.499 404.667C217.831 404.534 215.805 402.937 213.942 401.074C213.52 400.652 212.949 400.309 212.672 400.309C212.394 400.309 212.024 400.04 211.849 399.712C211.673 399.385 211.068 398.533 210.504 397.819C209.298 396.292 209.169 395.501 210.128 395.501C210.556 395.501 210.985 395.796 211.389 396.369C211.726 396.846 213.387 398.602 215.079 400.271C218.398 403.544 219.737 404.286 221.661 403.925C222.653 403.739 224.576 402.09 224.307 401.657C224.212 401.503 224.32 401.377 224.547 401.377C225.002 401.377 227.121 398.84 227.893 397.371C228.365 396.474 229.952 395.057 230.203 395.309C230.27 395.375 229.9 396.074 229.381 396.861C228.862 397.648 228.438 398.4 228.438 398.531C228.438 398.914 226.018 401.926 224.566 403.349C223.377 404.516 221.887 405.431 221.303 405.355C221.188 405.34 220.674 405.212 220.16 405.069ZM169.954 402.979C169.954 402.831 170.075 402.712 170.221 402.712C170.368 402.712 170.488 402.831 170.488 402.979C170.488 403.126 170.368 403.246 170.221 403.246C170.075 403.246 169.954 403.126 169.954 402.979ZM169.687 401.093C169.687 400.617 169.799 400.345 169.954 400.441C170.102 400.533 170.221 400.9 170.221 401.258C170.221 401.617 170.102 401.91 169.954 401.91C169.807 401.91 169.687 401.542 169.687 401.093ZM169.599 399.58C169.419 399.288 169.674 398.17 169.919 398.176C170.012 398.178 170.268 398.294 170.488 398.434C170.834 398.652 170.809 398.768 170.321 399.258C170.009 399.572 169.684 399.717 169.599 399.58ZM282.059 393.908C280.976 393.572 279.773 392.632 279.386 391.818C279.197 391.42 278.772 390.977 278.442 390.831C278.113 390.687 277.837 390.386 277.832 390.163C277.82 389.71 276.551 387.615 275.239 385.884C274.761 385.254 274.371 384.629 274.371 384.496C274.371 384.363 274.822 384.29 275.372 384.336C276.248 384.408 276.48 384.587 277.22 385.754C279.581 389.477 280.389 390.658 281.298 391.711C282.232 392.794 282.332 392.842 283.009 392.534C283.632 392.25 283.777 392.274 284.114 392.719C284.595 393.354 284.628 393.898 284.185 393.902C284.002 393.905 283.611 393.958 283.317 394.019C283.024 394.081 282.457 394.032 282.059 393.908ZM207.058 390.441C206.059 390.137 205.16 389.64 204.403 388.97C204.037 388.644 203.155 388.048 202.445 387.643C199.854 386.166 192.389 378.143 193.606 378.143C194.117 378.143 195.091 379.035 197.472 381.689C201.902 386.625 206.52 389.877 207.887 389.023C208.543 388.613 209.343 386.729 209.754 384.623C209.933 383.708 210.244 382.822 210.446 382.655C210.647 382.488 210.814 382.155 210.817 381.916C210.824 381.101 211.504 379.516 212.427 378.161C213.329 376.839 213.816 376.533 214.153 377.078C214.412 377.498 213.737 380.277 213.049 381.614C212.236 383.197 211.798 384.301 211.104 386.518C210.788 387.527 210.166 388.878 209.723 389.523C208.891 390.733 208.484 390.873 207.058 390.441ZM225.383 386.57C224.51 386.077 223.702 385.42 223.586 385.107C223.471 384.795 223.149 384.452 222.871 384.346C221.879 383.965 219.822 381.175 218.518 378.441C217.052 375.37 216.964 374.583 218.071 374.455C218.889 374.361 219.2 374.791 219.438 376.34C219.637 377.635 221.295 380.372 222.752 381.811C223.383 382.432 223.898 383.008 223.898 383.09C223.898 383.531 225.237 384.938 226.315 385.629C227.856 386.618 228.933 386.645 230.029 385.723C231.036 384.876 231.378 384.238 232.547 381.027C233.756 377.708 234.067 377.075 234.489 377.075C234.686 377.075 234.847 377.176 234.847 377.3C234.847 377.624 234.21 379.592 233.407 381.747C233.024 382.775 232.711 383.804 232.711 384.036C232.711 384.267 232.075 385.138 231.298 385.973C229.908 387.467 229.863 387.49 228.427 387.477C227.282 387.467 226.629 387.273 225.383 386.57ZM270.725 383.376C269.147 382.809 267.273 381.384 265.972 379.762C264.972 378.513 264.512 378.143 263.965 378.143C263.527 378.143 263.007 377.863 262.605 377.408C260.927 375.516 261.011 374.606 262.813 375.159C263.875 375.485 265.722 377.139 268.223 380.006C270.021 382.066 271.062 382.635 272.181 382.172C273.963 381.434 275.985 378.274 278.58 372.173C279.073 371.014 280.025 370.256 280.674 370.506C281.015 370.637 281.067 370.882 280.921 371.67C280.819 372.219 280.584 372.849 280.399 373.069C280.214 373.289 279.853 374.011 279.596 374.672C279.341 375.333 279.018 376.009 278.881 376.175C278.744 376.342 278.455 377.154 278.24 377.982C277.264 381.727 273.552 384.393 270.725 383.376ZM181.587 379.381C181.703 378.917 181.616 378.706 181.258 378.587C180.99 378.498 180.591 378.312 180.37 378.172C180.15 378.033 179.268 377.65 178.411 377.322C177.554 376.995 176.714 376.505 176.544 376.233C176.375 375.962 176.077 375.74 175.881 375.74C175.687 375.74 175.009 375.199 174.375 374.538C173.742 373.877 173.099 373.336 172.948 373.336C172.476 373.336 170.858 370.877 170.254 369.24C169.469 367.115 169.976 367.375 171.9 370.083C174.601 373.884 178.21 376.521 181.024 376.748C182.648 376.879 184.851 376.129 186.264 374.964C187.363 374.057 189.899 369.321 190.639 366.794C191.069 365.324 191.819 364.256 192.423 364.256C192.718 364.256 192.481 365.406 191.932 366.631C191.708 367.129 191.461 368.031 191.384 368.634C191.214 369.947 189.412 373.729 188.498 374.686C188.141 375.062 187.847 375.512 187.847 375.688C187.847 375.863 187.703 376.007 187.527 376.007C187.35 376.007 186.839 376.361 186.392 376.794C185.944 377.227 185.097 377.739 184.509 377.932C183.644 378.216 183.442 378.408 183.442 378.947C183.442 379.45 183.301 379.611 182.864 379.611C182.547 379.611 182.197 379.703 182.086 379.813C181.681 380.214 181.432 379.997 181.587 379.382V379.381ZM215.502 372.926C215.172 372.678 214.347 372.532 213.232 372.526C211.567 372.518 209.608 372.012 208.142 371.212C206.838 370.501 204.314 367.988 203.84 366.926C203.575 366.335 203.172 365.779 202.946 365.693C202.72 365.606 202.534 365.367 202.534 365.161C202.534 364.956 202.294 364.34 202 363.792C201.374 362.622 201.281 361.051 201.839 361.051C202.044 361.051 202.555 361.464 202.974 361.968C203.393 362.473 204.157 363.39 204.671 364.007C205.185 364.624 205.702 365.294 205.819 365.494C205.936 365.695 206.183 365.859 206.368 365.859C206.552 365.859 207.116 366.286 207.622 366.807C208.488 367.7 209.061 368.081 212.233 369.867L213.521 370.591L214.904 370.016C215.665 369.699 216.672 369.236 217.142 368.985C218.01 368.523 219.358 366.981 219.358 366.452C219.358 366.292 219.599 366.086 219.893 365.992C220.187 365.899 220.427 365.642 220.427 365.419C220.427 365.197 220.788 364.656 221.227 364.215C221.668 363.775 222.029 363.241 222.029 363.029C222.029 362.816 222.317 362.194 222.668 361.646C223.02 361.099 223.383 360.217 223.475 359.687C223.654 358.651 224.486 357.684 224.95 357.97C225.361 358.224 225.298 359.533 224.831 360.421C224.605 360.85 224.494 361.492 224.579 361.887C224.748 362.688 223.598 365.036 222.176 366.794C221.7 367.381 221.171 368.126 221 368.449C220.829 368.771 220.408 369.193 220.064 369.383C219.719 369.574 218.818 370.193 218.062 370.757C216.672 371.796 216.481 372.445 217.651 372.151C218.304 371.988 218.415 372.166 218.128 372.913C217.919 373.458 216.215 373.465 215.502 372.926ZM211.611 371.133C211.608 370.949 211.117 370.563 210.516 370.276C209.916 369.988 208.584 369.107 207.556 368.32C206.53 367.532 205.644 366.934 205.588 366.988C205.2 367.377 208.961 370.649 209.825 370.675C210.001 370.681 210.446 370.857 210.813 371.066C211.639 371.538 211.615 371.536 211.611 371.133ZM169.777 366.566C169.691 366.34 169.691 366.083 169.78 365.994C170.012 365.763 170.777 366.459 170.602 366.742C170.374 367.111 169.953 367.021 169.779 366.566H169.777ZM271.43 365.369C271.211 365.231 270.818 365.116 270.558 365.113C270.003 365.108 268.392 364.095 266.414 362.506C265.638 361.882 264.889 361.371 264.751 361.371C264.613 361.371 264.264 360.91 263.978 360.348C263.691 359.785 263.027 358.997 262.503 358.598C261.485 357.822 260.624 356.449 260.889 356.021C261.117 355.651 262.239 355.702 262.55 356.096C262.694 356.28 262.887 356.731 262.976 357.098C263.199 357.999 265.777 360.63 268.274 362.503C270.676 364.305 271.295 364.575 273.025 364.575C274.147 364.575 274.533 364.413 275.978 363.327C277.347 362.298 277.773 361.777 278.408 360.364C278.83 359.422 279.176 358.491 279.176 358.295C279.176 358.1 279.476 357.583 279.843 357.146C280.211 356.71 280.512 356.283 280.512 356.197C280.512 356.111 280.025 355.792 279.43 355.489C278.836 355.186 278.283 354.767 278.203 354.559C278.124 354.351 277.832 354.108 277.553 354.02C277.096 353.875 274.903 351.893 274.903 351.625C274.903 351.116 271.13 346.416 270.721 346.416C270.153 346.416 270.307 345.396 270.925 345.066C271.399 344.812 271.606 344.88 272.26 345.508C272.686 345.915 273.034 346.368 273.034 346.515C273.034 346.969 275.355 349.7 278.227 352.626C281.396 355.854 284 356.102 285.151 353.286C285.378 352.731 285.496 352.1 285.412 351.883C285.329 351.667 285.365 351.489 285.491 351.489C285.893 351.489 286.522 349.799 286.165 349.68C285.669 349.514 285.803 348.871 286.37 348.691C286.672 348.595 286.929 348.227 286.986 347.805L287.085 347.083L287.43 347.884C287.657 348.413 287.731 349.371 287.644 350.696C287.403 354.393 285.657 356.246 282.379 356.281L280.908 356.297L280.577 357.361C280.394 357.946 280.243 358.697 280.242 359.029C280.242 359.363 280.003 359.995 279.71 360.436C279.418 360.877 279.179 361.398 279.178 361.596C279.171 363.023 275.745 365.316 273.343 365.503C272.511 365.568 271.649 365.508 271.43 365.369ZM191.452 355.035C191.157 354.964 190.766 354.781 190.581 354.63C190.395 354.48 189.901 354.163 189.481 353.925C188.016 353.095 186.902 351.917 184.215 348.36C182.691 346.343 182.343 344.226 183.507 344.061C183.837 344.013 184.107 344.094 184.107 344.239C184.107 344.384 184.639 345.624 185.29 346.995C186.291 349.106 186.761 349.753 188.369 351.223C190.628 353.291 191.656 353.893 192.916 353.892C194.047 353.889 195.858 353.417 195.858 353.123C195.858 353.007 196.503 352.586 197.29 352.188C198.077 351.789 198.973 351.199 199.28 350.876C199.587 350.553 199.966 350.167 200.123 350.021C200.476 349.693 202.022 347.598 202.438 346.887C202.605 346.6 203.168 345.926 203.688 345.389C204.555 344.496 205.429 342.614 205.853 340.729C206.052 339.851 206.647 339.542 207.223 340.02C207.506 340.254 207.621 340.783 207.592 341.719C207.57 342.467 207.632 343.324 207.731 343.626C207.872 344.057 207.649 344.396 206.691 345.214C206.02 345.785 205.472 346.399 205.472 346.578C205.472 347.072 198.917 352.974 197.785 353.501C197.239 353.754 196.613 354.106 196.392 354.282C195.472 355.018 192.946 355.402 191.452 355.035ZM206.219 344.76C206.654 344.326 206.624 343.745 206.168 343.745C205.817 343.745 205.472 344.288 205.472 344.835C205.472 345.178 205.838 345.141 206.219 344.76ZM226.301 350.596C225.347 350.261 224.171 349.754 223.687 349.47C221.018 347.898 216.153 343.708 216.153 342.98C216.153 342.814 215.718 342.197 215.187 341.608C214.387 340.723 214.277 340.47 214.552 340.139C214.734 339.919 215.031 339.739 215.212 339.739C215.393 339.739 216.506 340.858 217.684 342.225C220.215 345.161 223.425 347.779 225.798 348.842C227.556 349.629 228.705 349.827 228.705 349.344C228.705 348.851 229.558 347.751 229.815 347.911C229.963 348.002 229.933 348.226 229.742 348.456C229.484 348.767 229.507 348.934 229.853 349.281C230.387 349.814 231.102 349.545 232.564 348.261C233.693 347.269 236.336 344.069 237.191 342.66C237.507 342.136 238.012 341.487 238.31 341.216C238.982 340.608 239.012 339.827 238.374 339.623C238.109 339.539 237.451 338.901 236.911 338.203C236.371 337.506 235.265 336.225 234.453 335.357C232.816 333.606 232.63 333.063 233.668 333.063C234.137 333.063 234.631 333.384 235.203 334.06C235.668 334.608 236.854 335.9 237.838 336.931C239.269 338.43 239.694 338.738 239.961 338.471C240.321 338.112 241.529 338.008 241.514 338.337C241.509 338.447 241.332 338.839 241.123 339.206C240.912 339.572 240.737 339.958 240.731 340.063C240.727 340.169 241.606 340.678 242.687 341.199C244.289 341.969 244.957 342.143 246.317 342.143C247.39 342.143 248.251 341.985 248.734 341.7C250.292 340.78 254.963 332.31 255.311 329.777C255.403 329.104 255.632 328.495 255.822 328.423C256.055 328.333 256.121 327.96 256.027 327.261C255.929 326.53 256.007 326.133 256.298 325.892C256.89 325.4 257.35 326.369 257.138 327.659C256.383 332.247 255.334 335.434 253.579 338.473L252.228 340.811L252.884 341.21C253.245 341.429 253.871 341.818 254.275 342.072C254.679 342.326 255.25 342.67 255.543 342.835C255.837 343 256.949 343.643 258.013 344.264C260.235 345.56 262.414 346.416 263.491 346.416C264.417 346.416 267.408 345.07 268.001 344.387C268.82 343.443 269.63 341.75 270.033 340.14C270.542 338.114 271.282 336.635 271.972 336.265C272.779 335.834 272.953 336.625 272.38 338.109C272.119 338.786 271.886 339.715 271.861 340.175C271.837 340.635 271.49 341.483 271.091 342.059C270.671 342.665 270.365 343.466 270.365 343.96C270.365 344.429 270.245 344.813 270.098 344.813C269.952 344.813 269.25 345.232 268.538 345.742C266.906 346.916 264.367 347.596 262.315 347.409C261.169 347.306 260.169 346.937 258.223 345.9C256.806 345.145 255.182 344.191 254.615 343.781C254.047 343.369 253.014 342.816 252.318 342.55C251.239 342.137 250.972 342.119 250.494 342.425C249.73 342.915 244.979 343.098 243.562 342.693C242.955 342.519 241.872 342.076 241.156 341.706C240.439 341.339 239.759 341.135 239.644 341.256C239.53 341.377 238.981 342.316 238.424 343.345C237.868 344.372 237.033 345.575 236.569 346.015C236.107 346.456 235.619 347.012 235.488 347.251C235.117 347.922 232.406 350.174 231.509 350.556C229.913 351.234 228.159 351.248 226.301 350.596ZM178.099 338.673C177.364 338.38 176.644 337.982 176.497 337.788C176.35 337.595 176.031 337.363 175.789 337.271C175.224 337.06 175.048 335.893 174.963 331.771L174.894 328.477L175.659 327.82C176.579 327.029 177.002 327.112 177.119 328.107C177.178 328.617 176.997 329.072 176.539 329.555C175.998 330.128 175.872 330.534 175.865 331.727C175.86 332.667 176.018 333.437 176.303 333.864C176.549 334.232 177.007 335.072 177.322 335.733C178.617 338.45 179.906 338.703 181.609 336.575C182.156 335.892 182.875 335.092 183.208 334.799C183.805 334.271 186.244 330.751 186.244 330.417C186.244 329.968 191.194 325.586 191.701 325.586C192.184 325.586 191.682 326.481 190.516 327.696C189.782 328.462 189.182 329.175 189.182 329.281C189.182 329.386 188.851 329.837 188.447 330.282C187.361 331.479 186.339 333.036 185.723 334.437C185.421 335.118 184.993 335.747 184.77 335.833C184.547 335.917 184.114 336.411 183.809 336.929C183.503 337.447 183.123 337.87 182.963 337.87C182.803 337.87 182.423 338.104 182.119 338.391C181.273 339.185 179.668 339.298 178.098 338.673H178.099ZM203.933 336.925C201.841 336.267 199.155 333.952 197.659 331.518C197.182 330.742 196.402 329.5 195.924 328.758C194.878 327.131 194.864 326.979 195.739 326.76C196.223 326.638 196.592 326.744 197.007 327.122C197.33 327.416 197.864 327.795 198.194 327.965C198.878 328.318 198.993 328.79 198.395 328.79C198.174 328.79 197.994 328.934 197.994 329.111C197.994 329.548 200.372 333.063 200.668 333.063C200.799 333.063 201.267 333.589 201.71 334.232C203.021 336.137 205.685 336.843 207.442 335.75C207.901 335.465 209.478 333.935 210.946 332.348C216.019 326.869 216.817 326.12 217.579 326.12C218.496 326.12 218.476 326.432 217.488 327.513C217.047 327.995 216.356 328.788 215.953 329.276C215.549 329.763 214.288 331.116 213.149 332.283C212.011 333.449 211.079 334.497 211.079 334.612C211.079 334.97 208.389 336.845 207.513 337.096C206.407 337.413 205.32 337.362 203.933 336.925H203.933ZM275.972 333.128C275.458 333.069 274.858 332.859 274.637 332.661C274.416 332.462 273.936 332.171 273.568 332.014C272.606 331.604 271.975 331.182 270.741 330.126C270.14 329.612 269.212 328.858 268.68 328.452C267.269 327.376 262.62 321.727 262.62 321.089C262.62 320.938 262.874 320.734 263.184 320.636C263.624 320.497 264.039 320.742 265.075 321.753C265.805 322.466 266.822 323.676 267.335 324.441C268.551 326.257 270.988 328.681 273.705 330.78C274.233 331.187 275.18 331.504 276.471 331.704C279.518 332.178 281.226 331.735 284.195 329.702C286.096 328.399 286.1 328.393 286.128 325.319C286.139 324.033 286.386 323.449 286.917 323.449C288.189 323.449 288.374 326.075 287.256 328.26C286.852 329.049 286.281 329.822 285.987 329.976C285.693 330.13 284.817 330.715 284.038 331.277C282.016 332.736 278.877 333.456 275.972 333.128ZM276.908 330.66C276.62 330.194 277.046 329.798 277.463 330.143C277.668 330.313 277.77 330.56 277.69 330.69C277.495 331.005 277.111 330.991 276.908 330.66ZM138.706 281.813C138.339 281.747 137.711 281.384 137.31 281.005C136.435 280.178 136.491 279.752 137.832 277.077C138.657 275.43 140.568 273.235 141.204 273.204C141.33 273.199 141.79 272.893 142.227 272.526C143.133 271.762 143.513 271.684 143.513 272.259C143.513 272.479 143.398 272.659 143.257 272.659C142.328 272.659 138.832 277.845 138.651 279.492C138.569 280.242 138.772 280.373 140.642 280.786C141.046 280.875 141.377 281.113 141.377 281.315C141.377 281.944 140.423 282.122 138.706 281.813ZM278.672 280.29C274.649 277.789 272.156 274.796 274.098 274.796C274.421 274.796 275.459 275.611 276.647 276.799C277.749 277.901 278.824 278.801 279.037 278.801C279.25 278.801 279.554 278.559 279.714 278.26C279.874 277.962 280.126 277.794 280.274 277.886C280.442 277.99 280.379 278.238 280.107 278.539C279.506 279.202 279.943 279.973 281.321 280.676C282.408 281.23 282.75 282.006 281.908 282.006C281.647 282.006 280.191 281.234 278.672 280.29ZM126.47 280.779C126.518 280.54 127.136 280.159 127.874 279.911C129.429 279.39 129.803 278.801 128.58 278.801C127.916 278.801 127.389 278.438 125.887 276.949C124.11 275.186 123.617 274.311 124.353 274.221C124.537 274.199 124.868 274.169 125.088 274.154C125.334 274.138 125.539 273.769 125.622 273.194C125.732 272.423 125.868 272.259 126.396 272.259C126.9 272.259 127.121 272.487 127.429 273.327C127.645 273.915 127.899 274.813 127.994 275.324C128.102 275.906 128.389 276.363 128.761 276.549C129.088 276.712 129.577 277.046 129.847 277.29C130.491 277.872 130.776 277.85 131.389 277.167C132.236 276.225 134.73 274.75 135.182 274.923C135.502 275.046 135.163 275.53 133.749 276.969C132.28 278.465 131.393 279.098 129.457 280.03C126.798 281.31 126.339 281.426 126.47 280.779ZM235.91 280.712C235.907 280.469 235.832 279.82 235.741 279.269L235.576 278.268H236.949C237.705 278.268 238.579 278.117 238.89 277.934C239.875 277.354 240.719 276.393 240.719 275.852C240.719 275.565 240.826 275.33 240.957 275.33C241.088 275.33 241.273 274.909 241.369 274.396C241.466 273.881 241.648 273.461 241.775 273.461C241.901 273.461 242.088 272.859 242.188 272.124C242.393 270.64 243.107 269.516 243.639 269.845C243.859 269.981 243.916 270.342 243.803 270.888C243.328 273.2 243.329 273.485 243.807 274.013C244.406 274.674 243.949 275.371 243.281 274.816C242.945 274.538 242.816 274.643 242.469 275.474C242.241 276.018 242.055 276.629 242.055 276.831C242.055 277.034 241.936 277.199 241.792 277.199C241.647 277.199 241.364 277.59 241.165 278.068C240.966 278.545 240.604 279.1 240.36 279.301C240.117 279.503 239.918 279.898 239.918 280.178C239.918 280.79 239.732 280.857 237.582 281.025C236.155 281.136 235.912 281.09 235.91 280.712ZM269.561 280.702C269.561 280.572 269.831 280.394 270.162 280.305C271.045 280.068 271.163 280.096 271.163 280.538C271.163 280.804 270.896 280.938 270.362 280.938C269.921 280.938 269.561 280.831 269.561 280.702ZM273.361 279.286C273.526 278.791 274.101 278.708 274.101 279.18C274.101 279.413 273.91 279.602 273.678 279.602C273.445 279.602 273.303 279.46 273.361 279.286ZM258.671 276.617C258.497 276.444 257.883 276.054 257.306 275.75C256.035 275.08 250.6 269.122 250.6 268.398C250.6 268.239 250.893 267.975 251.251 267.812C251.816 267.554 252.043 267.626 252.958 268.352C253.539 268.812 254.104 269.188 254.214 269.188C254.323 269.188 254.944 269.678 255.592 270.275C256.24 270.873 257.131 271.488 257.57 271.641C258.404 271.932 258.487 272.464 257.721 272.613C257.476 272.66 256.896 272.509 256.432 272.277C255.203 271.665 255.179 271.977 256.369 273.081C257.957 274.556 258.948 275.275 259.991 275.711C260.898 276.089 260.985 276.077 261.846 275.441C262.343 275.074 262.952 274.38 263.199 273.898C263.447 273.417 263.839 272.865 264.071 272.672C264.303 272.479 264.718 271.814 264.991 271.193C265.587 269.848 267.29 268.413 267.748 268.871C267.969 269.092 267.926 269.217 267.583 269.348C267.328 269.447 266.83 270.142 266.478 270.893C265.248 273.514 263.789 275.729 262.9 276.329C261.899 277.003 259.239 277.185 258.671 276.617ZM156.332 276.398C156.332 276.252 156.459 276.131 156.614 276.131C156.77 276.131 156.823 276.252 156.733 276.398C156.642 276.545 156.514 276.665 156.449 276.665C156.385 276.665 156.332 276.545 156.332 276.398ZM156.354 274.423C156.183 274.217 155.358 273.777 154.518 273.447C152.67 272.717 151.463 271.637 150.712 270.036C150.232 269.015 150.17 268.517 150.296 266.676C150.377 265.488 150.527 264.214 150.628 263.846C150.909 262.828 151.859 261.431 153.226 260.024C153.906 259.325 154.463 258.581 154.463 258.372C154.463 258.161 154.686 257.871 154.959 257.725C155.233 257.578 155.881 257.033 156.402 256.514C156.921 255.993 157.524 255.568 157.739 255.568C157.984 255.568 158.191 255.199 158.292 254.581C158.418 253.801 158.322 253.423 157.832 252.779C157.491 252.33 157.059 251.482 156.872 250.895C156.685 250.307 156.292 249.113 155.998 248.239L155.464 246.652L156.298 245.907C156.758 245.497 157.133 245 157.133 244.803C157.133 244.268 158.718 241.977 159.306 241.663C159.991 241.296 159.743 240.979 158.605 240.765C158.089 240.669 157.668 240.505 157.669 240.402C157.674 240.092 161.041 238.274 161.991 238.068C162.478 237.962 163.216 237.635 163.633 237.34C164.536 236.702 166.586 236.399 166.872 236.861C167.121 237.264 166.354 238.117 165.564 238.315C164.756 238.518 159.066 244.671 158.554 245.894C158.323 246.447 158.221 247.187 158.312 247.643C158.399 248.078 158.341 248.59 158.183 248.78C157.979 249.027 157.982 249.285 158.196 249.684C158.588 250.416 159.002 250.134 159.002 249.135C159.002 248.258 159.708 247.773 160.09 248.386C160.323 248.76 160.254 250.009 159.924 251.344C159.79 251.889 159.921 252.289 160.475 253.013C160.875 253.538 161.363 253.967 161.562 253.967C161.759 253.967 162.049 254.206 162.206 254.5C162.599 255.234 163.128 255.169 163.505 254.341C163.772 253.756 163.736 253.511 163.281 252.774C162.646 251.747 162.56 250.495 163.126 250.495C163.337 250.495 163.579 250.606 163.663 250.742C163.746 250.878 164.39 250.959 165.092 250.923C166.22 250.867 166.515 250.712 167.637 249.59C168.335 248.893 169.051 248.366 169.228 248.421C169.406 248.476 169.776 248.976 170.051 249.532C170.636 250.711 172.419 251.643 174.006 251.596C174.889 251.571 174.999 251.643 175.074 252.3C175.137 252.842 175.328 253.055 175.809 253.123C176.807 253.264 180.099 249.605 180.099 248.356C180.099 248.05 180.402 247.497 180.772 247.128C181.142 246.758 181.37 246.334 181.28 246.187C181.189 246.041 181.277 245.718 181.475 245.471C181.887 244.954 182.297 244.246 183.094 242.664C183.403 242.051 183.868 241.368 184.126 241.148C184.386 240.928 184.637 240.398 184.685 239.97C184.759 239.307 184.654 239.155 183.972 238.941C183.531 238.803 182.429 238.402 181.522 238.05C179.656 237.324 178.883 237.247 178.683 237.769C178.582 238.033 178.115 238.099 176.918 238.018C175.417 237.917 175.292 237.951 175.292 238.46C175.292 238.764 175.172 239.012 175.025 239.012C174.878 239.012 174.758 238.841 174.758 238.633C174.758 238.425 174.691 238.08 174.61 237.868C174.503 237.59 174.837 237.357 175.795 237.044C176.528 236.804 177.354 236.608 177.631 236.608C177.908 236.608 178.407 236.294 178.741 235.91C179.257 235.316 179.495 235.236 180.324 235.372C180.862 235.462 181.571 235.536 181.902 235.536C182.387 235.54 182.503 235.69 182.503 236.316C182.503 237.002 182.648 237.142 183.752 237.518C185.295 238.044 185.818 238.053 186.228 237.559C186.403 237.348 186.699 237.232 186.883 237.303C187.945 237.711 191.259 235.044 191.749 233.387C191.914 232.828 192.305 232.047 192.617 231.65C192.929 231.253 193.184 230.762 193.184 230.56C193.184 230.208 194.733 228.621 195.092 228.605C195.314 228.594 194.831 230.758 194.53 231.123C194.403 231.276 194.086 231.937 193.824 232.593C193.307 233.885 193.04 234.267 191.516 235.88C190.965 236.462 190.514 237.046 190.514 237.175C190.514 237.383 187.96 238.676 186.704 239.104C186.445 239.193 186.115 239.538 185.971 239.872C185.826 240.206 185.598 240.661 185.462 240.881C185.326 241.102 184.944 242.003 184.611 242.884C184.279 243.765 183.728 244.934 183.387 245.482C183.047 246.03 182.77 246.578 182.77 246.699C182.77 247.142 180.995 250.432 180.04 251.762C179.481 252.541 178.51 253.445 177.777 253.87C177.071 254.279 176.356 254.794 176.189 255.015C175.938 255.345 175.812 255.355 175.467 255.069C175.234 254.876 174.81 254.8 174.504 254.898C174.197 254.994 173.957 254.952 173.957 254.798C173.957 254.331 171.628 252.898 170.868 252.898C170.005 252.898 169.438 252.241 169.426 251.229C169.421 250.825 169.303 250.495 169.163 250.495C168.718 250.495 167.547 252.258 167.547 252.926C167.547 253.341 167.332 253.667 166.947 253.837C166.46 254.05 166.363 254.274 166.438 255.015L166.53 255.93L165.847 255.482C165.471 255.236 165.099 255.035 165.02 255.035C164.669 255.035 164.923 256.78 165.343 257.243C165.786 257.733 165.781 257.777 165.209 258.241C164.518 258.8 164.401 259.842 165.028 259.842C165.338 259.842 165.424 260.064 165.362 260.709C165.295 261.398 165.402 261.631 165.878 261.841C166.528 262.126 166.635 262.384 166.212 262.646C165.818 262.889 165.889 263.937 166.337 264.531C166.553 264.816 166.733 265.315 166.739 265.641C166.742 265.966 166.987 266.361 167.281 266.518C167.583 266.68 167.815 267.077 167.815 267.434C167.815 267.78 167.995 268.133 168.215 268.217C168.883 268.473 168.714 269.455 168.002 269.455C167.664 269.455 167.273 269.345 167.134 269.211C166.994 269.077 166.58 268.926 166.212 268.878C165.73 268.812 165.524 268.602 165.466 268.12C165.332 266.99 164.812 265.886 164.026 265.065C163.613 264.633 163.275 263.997 163.275 263.65C163.275 262.729 162.597 261.568 161.677 260.913C160.994 260.426 160.916 260.258 161.159 259.803C161.318 259.508 161.604 259.327 161.798 259.401C162.022 259.487 162.206 259.245 162.31 258.726C162.502 257.768 162.335 257.406 161.798 257.612C161.509 257.723 161.406 257.559 161.406 256.986C161.406 256.241 161 255.569 160.551 255.569C160.433 255.569 160.337 255.785 160.337 256.049C160.337 256.665 159.831 257.171 159.216 257.171C158.702 257.171 158.653 257.333 158.731 258.735L158.781 259.631L157.489 259.455C155.984 259.25 155.994 259.243 153.763 261.844C151.615 264.349 151.024 266.549 151.863 268.922C152.224 269.941 153.995 271.859 154.576 271.859C154.776 271.859 155.009 272.039 155.093 272.259C155.178 272.48 155.568 272.66 155.959 272.66C156.716 272.66 157.934 273.739 157.934 274.409C157.934 274.91 156.767 274.919 156.354 274.423ZM244.726 273.461C244.726 273.314 244.846 273.193 244.993 273.193C245.14 273.193 245.26 273.314 245.26 273.461C245.26 273.607 245.14 273.727 244.993 273.727C244.846 273.727 244.726 273.607 244.726 273.461ZM278.74 272.742C278.429 272.681 277.896 272.337 277.558 271.977C277.221 271.618 276.829 271.324 276.687 271.324C276.172 271.324 273.951 269.027 273.332 267.854C272.619 266.503 270.401 263.274 269.997 263.001C269.853 262.904 269.353 263.113 268.887 263.468C268.367 263.866 267.683 264.114 267.11 264.114C265.607 264.114 263.114 263.527 262.965 263.137C262.889 262.94 262.718 262.779 262.585 262.779C262.452 262.779 261.22 262.237 259.849 261.574C258.476 260.91 257.066 260.4 256.714 260.438C256.224 260.492 256.094 260.395 256.157 260.021C256.272 259.354 255.697 258.729 255.134 258.908C254.737 259.034 254.695 258.932 254.844 258.205C255.174 256.589 255.91 256.678 258.466 258.639C258.752 258.86 259.099 259.04 259.236 259.04C259.374 259.04 259.76 259.311 260.096 259.641C261.315 260.839 262.304 261.431 263.562 261.712C265.706 262.193 267.861 261.449 268.007 260.178C268.085 259.503 268.199 259.434 269.353 259.359C270.332 259.297 270.733 259.126 271.155 258.589C271.453 258.21 271.697 257.748 271.697 257.564C271.697 257.379 271.877 257.158 272.098 257.074C272.318 256.989 272.498 256.675 272.498 256.374C272.498 255.839 272.864 255.032 273.469 254.233C273.636 254.012 273.837 253.411 273.917 252.898C274.417 249.657 275.237 248.091 276.433 248.091C277.024 248.091 277.064 248.167 276.896 248.959C276.795 249.436 276.545 250.017 276.341 250.248C276.137 250.48 275.97 250.984 275.97 251.367C275.97 251.752 275.868 252.128 275.742 252.206C275.616 252.284 275.24 253.163 274.906 254.158C274.571 255.154 274.142 256.06 273.953 256.172C273.763 256.283 273.469 256.824 273.299 257.373C272.877 258.743 272.19 260.112 271.63 260.691C271.031 261.313 271.043 261.661 271.7 262.645C271.993 263.086 272.474 263.818 272.768 264.273C273.062 264.727 273.632 265.247 274.035 265.431C275.39 266.047 277.018 267.182 277.028 267.519C277.033 267.702 276.737 267.852 276.371 267.852C275.995 267.852 275.702 268.008 275.702 268.206C275.702 268.844 278.098 271.072 279.369 271.617L280.616 272.152L281.682 271.404C282.423 270.883 282.916 270.238 283.298 269.292C283.6 268.544 284.012 267.734 284.212 267.493C284.414 267.253 284.606 266.693 284.641 266.247C284.735 265.046 284.99 264.994 285.204 266.133C285.52 267.82 284.215 270.883 282.653 272.12C281.644 272.92 280.54 273.096 278.74 272.742ZM245.703 272.482C245.385 272.163 245.512 271.995 246.347 271.625C246.799 271.425 247.241 271.065 247.329 270.826C247.605 270.074 248.471 269.688 248.454 270.322C248.444 270.742 247.412 271.884 246.646 272.326C245.974 272.712 245.94 272.718 245.703 272.482ZM248.329 269.188C248.239 269.041 248.292 268.921 248.448 268.921C248.602 268.921 248.73 269.041 248.73 269.188C248.73 269.335 248.677 269.455 248.613 269.455C248.547 269.455 248.42 269.335 248.329 269.188ZM184.371 268.003C184.371 267.11 184.396 267.089 185.269 267.231C185.763 267.311 186.412 267.246 186.71 267.086C187.126 266.863 187.326 266.884 187.571 267.179C187.996 267.691 187.645 268.2 186.984 268.027C186.408 267.877 185.172 268.333 185.172 268.697C185.172 268.82 184.991 268.921 184.772 268.921C184.493 268.921 184.371 268.641 184.371 268.003ZM249.264 268.387C249.264 268.24 249.384 268.12 249.531 268.12C249.678 268.12 249.798 268.24 249.798 268.387C249.798 268.533 249.678 268.654 249.531 268.654C249.384 268.654 249.264 268.533 249.264 268.387ZM248.997 267.341C248.997 267.012 249.169 266.784 249.417 266.784C249.666 266.784 249.803 266.966 249.751 267.23C249.621 267.9 248.997 267.992 248.997 267.341ZM181.367 267.258C179.472 266.863 179.758 266.41 181.758 266.636C183.533 266.837 183.837 266.939 183.837 267.334C183.837 267.637 183.071 267.613 181.367 267.258ZM188.911 267.318C188.911 267.172 189.151 267.051 189.445 267.051C189.739 267.051 189.979 267.172 189.979 267.318C189.979 267.466 189.739 267.586 189.445 267.586C189.151 267.586 188.911 267.466 188.911 267.318ZM190.246 267.051C190.246 266.905 190.367 266.784 190.513 266.784C190.66 266.784 190.78 266.905 190.78 267.051C190.78 267.199 190.66 267.318 190.513 267.318C190.367 267.318 190.246 267.199 190.246 267.051ZM251.133 266.292C251.133 265.936 252.185 265.077 252.381 265.273C252.478 265.37 252.432 265.449 252.277 265.449C252.123 265.449 251.934 265.689 251.858 265.983C251.723 266.499 251.133 266.75 251.133 266.292ZM193.294 265.794C193.421 265.389 193.246 265.089 192.589 264.585C192.108 264.217 190.715 262.931 189.493 261.729C188.27 260.527 187.138 259.587 186.978 259.64C186.806 259.697 186.9 259.951 187.206 260.256C187.493 260.542 188.074 261.292 188.497 261.923C188.921 262.553 189.457 263.18 189.69 263.316C190.034 263.518 189.993 263.565 189.471 263.572C188.708 263.581 186.35 261.102 185.018 258.888C184.543 258.101 183.588 256.736 182.896 255.854C181.543 254.133 181.497 253.608 182.671 253.313C183.476 253.111 184.104 253.643 184.104 254.527C184.104 254.804 184.56 255.206 185.251 255.542C185.917 255.864 187.34 257.104 188.656 258.508C191.199 261.223 192.338 261.936 194.651 262.263C196.053 262.461 196.425 262.411 197.604 261.872C199.316 261.089 201.312 259.066 202.746 256.661C203.362 255.628 203.871 254.689 203.876 254.575C203.881 254.46 204.117 253.886 204.401 253.298C204.684 252.711 204.921 252.119 204.926 251.984C204.931 251.848 205.119 251.535 205.343 251.288C205.715 250.876 205.662 250.77 204.742 250.083C203.644 249.263 202.292 247.827 202.275 247.462C202.269 247.336 201.959 246.993 201.587 246.7C201.129 246.34 200.961 246.008 201.068 245.672C201.172 245.343 201.039 245.06 200.676 244.833C200.374 244.645 200.128 244.327 200.128 244.128C200.128 243.928 199.767 243.428 199.326 243.017C198.834 242.557 198.525 242.001 198.525 241.574C198.525 241.193 198.408 240.881 198.263 240.881C197.861 240.881 194.485 237.413 194.642 237.161C194.821 236.87 196.929 237.914 197.109 238.383C197.191 238.6 197.659 238.744 198.279 238.744C199.218 238.744 199.406 238.873 200.387 240.202C200.978 241.003 201.463 241.786 201.463 241.943C201.463 242.101 201.766 242.344 202.135 242.484C202.505 242.625 202.923 243.042 203.064 243.413C203.204 243.783 203.426 244.085 203.556 244.085C203.687 244.085 204.489 244.752 205.337 245.568C206.406 246.594 207.012 246.996 207.31 246.872C208.349 246.443 208.674 246.435 208.674 246.842C208.674 247.508 209.054 247.574 210.478 247.151C211.564 246.828 212.051 246.466 213.074 245.223C213.767 244.38 214.577 243.209 214.874 242.619C215.169 242.03 215.556 241.368 215.734 241.148C215.912 240.926 216.347 239.871 216.702 238.8C217.211 237.264 217.478 236.82 217.963 236.697C218.301 236.613 218.653 236.618 218.743 236.708C218.976 236.941 218.877 238.807 218.621 238.992C218.309 239.216 216.952 241.94 216.952 242.343C216.952 243.091 215.116 245.645 213.206 247.553C211.125 249.633 208.766 251.15 208.044 250.872C207.543 250.68 206.27 251.869 206.27 252.531C206.27 252.783 206.11 253.179 205.914 253.411C205.719 253.643 205.345 254.413 205.083 255.121C204.822 255.829 204.441 256.473 204.237 256.551C204.033 256.629 203.867 256.925 203.867 257.208C203.867 257.49 203.263 258.348 202.527 259.115C201.79 259.882 200.858 260.854 200.457 261.277C198.989 262.824 197.948 263.435 196.547 263.576C195.411 263.691 195.187 263.801 195.187 264.247C195.187 264.545 195.453 264.898 195.788 265.045C196.822 265.498 196.519 266.011 195.254 265.951C194.63 265.922 193.895 265.995 193.621 266.114C193.206 266.295 193.151 266.242 193.294 265.794ZM210.281 248.928L210.998 248.492L209.561 248.514C208.088 248.535 207.398 248.877 207.733 249.419C207.965 249.794 209.271 249.542 210.281 248.928ZM206.418 248.867C206.669 248.462 206.021 247.331 205.43 247.144C205.163 247.059 204.436 246.517 203.816 245.938C203.195 245.36 202.592 244.887 202.476 244.887C201.891 244.887 202.42 245.907 203.799 247.437C205.276 249.077 206.033 249.49 206.418 248.867ZM253.179 264.182C252.951 263.812 253.834 262.248 254.273 262.247C254.8 262.243 254.663 262.951 253.982 263.742C253.596 264.19 253.288 264.358 253.179 264.182ZM254.874 261.443C254.874 261.297 254.993 261.176 255.14 261.176C255.288 261.176 255.408 261.297 255.408 261.443C255.408 261.59 255.288 261.711 255.14 261.711C254.993 261.711 254.874 261.59 254.874 261.443ZM258.929 257.421C258.993 257.229 259.203 257.018 259.396 256.954C259.596 256.887 259.697 256.988 259.63 257.187C259.566 257.38 259.356 257.591 259.163 257.655C258.963 257.722 258.862 257.622 258.929 257.421ZM286.046 255.94C285.956 255.851 286.014 255.568 286.173 255.313C286.352 255.027 286.381 254.549 286.248 254.074C285.963 253.051 286.098 250.235 286.463 249.56C286.743 249.046 286.761 249.05 286.944 249.693C287.258 250.798 287.209 254.268 286.866 255.216C286.549 256.092 286.362 256.256 286.046 255.94ZM161.274 251.849C161.311 250.236 161.56 249.889 161.948 250.911C162.326 251.906 162.182 253.009 161.66 253.107C161.325 253.171 161.25 252.926 161.274 251.849ZM153.264 252.098C153.355 251.952 153.543 251.831 153.681 251.831C153.818 251.831 153.932 251.952 153.932 252.098C153.932 252.246 153.744 252.366 153.516 252.366C153.286 252.366 153.174 252.246 153.264 252.098ZM217.372 247.576C216.811 246.955 217.025 246.491 217.874 246.491C218.616 246.491 219.214 247.128 218.997 247.689C218.782 248.253 217.931 248.193 217.372 247.576ZM275.306 245.844C272.626 245.27 270.9 244.3 270.9 243.367C270.9 243.118 270.697 243.06 270.232 243.176C269.678 243.315 269.564 243.248 269.564 242.781C269.564 242.471 269.796 241.987 270.079 241.704C270.361 241.422 270.726 240.941 270.889 240.636C271.052 240.331 271.362 240.081 271.577 240.081C271.792 240.081 271.967 239.901 271.967 239.681C271.967 239.227 272.387 239.144 272.637 239.549C272.728 239.697 272.626 239.886 272.409 239.969C272.193 240.053 271.942 240.411 271.853 240.768C271.764 241.125 271.573 241.417 271.429 241.417C270.806 241.417 271.2 242.657 271.967 243.11C272.408 243.37 272.769 243.695 272.769 243.831C272.769 244.565 276.515 245.258 276.921 244.6C277.02 244.441 277.372 244.379 277.703 244.462C278.122 244.568 278.528 244.41 279.024 243.95C279.417 243.585 279.914 243.286 280.126 243.286C280.661 243.286 282.496 241.347 283.033 240.214C283.5 239.229 284.088 238.999 284.354 239.696C284.624 240.399 283.852 241.744 282.214 243.419C279.832 245.857 278.14 246.452 275.306 245.844ZM213.863 227.934C212.06 227.365 211.018 226.719 209.589 225.286C207.56 223.253 204.803 219.163 205.116 218.651C205.475 218.062 206.242 218.585 207.076 219.986C208.936 223.113 211.51 226.03 212.946 226.637C214.488 227.289 217.223 226.57 217.223 225.512C217.223 225.292 217.404 225.041 217.624 224.956C217.844 224.872 218.025 224.583 218.025 224.312C218.025 223.5 218.482 223.476 219.095 224.256C219.559 224.846 219.641 225.202 219.505 226.051C219.298 227.345 219.135 227.538 218.782 226.908C218.531 226.459 218.474 226.456 218.033 226.856C217.44 227.392 215.606 228.341 215.231 228.305C215.079 228.291 214.463 228.123 213.863 227.934ZM206.987 218.273C206.655 217.94 206.807 217.678 207.751 216.958C208.958 216.038 209.223 216.301 208.301 217.508C207.582 218.452 207.319 218.605 206.987 218.273ZM244.889 214.333C244.361 213.536 243.929 212.742 243.929 212.565C243.929 212.389 243.666 211.48 243.345 210.546C243.025 209.611 242.839 208.769 242.933 208.675C243.289 208.319 243.946 208.855 244.1 209.626C244.188 210.066 244.426 210.565 244.628 210.732C244.831 210.901 244.997 211.318 244.997 211.658C244.997 212.36 245.902 213.109 246.751 213.109C247.421 213.109 248.202 213.89 248.202 214.561C248.202 214.911 248.079 214.983 247.734 214.836C246.884 214.473 245.798 214.378 245.798 214.666C245.798 214.821 245.918 215.021 246.065 215.113C246.398 215.318 246.416 215.78 246.091 215.78C245.958 215.78 245.417 215.128 244.889 214.333Z" fill="black"/>
<path id="path6220" d="M119.83 278.296C121.809 279 123.669 280.326 126.683 280.003C135.68 274.121 147.389 262.997 150.565 246.792L154.174 240.029C153.109 250.822 144.045 273.402 126.788 281.301C123.415 281.352 121.741 279.706 119.83 278.295V278.296Z" fill="black"/>
<path id="path6224" opacity="0.27729" d="M186.568 325.638L198.071 324.829C192.531 328.04 189.617 333.449 188.294 341.068C183.037 371.351 189.94 415.583 187.01 448.551L172.001 442.887C175.637 413.616 175.421 366.655 179.875 340.553C181.368 331.801 183.866 329.705 186.568 325.638Z" fill="white"/>
<path id="path6258" d="M125.648 263.112L151.4 246.803C146.48 260.373 139.172 272.199 127.651 280.947C122.257 274.914 124.285 270.61 125.648 263.112Z" fill="url(#paint0_linear)"/>
<path id="path6262" opacity="0.53448" d="M115.288 268.471C125.556 272.348 136.613 265.196 147.573 259.393L144.224 271.665C161.883 266.263 168.529 259.027 178.142 252.285L194.53 271.066L188.733 274.398L189.932 280.371L182.432 284.898C178.624 293.459 176.763 302.142 178.696 311.062L182.006 317.686L174.163 316.559C171.708 310.357 173.718 305.493 174.636 300.303C174.343 294.41 172.663 288.715 174.636 282.498L173.541 269.14C159.037 277.615 144.379 285.72 126.347 285.736C120.014 280.511 118.271 274.367 115.288 268.471Z" fill="black"/>
<path id="path6264" opacity="0.40948" d="M274.068 227.834L279.252 231.649C264.881 249.263 250.512 267.316 236.142 282.498L214.934 282.307C239.659 268.049 258.482 249.201 274.068 227.834Z" fill="black"/>
<path id="path6266" opacity="0.40948" d="M172.208 310.419C181.522 314.176 195.672 313.95 211.05 312.714L212.678 306.299L216.715 309.19L216.31 312.255C216.022 313.98 217.142 314.717 218.638 315.194C231.076 316.878 243.611 317.098 256.303 314.973C258.933 314.362 259.507 313.237 260.026 312.098L260.151 292.786L264.864 289.16L264.623 311.997C270.694 312.703 277.507 313.066 288.204 311.633V338.341C275.874 325.667 188.699 323.652 169.509 338.341L174.404 317.033L172.208 310.419Z" fill="black"/>
<path id="path6268" d="M218.831 292.583C219.196 288.627 221.758 287.727 225.03 287.814L256.291 287.876C258.537 287.985 260.322 288.554 260.174 291.057L217.016 307.462L218.831 292.583Z" fill="url(#paint1_linear)"/>
<path id="path6272" opacity="0.375" d="M167.083 406.581C167.797 415.806 166.799 425.245 172.916 433.794C190.092 446.074 209.027 444.886 228.34 440.785C229.044 402.173 237.316 371.897 242.345 361.53C236.521 393.934 234.932 420.962 238.299 453.248C209.637 456.475 183.799 454.309 163.037 442.458L167.083 406.581Z" fill="black"/>
<path id="path6274" opacity="0.375" d="M251.788 370.449C263.898 389.281 274.744 411.06 284.699 434.923C283.551 444.336 281.961 447.349 274.178 454.077C271.788 425.355 262.746 397.742 251.788 370.45V370.449Z" fill="black"/>
<path id="path6276" opacity="0.375" d="M244.24 355.708C253.378 375.288 262.919 395.005 267.809 418.833L262.571 419.188C259.236 399.107 252.664 380.465 244.77 362.413C242.366 380.687 238.602 398.377 242.991 419.562L237.227 418.753C236.126 398.598 239.638 377.29 244.241 355.71L244.24 355.708Z" fill="black"/>
<path id="path6290" opacity="0.27729" d="M201.651 325.959H208.548C186.999 362.871 202.226 409.682 199.107 451.553L190.591 450.203C193.374 407.633 187.379 353.846 201.651 325.958V325.959Z" fill="black"/>
<path id="path6142" d="M171.951 155.469L179.297 154.423L331.052 143.06L344.741 154.527L346.088 160.188C349.818 167.721 356.246 174.804 354.018 183.33C354.781 188.492 355.813 192.846 356.933 196.935C359.395 200.934 365.604 205.068 367.01 209.066C367.934 211.695 365.174 214.188 363.575 216.818C366.791 219.872 371.225 222.657 372.107 225.711C372.985 228.753 370.325 232.065 367.458 235.107L367.174 237.531C369.733 240.803 376.624 243.107 377.32 247.078C377.953 250.687 374.083 258.174 370.835 260.389L372.666 277.636C375.162 312.729 377.664 349.298 385.605 381.969C388.435 393.615 391.739 406.327 396.168 417.14C403.511 435.064 414.113 452.35 419.398 468.202C415.742 466.664 411.761 464.79 407.568 464.894C403.959 464.984 400.947 467.934 397.182 468.596C395.319 468.924 392.917 467.878 390.868 467.254C381.188 464.306 371.636 457.477 363.466 456.068C356.541 454.873 350.016 460.861 343.507 464.648C338.199 467.739 332.568 470.232 328.763 471.786C305.386 481.34 280.814 484.008 265.568 474.523C272.717 468.769 274.402 462.954 277.022 457.496C281.619 447.92 285.855 438.249 287.621 423.848C290.953 396.686 289.033 362.46 288.094 329.44C287.156 296.449 287.197 264.664 289.58 236.408C281.453 233.952 275.95 228.137 269.316 221.503C260.864 213.048 255.976 204.69 240.005 199.598L221.184 204.106C201.246 219.938 183.547 243.733 155.175 230.822C152.5 219.583 152.917 210 150 196.935C151.369 195.421 155.16 192.196 153.75 187.917C160.551 181.936 158.671 167.788 168.561 165.932C168.498 161.729 169.179 159.32 171.954 155.471L171.951 155.469Z" fill="#81836D"/>
<path id="path6144" opacity="0.25216" d="M349.678 166.741C349.849 174.388 349.763 181.887 344.996 186.712C346.594 193.337 343.904 193.526 341.374 198.086C348.367 207.741 362.151 209.794 359.544 215.197C358.555 217.247 353.061 222.174 345.346 224.266C352.075 227.465 366.792 226.529 363.318 233.946C361.773 237.242 350.638 242.329 345.688 244.77C350.896 247.665 368.672 249.295 366.774 254.934C365.917 257.48 360.796 259.672 348.233 260.142L361.311 268.988C369.607 313.521 375.02 379.883 388.726 416.632C393.534 429.526 405.417 445.624 414.964 466.386C416.487 466.952 417.964 467.595 419.395 468.197C414.11 452.344 403.512 435.064 396.17 417.14C391.741 406.327 388.435 393.609 385.605 381.964C377.665 349.294 375.165 312.723 372.67 277.63L370.834 260.389C374.083 258.174 377.951 250.686 377.318 247.078C376.622 243.107 369.737 240.803 367.178 237.531L367.463 235.102C370.329 232.06 372.989 228.747 372.111 225.706C371.228 222.652 366.789 219.872 363.573 216.818C365.172 214.189 367.936 211.694 367.012 209.065C365.606 205.066 359.393 200.93 356.93 196.932C355.81 192.842 354.78 188.491 354.018 183.328C355.591 177.314 352.853 172.014 349.795 166.771L349.678 166.741Z" fill="black"/>
<path id="path6284" opacity="0.13793" d="M360.807 370.396C363.233 369.47 365.958 370.244 371.569 387.372C379.204 416.794 388.736 443.474 402.851 463.52C395.682 469.266 388.844 463.557 379.973 459.775C372.491 432.092 365.951 400.415 360.807 370.396L360.807 370.396Z" fill="black"/>
<path id="path6286" opacity="0.13793" d="M321.834 393.389C324.13 383.452 329.723 377.142 337.094 372.788C335.208 404.866 332.597 437.379 340.528 463.585C318.718 475.992 298.631 479.785 279.87 476.937C301.389 455.678 316.576 428.877 321.834 393.389V393.389Z" fill="black"/>
<path id="path6288" opacity="0.14847" d="M303.445 198.063C314.949 208.82 326.767 208.748 335.814 205.975C328.391 211.316 318.548 211.45 309.11 208.854L303.445 198.063Z" fill="black"/>
</g>
<g id="warrior head">
<path id="path6132" d="M237.429 41.0973L256.742 41.6695C277.227 49.5635 291.226 68.0059 301.043 92.4089C287.461 105.784 272.729 115.792 255.849 119.523C236.813 114.997 215.752 115.294 201.663 98.989C207.417 70.3666 222.377 51.31 237.429 41.0953V41.0973Z" fill="#919191"/>
<path id="path6134" d="M262.018 60.2135C264.367 77.3666 266.751 94.5156 269.378 111.628C280.389 107.061 289.965 99.5339 298.178 91.0326C292.817 78.403 285.9 66.1042 275.91 56.5215C271.248 52.058 265.889 48.1917 259.989 45.3992C260.665 50.3369 261.341 55.2744 262.016 60.2122L262.018 60.2135ZM234.645 45.8011C218.729 58.4651 208.514 77.3288 204.319 97.0319C213.273 104.056 223.564 109.981 234.979 111.486C235.286 89.4948 235.211 67.5 235.012 45.5087L234.803 45.6748L234.645 45.8007V45.8011Z" fill="url(#paint2_radial)"/>
<path id="path6146" opacity="0.39009" d="M331.043 143.064L179.291 154.423L171.948 155.466C171.075 156.675 170.412 157.744 169.911 158.77C175.334 158.483 175.463 160.033 177.605 162.217C180.703 165.372 185.666 167.246 189.915 164.612C189.957 178.078 195.712 183.635 201.798 188.188C200.942 186.643 200.009 184.598 199.729 182.88L201.59 183.931C203.496 188.754 207.201 193.329 211.286 194.071C213.668 199.643 215.849 206.863 218.573 209.535C218.533 211.619 218.953 213.096 219.473 214.434C215.593 219.098 216.429 228.871 220.058 235.221C223.196 240.714 228.686 242.684 231.782 248.165C235.577 244.365 241.828 241.322 244.609 234.053C246.398 229.378 246.547 224.227 242.123 215.768C241.489 213.576 240.132 211.143 238.368 208.575C239.169 206.71 239.684 203.129 240.111 199.019C245.252 196.216 251.412 190.964 257.461 185.984C263.782 190.835 271.01 195.145 279.994 198.402C280.476 203.967 283.089 205.154 283.832 210.327C281.849 213.482 281.942 216.443 282.881 219.333C283.79 222.36 284.018 225.813 287.472 227.452C289.638 231.352 296.547 233.422 301.317 238.484C299.872 233.86 304.446 232.751 305.581 229.346C306.917 225.339 307.921 220.924 308.853 216.411C309.052 210.982 306.347 207.921 303.687 204.827C303.035 200.828 303.106 195.144 301.55 193.261C312.644 184.187 320.242 172.783 320.952 156.801L323.923 155.891C328.188 158.163 331.271 160.605 333.671 163.143C336.952 161.882 338.934 159.709 339.546 156.584C339.141 153.146 337.019 150.742 335.374 148.047C338.093 149.658 340.7 151.697 342.859 155.549C343.679 155.68 344.431 155.917 345.138 156.217L344.737 154.531L331.043 143.064Z" fill="black"/>
<path id="path6150" d="M197.261 118.173L307.491 114.841C310.516 114.646 312.03 116.779 312.723 120.173C318.525 128.714 325.035 131.768 331.539 134.872C335.863 137.456 342.945 138.008 342.932 143.789C344.737 148.911 345.564 152.727 345.846 155.819C343.7 154.342 341.718 152.623 338.889 152.171C336.832 148.494 334.343 146.542 331.752 145.003C333.321 147.577 335.344 149.878 335.73 153.161C335.147 156.145 333.258 158.215 330.132 159.42C327.845 156.996 324.909 154.665 320.845 152.495L318.009 153.367C317.332 168.628 310.094 179.516 299.524 188.182C301.007 189.98 300.941 195.41 301.562 199.23C304.096 202.184 306.677 205.102 306.486 210.286C305.598 214.596 304.637 218.812 303.363 222.639C302.282 225.89 297.923 226.953 299.3 231.369C294.756 226.535 288.177 224.556 286.113 220.831C282.823 219.266 282.605 215.973 281.739 213.081C280.843 210.322 280.749 207.489 282.64 204.477C281.932 199.536 279.448 198.404 278.988 193.09C270.427 189.98 263.54 185.866 257.518 181.233C251.754 185.989 245.881 191.003 240.984 193.68C240.577 197.605 240.086 201.024 239.322 202.805C241.003 205.258 242.298 207.583 242.901 209.676C247.117 217.753 246.972 222.672 245.267 227.137C242.616 234.077 236.666 236.985 233.05 240.614C230.099 235.378 224.868 233.5 221.877 228.256C218.419 222.191 217.617 212.854 221.315 208.4C220.818 207.122 220.424 205.709 220.461 203.719C217.866 201.167 215.782 194.279 213.513 188.958C209.62 188.25 206.091 183.883 204.275 179.277L202.506 178.27C202.772 179.911 203.657 181.863 204.474 183.339C198.676 178.991 193.191 173.682 193.151 160.824C189.102 163.339 184.378 161.548 181.426 158.534C179.071 156.129 179.277 154.536 171.343 155.502C171.331 150.964 171.908 147.533 174.09 144.953C178.261 140.022 184.366 137.188 191.502 133.899C193.319 128.385 194.089 120.077 197.26 118.173H197.261Z" fill="#BABE9A"/>
<path id="path6152" opacity="0.39009" d="M195.939 117.758L308.864 114.135L312.414 119.434C310.505 120.842 309.086 122.494 308.257 124.441L305.996 122.303C300.699 138.6 292.73 146.424 275.538 145.982C270.956 145.199 268.189 146.503 265.875 148.235L255.436 161.214L240.266 150.383C236.432 147.72 233.642 148.815 230.664 149.232C213.129 151.303 201.406 135.947 195.582 121.28L195.939 117.758Z" fill="black"/>
<path id="path6154" d="M237.11 40.8136C240.079 37.5777 243.536 35.5663 247.266 34.2343C251.219 35.9769 254.67 38.3733 257.353 41.7673C260.78 66.8281 264.039 90.9981 267.681 114.587C278.267 110.893 290.746 102.286 300.547 91.6016L302.417 92.6224C305.695 99.3789 308.57 106.258 309.334 113.77C302.472 126.863 295.6 137.33 285.955 141.476C280.132 143.98 272.76 143.357 264.99 142.542C261.721 146.483 258.297 149.958 254.583 152.553C248.921 150 243.832 147.415 239.054 144.333C219.874 150.102 204.933 137.294 196.102 115.773L201.343 98.013C201.622 98.2031 201.967 97.9206 202.246 98.1107C211.906 105.718 223.204 112.702 237.091 113.857C237.471 89.431 237.341 65.0886 237.113 40.8137L237.11 40.8136Z" fill="#F8F6DF"/>
<path id="path6168" d="M212.469 119.428C216.325 122.084 220.659 124.777 224.362 127.534C227.887 130.16 230.79 132.856 234.117 135.142L232.837 136.018C227.832 134.018 223.95 134.923 216.723 130.71C214.359 126.76 212.926 122.996 212.469 119.428Z" fill="#CCAC9D"/>
<path id="path6170" d="M292.678 117.903C288.822 120.559 284.083 123.117 280.381 125.875C276.855 128.5 273.212 130.859 269.883 133.144L271.637 133.818C276.641 131.819 280.389 132.387 287.615 128.173C290.383 124.831 292.221 121.471 292.678 117.902L292.678 117.903Z" fill="#CCAC9D"/>
<path id="path6186" d="M231.609 146.773L234.279 146.488C234.279 146.488 226.798 158.309 222.405 156.973C226.917 154.132 230.16 149.568 231.609 146.773Z" fill="black"/>
<path id="path6188" d="M274.791 144.336L270.785 143.858C270.785 143.858 278.267 149.432 283.613 149.432C279.626 147.592 277.623 146.795 274.791 144.336Z" fill="black"/>
<path id="path6190" d="M241.672 147.012L243.389 148.061C243.389 148.061 235.191 162.027 230.798 161.932C234.929 158.327 240.223 149.805 241.672 147.012Z" fill="black"/>
<path id="path6192" d="M266.111 143.572L264.395 144.621C265.564 147.109 274.07 160.114 280.179 158.779C275.811 157.559 267.942 149.465 266.111 143.572Z" fill="black"/>
<path id="path6194" d="M197.632 153.551C195.957 155.378 194.485 158.318 194.31 161.21L192.02 161.019C192.371 158.191 194.277 155.15 197.632 153.551Z" fill="black"/>
<path id="path6196" d="M313.064 138.007C316.647 145.079 316.689 150.498 316.864 153.391L319.154 153.2C318.803 150.372 317.279 141.99 313.065 138.007H313.064Z" fill="black"/>
<path id="path6198" d="M305.141 122.272L306.942 120.316C309.473 124.958 311.117 129.008 310.425 131.502C309.061 128.425 308.199 125.348 305.141 122.272Z" fill="black"/>
<path id="path6200" d="M246.862 36.2738L248.009 36.3412C249.576 51.2902 252.442 82.6211 251.668 95.2123L246.862 36.2738Z" fill="black"/>
<path id="path6202" d="M252.196 96.9258L257.182 147.484L254.839 150.727L252.196 96.9258Z" fill="black"/>
<path id="path6230" opacity="0.34052" d="M249.731 38.5982L251.638 40.3149C254.813 74.4466 257.861 108.789 262.512 140.458L258.317 144.846C254.432 112.09 252.089 75.3275 249.733 38.5975L249.731 38.5982Z" fill="black"/>
<path id="path6234" opacity="0.34052" d="M282.159 109.08L287.214 106.027L289.693 116.996L285.974 119.285L282.159 109.08Z" fill="black"/>
<path id="path6236" opacity="0.34052" d="M289.025 129.587L291.6 125.39L292.649 133.402L290.742 135.691L289.025 129.587Z" fill="black"/>
<path id="path6238" opacity="0.34052" d="M203.229 102.297L205.927 104.05L202.42 124.282L198.914 117.875L203.229 102.297Z" fill="black"/>
<path id="path6240" opacity="0.56466" d="M206.602 104.591L209.705 106.613L206.332 130.217L203.905 125.497L206.602 104.591Z" fill="white"/>
<path id="path6242" opacity="0.56466" d="M239.241 41.4593L242.865 38.7888C242.591 75.1745 244.195 110.15 245.917 145.038L240.004 141.413C239.414 108.096 238.837 74.7787 239.241 41.4591V41.4593Z" fill="white"/>
<path id="path6246" opacity="0.35991" d="M313.719 138.81L315.021 143.425C315.819 164.075 309.119 173.276 293.273 181.263C295.682 185.256 298.311 194.008 296.795 200.349C303.748 210.08 300.438 215.432 295.735 220.604C289.418 218.945 282.013 213.714 285.788 203.788C282.37 199.281 280.37 189.831 281.248 183.809C271.214 183.378 262.914 180.268 256.187 174.938C252.224 179.697 244.505 183.882 235.039 185.453C235.454 191.995 234.809 198.997 233.087 204.113C244.923 219.404 234.586 219.851 232.235 228.398C228.237 223.295 217.261 219.275 225.534 208.035C224.639 205.864 223.511 204.013 223.556 200.499C220.059 194.938 216.671 189.349 217.398 182.732C210.24 178.863 206.692 171.269 199.714 165.549L198.712 170.506C195.007 165.227 195.853 158.812 199.33 151.738L193.571 155.926C183.048 159.15 180.646 149.982 171.582 151.237C171.408 152.538 171.344 153.953 171.347 155.502C179.282 154.536 179.073 156.134 181.429 158.539C184.381 161.553 189.105 163.341 193.154 160.826C193.195 173.685 198.68 178.994 204.478 183.342C203.662 181.867 202.775 179.917 202.509 178.276L204.279 179.277C206.094 183.883 209.623 188.249 213.516 188.958C215.786 194.278 217.865 201.169 220.46 203.72C220.421 205.711 220.823 207.125 221.319 208.402C217.623 212.857 218.421 222.191 221.878 228.256C224.869 233.5 230.102 235.38 233.053 240.615C236.668 236.986 242.62 234.078 245.271 227.137C246.976 222.673 247.117 217.755 242.901 209.679C242.297 207.585 241.002 205.263 239.321 202.811C240.085 201.029 240.583 197.606 240.99 193.681C245.887 191.003 251.758 185.994 257.522 181.238C263.545 185.87 270.426 189.979 278.986 193.089C279.445 198.402 281.933 199.538 282.641 204.479C280.75 207.492 280.845 210.324 281.74 213.083C282.606 215.975 282.822 219.271 286.113 220.836C288.177 224.561 294.754 226.533 299.298 231.367C297.923 226.952 302.281 225.89 303.362 222.639C304.636 218.812 305.596 214.598 306.484 210.288C306.674 205.104 304.095 202.184 301.56 199.23C300.939 195.411 301.006 189.979 299.524 188.181C310.094 179.515 317.332 168.627 318.009 153.363L320.846 152.495C324.91 154.665 327.847 156.997 330.134 159.422C333.261 158.217 335.151 156.148 335.734 153.163C335.347 149.88 333.322 147.574 331.754 145.001C334.345 146.54 336.832 148.492 338.889 152.17C341.717 152.622 343.703 154.341 345.849 155.816C345.567 152.726 344.742 148.913 342.936 143.791C342.939 142.402 342.53 141.313 341.852 140.428L339.131 145.327C337.687 143.029 333.269 142.354 329.124 141.529C329.26 144.913 331.722 148.958 327.923 151.218C323.716 149.671 318.169 143.027 313.719 138.809V138.81Z" fill="black"/>
<path id="path6232" opacity="0.34052" d="M291.577 102.839L298.457 97.1732C302.02 102.038 304.375 107.87 306.145 114.169L298.052 127.387C296.86 118.928 295.26 110.586 291.577 102.839Z" fill="black"/>
</g>
</g>
<defs>
<linearGradient id="paint0_linear" x1="165.226" y1="273.991" x2="119.079" y2="265.766" gradientUnits="userSpaceOnUse">
<stop/>
<stop offset="1" stop-opacity="0"/>
</linearGradient>
<linearGradient id="paint1_linear" x1="216.151" y1="241.544" x2="235.033" y2="300.482" gradientUnits="userSpaceOnUse">
<stop/>
<stop offset="1" stop-opacity="0"/>
</linearGradient>
<radialGradient id="paint2_radial" cx="0" cy="0" r="1" gradientUnits="userSpaceOnUse" gradientTransform="translate(247.785 57.3494) rotate(89.9998) scale(48.8669 48.0175)">
<stop stop-color="white"/>
<stop offset="1" stop-color="white" stop-opacity="0"/>
</radialGradient>
</defs>
</svg>
