<svg width="763" height="768" viewBox="0 0 763 768" fill="none" xmlns="http://www.w3.org/2000/svg">
<g id="viking 2">
<g id="viking 1">
<g id="warrior legs">
<path id="path6118" d="M292.853 631.359L420.447 641.028L425.396 746.753C410.733 750.674 399.962 749.892 389.075 749.251L343.245 755.936C318.148 760.209 281.474 757.321 260.254 755.836C255.518 752.07 250.836 748.285 254.061 741.847C262.481 732.324 271.671 722.973 276.772 712.708L292.853 631.359Z" fill="#3E3936"/>
<path id="path6122" d="M281.541 682.674L341.65 698.056C367.604 705.431 398.861 735.296 393.457 749.62C376.847 751.044 360.735 753.473 345.289 757.239C336.052 744.941 324.052 735.889 312.521 728.909C300.254 721.485 289.08 714.849 274.555 712.851C273.027 709.771 270.962 706.826 272.402 702.999L281.541 682.674Z" fill="#C8BEB7"/>
<path id="path6124" d="M357.881 643.992C375.789 646.546 393.362 650.67 412.839 645.857L417.779 680.456C398.699 684.056 379.365 682.793 359.737 675.898L357.881 643.992Z" fill="#C8BEB7"/>
<path id="path6126" opacity="0.375" d="M252.863 746.539C277.66 750.136 302.266 754.754 328.65 749.834C324.252 742.379 316.419 734.349 308.833 726.36C324.124 728.538 336.908 737.021 348.928 747.43C358.765 741.874 368.814 739.494 379.2 742.216C381.16 728.161 371.056 716.536 359.496 705.203C375.129 710.803 392.645 720.178 398.866 736.546L413.078 702.918L422.609 697.646L424.462 748.096L340.171 756.467C313.43 759.437 286.101 757.675 258.834 756.383L252.863 746.539Z" fill="black"/>
<path id="path6138" d="M466.147 693.707L564.395 690.972L585.343 711.287C590.915 721.35 600.102 731.96 598.587 740.954C598.343 746.554 597.434 751.752 593.348 755.032C549.581 758.606 508.066 756.292 466.146 755.032C458.562 751.034 459.298 741.451 456.976 733.921L466.147 693.707Z" fill="#3E3936"/>
<path id="path6140" d="M457.565 736.326C499.518 713.649 539.765 672.18 587.567 713.912C595.328 725.393 603.66 736.888 597.463 747.99C596.969 743.478 583.593 735.113 565.927 728.799C553.816 724.468 549.566 719.767 529.532 721.22C520.009 721.911 507.511 728.605 496.124 733.473C478.874 740.847 463.801 747.825 462.511 753.409C458.544 748.416 457.684 742.482 457.562 736.326H457.565Z" fill="#C8BEB7"/>
<path id="path6278" opacity="0.375" d="M361.793 643.173L408.312 645.659L413.152 665.382C405.198 660.059 372.396 657.996 362.62 663.062L361.793 643.173Z" fill="black"/>
<path id="path6280" opacity="0.375" d="M362.026 672.666C381.937 679.027 399.312 679.681 415.44 675.009L417.186 687.461C399.85 692.106 380.765 689.208 363.919 685.117L362.026 672.666Z" fill="black"/>
<path id="path6282" opacity="0.375" d="M467.833 735.219C494.78 726.961 520.449 715.98 546.692 701.001C563.402 700.513 575.263 711.007 589.213 716.76C593.961 730.671 604.217 746.346 592.997 755.142H460.843L585.385 748.87L586.898 745.057C574.528 734.477 555.519 727.349 543.392 720.104C559.648 721.51 575.401 726.899 589.893 733.297L584.088 722.429C571.375 716.273 557.251 704.415 546.971 706.587C523.525 719.552 490.196 733.361 467.831 735.219H467.833Z" fill="black"/>
</g>
<path id="path6114" d="M176.339 404.5L282.515 375.538L407.277 464.996L434.057 680.554C434.057 680.554 412.46 683.996 385.305 681.55C377.413 680.84 370.748 675.837 361.907 674.806C321.536 670.097 274.258 661.71 236.852 642.016C224.946 635.748 221.635 614.523 214.107 605.714C205.509 595.653 199.635 603.58 191.903 597.894C183.854 591.976 189.224 577.106 177.022 571.784C163.95 566.083 152.496 570.161 140.828 568.724C131.46 567.572 123.194 565.263 118.076 559.661C138.893 553.112 146.628 534.619 153.157 512.132C160.876 485.542 166.887 453.138 169.815 419.174C169.129 410.684 172.427 407.204 176.339 404.499V404.5Z" fill="#37392B"/>
<g id="warrior arm">
<path id="path6112" d="M619.515 139.507L467.661 165.251L475.772 191.807L622.664 166.744C625.483 159.973 624.095 142.74 619.514 139.507H619.515ZM269.967 217.075L240.117 222.527L240.292 247.306L267.466 244.114L269.967 217.075ZM152.169 238.205L74.8495 254.186C69.1944 262.386 75.3255 281.821 85.1743 280.42C110.699 274.755 140.032 267.736 170.625 260.271C162.628 253.275 156.654 245.884 152.17 238.205H152.169Z" fill="#6A644E"/>
<path id="path6156" d="M175.056 388.195L209.901 386.545C203.89 389.792 193.04 396.846 185.192 398.912C182.493 396.402 175.836 391.416 175.056 388.196V388.195Z" fill="#A16D65"/>
<path id="path6158" d="M213.999 183.405C204.797 183.133 193.255 186.321 189.768 188.835L188.784 193.5C185.812 195.05 183.704 194.203 181.603 193.348C165.631 202.557 140.715 208.142 134.182 221.179C130.613 228.849 124.866 238.125 123.566 244.114L152.166 238.204C156.652 245.884 162.625 253.274 170.621 260.271C153.909 264.349 137.606 268.287 122.062 271.95C122.094 272.323 122.124 272.695 122.158 273.068C123.215 276.978 125.357 279.483 127.739 281.677L133.512 291.201C132.373 292.815 130.538 295.254 130.027 296.913C128.517 301.815 130.468 306.104 131.742 311.208L126.876 317.11C128.151 321.184 131.53 324.696 135.552 328.024C133.081 343.08 139.494 354.305 143.817 366.435C155.188 377.544 166.668 389.092 175.615 391.546C184.223 392.164 193.29 391.214 199.699 390.426C206.68 387.981 210.795 389.485 215.904 386.353C217.572 385.329 218.961 382.323 220.597 380.253C222.834 377.421 225.133 375.329 225.456 373.21C230.402 364.433 233.289 353.823 233.149 340.484C234.439 324.389 231.9 307.747 222.366 290.563C223.357 289.455 223.254 287.857 222.532 285.528L219.378 271.192C229.368 263.206 243.833 252.451 242.158 241.997C240.428 231.95 242.067 215.384 233.987 217.606C232.863 213.731 234.32 206.866 232.986 200.959C231.394 193.903 226.84 187.895 223.097 185.559C220.833 184.146 217.599 183.51 213.997 183.404L213.999 183.405Z" fill="#3E3936"/>
<path id="path6160" d="M210.018 269.708C199.574 269.571 189.21 272.972 177.349 274.861C165.116 276.809 151.481 276.622 140.447 276.508C134.727 275.392 131.244 278.56 127.727 281.661C127.733 281.667 127.736 281.672 127.74 281.676L133.512 291.2C132.374 292.813 130.539 295.251 130.028 296.91C128.517 301.812 130.469 306.102 131.742 311.205L126.877 317.107C128.152 321.181 131.53 324.694 135.553 328.023C135.537 328.122 135.523 328.218 135.506 328.316C154.056 337.663 190.118 328.963 222.743 291.24C222.619 291.013 222.493 290.789 222.367 290.563C223.358 289.455 223.255 287.857 222.534 285.527L219.38 271.191C219.468 271.121 219.565 271.039 219.654 270.968C216.407 270.124 213.206 269.75 210.02 269.708H210.018Z" fill="#C8BEB7"/>
<path id="path6162" d="M436.308 55.1346C494.503 24.1081 557.272 15.2284 625.041 30.5843C617.217 47.2354 609.408 62.6433 605.217 80.106C601.03 97.543 600.456 117.032 602.598 135.881L611.543 134.552L614.872 175.53C592.547 178.6 571.737 181.144 555.646 182.06L550.883 145.216L561.396 142.57C559.531 102.863 556.505 93.0129 536.796 85.5113C521.591 79.7251 491.284 84.1349 474.461 93.6575C466.315 81.3976 452.107 68.3683 436.306 55.1365L436.308 55.1346Z" fill="#8C9CA9"/>
<path id="path6164" d="M459.041 57.846C504.229 42.0842 552.374 35.8726 606.092 47.6494C596.604 77.3753 593.263 107.275 592.52 137.251L582.933 119.962C582.891 111.555 584.513 101.003 582.673 94.4095C580.301 85.9133 573.377 82.4761 562.303 82.7562C540.396 68.9449 510.019 68.3161 480.852 78.2949L459.041 57.846Z" fill="#C9D0D7"/>
<path id="path6166" d="M563.703 152.407L601.745 145.718L603.313 167.745L563.881 172.05L563.703 152.407Z" fill="#C9D0D7"/>
<path id="path6204" d="M146.715 231.468C149.985 230.856 151.634 234.254 153.657 236.728L149.683 238.17C149.011 236.191 148.425 234.278 146.715 231.468Z" fill="black"/>
<path id="path6206" d="M174.24 260.983C178.027 263.104 181.308 262.431 184.264 259.972C190.344 260.687 197.005 262.616 197.705 252.114L193.754 247.029L195.566 245.733C199.017 250.568 202.465 255.434 205.993 259.396L199.126 253.175C199.073 255.355 198.107 260.769 195.551 261.715C192.318 262.911 187.356 261.917 184.65 261.789C182.623 262.917 180.344 264.573 178.059 264.428C174.242 264.183 171.143 263.269 169.587 261.681L174.24 260.983Z" fill="black"/>
<path id="path6208" d="M231.61 215.869L233.144 219.955C221.522 220.715 214.487 222.639 207.675 224.619C206.145 228.005 204.637 241.08 207.205 245.723C209.507 249.887 218.231 250.172 222.916 250.651L222.422 252.269C217.697 254.747 213.665 254.73 210.017 253.339C213.136 253.4 214.999 252.657 216.857 251.91C210.31 250.807 206.334 248.924 204.817 244.906C202.449 238.638 203.468 227.977 204.649 221.373C212.481 219.154 221.07 217.187 231.61 215.871V215.869Z" fill="black"/>
<path id="path6210" d="M163.618 289.604C168.736 292.568 179.569 290.656 185.455 289.71L183.894 290.838C174.888 292.774 165.079 294.492 157.408 290.381L163.618 289.604Z" fill="black"/>
<path id="path6212" d="M153.992 311.187C161.528 312.704 168.352 310.761 174.803 307.009C178.024 305.81 180.368 305.946 182.436 306.5C172.587 310.062 163.004 315.619 152.3 312.797L153.992 311.187Z" fill="black"/>
<path id="path6214" d="M135.535 304.813L135.975 309.332L133.001 312.616L131.548 309.363L135.535 304.813Z" fill="black"/>
<path id="path6216" d="M218.652 274.26L218.87 277.48C214.091 282.607 208.038 287.764 205.264 292.846L203.367 294.346C206.378 287.14 213.228 282.261 218.652 274.26Z" fill="black"/>
<path id="path6244" opacity="0.48922" d="M622.598 36.3051C608.26 67.825 598.252 100.443 603.398 136.905L610.785 135.108L612.466 152.604L622.46 152.634L624.018 166.689L614.977 168.283L615.747 175.921L554.261 182.635L553.371 178.295L482.903 192.156L473.993 180.371L471.387 163.652L490.881 161.356L498.337 179.297L537.362 172.415L541.379 158.555L550.138 149.7L563.07 156.234L564.134 162.655L601.506 161.533L600.71 152.746L608.078 152.14L606.314 141.454L597.915 140.614L594.794 137.49L577.487 138.86C586.379 94.6088 596.197 51.8739 622.598 36.3062V36.3051Z" fill="black"/>
<path id="path6248" opacity="0.35991" d="M126.299 236.388L145.688 228.586C155.516 238.07 164.039 246.213 176.339 254.296C182.134 252.636 187.945 251.183 194.003 253.746L198.591 244.506C197.753 236.681 197.079 219.83 210.391 219.887C209.494 229.034 210.194 236.163 212.713 240.986C221.634 243.226 230.91 244.042 241.062 241.363L241.506 233.208L260.492 232.337L255.994 245.247L242.596 247.337L219.883 270.772L125.726 279.341L120.471 272.616L85.1508 280.52C78.4864 280.524 76.9095 274.996 73.9333 270.99C79.3374 272.675 85.7469 273.283 95.6465 270.157L154.581 255.245C148.969 252.631 145.439 248.703 141.399 245.097L121.764 242.492L126.299 236.388Z" fill="black"/>
<path id="path6250" opacity="0.35991" d="M127.731 317.107C163.576 327.686 193.236 311.32 220.305 283.667L223.169 293.21L224.242 297.498C202.68 327.73 164.808 355.471 134.658 349.262L134.897 328.314L127.731 317.107Z" fill="black"/>
<path id="path6252" opacity="0.35991" d="M137.103 285.632C156.203 288.924 175.178 289.678 193.929 285.791L190.362 288.177C176.821 293.952 160.456 293.617 143.318 291.611L137.103 285.632Z" fill="black"/>
<path id="path6254" opacity="0.35991" d="M143.51 308.9C158.839 310.767 173.953 308.337 188.519 303.434L184.837 306.042C174.517 312.389 151.491 313.59 145.811 312.746L143.51 308.9Z" fill="black"/>
<path id="path6256" opacity="0.35991" d="M233.422 330.314C220.217 355.514 204.534 366.632 188.423 373.587C174.454 379.621 157.804 373.856 142.325 362.433C142.839 363.759 143.34 365.084 143.818 366.426C155.189 377.535 166.67 389.083 175.616 391.537C184.224 392.155 193.29 391.212 199.7 390.424C206.681 387.98 210.797 389.476 215.905 386.344C217.573 385.32 218.962 382.314 220.599 380.244C222.835 377.412 225.135 375.32 225.458 373.201C230.403 364.424 233.29 353.814 233.15 340.475C233.421 337.111 233.516 333.727 233.422 330.314Z" fill="black"/>
<path id="path6228" opacity="0.34052" d="M438.566 53.1267C487.374 25.9656 542.834 11.5171 613.518 26.1952L604.049 32.8247C549.752 21.5314 497.125 24.9704 447.208 52.2993L438.566 53.1267Z" fill="white"/>
</g>
<g id="warrior chest">
<path id="path6120" d="M356.931 527.377H416.022L412.237 642.963C392.267 644.769 374.961 645.425 358.825 641.938L356.931 527.377Z" fill="#81836D"/>
<path id="path6128" d="M170.578 387.924L229.725 340.027L362.381 294.217L457.842 359.805L456.677 689.573C444.285 693.151 431.625 698.877 419.956 696.631C416.784 677.711 415.186 657.953 409.456 638.639C400.35 607.945 385.694 574.543 374.689 546.486C359.528 594.822 357.895 643.942 363.879 694.666C341.852 704.416 259.823 698.735 249.17 676.389C252.54 654.803 253.692 616.691 255.821 584.479C258.941 537.258 262.28 493.908 267.644 486.349L265.176 412.191C259.15 422.026 248.817 425.152 234.246 431.086C219.207 437.21 202.285 441.249 191.701 437.951C175.18 422.935 175.463 404.978 170.576 387.924H170.578Z" fill="#715858"/>
<path id="path6130" d="M271.435 432.676C279.704 428.641 290.291 423.242 299.605 417.279C313.724 408.238 327.305 396.234 339.582 383.645C349.952 373.01 364.531 364.063 374.4 351.762C382.278 341.943 386.391 327.272 390.403 316.657L424.159 350.634C398.751 382.286 373.831 415.517 344.709 435.162L271.435 432.676Z" fill="#3E3936"/>
<path id="path6172" d="M268.552 431.224C288.019 429.169 301.98 434.716 326.517 432.032L404.512 438.323C415.674 437.664 426.208 436.373 439.184 437.54L441.242 488.818C429.332 492.545 416.573 491.415 403.506 488.535L321.709 490.313C300.74 490.774 284.364 488.538 267.936 486.331C265.511 484.288 263.375 481.981 263.922 477.219L264.441 440.795C264.36 436.582 265.89 433.503 268.554 431.223L268.552 431.224Z" fill="#3E3936"/>
<path id="path6178" d="M434.862 448.108C438.075 453.262 441.616 458.09 442.991 465.096C441.593 471.215 438.213 475.341 434.656 479.287C428.614 474.975 422.525 470.711 418.086 464.785C423.155 458.277 428.436 452.157 434.862 448.108Z" fill="#C9D0D7"/>
<path id="path6222" d="M326.074 439.912C326.963 435.579 329.737 432.971 334.893 432.544C355.072 433.958 374.761 436.077 397.537 433.759C402.769 433.565 404.183 436.893 404.805 440.954L405.106 482.834C404.017 487.398 402.756 491.759 397.105 490.967C375.273 493.458 353.439 495.071 331.605 491.77C326.52 491.959 322.142 491.178 322.421 484.041L326.074 439.912Z" fill="#C3B594"/>
<path id="path6176" d="M292.43 445.417C298.437 447.087 302.432 451.967 305.149 458.881C299.678 465.766 295.975 475.08 287.799 478.254C283.282 474.07 278.322 467.485 275.449 460.54C278.81 455.026 286.073 449.107 292.43 445.417Z" fill="#C9D0D7"/>
<path id="path6182" d="M391.738 364.252C393.923 370.547 389.023 378.897 388.651 383.52C384.988 382.906 378.83 381.645 374.859 383.624C372.01 379.621 373.742 371.421 372.596 365.599C380.134 361.992 387.886 361.775 391.738 364.252Z" fill="#C9D0D7"/>
<path id="path6184" d="M292.988 693.585C290.718 693.038 288.171 690.898 285.37 687.182C284.045 685.426 281.959 682.924 280.733 681.622C279.507 680.32 278.504 679.167 278.504 679.058C278.504 678.638 281.594 678.916 282.175 679.388C283.092 680.134 287.062 685.036 287.062 685.422C287.062 685.825 289.434 688.802 291.231 690.655C292.766 692.237 294.671 692.449 295.823 691.168C296.228 690.716 296.733 690.347 296.943 690.347C297.584 690.347 299.597 688.676 303.711 684.728C309.616 679.058 310.83 678.191 312.821 678.221C313.877 678.237 314.572 678.459 314.69 678.817C314.832 679.242 314.623 679.323 313.873 679.133C312.988 678.909 312.204 679.574 307.415 684.613C304.418 687.767 301.648 690.347 301.262 690.347C300.875 690.347 300.447 690.529 300.309 690.752C299.863 691.479 296.584 693.577 295.581 693.777C295.042 693.884 293.876 693.798 292.989 693.585H292.988ZM275.855 691.466C273.928 690.78 267.068 687.357 266.824 686.961C266.316 686.132 267.247 686.157 269.441 687.028C273.019 688.452 273.766 688.772 274.428 689.167C274.765 689.368 275.315 689.641 275.652 689.773C275.987 689.905 276.629 690.163 277.077 690.347C277.526 690.532 278.213 690.787 278.606 690.913C278.997 691.039 279.319 691.333 279.319 691.565C279.319 692.095 277.471 692.041 275.855 691.466ZM333.722 691.314C331.681 690.849 329.863 689.553 327.499 686.88C324.538 683.533 322.108 680.275 322.108 679.653C322.108 679.415 321.676 678.263 321.148 677.093C319.641 673.754 319.207 672.183 319.666 671.722C320.442 670.94 320.058 669.437 318.441 666.917C317.544 665.521 316.81 664.159 316.81 663.89C316.81 663.622 316.444 663.068 315.995 662.66C314.93 661.688 314.966 661.294 316.155 660.993C317.35 660.691 318.99 661.499 322.566 664.147C324.05 665.247 325.37 666.147 325.498 666.147C325.627 666.147 326.797 666.766 328.098 667.524C331.564 669.544 332.903 669.701 334.338 668.256C335.022 667.567 335.607 666.435 335.767 665.49C336.109 663.473 336.567 661.795 337.24 660.102C337.71 658.921 337.685 658.716 337.008 658.217C336.519 657.857 336.404 657.56 336.689 657.384C336.932 657.233 337.251 657.306 337.399 657.546C337.7 658.038 338.816 657.311 338.816 656.621C338.816 655.84 341.793 651.38 342.314 651.38C343.177 651.38 343.422 652.201 342.784 652.945C342.101 653.738 340.854 657.3 340.854 658.456C340.854 658.883 340.41 660.004 339.867 660.946C339.324 661.889 338.567 663.767 338.186 665.121C336.987 669.368 336.196 670.564 334.231 671.1C332.779 671.497 332.139 671.453 330.258 670.829C328.185 670.14 324.05 667.827 321.747 666.068C321.213 665.66 320.616 665.326 320.423 665.326C319.881 665.326 320.005 667.028 320.601 667.756C320.892 668.111 321.359 669.326 321.639 670.454C321.919 671.581 322.505 673.256 322.942 674.172C323.38 675.09 323.738 676.129 323.738 676.481C323.738 676.833 324.013 677.352 324.349 677.632C324.686 677.914 324.96 678.45 324.96 678.825C324.96 679.904 328.925 685.441 331.222 687.569C333.565 689.738 334.577 689.951 336.6 688.691C338.017 687.811 339.231 685.684 340.236 682.324C341.019 679.7 342.297 677.632 343.134 677.632C343.634 677.632 343.733 677.879 343.542 678.647C343.402 679.205 343.169 680.812 343.023 682.216C342.878 683.62 342.515 685.24 342.216 685.815C341.918 686.391 341.673 687.254 341.671 687.734C341.668 688.726 341.111 689.275 339.015 690.35C337.416 691.171 335.012 691.608 333.722 691.315V691.314ZM273.842 685.466C273.492 684.897 273.94 683.374 274.456 683.374C274.931 683.374 274.941 684.623 274.473 685.367C274.226 685.759 274.039 685.787 273.842 685.466ZM263.222 683.785C263.079 683.552 263.421 683.374 264.013 683.374C264.587 683.374 265.056 683.56 265.056 683.785C265.056 684.01 264.7 684.195 264.265 684.195C263.829 684.195 263.36 684.01 263.222 683.785ZM422.635 683.108C422.201 682.671 422.308 681.323 422.777 681.323C423.379 681.323 423.759 682.537 423.3 682.999C423.087 683.213 422.788 683.261 422.635 683.108ZM274.555 681.597C273.883 680.739 273.555 680.66 271.299 680.824C269.465 680.957 268.548 680.837 267.894 680.376C267.402 680.028 266.745 679.843 266.435 679.963C266.124 680.083 265.87 680.015 265.87 679.812C265.87 679.462 261.054 673.441 259.369 671.684C258.937 671.233 258.392 670.356 258.161 669.736C257.93 669.116 257.572 668.608 257.369 668.608C256.752 668.608 256.438 672.055 256.879 673.981C257.106 674.973 257.296 676.477 257.303 677.323C257.31 678.505 257.652 679.24 258.785 680.502C260.058 681.92 260.149 682.144 259.447 682.144C259 682.144 258.406 681.867 258.127 681.528C257.848 681.19 257.368 680.914 257.059 680.914C256.75 680.914 256.496 680.581 256.496 680.175C256.496 679.77 256.318 679.258 256.101 679.039C255.883 678.82 255.61 677.814 255.494 676.803C255.151 673.823 254.79 672.125 254.387 671.616C254.179 671.354 254.088 669.937 254.183 668.467C254.279 666.999 254.188 665.628 253.984 665.421C253.757 665.194 253.854 664.841 254.23 664.527C254.689 664.143 254.744 663.811 254.441 663.242C254.155 662.702 254.187 662.211 254.552 661.591C254.956 660.902 254.96 660.667 254.575 660.526C254.302 660.426 253.961 659.72 253.82 658.956C253.617 657.873 253.86 656.932 254.927 654.684C255.679 653.099 256.409 651.8 256.549 651.796C256.69 651.793 256.713 652.608 256.601 653.608C256.489 654.607 256.601 656.008 256.846 656.719C257.167 657.644 257.173 658.891 256.869 661.087C256.509 663.698 256.542 664.31 257.092 665.153C257.448 665.7 257.988 666.147 258.292 666.147C258.597 666.147 259.643 667.393 260.615 668.915C263.262 673.057 266.49 676.975 268.292 678.231C269.551 679.11 270.163 679.29 271.147 679.072C272.928 678.679 273.495 677.94 273.815 675.592C274.096 673.535 274.981 672.776 275.503 674.145C275.811 674.952 276.465 674.938 276.465 674.125C276.465 673.775 277.108 672.824 277.892 672.011C278.677 671.199 279.318 670.354 279.318 670.135C279.318 669.791 280.821 666.246 282.868 661.757C283.233 660.959 283.364 659.971 283.203 659.233C283.05 658.531 283.12 657.908 283.369 657.752C284.451 657.079 283.236 653.295 281.399 651.624C280.928 651.194 280.535 650.456 280.528 649.983C280.512 648.883 279.217 647.947 276.271 646.906C274.173 646.163 273.783 646.136 272.565 646.648C271.191 647.227 270.119 647.067 267.583 645.907C264.648 644.563 261.946 640.797 260.618 636.202C260.325 635.187 259.932 634.057 259.746 633.69C259.559 633.322 259.278 632.307 259.121 631.433C258.764 629.441 258.22 628.735 257.275 629.037C256.587 629.256 256.536 628.882 256.523 623.529C256.516 619.944 256.671 617.684 256.939 617.518C257.174 617.372 257.448 617.334 257.546 617.432C257.766 617.654 258.18 623.46 258.146 625.837C258.123 627.405 258.228 627.595 259.245 627.823C259.863 627.963 260.929 628.328 261.615 628.635C262.3 628.942 263.257 629.091 263.737 628.963C264.916 628.653 268.282 631.507 268.303 632.832C268.323 634.248 269.306 636.291 270.504 637.403C271.556 638.378 271.576 638.381 271.576 637.53C271.576 637.052 271.391 636.548 271.168 636.408C270.725 636.132 270.62 632.055 271.018 630.563C271.38 629.201 272.093 629.432 271.792 630.813C271.643 631.492 271.782 632.575 272.118 633.377C272.438 634.141 272.919 635.506 273.186 636.408C273.794 638.458 274.919 640.714 275.336 640.714C275.509 640.714 275.65 640.955 275.65 641.248C275.65 642.609 276.589 642.737 278.059 641.574C278.864 640.938 280.163 640.086 280.948 639.683C282.561 638.852 286.466 636.019 286.841 635.41C286.976 635.188 287.347 635.108 287.664 635.231C287.989 635.356 288.972 634.766 289.926 633.87C291.579 632.319 291.601 632.262 291.016 631.066C290.689 630.395 290.105 629.174 289.721 628.353C289.105 627.04 286.36 624.718 285.424 624.718C285.01 624.718 283.802 622.358 283.802 621.549C283.802 621.229 283.526 620.69 283.19 620.352C282.853 620.013 282.578 619.371 282.578 618.926C282.578 618.456 282.067 617.824 281.359 617.417C280.621 616.995 280.138 616.383 280.135 615.867C280.135 615.4 279.666 614.574 279.095 614.034C277.846 612.852 275.243 608.98 275.243 608.303C275.243 608.037 274.124 606.592 272.757 605.092C271.39 603.59 269.989 601.809 269.644 601.131C269.298 600.454 268.865 599.802 268.679 599.68C268.151 599.334 266.221 595.515 266.455 595.278C266.571 595.163 267.79 595.084 269.165 595.103C270.901 595.127 271.898 595.351 272.427 595.831C273.361 596.684 273.084 597.235 271.721 597.235C271.155 597.235 270.758 597.373 270.84 597.542C272.434 600.893 272.873 601.39 273.43 600.483C273.823 599.843 276.057 602.116 276.06 603.156C276.064 604.48 277.394 606.353 279.255 607.651C280.893 608.792 280.989 608.81 281.753 608.114C282.711 607.241 283.802 607.557 283.802 608.707C283.802 610.898 289.965 608.343 293.003 604.892C295.437 602.127 298.066 598.149 298.328 596.832C298.572 595.598 300.317 593.623 300.764 594.074C301.712 595.027 295.724 605.002 292.677 607.546C290.521 609.344 287.535 610.771 285.929 610.771C285.282 610.771 284.646 610.877 284.518 611.008C284.097 611.43 285.615 613.637 286.328 613.64C286.919 613.643 286.987 613.939 286.79 615.616C286.513 617.978 286.921 618.865 290.924 624.599C291.285 625.115 291.812 625.408 292.148 625.279C293.056 624.928 295.086 626.611 296.583 628.956C297.327 630.122 298.763 631.953 299.773 633.024C301.778 635.151 302.769 635.405 305.158 634.399C306.852 633.687 310.892 629.67 311.705 627.89C312.038 627.16 312.469 626.286 312.661 625.948C312.854 625.609 313.616 624.041 314.353 622.461C316.711 617.416 317.117 616.722 317.787 616.586C318.65 616.411 319.075 617.588 318.43 618.371C318.152 618.71 317.422 620.415 316.809 622.159C315.779 625.097 314.252 628.353 313.036 630.204C312.455 631.087 309.474 633.993 308.291 634.826C307.851 635.136 306.943 635.942 306.273 636.617C305.603 637.291 304.774 637.843 304.432 637.843C302.706 637.843 299.537 636.837 298.502 635.96C297.131 634.799 295.693 634.675 295.352 635.69C294.622 637.862 292.144 642.442 291.514 642.781C291.112 642.998 290.667 643.544 290.525 643.996C290.383 644.447 290.038 644.817 289.758 644.817C288.938 644.817 286.921 647.142 287.455 647.474C287.796 647.686 287.791 647.912 287.439 648.339C286.73 649.199 285.839 649.041 285.839 648.054C285.839 647.391 285.674 647.26 285.125 647.489C284.734 647.654 283.875 647.91 283.221 648.056C281.614 648.417 281.534 648.954 282.891 650.263C283.938 651.273 284.16 651.327 285.595 650.929C286.538 650.666 287.306 650.642 287.531 650.868C288.099 651.439 287.479 652.611 286.609 652.611C285.298 652.611 285.746 653.656 288.08 656.043C289.313 657.304 290.321 658.486 290.321 658.671C290.321 658.856 291.017 659.69 291.867 660.526C293.409 662.042 294.396 662.455 294.396 661.585C294.396 661.266 294.585 661.281 295.008 661.635C295.345 661.915 295.619 662.385 295.619 662.676C295.619 663.645 298.252 664.916 300.261 664.916C301.906 664.916 302.391 664.699 303.925 663.276C306.119 661.239 308.425 657.05 308.089 655.706C307.91 654.986 308.101 654.587 308.866 654.081C309.465 653.687 309.882 653.021 309.882 652.461C309.882 651.698 310.223 651.409 311.614 650.993C315.066 649.958 315.258 649.83 314.757 648.888C314.263 647.96 314.49 646.867 315.176 646.867C315.411 646.867 315.82 647.375 316.083 647.996C316.345 648.616 316.793 649.407 317.077 649.754C317.361 650.1 317.484 650.807 317.351 651.323C317.152 652.084 316.916 652.212 316.091 652.004C315.385 651.826 314.81 651.992 314.21 652.548C313.734 652.988 312.984 653.414 312.541 653.496C311.949 653.604 311.347 654.644 310.263 657.441C309.451 659.53 308.426 661.651 307.984 662.154C307.541 662.659 306.861 663.587 306.472 664.218C304.947 666.687 300.477 668.035 297.977 666.779C297.284 666.431 296.418 666.147 296.053 666.147C295.688 666.147 293.806 664.669 291.873 662.865C289.939 661.06 288.092 659.584 287.772 659.584C286.701 659.584 285.429 661.606 283.771 665.942C283.34 667.069 282.987 668.276 282.987 668.623C282.987 669.62 281.672 671.959 279.704 674.461C276.515 678.518 275.451 680.498 275.992 681.37C276.607 682.36 276.589 682.554 275.884 682.554C275.564 682.554 274.966 682.123 274.555 681.597ZM285.838 656.712C285.838 656.486 285.644 656.302 285.407 656.302C285.169 656.302 285.089 656.486 285.227 656.712C285.366 656.938 285.559 657.123 285.658 657.123C285.757 657.123 285.838 656.938 285.838 656.712ZM283.966 646.349C285.962 645.198 286.696 644.128 285.85 643.597C284.828 642.955 285.778 642.595 286.898 643.199C287.849 643.711 288.016 643.689 288.528 642.984C288.841 642.552 289.098 641.975 289.098 641.701C289.098 641.418 289.424 641.288 289.851 641.4C290.669 641.615 292.766 639.473 292.766 638.422C292.766 637.72 293.506 636.329 294.512 635.137C295.21 634.309 295.207 634.239 294.43 633.291L293.623 632.306L292.911 633.331C292.518 633.896 291.616 634.911 290.906 635.588C290.197 636.265 289.398 637.239 289.132 637.752C288.867 638.267 288.459 638.568 288.225 638.422C287.989 638.277 287.273 638.548 286.631 639.026C285.989 639.503 285.202 639.895 284.883 639.895C284.563 639.895 284.009 640.344 283.652 640.895C283.017 641.867 282.105 642.492 279.447 643.771C277.96 644.486 277.353 645.227 278.255 645.227C278.593 645.227 279.018 645.494 279.198 645.819C279.514 646.385 281.104 647.205 281.967 647.245C282.19 647.256 283.091 646.852 283.966 646.349ZM272.085 644.539C272.653 644.202 272.395 643.378 271.371 642.267C270.81 641.659 270.353 640.887 270.353 640.552C270.353 640.215 269.784 639.607 269.09 639.2C268.3 638.737 267.364 637.536 266.592 635.997C265.913 634.644 265.239 633.445 265.094 633.331C264.95 633.219 264.527 632.644 264.154 632.054C263.332 630.751 261.793 630.204 261.797 631.217C261.802 632.531 264.906 641.011 265.802 642.158C267.362 644.154 269.184 645.227 270.556 644.959C271.229 644.828 271.917 644.639 272.085 644.54V644.539ZM282.578 612.622C282.578 611.366 282.398 611.117 281.102 610.571C279.303 609.815 278.911 609.797 278.911 610.473C278.911 611.251 281.326 614.053 281.996 614.053C282.389 614.053 282.578 613.588 282.578 612.622ZM421.542 679.914C421.542 679.552 421.083 678.525 420.522 677.632C419.494 675.991 419.118 673.12 419.932 673.12C420.44 673.12 421.542 675.619 421.542 676.769C421.542 677.212 421.83 677.864 422.183 678.218C422.535 678.574 422.764 679.172 422.692 679.547C422.519 680.448 421.542 680.759 421.542 679.914ZM425.21 673.951C424.649 673.514 423.329 672.948 422.275 672.692C421.222 672.436 420.188 672.013 419.978 671.75C419.387 671.013 418.939 666.967 419.449 666.967C419.684 666.967 420.939 667.974 422.238 669.206C423.536 670.437 425.423 671.882 426.432 672.417C428.629 673.583 429.109 674.765 427.379 674.752C426.746 674.747 425.771 674.386 425.21 673.951ZM295.823 667.787C295.49 667.246 295.978 666.478 296.462 666.78C296.957 667.087 296.953 668.198 296.457 668.198C296.246 668.198 295.961 668.013 295.823 667.787ZM425.21 650.56C425.21 649.245 425.776 648.906 426.185 649.978C426.603 651.077 426.461 651.79 425.82 651.79C425.413 651.79 425.21 651.38 425.21 650.56ZM317.84 650.172C317.502 649.62 317.924 648.919 318.594 648.919C318.879 648.919 319.542 648.457 320.068 647.894C320.999 646.897 322.106 646.523 322.106 647.206C322.106 648.128 318.237 650.817 317.84 650.172ZM424.581 648.072C424.434 647.831 424.411 647.535 424.531 647.415C424.823 647.121 425.618 647.639 425.618 648.123C425.618 648.648 424.913 648.612 424.581 648.072ZM325.571 646.708C324.899 646.45 323.615 645.761 322.718 645.179C321.822 644.596 320.446 643.789 319.663 643.384C318.878 642.979 317.193 641.937 315.919 641.069C314.535 640.127 313.342 639.59 312.96 639.739C312.185 640.037 311.104 639.222 311.104 638.339C311.104 637.989 310.812 637.377 310.453 636.979C309.627 636.06 310.082 635.261 311.225 635.626C311.702 635.779 313.247 636.795 314.659 637.883C319.37 641.518 325.23 644.591 328.112 644.939C331.555 645.354 335.257 642.117 336.389 637.704C336.629 636.765 337.09 635.416 337.413 634.706C337.737 633.994 338 633.126 338 632.776C338 631.796 338.894 630.049 339.39 630.057C341.202 630.083 341.206 632.25 339.404 637.252C337.304 643.078 334.259 646.542 330.819 647.017C328.337 647.359 327.063 647.284 325.571 646.708ZM423.853 646.185C423.703 646.034 423.581 645.387 423.581 644.749C423.581 643.969 423.371 643.587 422.945 643.587C422.596 643.587 422.415 643.415 422.544 643.206C422.673 642.996 422.247 642.027 421.597 641.052C420.045 638.723 418.69 636.136 418.69 635.506C418.69 635.228 418.324 634.803 417.876 634.563C417.399 634.305 417.061 633.704 417.061 633.112C417.061 632.274 417.259 632.101 418.222 632.101C419.458 632.101 420.662 633.039 424.669 637.126C425.941 638.423 427.194 639.484 427.452 639.484C427.71 639.484 428.347 639.941 428.867 640.498C430.009 641.722 432.233 642.524 433.556 642.19C434.086 642.056 435.065 641.485 435.73 640.922L436.938 639.898L437.222 641.416C437.447 642.628 437.354 643.043 436.756 643.483C435.411 644.472 434.125 644.531 430.977 643.745C427.874 642.972 427.346 642.634 423.511 638.972C421.814 637.352 420.98 637.568 421.905 639.388C422.104 639.78 422.609 640.838 423.026 641.741C423.443 642.643 424.013 643.529 424.294 643.709C424.574 643.89 424.803 644.582 424.803 645.248C424.803 646.405 424.434 646.77 423.852 646.185H423.853ZM414.47 645.042C413.861 644.474 413.392 643.592 413.392 643.016C413.392 642.454 413.209 641.88 412.985 641.741C412.761 641.601 412.577 640.945 412.577 640.28C412.577 638.401 413.687 638.763 414.225 640.818C414.476 641.777 415.033 643.172 415.462 643.918C416.796 646.23 416.322 646.769 414.47 645.042ZM412.17 637.638C412.17 637.3 412.353 637.024 412.577 637.024C412.802 637.024 412.985 637.3 412.985 637.638C412.985 637.978 412.802 638.254 412.577 638.254C412.353 638.254 412.17 637.978 412.17 637.638ZM256.498 635.793C256.498 635.567 256.681 635.383 256.906 635.383C257.13 635.383 257.313 635.567 257.313 635.793C257.313 636.018 257.13 636.203 256.906 636.203C256.681 636.203 256.498 636.018 256.498 635.793ZM411.257 634.635C411.13 634.144 411.204 633.632 411.422 633.496C412.049 633.106 412.218 633.542 411.839 634.575L411.488 635.528L411.257 634.635ZM287.469 633.331C287.469 633.106 287.652 632.922 287.877 632.922C288.101 632.922 288.284 633.106 288.284 633.331C288.284 633.558 288.101 633.742 287.877 633.742C287.652 633.742 287.469 633.558 287.469 633.331ZM256.498 632.922C256.498 632.696 256.681 632.511 256.906 632.511C257.13 632.511 257.313 632.696 257.313 632.922C257.313 633.147 257.13 633.331 256.906 633.331C256.681 633.331 256.498 633.147 256.498 632.922ZM407.357 628.082C405.869 626.099 405.639 625.541 405.846 624.416C405.981 623.686 405.922 622.763 405.715 622.365C405.508 621.967 405.429 621.042 405.54 620.308C405.71 619.183 405.913 618.975 406.842 618.975C408.023 618.975 409.858 620.622 410.291 622.07C410.662 623.315 413.833 626.263 415.153 626.588C416.996 627.044 419.609 623.83 423.231 616.655C424.88 613.389 426.467 610.268 426.76 609.719C427.478 608.371 429.29 608.316 429.273 609.643C429.265 610.152 428.99 610.925 428.661 611.363C428.332 611.8 428.062 612.575 428.062 613.082C428.062 613.59 427.904 614.103 427.711 614.223C427.518 614.344 427.122 615.324 426.834 616.401C426.545 617.478 426.062 618.651 425.759 619.008C425.456 619.364 425.21 619.958 425.21 620.326C425.21 620.695 424.826 621.204 424.356 621.457C423.787 621.764 423.572 622.184 423.712 622.717C423.83 623.177 423.614 623.819 423.203 624.221C422.81 624.607 422.368 625.258 422.221 625.667C422.075 626.076 421.767 626.294 421.537 626.15C421.307 626.007 420.352 626.456 419.416 627.15C416.477 629.325 413.487 628.84 410.139 625.642C409.135 624.682 408.148 623.898 407.946 623.898C407.395 623.898 407.915 626.436 408.875 628.436C409.83 630.426 409.842 630.468 409.418 630.441C409.25 630.431 408.323 629.368 407.357 628.082ZM259.758 625.743C259.758 625.405 259.941 625.128 260.165 625.128C260.39 625.128 260.573 625.405 260.573 625.743C260.573 626.081 260.39 626.359 260.165 626.359C259.941 626.359 259.758 626.081 259.758 625.743ZM335.964 622.186C335.18 621.969 334.039 621.691 333.43 621.568C332.41 621.364 329.318 618.911 326.475 616.05C325.832 615.402 324.96 614.874 324.537 614.874C324.113 614.874 323.549 614.461 323.282 613.958C323.013 613.455 322.09 612.147 321.229 611.05C319.388 608.705 319.192 607.489 320.655 607.489C321.309 607.489 321.963 607.942 322.58 608.823C323.094 609.556 325.628 612.253 328.211 614.816C333.276 619.843 335.318 620.983 338.254 620.429C339.768 620.143 342.703 617.61 342.293 616.945C342.147 616.708 342.312 616.515 342.658 616.515C343.353 616.515 346.586 612.618 347.765 610.362C348.485 608.984 350.907 606.807 351.29 607.194C351.392 607.296 350.827 608.369 350.036 609.578C349.244 610.788 348.597 611.942 348.597 612.143C348.597 612.732 344.903 617.358 342.687 619.544C340.873 621.336 338.6 622.742 337.709 622.625C337.533 622.602 336.749 622.405 335.964 622.186ZM259.35 618.975C259.35 618.749 259.534 618.565 259.758 618.565C259.982 618.565 260.165 618.749 260.165 618.975C260.165 619.201 259.982 619.386 259.758 619.386C259.534 619.386 259.35 619.201 259.35 618.975ZM258.943 616.079C258.943 615.347 259.114 614.93 259.35 615.078C259.575 615.218 259.758 615.782 259.758 616.333C259.758 616.883 259.575 617.334 259.35 617.334C259.126 617.334 258.943 616.769 258.943 616.079ZM258.808 613.755C258.534 613.307 258.922 611.589 259.297 611.598C259.438 611.602 259.829 611.78 260.165 611.995C260.692 612.33 260.655 612.508 259.91 613.261C259.433 613.742 258.937 613.965 258.808 613.755ZM430.422 605.043C428.77 604.527 426.934 603.082 426.343 601.832C426.054 601.221 425.406 600.54 424.903 600.317C424.4 600.095 423.98 599.633 423.971 599.291C423.953 598.595 422.017 595.377 420.014 592.718C419.286 591.75 418.69 590.79 418.69 590.586C418.69 590.381 419.378 590.269 420.218 590.34C421.554 590.451 421.908 590.725 423.038 592.518C426.64 598.236 427.874 600.05 429.26 601.668C430.686 603.332 430.838 603.406 431.871 602.932C432.823 602.496 433.044 602.533 433.558 603.217C434.292 604.192 434.342 605.027 433.666 605.034C433.387 605.038 432.79 605.119 432.341 605.213C431.894 605.309 431.03 605.233 430.422 605.043ZM315.971 599.717C314.446 599.251 313.074 598.487 311.919 597.458C311.36 596.957 310.015 596.041 308.931 595.419C304.977 593.151 293.585 580.828 295.442 580.828C296.223 580.828 297.709 582.198 301.343 586.275C308.102 593.856 315.15 598.851 317.235 597.539C318.237 596.909 319.458 594.015 320.085 590.781C320.358 589.376 320.833 588.015 321.14 587.758C321.448 587.501 321.702 586.99 321.706 586.623C321.718 585.371 322.755 582.936 324.164 580.855C325.54 578.824 326.283 578.355 326.798 579.192C327.193 579.837 326.162 584.106 325.113 586.159C323.872 588.591 323.203 590.287 322.144 593.692C321.662 595.241 320.714 597.317 320.038 598.307C318.767 600.166 318.146 600.381 315.971 599.717ZM343.934 593.771C342.602 593.015 341.369 592.005 341.193 591.525C341.016 591.045 340.526 590.519 340.101 590.355C338.588 589.771 335.448 585.485 333.458 581.286C331.221 576.568 331.087 575.36 332.777 575.163C334.024 575.018 334.499 575.679 334.862 578.058C335.166 580.047 337.696 584.252 339.92 586.461C340.882 587.416 341.669 588.301 341.669 588.426C341.669 589.103 343.711 591.264 345.357 592.326C347.708 593.846 349.352 593.887 351.025 592.47C352.561 591.169 353.083 590.189 354.866 585.258C356.711 580.159 357.186 579.187 357.83 579.187C358.131 579.187 358.377 579.342 358.377 579.533C358.377 580.031 357.404 583.053 356.179 586.364C355.595 587.942 355.117 589.523 355.117 589.879C355.117 590.234 354.146 591.572 352.961 592.854C350.84 595.149 350.771 595.185 348.58 595.165C346.832 595.15 345.836 594.851 343.934 593.771ZM413.126 588.865C410.719 587.994 407.859 585.806 405.874 583.314C404.347 581.396 403.645 580.828 402.811 580.828C402.142 580.828 401.348 580.397 400.735 579.699C398.174 576.792 398.303 575.395 401.053 576.244C402.673 576.745 405.491 579.286 409.308 583.689C412.052 586.853 413.64 587.727 415.348 587.016C418.068 585.882 421.153 581.029 425.113 571.657C425.865 569.878 427.318 568.714 428.309 569.097C428.829 569.298 428.909 569.674 428.685 570.885C428.53 571.729 428.171 572.696 427.889 573.034C427.607 573.372 427.055 574.481 426.664 575.496C426.274 576.511 425.782 577.55 425.572 577.805C425.364 578.061 424.922 579.309 424.594 580.58C423.105 586.333 417.44 590.427 413.126 588.865ZM277.101 582.729C277.278 582.017 277.146 581.693 276.6 581.51C276.191 581.373 275.582 581.087 275.245 580.872C274.909 580.658 273.563 580.07 272.255 579.567C270.948 579.064 269.666 578.312 269.406 577.894C269.148 577.477 268.693 577.137 268.395 577.137C268.098 577.137 267.063 576.306 266.096 575.29C265.13 574.275 264.149 573.444 263.918 573.444C263.198 573.444 260.73 569.667 259.807 567.153C258.61 563.889 259.383 564.288 262.319 568.448C266.441 574.286 271.948 578.336 276.242 578.685C278.721 578.886 282.082 577.734 284.239 575.945C285.916 574.552 289.786 567.277 290.915 563.395C291.572 561.137 292.716 559.498 293.637 559.498C294.088 559.498 293.726 561.263 292.888 563.145C292.547 563.91 292.17 565.295 292.052 566.222C291.793 568.239 289.042 574.048 287.648 575.517C287.103 576.095 286.655 576.786 286.655 577.056C286.655 577.326 286.435 577.546 286.166 577.546C285.896 577.546 285.117 578.09 284.434 578.756C283.751 579.42 282.458 580.207 281.561 580.503C280.24 580.94 279.932 581.234 279.932 582.062C279.932 582.835 279.717 583.083 279.051 583.083C278.567 583.083 278.032 583.223 277.863 583.392C277.245 584.008 276.865 583.676 277.101 582.73V582.729ZM328.856 572.815C328.353 572.433 327.093 572.209 325.392 572.2C322.851 572.188 319.862 571.411 317.625 570.182C315.635 569.089 311.783 565.229 311.06 563.599C310.655 562.691 310.041 561.837 309.695 561.704C309.351 561.571 309.067 561.203 309.067 560.888C309.067 560.573 308.701 559.626 308.252 558.785C307.296 556.987 307.155 554.575 308.007 554.575C308.319 554.575 309.099 555.209 309.739 555.983C310.378 556.758 311.543 558.167 312.328 559.115C313.112 560.063 313.901 561.091 314.08 561.399C314.259 561.707 314.636 561.96 314.917 561.96C315.198 561.96 316.059 562.615 316.831 563.416C318.152 564.787 319.027 565.372 323.868 568.115L325.833 569.228L327.944 568.344C329.105 567.858 330.641 567.146 331.358 566.761C332.683 566.051 334.741 563.683 334.741 562.871C334.741 562.625 335.108 562.308 335.556 562.164C336.005 562.021 336.371 561.626 336.371 561.284C336.371 560.943 336.922 560.111 337.593 559.434C338.266 558.758 338.816 557.938 338.816 557.612C338.816 557.285 339.255 556.33 339.792 555.489C340.329 554.648 340.883 553.293 341.023 552.479C341.296 550.888 342.565 549.402 343.274 549.842C343.901 550.232 343.804 552.243 343.092 553.606C342.747 554.266 342.578 555.252 342.707 555.859C342.966 557.088 341.211 560.696 339.04 563.395C338.314 564.297 337.507 565.441 337.246 565.938C336.985 566.433 336.342 567.08 335.817 567.373C335.291 567.666 333.917 568.616 332.763 569.483C330.642 571.078 330.35 572.075 332.136 571.624C333.132 571.373 333.301 571.647 332.864 572.795C332.545 573.631 329.944 573.643 328.856 572.815ZM322.918 570.061C322.914 569.778 322.164 569.185 321.247 568.744C320.332 568.302 318.299 566.949 316.731 565.74C315.165 564.529 313.813 563.61 313.728 563.694C313.135 564.291 318.875 569.317 320.193 569.357C320.461 569.366 321.14 569.636 321.701 569.957C322.961 570.683 322.924 570.68 322.918 570.061ZM259.08 563.046C258.948 562.698 258.949 562.303 259.084 562.167C259.438 561.812 260.605 562.881 260.339 563.315C259.991 563.882 259.348 563.744 259.082 563.046H259.08ZM414.202 561.207C413.868 560.995 413.269 560.818 412.872 560.814C412.024 560.806 409.566 559.25 406.548 556.809C405.363 555.85 404.221 555.066 404.01 555.066C403.799 555.066 403.267 554.358 402.83 553.494C402.392 552.63 401.379 551.42 400.58 550.806C399.026 549.614 397.712 547.505 398.116 546.849C398.465 546.28 400.176 546.358 400.651 546.963C400.871 547.246 401.165 547.939 401.302 548.502C401.642 549.887 405.575 553.928 409.386 556.805C413.051 559.572 413.996 559.987 416.636 559.987C418.349 559.987 418.938 559.738 421.142 558.07C423.231 556.489 423.882 555.69 424.85 553.519C425.495 552.072 426.022 550.642 426.022 550.341C426.022 550.042 426.481 549.247 427.041 548.577C427.602 547.907 428.061 547.25 428.061 547.118C428.061 546.986 427.318 546.497 426.41 546.031C425.503 545.565 424.66 544.922 424.538 544.603C424.417 544.283 423.971 543.91 423.546 543.775C422.849 543.552 419.502 540.507 419.502 540.096C419.502 539.314 413.744 532.095 413.121 532.095C412.254 532.095 412.488 530.529 413.432 530.021C414.155 529.631 414.47 529.736 415.469 530.7C416.119 531.325 416.65 532.022 416.65 532.247C416.65 532.945 420.192 537.139 424.575 541.633C429.411 546.591 433.384 546.972 435.141 542.647C435.487 541.795 435.667 540.826 435.539 540.493C435.412 540.16 435.467 539.887 435.66 539.887C436.273 539.887 437.233 537.291 436.688 537.108C435.931 536.854 436.135 535.866 437.001 535.589C437.462 535.442 437.853 534.876 437.94 534.228L438.092 533.12L438.618 534.35C438.965 535.162 439.077 536.634 438.945 538.669C438.577 544.347 435.912 547.194 430.911 547.247L428.666 547.272L428.16 548.906C427.881 549.805 427.651 550.958 427.65 551.469C427.65 551.981 427.284 552.952 426.837 553.629C426.392 554.307 426.027 555.108 426.026 555.411C426.015 557.603 420.787 561.126 417.122 561.413C415.852 561.513 414.537 561.421 414.202 561.207ZM292.155 545.334C291.706 545.224 291.109 544.943 290.826 544.712C290.543 544.481 289.789 543.994 289.148 543.629C286.912 542.354 285.212 540.545 281.112 535.081C278.787 531.983 278.256 528.731 280.031 528.477C280.536 528.404 280.948 528.529 280.948 528.751C280.948 528.974 281.759 530.879 282.753 532.984C284.28 536.227 284.998 537.22 287.451 539.478C290.899 542.655 292.467 543.58 294.39 543.578C296.115 543.574 298.879 542.848 298.879 542.397C298.879 542.219 299.863 541.572 301.065 540.96C302.266 540.348 303.633 539.441 304.101 538.945C304.569 538.449 305.148 537.857 305.388 537.632C305.926 537.128 308.285 533.911 308.92 532.818C309.175 532.378 310.034 531.342 310.828 530.518C312.151 529.146 313.485 526.255 314.132 523.36C314.435 522.011 315.344 521.537 316.223 522.271C316.654 522.63 316.829 523.443 316.786 524.881C316.752 526.029 316.847 527.346 316.997 527.809C317.212 528.472 316.873 528.993 315.41 530.248C314.387 531.126 313.55 532.069 313.55 532.344C313.55 533.103 303.548 542.168 301.82 542.977C300.987 543.366 300.031 543.907 299.694 544.177C298.291 545.307 294.435 545.898 292.155 545.334ZM314.69 529.551C315.354 528.884 315.308 527.992 314.612 527.992C314.077 527.992 313.55 528.826 313.55 529.667C313.55 530.194 314.109 530.136 314.69 529.551ZM345.336 538.515C343.879 538.001 342.085 537.222 341.347 536.786C337.273 534.371 329.85 527.936 329.85 526.817C329.85 526.563 329.186 525.615 328.375 524.71C327.154 523.351 326.987 522.962 327.407 522.454C327.684 522.116 328.138 521.839 328.414 521.839C328.69 521.839 330.388 523.558 332.186 525.658C336.048 530.168 340.947 534.189 344.568 535.821C347.251 537.03 349.004 537.335 349.004 536.593C349.004 535.835 350.305 534.145 350.698 534.391C350.924 534.531 350.878 534.875 350.587 535.228C350.193 535.706 350.227 535.963 350.756 536.495C351.57 537.315 352.661 536.901 354.892 534.929C356.616 533.405 360.648 528.49 361.953 526.326C362.436 525.521 363.206 524.524 363.661 524.108C364.686 523.174 364.733 521.974 363.758 521.661C363.355 521.532 362.35 520.552 361.526 519.48C360.702 518.409 359.014 516.442 357.776 515.109C355.277 512.419 354.993 511.585 356.578 511.585C357.293 511.585 358.047 512.078 358.92 513.116C359.63 513.958 361.439 515.942 362.941 517.526C365.125 519.828 365.773 520.302 366.18 519.891C366.73 519.34 368.573 519.18 368.551 519.686C368.542 519.855 368.273 520.456 367.953 521.02C367.632 521.583 367.364 522.176 367.356 522.337C367.349 522.499 368.69 523.282 370.34 524.081C372.785 525.265 373.805 525.532 375.88 525.532C377.517 525.532 378.831 525.289 379.568 524.851C381.945 523.438 389.074 510.428 389.604 506.537C389.745 505.504 390.095 504.568 390.384 504.457C390.74 504.32 390.84 503.747 390.697 502.673C390.548 501.55 390.667 500.94 391.111 500.57C392.014 499.814 392.716 501.303 392.393 503.284C391.241 510.331 389.64 515.227 386.962 519.894L384.9 523.485L385.901 524.099C386.452 524.435 387.407 525.032 388.024 525.422C388.64 525.812 389.511 526.341 389.959 526.595C390.408 526.848 392.104 527.836 393.728 528.79C397.119 530.78 400.443 532.095 402.087 532.095C403.5 532.095 408.065 530.028 408.969 528.978C410.219 527.528 411.455 524.928 412.071 522.455C412.847 519.343 413.976 517.071 415.03 516.503C416.26 515.841 416.527 517.056 415.652 519.336C415.254 520.375 414.898 521.802 414.86 522.509C414.823 523.215 414.294 524.518 413.685 525.403C413.044 526.333 412.577 527.564 412.577 528.323C412.577 529.043 412.394 529.633 412.17 529.633C411.946 529.633 410.875 530.276 409.789 531.06C407.298 532.863 403.424 533.907 400.293 533.62C398.544 533.462 397.018 532.895 394.048 531.302C391.886 530.143 389.408 528.678 388.542 528.047C387.676 527.415 386.1 526.565 385.038 526.157C383.39 525.523 382.983 525.495 382.254 525.965C381.088 526.717 373.838 526.999 371.675 526.377C370.749 526.109 369.096 525.428 368.004 524.861C366.91 524.296 365.872 523.983 365.697 524.169C365.523 524.355 364.685 525.798 363.835 527.378C362.986 528.956 361.712 530.803 361.005 531.479C360.299 532.156 359.555 533.01 359.354 533.377C358.789 534.408 354.651 537.867 353.283 538.454C350.848 539.496 348.171 539.517 345.336 538.515ZM271.779 520.201C270.658 519.752 269.558 519.141 269.334 518.843C269.11 518.546 268.624 518.189 268.254 518.049C267.392 517.724 267.124 515.932 266.994 509.601L266.888 504.541L268.055 503.532C269.459 502.316 270.105 502.444 270.283 503.973C270.374 504.756 270.097 505.455 269.399 506.196C268.573 507.076 268.38 507.7 268.37 509.533C268.362 510.976 268.604 512.16 269.039 512.815C269.413 513.38 270.112 514.671 270.593 515.686C272.569 519.859 274.536 520.248 277.136 516.979C277.97 515.93 279.067 514.702 279.575 514.252C280.486 513.441 284.209 508.033 284.209 507.52C284.209 506.831 291.762 500.1 292.535 500.1C293.273 500.1 292.506 501.475 290.728 503.341C289.608 504.518 288.691 505.613 288.691 505.775C288.691 505.937 288.186 506.629 287.57 507.313C285.913 509.151 284.354 511.544 283.413 513.695C282.953 514.742 282.3 515.707 281.959 515.839C281.618 515.969 280.958 516.728 280.492 517.523C280.026 518.318 279.445 518.968 279.202 518.968C278.958 518.968 278.378 519.328 277.913 519.768C276.623 520.988 274.173 521.161 271.778 520.201H271.779ZM311.202 517.517C308.009 516.506 303.911 512.951 301.628 509.212C300.9 508.02 299.709 506.112 298.98 504.973C297.384 502.474 297.363 502.24 298.698 501.903C299.436 501.716 300 501.879 300.633 502.459C301.126 502.911 301.941 503.493 302.444 503.754C303.488 504.296 303.663 505.021 302.751 505.021C302.414 505.021 302.139 505.243 302.139 505.514C302.139 506.185 305.768 511.585 306.22 511.585C306.42 511.585 307.134 512.393 307.809 513.381C309.81 516.307 313.875 517.391 316.557 515.712C317.257 515.275 319.663 512.924 321.903 510.487C329.645 502.071 330.863 500.92 332.026 500.92C333.425 500.92 333.394 501.4 331.887 503.06C331.214 503.8 330.159 505.019 329.544 505.768C328.928 506.516 327.003 508.594 325.266 510.386C323.529 512.178 322.107 513.788 322.107 513.964C322.107 514.514 318.001 517.394 316.665 517.779C314.977 518.267 313.318 518.188 311.201 517.517H311.202ZM421.134 511.684C420.349 511.594 419.433 511.272 419.096 510.967C418.759 510.661 418.026 510.214 417.465 509.974C415.996 509.343 415.034 508.695 413.151 507.073C412.234 506.284 410.818 505.126 410.006 504.503C407.853 502.849 400.758 494.172 400.758 493.193C400.758 492.961 401.146 492.648 401.619 492.497C402.29 492.283 402.924 492.659 404.504 494.213C405.618 495.308 407.171 497.166 407.953 498.342C409.809 501.13 413.527 504.854 417.674 508.078C418.48 508.704 419.925 509.19 421.894 509.498C426.545 510.225 429.151 509.545 433.682 506.422C436.583 504.421 436.589 504.412 436.631 499.69C436.648 497.714 437.025 496.818 437.836 496.818C439.777 496.818 440.059 500.851 438.352 504.207C437.736 505.419 436.865 506.606 436.416 506.843C435.968 507.08 434.63 507.979 433.442 508.842C430.357 511.083 425.567 512.189 421.134 511.684ZM422.561 507.894C422.122 507.178 422.772 506.569 423.408 507.1C423.721 507.361 423.877 507.74 423.755 507.94C423.457 508.424 422.872 508.402 422.561 507.894ZM211.665 432.865C211.106 432.764 210.147 432.206 209.535 431.624C208.2 430.353 208.286 429.699 210.331 425.591C211.59 423.061 214.507 419.689 215.478 419.642C215.67 419.633 216.372 419.164 217.038 418.6C218.421 417.427 219.001 417.307 219.001 418.19C219.001 418.528 218.825 418.804 218.61 418.804C217.192 418.804 211.858 426.77 211.582 429.299C211.457 430.451 211.766 430.653 214.619 431.287C215.236 431.424 215.741 431.79 215.741 432.1C215.741 433.066 214.286 433.339 211.665 432.865ZM425.254 430.525C419.115 426.684 415.31 422.086 418.273 422.086C418.767 422.086 420.351 423.338 422.164 425.164C423.845 426.856 425.486 428.239 425.81 428.239C426.135 428.239 426.6 427.866 426.843 427.407C427.087 426.95 427.472 426.692 427.698 426.833C427.955 426.993 427.859 427.373 427.443 427.836C426.526 428.855 427.193 430.039 429.296 431.118C430.955 431.969 431.476 433.162 430.191 433.162C429.794 433.162 427.572 431.976 425.254 430.525ZM192.993 431.277C193.067 430.909 194.009 430.324 195.136 429.943C197.508 429.143 198.079 428.239 196.213 428.239C195.2 428.239 194.395 427.681 192.103 425.394C189.392 422.685 188.64 421.341 189.763 421.204C190.043 421.17 190.548 421.124 190.884 421.101C191.26 421.076 191.573 420.509 191.699 419.626C191.867 418.441 192.074 418.19 192.88 418.19C193.649 418.19 193.986 418.54 194.457 419.831C194.786 420.733 195.174 422.113 195.319 422.898C195.483 423.791 195.921 424.494 196.489 424.78C196.989 425.03 197.735 425.542 198.146 425.917C199.129 426.812 199.564 426.778 200.499 425.729C201.792 424.282 205.598 422.016 206.288 422.282C206.776 422.47 206.258 423.214 204.101 425.425C201.859 427.722 200.506 428.694 197.551 430.126C193.494 432.092 192.794 432.27 192.993 431.277ZM359.999 431.174C359.994 430.801 359.88 429.804 359.741 428.957L359.489 427.419H361.584C362.738 427.419 364.071 427.188 364.546 426.907C366.049 426.016 367.337 424.54 367.337 423.708C367.337 423.268 367.501 422.907 367.7 422.907C367.9 422.907 368.183 422.26 368.329 421.472C368.477 420.682 368.755 420.036 368.949 420.036C369.141 420.036 369.426 419.112 369.579 417.983C369.891 415.703 370.982 413.976 371.793 414.482C372.129 414.691 372.216 415.245 372.044 416.084C371.319 419.635 371.32 420.073 372.049 420.884C372.963 421.9 372.266 422.97 371.247 422.117C370.734 421.69 370.537 421.851 370.007 423.128C369.66 423.964 369.376 424.902 369.376 425.213C369.376 425.524 369.194 425.778 368.974 425.778C368.753 425.778 368.322 426.378 368.018 427.112C367.714 427.845 367.161 428.698 366.789 429.007C366.419 429.317 366.115 429.923 366.115 430.354C366.115 431.293 365.831 431.397 362.55 431.654C360.373 431.825 360.002 431.754 359.999 431.174ZM411.35 431.159C411.35 430.959 411.762 430.685 412.267 430.548C413.615 430.185 413.795 430.227 413.795 430.906C413.795 431.315 413.387 431.521 412.572 431.521C411.899 431.521 411.35 431.357 411.35 431.159ZM417.149 428.983C417.4 428.223 418.278 428.096 418.278 428.82C418.278 429.178 417.987 429.469 417.632 429.469C417.277 429.469 417.06 429.251 417.149 428.983ZM394.732 424.884C394.467 424.618 393.53 424.019 392.649 423.552C390.709 422.523 382.416 413.371 382.416 412.26C382.416 412.015 382.863 411.61 383.409 411.359C384.271 410.963 384.617 411.073 386.014 412.188C386.901 412.895 387.763 413.473 387.93 413.473C388.097 413.473 389.044 414.225 390.033 415.142C391.023 416.061 392.382 417.005 393.052 417.24C394.325 417.687 394.451 418.505 393.283 418.733C392.909 418.806 392.023 418.574 391.315 418.218C389.44 417.277 389.403 417.756 391.219 419.452C393.643 421.718 395.154 422.822 396.747 423.492C398.13 424.073 398.263 424.054 399.577 423.078C400.336 422.514 401.265 421.448 401.642 420.708C402.02 419.968 402.619 419.121 402.972 418.824C403.326 418.528 403.959 417.507 404.377 416.553C405.286 414.486 407.885 412.282 408.584 412.986C408.921 413.326 408.855 413.517 408.332 413.719C407.942 413.87 407.183 414.938 406.645 416.092C404.768 420.118 402.542 423.52 401.185 424.442C399.658 425.477 395.598 425.756 394.732 424.884ZM238.562 424.548C238.562 424.323 238.757 424.137 238.993 424.137C239.231 424.137 239.312 424.323 239.174 424.548C239.035 424.773 238.841 424.957 238.741 424.957C238.644 424.957 238.562 424.773 238.562 424.548ZM238.596 421.513C238.336 421.197 237.076 420.522 235.795 420.014C232.974 418.893 231.133 417.234 229.986 414.776C229.254 413.207 229.159 412.442 229.351 409.614C229.475 407.789 229.704 405.833 229.859 405.268C230.287 403.704 231.737 401.558 233.823 399.397C234.86 398.323 235.71 397.18 235.71 396.859C235.71 396.536 236.051 396.09 236.468 395.866C236.885 395.64 237.875 394.803 238.669 394.005C239.461 393.206 240.381 392.553 240.71 392.553C241.084 392.553 241.399 391.986 241.553 391.037C241.746 389.838 241.599 389.258 240.851 388.268C240.331 387.579 239.672 386.277 239.387 385.375C239.101 384.472 238.501 382.637 238.053 381.295L237.238 378.857L238.511 377.713C239.212 377.083 239.785 376.32 239.785 376.017C239.785 375.195 242.203 371.676 243.101 371.194C244.146 370.63 243.768 370.144 242.031 369.815C241.244 369.667 240.602 369.416 240.603 369.257C240.61 368.781 245.748 365.989 247.199 365.672C247.941 365.51 249.067 365.007 249.704 364.554C251.082 363.575 254.21 363.109 254.646 363.818C255.026 364.438 253.856 365.747 252.65 366.052C251.417 366.364 242.734 375.814 241.954 377.693C241.601 378.542 241.445 379.68 241.584 380.38C241.717 381.048 241.628 381.834 241.388 382.126C241.076 382.505 241.081 382.902 241.407 383.515C242.005 384.639 242.637 384.206 242.637 382.671C242.637 381.325 243.714 380.58 244.297 381.521C244.653 382.095 244.547 384.014 244.044 386.065C243.84 386.901 244.04 387.516 244.885 388.628C245.495 389.434 246.24 390.093 246.543 390.093C246.844 390.093 247.287 390.461 247.527 390.912C248.126 392.04 248.933 391.94 249.509 390.668C249.916 389.77 249.861 389.393 249.167 388.261C248.198 386.683 248.067 384.76 248.93 384.76C249.253 384.76 249.622 384.931 249.749 385.139C249.877 385.348 250.859 385.473 251.93 385.418C253.652 385.331 254.102 385.094 255.814 383.37C256.879 382.299 257.972 381.49 258.242 381.574C258.513 381.659 259.078 382.427 259.498 383.281C260.39 385.092 263.112 386.523 265.533 386.452C266.88 386.413 267.049 386.524 267.163 387.533C267.259 388.365 267.55 388.692 268.285 388.797C269.807 389.014 274.831 383.393 274.831 381.475C274.831 381.005 275.293 380.156 275.858 379.588C276.422 379.02 276.771 378.369 276.633 378.144C276.495 377.919 276.628 377.423 276.931 377.043C277.56 376.25 278.185 375.162 279.402 372.732C279.873 371.79 280.583 370.742 280.977 370.404C281.373 370.065 281.756 369.251 281.829 368.594C281.942 367.575 281.782 367.342 280.741 367.014C280.068 366.802 278.386 366.186 277.003 365.645C274.155 364.53 272.976 364.412 272.671 365.213C272.516 365.619 271.803 365.72 269.977 365.596C267.687 365.44 267.496 365.493 267.496 366.275C267.496 366.741 267.312 367.122 267.088 367.122C266.864 367.122 266.681 366.86 266.681 366.541C266.681 366.221 266.579 365.691 266.455 365.365C266.292 364.938 266.802 364.581 268.263 364.1C269.382 363.731 270.642 363.43 271.065 363.43C271.487 363.43 272.249 362.948 272.759 362.358C273.546 361.446 273.909 361.322 275.175 361.532C275.995 361.669 277.077 361.783 277.582 361.784C278.322 361.789 278.499 362.02 278.499 362.981C278.499 364.035 278.721 364.25 280.405 364.827C282.76 365.635 283.559 365.649 284.184 364.89C284.451 364.566 284.902 364.388 285.183 364.497C286.804 365.124 291.861 361.028 292.609 358.483C292.861 357.624 293.457 356.424 293.933 355.814C294.41 355.204 294.799 354.451 294.799 354.14C294.799 353.6 297.163 351.162 297.711 351.137C298.049 351.121 297.312 354.445 296.853 355.005C296.659 355.24 296.175 356.256 295.776 357.263C294.987 359.247 294.579 359.834 292.253 362.312C291.413 363.206 290.725 364.102 290.725 364.301C290.725 364.621 286.827 366.607 284.911 367.264C284.515 367.4 284.011 367.931 283.791 368.444C283.571 368.957 283.222 369.655 283.015 369.993C282.807 370.332 282.224 371.716 281.716 373.07C281.209 374.423 280.369 376.219 279.849 377.061C279.33 377.902 278.907 378.744 278.907 378.93C278.907 379.61 276.198 384.664 274.741 386.706C273.888 387.903 272.406 389.292 271.288 389.944C270.211 390.573 269.12 391.364 268.865 391.703C268.481 392.21 268.289 392.225 267.763 391.786C267.407 391.489 266.76 391.373 266.293 391.523C265.824 391.671 265.458 391.606 265.458 391.37C265.458 390.652 261.904 388.452 260.744 388.452C259.428 388.452 258.562 387.442 258.544 385.888C258.536 385.267 258.357 384.76 258.143 384.76C257.464 384.76 255.677 387.468 255.677 388.495C255.677 389.132 255.348 389.633 254.761 389.893C254.018 390.221 253.87 390.565 253.984 391.703L254.125 393.108L253.082 392.421C252.508 392.042 251.941 391.734 251.821 391.734C251.285 391.734 251.673 394.414 252.313 395.125C252.99 395.878 252.982 395.946 252.109 396.658C251.055 397.517 250.876 399.117 251.832 399.117C252.306 399.117 252.437 399.459 252.342 400.449C252.24 401.507 252.403 401.866 253.13 402.188C254.121 402.625 254.285 403.022 253.64 403.424C253.039 403.798 253.146 405.407 253.831 406.319C254.16 406.757 254.435 407.524 254.443 408.024C254.449 408.524 254.822 409.13 255.271 409.371C255.732 409.621 256.086 410.23 256.086 410.778C256.086 411.31 256.36 411.852 256.696 411.981C257.716 412.375 257.457 413.883 256.371 413.883C255.856 413.883 255.259 413.714 255.047 413.508C254.833 413.302 254.201 413.071 253.64 412.996C252.904 412.896 252.589 412.573 252.501 411.832C252.296 410.097 251.503 408.401 250.303 407.14C249.674 406.477 249.158 405.499 249.158 404.966C249.158 403.552 248.123 401.768 246.719 400.762C245.677 400.015 245.558 399.756 245.929 399.057C246.171 398.604 246.608 398.326 246.903 398.44C247.246 398.572 247.526 398.2 247.685 397.403C247.978 395.931 247.723 395.375 246.903 395.692C246.462 395.862 246.305 395.611 246.305 394.73C246.305 393.586 245.686 392.554 245.001 392.554C244.821 392.554 244.675 392.886 244.675 393.292C244.675 394.237 243.902 395.014 242.963 395.014C242.18 395.014 242.104 395.263 242.223 397.417L242.3 398.793L240.328 398.523C238.032 398.208 238.047 398.198 234.643 402.193C231.364 406.04 230.463 409.42 231.743 413.064C232.294 414.63 234.996 417.576 235.883 417.576C236.188 417.576 236.543 417.852 236.672 418.19C236.801 418.529 237.396 418.806 237.994 418.806C239.148 418.806 241.008 420.463 241.008 421.492C241.008 422.262 239.226 422.276 238.596 421.513ZM373.452 420.036C373.452 419.811 373.635 419.625 373.86 419.625C374.084 419.625 374.267 419.811 374.267 420.036C374.267 420.261 374.084 420.445 373.86 420.445C373.635 420.445 373.452 420.261 373.452 420.036ZM425.357 418.932C424.882 418.838 424.07 418.309 423.554 417.757C423.039 417.206 422.441 416.754 422.225 416.754C421.439 416.754 418.049 413.225 417.105 411.424C416.017 409.348 412.632 404.389 412.016 403.969C411.795 403.82 411.033 404.142 410.322 404.687C409.528 405.298 408.485 405.679 407.61 405.679C405.317 405.679 401.512 404.777 401.285 404.179C401.169 403.876 400.908 403.628 400.705 403.628C400.501 403.628 398.622 402.796 396.529 401.777C394.434 400.758 392.282 399.974 391.746 400.033C390.998 400.116 390.8 399.967 390.896 399.393C391.071 398.367 390.194 397.408 389.335 397.683C388.729 397.876 388.665 397.719 388.892 396.603C389.396 394.121 390.519 394.257 394.419 397.27C394.856 397.609 395.385 397.885 395.594 397.885C395.804 397.885 396.394 398.301 396.906 398.808C398.767 400.649 400.276 401.558 402.195 401.99C405.467 402.729 408.756 401.585 408.979 399.633C409.098 398.596 409.271 398.491 411.032 398.376C412.527 398.28 413.139 398.017 413.782 397.193C414.238 396.611 414.609 395.901 414.609 395.619C414.609 395.334 414.885 394.995 415.221 394.866C415.558 394.735 415.832 394.253 415.832 393.791C415.832 392.969 416.391 391.729 417.314 390.502C417.568 390.163 417.876 389.24 417.997 388.451C418.76 383.473 420.011 381.068 421.837 381.068C422.738 381.068 422.8 381.185 422.543 382.401C422.389 383.133 422.008 384.026 421.696 384.381C421.385 384.737 421.13 385.512 421.13 386.1C421.13 386.691 420.974 387.269 420.782 387.389C420.59 387.509 420.016 388.858 419.506 390.387C418.996 391.917 418.341 393.308 418.052 393.48C417.762 393.65 417.313 394.481 417.055 395.325C416.411 397.43 415.362 399.532 414.507 400.422C413.593 401.377 413.612 401.911 414.614 403.423C415.062 404.1 415.796 405.225 416.244 405.923C416.692 406.62 417.563 407.42 418.177 407.702C420.245 408.648 422.73 410.392 422.745 410.909C422.753 411.191 422.301 411.421 421.742 411.421C421.168 411.421 420.722 411.66 420.722 411.964C420.722 412.945 424.377 416.367 426.317 417.204L428.22 418.026L429.846 416.876C430.977 416.076 431.73 415.086 432.313 413.633C432.774 412.483 433.402 411.24 433.708 410.87C434.015 410.5 434.308 409.64 434.362 408.956C434.506 407.11 434.895 407.031 435.222 408.781C435.703 411.372 433.712 416.076 431.329 417.976C429.788 419.205 428.104 419.475 425.357 418.932ZM374.943 418.532C374.457 418.043 374.651 417.784 375.925 417.216C376.616 416.909 377.29 416.356 377.424 415.988C377.845 414.834 379.166 414.241 379.141 415.215C379.126 415.859 377.551 417.614 376.382 418.292C375.357 418.886 375.304 418.895 374.943 418.532ZM378.95 413.473C378.812 413.247 378.893 413.062 379.131 413.062C379.367 413.062 379.562 413.247 379.562 413.473C379.562 413.699 379.481 413.883 379.383 413.883C379.283 413.883 379.089 413.699 378.95 413.473ZM281.35 411.653C281.35 410.281 281.388 410.249 282.721 410.467C283.475 410.589 284.464 410.49 284.919 410.244C285.555 409.902 285.859 409.934 286.233 410.387C286.882 411.174 286.346 411.955 285.338 411.69C284.459 411.459 282.573 412.16 282.573 412.718C282.573 412.908 282.297 413.062 281.962 413.062C281.537 413.062 281.35 412.632 281.35 411.653ZM380.377 412.242C380.377 412.017 380.56 411.832 380.784 411.832C381.009 411.832 381.192 412.017 381.192 412.242C381.192 412.467 381.009 412.653 380.784 412.653C380.56 412.653 380.377 412.467 380.377 412.242ZM379.969 410.636C379.969 410.131 380.232 409.78 380.611 409.78C380.99 409.78 381.199 410.06 381.12 410.465C380.921 411.494 379.969 411.635 379.969 410.636ZM276.766 410.509C273.875 409.902 274.311 409.206 277.363 409.553C280.071 409.861 280.535 410.019 280.535 410.625C280.535 411.09 279.366 411.054 276.766 410.509ZM288.278 410.601C288.278 410.376 288.644 410.191 289.093 410.191C289.541 410.191 289.908 410.376 289.908 410.601C289.908 410.828 289.541 411.012 289.093 411.012C288.644 411.012 288.278 410.828 288.278 410.601ZM290.315 410.191C290.315 409.966 290.5 409.78 290.723 409.78C290.947 409.78 291.13 409.966 291.13 410.191C291.13 410.417 290.947 410.601 290.723 410.601C290.5 410.601 290.315 410.417 290.315 410.191ZM383.229 409.024C383.229 408.477 384.834 407.158 385.134 407.459C385.282 407.608 385.211 407.73 384.975 407.73C384.74 407.73 384.452 408.099 384.335 408.55C384.129 409.343 383.229 409.728 383.229 409.024ZM294.966 408.259C295.161 407.638 294.894 407.176 293.891 406.403C293.157 405.837 291.031 403.862 289.166 402.015C287.3 400.169 285.573 398.725 285.328 398.807C285.066 398.895 285.209 399.285 285.677 399.754C286.115 400.192 287.001 401.344 287.647 402.313C288.293 403.281 289.112 404.244 289.467 404.453C289.992 404.763 289.929 404.836 289.132 404.846C287.968 404.86 284.37 401.053 282.337 397.652C281.613 396.443 280.156 394.346 279.099 392.992C277.035 390.348 276.964 389.542 278.756 389.089C279.985 388.778 280.943 389.596 280.943 390.954C280.943 391.379 281.639 391.997 282.693 392.512C283.71 393.007 285.881 394.911 287.889 397.068C291.77 401.238 293.508 402.333 297.037 402.836C299.177 403.14 299.745 403.064 301.544 402.236C304.156 401.032 307.202 397.925 309.391 394.231C310.331 392.645 311.107 391.203 311.115 391.027C311.122 390.851 311.482 389.969 311.916 389.066C312.348 388.164 312.709 387.255 312.717 387.048C312.724 386.839 313.011 386.358 313.353 385.978C313.921 385.345 313.84 385.183 312.436 384.127C310.761 382.868 308.698 380.662 308.672 380.101C308.663 379.908 308.19 379.382 307.621 378.931C306.923 378.378 306.666 377.868 306.829 377.352C306.988 376.847 306.786 376.412 306.231 376.064C305.771 375.775 305.395 375.287 305.395 374.981C305.395 374.674 304.845 373.906 304.172 373.274C303.421 372.567 302.949 371.713 302.949 371.058C302.949 370.472 302.77 369.993 302.55 369.993C301.936 369.993 296.784 364.667 297.023 364.279C297.297 363.832 300.514 365.436 300.789 366.156C300.914 366.49 301.627 366.711 302.573 366.711C304.007 366.711 304.293 366.909 305.79 368.95C306.693 370.18 307.433 371.384 307.433 371.625C307.433 371.867 307.895 372.241 308.458 372.456C309.023 372.672 309.66 373.313 309.875 373.882C310.09 374.45 310.428 374.915 310.627 374.915C310.827 374.915 312.05 375.939 313.345 377.192C314.975 378.769 315.901 379.386 316.355 379.196C317.94 378.536 318.436 378.524 318.436 379.149C318.436 380.173 319.017 380.273 321.189 379.624C322.846 379.128 323.59 378.572 325.151 376.662C326.209 375.368 327.445 373.569 327.897 372.663C328.348 371.758 328.939 370.741 329.21 370.403C329.481 370.063 330.145 368.442 330.687 366.797C331.464 364.438 331.871 363.756 332.612 363.567C333.128 363.437 333.665 363.445 333.802 363.583C334.158 363.941 334.006 366.808 333.615 367.091C333.139 367.436 331.068 371.62 331.068 372.239C331.068 373.388 328.267 377.311 325.353 380.241C322.177 383.437 318.577 385.766 317.475 385.34C316.71 385.044 314.768 386.871 314.768 387.887C314.768 388.275 314.524 388.883 314.225 389.239C313.927 389.595 313.356 390.778 312.957 391.866C312.559 392.954 311.977 393.943 311.666 394.062C311.355 394.182 311.101 394.637 311.101 395.071C311.101 395.505 310.18 396.823 309.056 398.001C307.932 399.178 306.51 400.672 305.897 401.322C303.657 403.697 302.068 404.636 299.931 404.852C298.197 405.029 297.856 405.198 297.856 405.884C297.856 406.341 298.262 406.884 298.773 407.109C300.35 407.805 299.888 408.593 297.958 408.5C297.005 408.456 295.884 408.568 295.465 408.751C294.832 409.029 294.748 408.947 294.966 408.259ZM320.889 382.354L321.983 381.683L319.79 381.717C317.542 381.75 316.49 382.275 317.001 383.107C317.355 383.683 319.347 383.297 320.889 382.354ZM314.994 382.259C315.377 381.637 314.388 379.901 313.486 379.613C313.078 379.483 311.969 378.65 311.023 377.761C310.076 376.873 309.156 376.146 308.978 376.146C308.085 376.146 308.893 377.713 310.998 380.064C313.251 382.582 314.407 383.217 314.994 382.259ZM386.351 405.783C386.003 405.215 387.351 402.813 388.02 402.811C388.825 402.806 388.615 403.892 387.576 405.108C386.987 405.796 386.518 406.054 386.351 405.783ZM388.937 401.577C388.937 401.352 389.12 401.167 389.344 401.167C389.569 401.167 389.752 401.352 389.752 401.577C389.752 401.802 389.569 401.988 389.344 401.988C389.12 401.988 388.937 401.802 388.937 401.577ZM395.126 395.398C395.224 395.103 395.544 394.78 395.839 394.682C396.144 394.578 396.297 394.733 396.195 395.04C396.097 395.336 395.777 395.66 395.482 395.758C395.177 395.861 395.024 395.707 395.126 395.398ZM436.506 393.124C436.369 392.987 436.458 392.553 436.7 392.161C436.973 391.722 437.017 390.988 436.814 390.257C436.379 388.686 436.585 384.361 437.143 383.324C437.57 382.534 437.597 382.541 437.876 383.529C438.355 385.225 438.281 390.555 437.757 392.012C437.274 393.357 436.989 393.61 436.506 393.124ZM246.104 386.84C246.16 384.362 246.541 383.83 247.133 385.399C247.71 386.927 247.489 388.622 246.693 388.773C246.182 388.87 246.068 388.494 246.104 386.84ZM233.881 387.223C234.02 386.998 234.306 386.813 234.517 386.813C234.727 386.813 234.9 386.998 234.9 387.223C234.9 387.45 234.614 387.634 234.265 387.634C233.915 387.634 233.743 387.45 233.881 387.223ZM331.71 380.277C330.853 379.323 331.18 378.61 332.476 378.61C333.608 378.61 334.52 379.588 334.19 380.451C333.861 381.316 332.562 381.225 331.71 380.277ZM420.117 377.617C416.027 376.735 413.393 375.245 413.393 373.812C413.393 373.43 413.083 373.34 412.374 373.519C411.529 373.732 411.355 373.629 411.355 372.911C411.355 372.435 411.708 371.692 412.14 371.258C412.571 370.824 413.128 370.085 413.377 369.617C413.625 369.148 414.098 368.765 414.426 368.765C414.754 368.765 415.022 368.488 415.022 368.15C415.022 367.452 415.662 367.325 416.044 367.948C416.183 368.174 416.027 368.465 415.696 368.593C415.367 368.721 414.984 369.272 414.848 369.82C414.712 370.368 414.42 370.816 414.2 370.816C413.25 370.816 413.851 372.721 415.022 373.417C415.695 373.816 416.246 374.316 416.246 374.525C416.246 375.652 421.962 376.716 422.582 375.706C422.733 375.461 423.269 375.366 423.775 375.494C424.414 375.656 425.033 375.414 425.79 374.707C426.391 374.147 427.149 373.687 427.473 373.687C428.288 373.687 431.089 370.709 431.909 368.968C432.621 367.456 433.518 367.103 433.924 368.173C434.336 369.253 433.158 371.319 430.659 373.892C427.023 377.637 424.442 378.55 420.117 377.617ZM326.355 350.107C323.604 349.233 322.014 348.241 319.833 346.04C316.737 342.916 312.53 336.635 313.007 335.848C313.555 334.944 314.726 335.747 315.998 337.898C318.836 342.702 322.764 347.182 324.955 348.114C327.308 349.116 331.483 348.012 331.483 346.387C331.483 346.048 331.759 345.663 332.094 345.533C332.43 345.403 332.706 344.959 332.706 344.544C332.706 343.296 333.403 343.259 334.339 344.457C335.047 345.363 335.172 345.91 334.965 347.214C334.649 349.202 334.4 349.499 333.861 348.53C333.478 347.841 333.392 347.836 332.718 348.451C331.813 349.274 329.015 350.732 328.442 350.677C328.21 350.655 327.271 350.397 326.355 350.107ZM315.862 335.267C315.356 334.756 315.587 334.354 317.028 333.248C318.87 331.834 319.274 332.238 317.868 334.093C316.77 335.543 316.369 335.777 315.862 335.267ZM373.701 329.215C372.895 327.992 372.235 326.771 372.235 326.5C372.235 326.23 371.834 324.833 371.344 323.398C370.856 321.962 370.573 320.669 370.716 320.525C371.259 319.978 372.261 320.801 372.497 321.985C372.631 322.662 372.994 323.428 373.303 323.685C373.612 323.944 373.865 324.584 373.865 325.107C373.865 326.185 375.247 327.336 376.542 327.336C377.564 327.336 378.756 328.535 378.756 329.565C378.756 330.104 378.569 330.214 378.042 329.988C376.745 329.43 375.088 329.284 375.088 329.727C375.088 329.965 375.271 330.273 375.495 330.413C376.003 330.729 376.031 331.438 375.535 331.438C375.332 331.438 374.507 330.437 373.701 329.215Z" fill="black"/>
<path id="path6220" d="M182.861 427.462C185.88 428.544 188.719 430.58 193.318 430.084C207.048 421.05 224.915 403.964 229.762 379.072L235.27 368.684C233.645 385.263 219.813 419.945 193.479 432.078C188.331 432.157 185.777 429.629 182.861 427.461V427.462Z" fill="black"/>
<path id="path6224" opacity="0.27729" d="M284.703 500.18L302.256 498.938C293.803 503.869 289.355 512.177 287.337 523.88C279.314 570.395 289.848 638.335 285.377 688.975L262.473 680.275C268.022 635.314 267.692 563.182 274.489 523.09C276.768 509.647 280.579 506.427 284.703 500.18Z" fill="white"/>
<path id="path6258" d="M191.739 404.14L231.036 379.089C223.528 399.933 212.376 418.098 194.795 431.535C186.564 422.268 189.659 415.657 191.739 404.14Z" fill="url(#paint0_linear)"/>
<path id="path6262" opacity="0.53448" d="M175.929 412.371C191.598 418.326 208.471 407.341 225.197 398.427L220.086 417.277C247.033 408.98 257.176 397.866 271.845 387.51L296.853 416.358L288.007 421.476L289.836 430.65L278.392 437.603C272.58 450.753 269.741 464.09 272.69 477.791L277.741 487.965L265.772 486.235C262.026 476.708 265.093 469.238 266.494 461.265C266.047 452.214 263.483 443.466 266.494 433.917L264.823 413.399C242.69 426.417 220.323 438.866 192.806 438.89C183.142 430.865 180.481 421.427 175.929 412.371Z" fill="black"/>
<path id="path6264" opacity="0.40948" d="M418.227 349.953L426.138 355.813C404.209 382.868 382.281 410.598 360.352 433.917L327.99 433.624C365.719 411.724 394.444 382.772 418.227 349.953Z" fill="black"/>
<path id="path6266" opacity="0.40948" d="M262.789 476.804C277.002 482.574 298.596 482.227 322.062 480.329L324.546 470.476L330.707 474.916L330.089 479.624C329.649 482.273 331.359 483.406 333.642 484.138C352.622 486.725 371.75 487.063 391.118 483.798C395.132 482.86 396.008 481.132 396.799 479.382L396.99 449.72L404.183 444.15L403.814 479.228C413.079 480.312 423.476 480.87 439.8 478.669V519.692C420.984 500.224 287.954 497.129 258.67 519.692L266.141 486.963L262.789 476.804Z" fill="black"/>
<path id="path6268" d="M333.936 449.408C334.493 443.331 338.403 441.948 343.396 442.083L391.1 442.177C394.527 442.345 397.252 443.219 397.026 447.063L331.167 472.261L333.936 449.408Z" fill="url(#paint1_linear)"/>
<path id="path6272" opacity="0.375" d="M254.968 624.509C256.058 638.678 254.536 653.176 263.87 666.307C290.081 685.17 318.975 683.345 348.447 677.046C349.521 617.737 362.144 571.233 369.818 555.31C360.931 605.083 358.506 646.597 363.645 696.189C319.906 701.146 280.478 697.819 248.794 679.615L254.968 624.509Z" fill="black"/>
<path id="path6274" opacity="0.375" d="M384.228 569.01C402.708 597.935 419.26 631.388 434.45 668.042C432.699 682.5 430.272 687.128 418.395 697.462C414.749 653.345 400.951 610.932 384.228 569.011V569.01Z" fill="black"/>
<path id="path6276" opacity="0.375" d="M372.71 546.368C386.655 576.443 401.215 606.728 408.677 643.328L400.683 643.872C395.594 613.029 385.566 584.394 373.519 556.666C369.85 584.735 364.106 611.907 370.804 644.447L362.008 643.204C360.329 612.247 365.688 579.517 372.712 546.371L372.71 546.368Z" fill="black"/>
<path id="path6290" opacity="0.27729" d="M307.72 500.673H318.245C285.361 557.37 308.597 629.271 303.838 693.585L290.842 691.512C295.088 626.125 285.941 543.508 307.72 500.672V500.673Z" fill="black"/>
<path id="path6142" d="M262.398 238.801L273.608 237.193L505.185 219.74L526.075 237.353L528.131 246.049C533.823 257.619 543.632 268.499 540.232 281.595C541.396 289.524 542.97 296.211 544.679 302.492C548.437 308.635 557.912 314.984 560.057 321.125C561.468 325.164 557.256 328.993 554.815 333.032C559.723 337.723 566.489 342.001 567.835 346.692C569.175 351.365 565.116 356.452 560.741 361.125L560.307 364.847C564.212 369.873 574.728 373.413 575.79 379.512C576.756 385.055 570.851 396.556 565.894 399.958L568.689 426.449C572.497 480.351 576.316 536.522 588.433 586.705C592.752 604.593 597.794 624.118 604.553 640.727C615.758 668.259 631.937 694.81 640.002 719.159C634.422 716.796 628.348 713.917 621.949 714.077C616.442 714.216 611.845 718.746 606.099 719.764C603.257 720.268 599.591 718.66 596.464 717.702C581.693 713.174 567.116 702.685 554.649 700.52C544.081 698.685 534.125 707.882 524.192 713.7C516.091 718.447 507.499 722.276 501.692 724.664C466.019 739.338 428.522 743.437 405.257 728.868C416.166 720.029 418.737 711.098 422.735 702.714C429.751 688.005 436.215 673.151 438.909 651.03C443.994 609.309 441.065 556.739 439.632 506.02C438.2 455.345 438.262 406.524 441.899 363.122C429.498 359.35 421.1 350.419 410.977 340.228C398.079 327.242 390.62 314.404 366.248 306.582L337.527 313.507C307.101 337.825 280.092 374.374 236.797 354.542C232.715 337.28 233.351 322.56 228.9 302.492C230.989 300.166 236.774 295.213 234.623 288.64C245.001 279.453 242.132 257.722 257.224 254.872C257.128 248.415 258.167 244.716 262.402 238.803L262.398 238.801Z" fill="#81836D"/>
<path id="path6144" opacity="0.25216" d="M533.608 256.114C533.87 267.86 533.738 279.378 526.464 286.789C528.903 296.965 524.798 297.256 520.936 304.26C531.608 319.09 552.643 322.244 548.664 330.543C547.155 333.691 538.771 341.26 526.998 344.472C537.267 349.386 559.724 347.949 554.423 359.341C552.066 364.404 535.074 372.218 527.52 375.967C535.467 380.413 562.594 382.917 559.697 391.578C558.389 395.489 550.574 398.856 531.404 399.578L551.36 413.166C564.021 481.569 572.281 583.501 593.196 639.946C600.533 659.752 618.666 684.478 633.235 716.369C635.559 717.238 637.813 718.226 639.997 719.15C631.932 694.801 615.76 668.259 604.555 640.727C597.797 624.119 592.752 604.584 588.433 586.697C576.317 536.515 572.502 480.343 568.694 426.44L565.893 399.958C570.85 396.556 576.753 385.053 575.788 379.512C574.725 373.413 564.219 369.873 560.314 364.847L560.748 361.117C565.122 356.444 569.181 351.356 567.841 346.684C566.494 341.993 559.72 337.724 554.813 333.033C557.253 328.995 561.47 325.162 560.06 321.124C557.915 314.982 548.433 308.628 544.675 302.487C542.966 296.205 541.394 289.522 540.231 281.592C542.632 272.355 538.453 264.214 533.787 256.161L533.608 256.114Z" fill="black"/>
<path id="path6284" opacity="0.13793" d="M550.592 568.928C554.293 567.506 558.452 568.695 567.015 595.004C578.666 640.195 593.211 681.176 614.75 711.966C603.81 720.792 593.376 712.023 579.839 706.214C568.422 663.694 558.441 615.037 550.591 568.929L550.592 568.928Z" fill="black"/>
<path id="path6286" opacity="0.13793" d="M491.119 604.246C494.622 588.982 503.158 579.29 514.406 572.603C511.528 621.874 507.543 671.814 519.646 712.067C486.363 731.123 455.711 736.95 427.082 732.576C459.92 699.921 483.095 658.755 491.119 604.245V604.246Z" fill="black"/>
<path id="path6288" opacity="0.14847" d="M463.057 304.225C480.612 320.748 498.647 320.637 512.452 316.378C501.124 324.581 486.105 324.787 471.702 320.8L463.057 304.225Z" fill="black"/>
</g>
<g id="warrior head">
<path id="path6132" d="M362.316 63.1254L391.788 64.0043C423.048 76.1295 444.411 104.457 459.391 141.94C438.666 162.484 416.185 177.857 390.426 183.587C361.376 176.636 329.237 177.092 307.737 152.047C316.519 108.083 339.347 78.8121 362.316 63.1224V63.1254Z" fill="#919191"/>
<path id="path6134" d="M399.84 92.4879C403.424 118.835 407.062 145.176 411.071 171.461C427.873 164.445 442.487 152.884 455.019 139.826C446.838 120.427 436.283 101.536 421.039 86.817C413.924 79.9611 405.747 74.0224 396.743 69.7331C397.775 77.3175 398.806 84.9015 399.837 92.4859L399.84 92.4879ZM358.068 70.3505C333.781 89.8024 318.193 118.777 311.791 149.041C325.454 159.83 341.159 168.931 358.578 171.242C359.047 137.464 358.932 103.68 358.629 69.9013L358.31 70.1565L358.068 70.3498V70.3505Z" fill="url(#paint2_radial)"/>
<path id="path6146" opacity="0.39009" d="M505.171 219.747L273.598 237.193L262.392 238.796C261.06 240.653 260.048 242.295 259.284 243.871C267.56 243.43 267.756 245.811 271.025 249.165C275.753 254.012 283.326 256.89 289.81 252.844C289.875 273.528 298.657 282.063 307.944 289.056C306.637 286.684 305.213 283.543 304.787 280.904L307.626 282.518C310.535 289.926 316.188 296.954 322.423 298.093C326.058 306.651 329.386 317.741 333.542 321.846C333.481 325.046 334.122 327.315 334.916 329.37C328.995 336.535 330.27 351.546 335.808 361.3C340.597 369.736 348.975 372.762 353.7 381.181C359.49 375.345 369.03 370.671 373.274 359.506C376.004 352.325 376.231 344.412 369.479 331.42C368.512 328.052 366.441 324.316 363.749 320.371C364.972 317.507 365.758 312.006 366.41 305.693C374.254 301.388 383.655 293.321 392.886 285.672C402.532 293.123 413.561 299.743 427.271 304.745C428.006 313.293 431.994 315.116 433.128 323.063C430.101 327.909 430.243 332.456 431.677 336.895C433.064 341.545 433.412 346.848 438.682 349.366C441.987 355.357 452.531 358.536 459.809 366.312C457.604 359.209 464.584 357.505 466.316 352.275C468.355 346.12 469.887 339.339 471.309 332.407C471.614 324.068 467.486 319.366 463.426 314.615C462.431 308.472 462.539 299.741 460.165 296.849C477.094 282.911 488.69 265.394 489.773 240.846L494.307 239.448C500.815 242.939 505.519 246.689 509.182 250.588C514.188 248.65 517.213 245.313 518.147 240.513C517.529 235.232 514.291 231.539 511.78 227.4C515.93 229.875 519.908 233.007 523.203 238.924C524.454 239.124 525.601 239.488 526.68 239.949L526.068 237.359L505.171 219.747Z" fill="black"/>
<path id="path6150" d="M301.02 181.513L469.231 176.396C473.848 176.096 476.158 179.372 477.215 184.585C486.069 197.705 496.003 202.395 505.929 207.164C512.527 211.132 523.334 211.981 523.314 220.86C526.068 228.727 527.33 234.589 527.761 239.338C524.486 237.07 521.461 234.429 517.145 233.734C514.006 228.086 510.208 225.089 506.253 222.725C508.648 226.679 511.735 230.212 512.324 235.255C511.435 239.839 508.551 243.018 503.781 244.869C500.291 241.146 495.811 237.565 489.609 234.232L485.282 235.571C484.249 259.013 473.204 275.736 457.074 289.047C459.336 291.809 459.236 300.15 460.183 306.017C464.051 310.554 467.989 315.036 467.697 322.999C466.343 329.619 464.876 336.095 462.932 341.974C461.282 346.967 454.631 348.6 456.732 355.383C449.797 347.958 439.758 344.918 436.609 339.197C431.588 336.792 431.255 331.734 429.933 327.292C428.567 323.054 428.423 318.703 431.309 314.076C430.228 306.487 426.437 304.749 425.735 296.586C412.672 291.809 402.162 285.49 392.972 278.374C384.176 285.679 375.215 293.38 367.741 297.492C367.12 303.521 366.371 308.773 365.205 311.508C367.77 315.276 369.746 318.847 370.667 322.062C377.101 334.468 376.879 342.024 374.277 348.882C370.232 359.543 361.152 364.009 355.634 369.583C351.131 361.541 343.148 358.656 338.585 350.601C333.308 341.285 332.084 326.944 337.727 320.102C336.969 318.14 336.367 315.969 336.424 312.913C332.464 308.993 329.284 298.413 325.821 290.24C319.88 289.152 314.495 282.444 311.724 275.369L309.024 273.823C309.43 276.344 310.781 279.342 312.028 281.608C303.179 274.93 294.81 266.776 294.748 247.025C288.569 250.888 281.361 248.137 276.856 243.508C273.262 239.814 273.576 237.368 261.469 238.851C261.451 231.881 262.332 226.611 265.661 222.648C272.026 215.073 281.342 210.72 292.232 205.669C295.005 197.199 296.18 184.439 301.019 181.513H301.02Z" fill="#BABE9A"/>
<path id="path6152" opacity="0.39009" d="M299.003 180.877L471.327 175.311L476.743 183.45C473.831 185.613 471.666 188.151 470.4 191.142L466.95 187.858C458.866 212.89 446.706 224.908 420.471 224.229C413.479 223.025 409.257 225.028 405.725 227.689L389.796 247.625L366.646 230.989C360.796 226.898 356.538 228.58 351.994 229.22C325.235 232.402 307.345 208.815 298.458 186.286L299.003 180.877Z" fill="black"/>
<path id="path6154" d="M361.83 62.6897C366.36 57.7194 371.636 54.6299 377.328 52.5839C383.36 55.2605 388.626 58.9414 392.721 64.1545C397.95 102.648 402.924 139.773 408.481 176.005C424.635 170.331 443.679 157.112 458.634 140.7L461.488 142.268C466.491 152.646 470.878 163.212 472.044 174.751C461.572 194.862 451.086 210.939 436.367 217.307C427.481 221.153 416.232 220.197 404.375 218.944C399.386 224.998 394.161 230.335 388.493 234.322C379.854 230.4 372.088 226.429 364.797 221.696C335.528 230.557 312.727 210.884 299.251 177.827L307.249 150.548C307.675 150.84 308.202 150.406 308.627 150.698C323.368 162.383 340.61 173.11 361.801 174.885C362.38 137.366 362.182 99.9761 361.835 62.6899L361.83 62.6897Z" fill="#F8F6DF"/>
<path id="path6168" d="M324.228 183.441C330.112 187.521 336.726 191.658 342.376 195.892C347.756 199.926 352.186 204.067 357.263 207.578L355.309 208.924C347.671 205.852 341.748 207.242 330.72 200.771C327.112 194.703 324.925 188.922 324.228 183.441Z" fill="#CCAC9D"/>
<path id="path6170" d="M446.627 181.099C440.743 185.179 433.511 189.108 427.861 193.344C422.481 197.376 416.921 201 411.842 204.509L414.518 205.545C422.154 202.474 427.873 203.346 438.901 196.874C443.125 191.74 445.93 186.579 446.626 181.098L446.627 181.099Z" fill="#CCAC9D"/>
<path id="path6186" d="M353.436 225.444L357.51 225.005C357.51 225.005 346.093 243.163 339.39 241.111C346.275 236.747 351.224 229.736 353.436 225.444Z" fill="black"/>
<path id="path6188" d="M419.331 221.7L413.218 220.966C413.218 220.966 424.635 229.528 432.794 229.528C426.709 226.702 423.652 225.477 419.331 221.7Z" fill="black"/>
<path id="path6190" d="M368.791 225.81L371.411 227.421C371.411 227.421 358.902 248.874 352.198 248.728C358.501 243.191 366.58 230.1 368.791 225.81Z" fill="black"/>
<path id="path6192" d="M406.086 220.526L403.467 222.138C405.25 225.96 418.231 245.935 427.553 243.885C420.887 242.01 408.879 229.578 406.086 220.526Z" fill="black"/>
<path id="path6194" d="M301.587 235.855C299.031 238.661 296.784 243.177 296.517 247.619L293.023 247.325C293.558 242.981 296.466 238.31 301.587 235.855Z" fill="black"/>
<path id="path6196" d="M477.736 211.978C483.203 222.842 483.268 231.165 483.535 235.608L487.029 235.315C486.493 230.971 484.167 218.097 477.737 211.978H477.736Z" fill="black"/>
<path id="path6198" d="M465.645 187.809L468.394 184.805C472.256 191.936 474.764 198.157 473.709 201.987C471.627 197.261 470.311 192.535 465.645 187.809Z" fill="black"/>
<path id="path6200" d="M376.712 55.7165L378.462 55.82C380.853 78.7817 385.226 126.906 384.045 146.246L376.712 55.7165Z" fill="black"/>
<path id="path6202" d="M384.851 148.878L392.46 226.536L388.885 231.516L384.851 148.878Z" fill="black"/>
<path id="path6230" opacity="0.34052" d="M381.089 59.2868L384 61.9237C388.845 114.35 393.496 167.1 400.594 215.744L394.191 222.483C388.263 172.17 384.688 115.703 381.092 59.2858L381.089 59.2868Z" fill="black"/>
<path id="path6234" opacity="0.34052" d="M430.575 167.547L438.289 162.858L442.072 179.706L436.397 183.222L430.575 167.547Z" fill="black"/>
<path id="path6236" opacity="0.34052" d="M441.052 199.045L444.982 192.599L446.583 204.905L443.672 208.421L441.052 199.045Z" fill="black"/>
<path id="path6238" opacity="0.34052" d="M310.128 157.128L314.245 159.821L308.893 190.897L303.542 181.056L310.128 157.128Z" fill="black"/>
<path id="path6240" opacity="0.56466" d="M315.275 160.651L320.01 163.758L314.863 200.014L311.159 192.763L315.275 160.651Z" fill="white"/>
<path id="path6242" opacity="0.56466" d="M365.081 63.6815L370.612 59.5796C370.194 115.468 372.642 169.19 375.27 222.778L366.246 217.211C365.346 166.035 364.465 114.86 365.081 63.6811V63.6815Z" fill="white"/>
<path id="path6246" opacity="0.35991" d="M478.735 213.212L480.722 220.301C481.94 252.019 471.716 266.152 447.535 278.42C451.21 284.553 455.222 297.997 452.909 307.736C463.519 322.683 458.469 330.903 451.292 338.847C441.652 336.299 430.352 328.264 436.112 313.018C430.897 306.095 427.845 291.581 429.184 282.331C413.872 281.668 401.207 276.892 390.941 268.704C384.894 276.015 373.115 282.442 358.67 284.856C359.303 294.904 358.319 305.659 355.69 313.518C373.753 337.005 357.978 337.691 354.391 350.819C348.289 342.981 331.54 336.806 344.165 319.542C342.799 316.207 341.078 313.364 341.146 307.967C335.81 299.425 330.64 290.84 331.749 280.677C320.826 274.734 315.412 263.069 304.763 254.284L303.235 261.897C297.581 253.789 298.871 243.935 304.178 233.069L295.39 239.503C279.331 244.454 275.666 230.372 261.834 232.3C261.569 234.298 261.471 236.472 261.476 238.851C273.585 237.367 273.266 239.822 276.861 243.516C281.365 248.145 288.574 250.892 294.753 247.028C294.816 266.78 303.186 274.935 312.034 281.613C310.788 279.347 309.435 276.353 309.029 273.832L311.729 275.369C314.5 282.444 319.885 289.151 325.826 290.239C329.289 298.411 332.462 308.995 336.422 312.914C336.363 315.972 336.976 318.144 337.733 320.105C332.092 326.948 333.31 341.285 338.586 350.601C343.15 358.656 351.135 361.544 355.639 369.585C361.156 364.011 370.238 359.544 374.283 348.883C376.885 342.025 377.101 334.472 370.667 322.067C369.745 318.851 367.769 315.284 365.204 311.517C366.37 308.781 367.129 303.523 367.751 297.494C375.224 293.381 384.182 285.686 392.978 278.381C402.17 285.496 412.67 291.807 425.732 296.584C426.433 304.746 430.229 306.491 431.31 314.08C428.424 318.707 428.569 323.058 429.935 327.296C431.257 331.738 431.587 336.8 436.608 339.204C439.758 344.925 449.795 347.955 456.729 355.38C454.63 348.598 461.281 346.967 462.931 341.974C464.874 336.095 466.34 329.622 467.694 323.002C467.985 315.039 464.049 310.555 460.181 306.017C459.233 300.151 459.335 291.808 457.074 289.046C473.204 275.735 484.249 259.011 485.281 235.566L489.611 234.232C495.813 237.565 500.295 241.148 503.785 244.872C508.556 243.022 511.441 239.843 512.33 235.258C511.74 230.216 508.649 226.674 506.256 222.721C510.21 225.085 514.005 228.083 517.145 233.733C521.46 234.427 524.491 237.068 527.765 239.334C527.335 234.587 526.076 228.731 523.32 220.863C523.325 218.73 522.701 217.057 521.666 215.698L517.514 223.222C515.311 219.693 508.569 218.656 502.243 217.389C502.451 222.587 506.208 228.8 500.41 232.271C493.99 229.894 485.526 219.689 478.735 213.211V213.212Z" fill="black"/>
<path id="path6232" opacity="0.34052" d="M444.947 157.96L455.445 149.258C460.883 156.731 464.476 165.688 467.177 175.364L454.827 195.666C453.008 182.674 450.567 169.86 444.947 157.96Z" fill="black"/>
</g>
</g>
</g>
<defs>
<linearGradient id="paint0_linear" x1="252.135" y1="420.85" x2="181.687" y2="408.375" gradientUnits="userSpaceOnUse">
<stop/>
<stop offset="1" stop-opacity="0"/>
</linearGradient>
<linearGradient id="paint1_linear" x1="329.847" y1="371.012" x2="359.003" y2="461.43" gradientUnits="userSpaceOnUse">
<stop/>
<stop offset="1" stop-opacity="0"/>
</linearGradient>
<radialGradient id="paint2_radial" cx="0" cy="0" r="1" gradientUnits="userSpaceOnUse" gradientTransform="translate(378.12 88.0887) rotate(89.9998) scale(75.0595 73.2746)">
<stop stop-color="white"/>
<stop offset="1" stop-color="white" stop-opacity="0"/>
</radialGradient>
</defs>
</svg>
