<svg class = 'sound-icon1' width="512" height="512" viewBox="0 0 512 512" fill="none" xmlns="http://www.w3.org/2000/svg">
<g id="icon-sound-2838772 1" clip-path="url(#clip0)">
<path id="Vector" d="M15 361H106C126.151 361 157.121 380.681 193.204 416.419C222.403 445.339 244.827 474.773 245.048 475.064C248.96 480.222 255.704 482.262 261.781 480.218C267.887 478.164 272 472.442 272 466V316C305.084 316 332 289.084 332 256C332 222.916 305.084 196 272 196V46C272 39.558 267.887 33.836 261.781 31.782C255.675 29.729 248.941 31.803 245.048 36.936C244.827 37.228 222.6 66.428 193.438 95.349C157.251 131.236 126.199 151 106 151H15C6.716 151 0 157.716 0 166V346C0 354.284 6.716 361 15 361ZM272 226C288.542 226 302 239.458 302 256C302 272.542 288.542 286 272 286V226ZM121 179.213C147.248 173.249 178.629 152.287 214.562 116.651C224.748 106.549 234.064 96.5 242 87.537V424.464C234.064 415.5 224.748 405.452 214.562 395.35C178.628 359.714 147.247 338.752 121 332.788V179.213ZM30 181H91V331H30V181Z" fill="white"/>
<g id="sound-on">
<path id="Vector_2" d="M424.817 96.97C418.959 102.828 418.959 112.325 424.817 118.183C461.692 155.058 482 204.002 482 256C482 307.998 461.692 356.942 424.817 393.817C418.959 399.675 418.959 409.172 424.817 415.03C430.674 420.887 440.171 420.889 446.03 415.03C488.571 372.489 512 316.011 512 256C512 195.989 488.571 139.511 446.03 96.97C440.172 91.112 430.674 91.112 424.817 96.97Z" fill="white"/>
<path id="Vector_3" d="M361.206 351.419C367.063 357.276 376.56 357.278 382.419 351.419C407.943 325.896 422 292.008 422 256C422 219.992 407.943 186.104 382.419 160.581C376.562 154.723 367.064 154.723 361.206 160.581C355.348 166.439 355.348 175.936 361.206 181.794C381.064 201.652 392 228.005 392 256C392 283.995 381.064 310.348 361.206 330.206C355.348 336.064 355.348 345.561 361.206 351.419Z" fill="white"/>
</g>
</g>
<defs>
<clipPath id="clip0">
<rect width="512" height="512" fill="white"/>
</clipPath>
</defs>
</svg>
