<svg width="2942" height="2626" viewBox="0 0 2942 2626" fill="none" xmlns="http://www.w3.org/2000/svg">
    <style>

        #dagger1 {
        transform-box: fill-box;
        transform-origin: center;
        animation: dagger1 0.5s linear forwards;
        }

        #dagger2 {
        transform-box: fill-box;
        transform-origin: center;
        animation: dagger2 0.5s linear forwards;
        }

        #dagger3 {
        transform-box: fill-box;
        transform-origin: center;
        animation: dagger3 0.5s linear forwards;
        }

        #dagger4 {
        transform-box: fill-box;
        transform-origin: center;
        animation: dagger4 0.5s linear forwards;
        }

        #dagger5 {
        transform-box: fill-box;
        transform-origin: center;
        animation: dagger5 0.5s linear forwards;
        }

        #dagger6 {
        transform-box: fill-box;
        transform-origin: center;
        animation: dagger6 0.5s linear forwards;
        }

        @keyframes dagger1 {
        0%{
        opacity:1;
        }

        99% {
        opacity:1;
        }

        100%{
        transform: translate(250px, -250px);
        opacity: 0;
        }
        }

        @keyframes dagger2 {
        0%{
        opacity:1;
        }

        99% {
        opacity:1;
        }

        100%{
        transform: translate(250px, 0px);
        opacity: 0;
        }
        }

        @keyframes dagger3 {
        0%{
        opacity:1;
        }

        99% {
        opacity:1;
        }

        100%{
        transform: translate(250px, 250px);
        opacity: 0;
        }
        }

        @keyframes dagger4 {
        0%{
        opacity:1;
        }

        99% {
        opacity:1;
        }

        100%{
        transform: translate(-250px, 250px);
        opacity: 0;
        }
        }

        @keyframes dagger5 {
        0%{
        opacity:1;
        }

        99% {
        opacity:1;
        }

        100%{
        transform: translate(-250px, 0px);
        opacity: 0;
        }
        }

        @keyframes dagger6 {
        0%{
        opacity:1;
        }

        99% {
        opacity:1;
        }

        100%{
        transform: translate(-250px, -250px);
        opacity: 0;
        }
        }
    </style>

    <g id="daggers" filter="url(#filter0_d)">
        <g id="dagger6" clip-path="url(#clip0)">
            <g id="Group">
                <path id="Vector"
                      d="M2547.62 2331.14C2564.91 2326.68 2584.04 2331.31 2597.46 2344.96C2607.9 2334.7 2623.63 2333.13 2635.68 2340.18C2642.4 2273.26 2394.42 2128.41 2331.16 2110.86C2345.9 2167.86 2488.1 2424.89 2555.12 2419.35C2548.29 2407.16 2550.12 2391.48 2560.57 2381.21C2547.15 2367.56 2542.86 2348.34 2547.62 2331.14Z"
                      fill="#E4E5E5"/>
                <path id="Vector_2"
                      d="M2597.46 2344.96C2584.04 2331.31 2564.91 2326.68 2547.62 2331.14C2542.86 2348.34 2547.15 2367.56 2560.57 2381.21C2550.13 2391.48 2548.29 2407.16 2555.12 2419.35L2588.47 2416.59L2632.34 2373.48L2635.68 2340.18C2623.63 2333.13 2607.9 2334.7 2597.46 2344.96Z"
                      fill="#FFBA50"/>
                <path id="Vector_3"
                      d="M2632.34 2373.48L2588.47 2416.58C2593.56 2436.24 2605.29 2457.5 2620.85 2477.19L2671.28 2391.58C2658.24 2383.28 2644.98 2376.98 2632.34 2373.48Z"
                      fill="#C7A87E"/>
                <path id="Vector_4"
                      d="M2671.28 2391.58L2620.85 2477.19C2636.74 2497.31 2656.63 2515.81 2677.51 2529.32L2728.29 2443.11C2712.06 2422.94 2691.94 2404.74 2671.28 2391.58Z"
                      fill="#947C6B"/>
                <path id="Vector_5"
                      d="M2728.29 2443.11L2677.51 2529.32C2690.8 2537.92 2704.48 2544.5 2717.8 2548.19L2761.67 2505.08C2756.34 2484.47 2744.17 2462.85 2728.29 2443.11Z"
                      fill="#C7A87E"/>
                <path id="Vector_6"
                      d="M2761.67 2505.08L2717.8 2548.19L2717.53 2579.04C2726.01 2579.63 2735.99 2575.74 2744 2567.87C2753.7 2577.74 2769.59 2579.06 2785.14 2572.84C2791.63 2557.4 2790.58 2541.49 2780.89 2531.62C2788.89 2523.75 2792.96 2513.83 2792.52 2505.35L2761.67 2505.08Z"
                      fill="#FFBA50"/>
                <path id="Vector_7"
                      d="M2785.14 2572.84C2769.59 2579.06 2753.7 2577.74 2744 2567.87C2735.99 2575.74 2726.01 2579.63 2717.53 2579.04L2717.45 2587.62C2717.36 2597.87 2725.67 2606.33 2735.92 2606.41L2800.22 2606.98C2810.47 2607.07 2818.92 2598.76 2819.01 2588.51L2819.57 2524.22C2819.66 2513.96 2811.35 2505.5 2801.1 2505.42L2792.52 2505.35C2792.96 2513.83 2788.89 2523.75 2780.89 2531.62C2790.58 2541.49 2791.63 2557.4 2785.14 2572.84Z"
                      fill="#E4E5E5"/>
            </g>
            <g id="Group_2">
                <path id="Vector_8"
                      d="M2324.15 2103.73C2321.6 2106.23 2320.58 2109.91 2321.48 2113.37C2328.95 2142.29 2368.38 2221.77 2415.14 2293.99C2440.52 2333.19 2465.25 2365.83 2486.67 2388.39C2514.31 2417.49 2536.97 2430.88 2555.95 2429.31C2555.95 2429.31 2555.95 2429.31 2555.95 2429.31L2581.22 2427.22C2587.3 2445.31 2598.29 2464.69 2612.82 2483.14C2612.84 2483.17 2612.86 2483.19 2612.88 2483.22C2618.3 2490.1 2624.21 2496.85 2630.54 2503.36C2654.87 2528.34 2682 2546.63 2707.74 2555.51L2707.53 2578.96L2707.46 2587.55C2707.39 2595.17 2710.31 2602.38 2715.68 2607.85C2721.05 2613.31 2728.21 2616.35 2735.84 2616.41L2800.12 2616.98C2807.75 2617.05 2814.96 2614.13 2820.43 2608.76C2825.89 2603.39 2828.94 2596.23 2829.01 2588.59L2829.57 2524.31C2829.57 2524.31 2829.57 2524.29 2829.57 2524.29C2829.63 2516.66 2826.71 2509.45 2821.34 2503.99C2815.97 2498.53 2808.81 2495.48 2801.19 2495.42L2792.61 2495.35L2769.17 2495.14C2760.73 2469.26 2742.93 2441.81 2718.37 2417.06C2705.21 2403.79 2690.98 2392.28 2676.68 2383.18C2676.57 2383.11 2676.47 2383.03 2676.36 2382.96C2676.3 2382.93 2676.24 2382.9 2676.18 2382.87C2665.04 2375.82 2653.86 2370.23 2643.1 2366.41L2644.89 2348.57L2645.63 2341.17C2645.74 2340.07 2645.81 2338.93 2645.82 2337.79C2645.98 2318.91 2632.38 2296.36 2604.24 2268.88C2582.07 2247.23 2550.43 2222.38 2512.73 2197.01C2447.3 2152.98 2368.72 2110.9 2333.83 2101.23C2330.39 2100.27 2326.7 2101.23 2324.15 2103.73ZM2556.07 2339.74C2568.64 2338.4 2581.35 2342.83 2590.33 2351.97C2592.18 2353.86 2594.72 2354.94 2597.37 2354.96C2600.02 2354.98 2602.58 2353.95 2604.47 2352.09C2609.96 2346.69 2617.8 2344.71 2625 2346.51L2622.75 2368.88L2584.04 2406.92L2561.64 2408.77C2561.26 2407.1 2561.06 2405.37 2561.08 2403.64C2561.13 2397.84 2563.44 2392.41 2567.58 2388.34C2571.51 2384.47 2571.57 2378.14 2567.7 2374.2C2559.89 2366.26 2555.65 2355.74 2555.75 2344.6C2555.76 2342.98 2555.87 2341.35 2556.07 2339.74ZM2657.64 2395.03L2619.91 2459.09C2610.92 2445.99 2603.88 2432.5 2599.74 2419.54L2635.1 2384.79C2642.51 2387.31 2650.08 2390.78 2657.64 2395.03ZM2750.4 2502.13L2715.05 2536.87C2707.19 2534.21 2699.16 2530.47 2691.15 2525.87L2729.25 2461.17C2738.72 2474.7 2746.11 2488.7 2750.4 2502.13ZM2727.76 2552.42L2765.72 2515.11L2780.48 2515.24C2778.99 2518.49 2776.73 2521.67 2773.88 2524.48C2771.91 2526.42 2770.91 2528.97 2770.89 2531.53C2770.86 2534.08 2771.82 2536.65 2773.75 2538.62C2778.36 2543.31 2779.29 2549.57 2779.25 2553.99C2779.22 2557.47 2778.58 2561.2 2777.39 2564.96C2766.68 2568.15 2756.86 2566.69 2751.13 2560.85C2747.26 2556.92 2740.93 2556.86 2736.99 2560.73C2734.14 2563.53 2730.91 2565.72 2727.63 2567.16L2727.76 2552.42V2552.42ZM2809.57 2524.12L2819.57 2524.2L2809.57 2524.13L2809.01 2588.43C2808.99 2590.71 2808.07 2592.87 2806.41 2594.49C2804.76 2596.12 2802.59 2597 2800.3 2596.98L2736 2596.42C2733.72 2596.4 2731.57 2595.48 2729.94 2593.82C2728.42 2592.28 2727.56 2590.29 2727.47 2588.16C2733.23 2586.88 2738.96 2584.32 2744.19 2580.66C2756.27 2587.95 2772.58 2588.63 2788.85 2582.12C2791.34 2581.13 2793.32 2579.18 2794.36 2576.71C2797.53 2569.16 2799.18 2561.57 2799.24 2554.16C2799.32 2545.9 2797.42 2538.39 2793.7 2532.03C2797.46 2526.85 2800.11 2521.19 2801.48 2515.45C2803.59 2515.58 2805.56 2516.47 2807.08 2518.01C2808.71 2519.67 2809.59 2521.83 2809.57 2524.12ZM2716.06 2444.16L2674.37 2514.94C2659.47 2504.12 2645.21 2490.74 2633.01 2476.25L2674.51 2405.81C2689.43 2416.48 2703.76 2429.75 2716.06 2444.16ZM2501.56 2213.6C2538.28 2238.31 2568.95 2262.38 2590.27 2283.19C2610.28 2302.74 2619.28 2316.65 2623.14 2326.03C2614.37 2325.32 2605.48 2327.36 2597.86 2332.04C2584.54 2321.96 2567.55 2317.67 2550.96 2320.27L2518.98 2287.73C2515.11 2283.79 2508.78 2283.73 2504.84 2287.6C2500.9 2291.48 2500.85 2297.81 2504.72 2301.75L2536.68 2334.27C2536.09 2337.62 2535.78 2341.02 2535.75 2344.43C2535.63 2357.89 2539.8 2370.73 2547.62 2381.39C2543.43 2387.92 2541.15 2395.52 2541.08 2403.47C2541.07 2404.47 2541.11 2405.47 2541.17 2406.46C2532.13 2402.46 2519.14 2393.53 2501.17 2374.62C2480.59 2352.94 2456.65 2321.3 2431.93 2283.12C2394.94 2226 2361.95 2162.93 2347.49 2127.34C2382.94 2142 2443.55 2174.56 2501.56 2213.6Z"
                      fill="#000001"/>
                <path id="Vector_9"
                      d="M2498.68 2281.42C2500.68 2279.48 2501.69 2276.91 2501.71 2274.33C2501.74 2271.79 2500.8 2269.24 2498.89 2267.28L2498.72 2267.11C2494.87 2263.15 2488.54 2263.05 2484.58 2266.9C2480.62 2270.75 2480.53 2277.08 2484.38 2281.04L2484.54 2281.21C2488.39 2285.17 2494.72 2285.27 2498.68 2281.42Z"
                      fill="#000001"/>
            </g>
        </g>
        <g id="dagger5" clip-path="url(#clip1)">
            <g id="Group_3">
                <path id="Vector_10"
                      d="M2535.94 1337C2544.87 1321.55 2561.59 1311.14 2580.72 1311.14C2580.73 1296.51 2590.63 1284.18 2604.11 1280.53C2561.09 1228.83 2283.96 1304.18 2227.1 1337C2278.09 1366.44 2561.08 1445.17 2604.11 1393.48C2590.63 1389.81 2580.73 1377.51 2580.73 1362.86C2561.59 1362.86 2544.87 1352.45 2535.94 1337Z"
                      fill="#E4E5E5"/>
                <path id="Vector_11"
                      d="M2580.73 1311.14C2561.59 1311.14 2544.87 1321.55 2535.94 1337C2544.87 1352.45 2561.59 1362.86 2580.73 1362.86C2580.73 1377.51 2590.63 1389.81 2604.11 1393.48L2625.52 1367.75L2625.52 1306.25L2604.11 1280.52C2590.63 1284.18 2580.73 1296.51 2580.73 1311.14Z"
                      fill="#FFBA50"/>
                <path id="Vector_12"
                      d="M2625.52 1306.25L2625.51 1367.75C2643.1 1377.9 2666.48 1384.43 2691.44 1387.14L2665.72 1291.16C2650.66 1294.64 2636.88 1299.69 2625.52 1306.25Z"
                      fill="#C7A87E"/>
                <path id="Vector_13"
                      d="M2665.72 1291.16L2691.44 1387.14C2716.93 1389.91 2744.06 1388.69 2768.33 1383.27L2742.43 1286.62C2716.67 1284.06 2689.59 1285.65 2665.72 1291.16Z"
                      fill="#947C6B"/>
                <path id="Vector_14"
                      d="M2742.43 1286.62L2768.33 1383.26C2783.77 1379.81 2798.06 1374.66 2810.02 1367.75L2810.03 1306.25C2791.59 1295.6 2767.64 1289.13 2742.43 1286.62Z"
                      fill="#C7A87E"/>
                <path id="Vector_15"
                      d="M2810.03 1306.25L2810.02 1367.75L2831.85 1389.57C2838.2 1383.93 2842.42 1374.09 2842.42 1362.86C2856.26 1362.86 2868.35 1352.45 2874.81 1337C2868.35 1321.55 2856.26 1311.14 2842.43 1311.14C2842.42 1299.92 2838.2 1290.07 2831.85 1284.43L2810.03 1306.25Z"
                      fill="#FFBA50"/>
                <path id="Vector_16"
                      d="M2874.81 1337C2868.35 1352.45 2856.26 1362.86 2842.42 1362.86C2842.42 1374.09 2838.2 1383.93 2831.84 1389.57L2837.91 1395.64C2845.15 1402.89 2857.02 1402.89 2864.26 1395.64L2909.72 1350.18C2916.98 1342.93 2916.98 1331.07 2909.72 1323.82L2864.26 1278.36C2857.01 1271.11 2845.15 1271.11 2837.91 1278.36L2831.84 1284.43C2838.2 1290.07 2842.42 1299.92 2842.43 1311.14C2856.26 1311.14 2868.35 1321.54 2874.81 1337Z"
                      fill="#E4E5E5"/>
            </g>
            <g id="Group_4">
                <path id="Vector_17"
                      d="M2217.1 1337C2217.1 1340.57 2219.01 1343.87 2222.1 1345.66C2247.97 1360.6 2332.29 1388.19 2416.58 1405.46C2462.33 1414.83 2502.95 1420.07 2534.05 1420.6C2574.18 1421.28 2599.62 1414.51 2611.79 1399.87C2611.79 1399.87 2611.79 1399.87 2611.79 1399.87L2628.02 1380.38C2645.18 1388.72 2666.7 1394.47 2690.05 1397.04C2690.08 1397.04 2690.12 1397.05 2690.15 1397.05C2698.85 1398.01 2707.81 1398.52 2716.89 1398.57C2751.76 1398.73 2783.82 1392.19 2808.2 1380.07L2824.77 1396.64L2830.85 1402.72C2836.24 1408.11 2843.43 1411.08 2851.09 1411.08C2858.75 1411.08 2865.94 1408.1 2871.33 1402.71L2916.79 1357.25C2922.19 1351.86 2925.16 1344.67 2925.16 1337.01C2925.16 1329.35 2922.19 1322.16 2916.79 1316.76L2871.33 1271.3C2871.33 1271.3 2871.32 1271.29 2871.32 1271.28C2865.93 1265.89 2858.74 1262.92 2851.08 1262.92C2843.41 1262.92 2836.23 1265.9 2830.84 1271.29L2824.77 1277.36L2808.2 1293.93C2783.82 1281.81 2751.77 1275.27 2716.9 1275.43C2698.2 1275.52 2680.03 1277.61 2663.52 1281.43C2663.39 1281.46 2663.26 1281.47 2663.13 1281.5C2663.07 1281.52 2663.01 1281.54 2662.95 1281.56C2650.11 1284.57 2638.28 1288.63 2628.02 1293.62L2616.55 1279.84L2611.79 1274.13C2611.08 1273.27 2610.31 1272.43 2609.51 1271.63C2596.15 1258.27 2570.54 1252.17 2531.21 1252.98C2500.24 1253.62 2460.33 1258.77 2415.81 1267.88C2338.55 1283.68 2253.46 1310.24 2222.1 1328.34C2219.01 1330.13 2217.1 1333.43 2217.1 1337ZM2548 1337C2555.84 1327.1 2567.91 1321.14 2580.73 1321.14C2583.38 1321.14 2585.92 1320.09 2587.8 1318.21C2589.67 1316.34 2590.73 1313.79 2590.73 1311.14C2590.73 1303.44 2594.8 1296.46 2601.13 1292.59L2615.52 1309.87L2615.51 1364.14L2601.14 1381.41C2599.67 1380.52 2598.31 1379.44 2597.08 1378.22C2592.98 1374.12 2590.72 1368.66 2590.72 1362.86C2590.72 1357.34 2586.25 1352.86 2580.72 1352.86C2569.59 1352.86 2559.11 1348.52 2551.24 1340.64C2550.08 1339.49 2549 1338.27 2548 1337ZM2658.62 1303.31L2677.87 1375.12C2662.22 1372.36 2647.66 1367.92 2635.52 1361.79L2635.52 1312.22C2642.51 1308.69 2650.29 1305.72 2658.62 1303.31ZM2800.03 1312.22L2800.03 1361.78C2792.62 1365.52 2784.32 1368.63 2775.42 1371.11L2755.99 1298.59C2772.28 1301.32 2787.44 1305.87 2800.03 1312.22ZM2820.03 1363.61L2820.03 1310.39L2830.46 1299.95C2831.73 1303.29 2832.42 1307.14 2832.42 1311.14C2832.42 1313.9 2833.54 1316.4 2835.35 1318.21C2837.16 1320.02 2839.66 1321.14 2842.42 1321.14C2849 1321.14 2854.11 1324.86 2857.23 1327.99C2859.7 1330.45 2861.91 1333.52 2863.76 1337C2858.53 1346.88 2850.6 1352.86 2842.42 1352.86C2836.9 1352.86 2832.42 1357.33 2832.42 1362.86C2832.42 1366.85 2831.72 1370.7 2830.45 1374.04L2820.03 1363.61V1363.61ZM2857.18 1285.43L2864.25 1278.36L2857.19 1285.43L2902.66 1330.9C2904.27 1332.52 2905.16 1334.69 2905.16 1337C2905.16 1339.32 2904.27 1341.49 2902.65 1343.1L2857.18 1388.57C2855.57 1390.19 2853.41 1391.08 2851.09 1391.08C2848.92 1391.08 2846.9 1390.3 2845.32 1388.87C2848.44 1383.87 2850.63 1377.99 2851.69 1371.69C2865.35 1368.18 2877.27 1357.03 2884.03 1340.86C2885.07 1338.39 2885.07 1335.61 2884.03 1333.14C2880.87 1325.58 2876.61 1319.09 2871.37 1313.85C2865.53 1308 2858.84 1304.1 2851.69 1302.29C2850.64 1295.98 2848.46 1290.13 2845.32 1285.12C2846.9 1283.71 2848.92 1282.92 2851.08 1282.92C2853.4 1282.92 2855.57 1283.81 2857.18 1285.43ZM2734.61 1296.08L2755.88 1375.43C2737.71 1378.47 2718.17 1379.26 2699.29 1377.81L2678.13 1298.84C2696.2 1295.67 2715.71 1294.75 2734.61 1296.08ZM2419.82 1287.47C2463.18 1278.6 2501.84 1273.59 2531.63 1272.98C2559.6 1272.4 2575.83 1275.73 2585.23 1279.56C2578.57 1285.31 2573.8 1293.09 2571.79 1301.8C2555.27 1304.23 2540.3 1313.35 2530.53 1327L2484.9 1327C2479.38 1327 2474.9 1331.48 2474.9 1337C2474.9 1342.52 2479.38 1347 2484.9 1347L2530.5 1347C2532.48 1349.77 2534.68 1352.37 2537.1 1354.79C2546.61 1364.3 2558.69 1370.33 2571.77 1372.22C2573.5 1379.79 2577.32 1386.74 2582.94 1392.36C2583.65 1393.07 2584.38 1393.74 2585.14 1394.4C2575.95 1398.04 2560.47 1401.05 2534.39 1400.6C2504.51 1400.09 2465.16 1394.99 2420.6 1385.87C2353.94 1372.21 2285.82 1351.53 2250.3 1336.9C2285.61 1321.9 2351.32 1301.48 2419.82 1287.47Z"
                      fill="#000001"/>
                <path id="Vector_18"
                      d="M2466.17 1337.06C2466.19 1334.27 2465.07 1331.75 2463.24 1329.93C2461.45 1328.13 2458.97 1327.01 2456.23 1327L2455.99 1327C2450.47 1326.97 2445.97 1331.42 2445.93 1336.94C2445.9 1342.46 2450.35 1346.97 2455.88 1347L2456.11 1347C2461.64 1347.03 2466.14 1342.58 2466.17 1337.06Z"
                      fill="#000001"/>
            </g>
        </g>
        <g id="dagger4" clip-path="url(#clip2)">
            <g id="Group_5">
                <path id="Vector_19"
                      d="M2547.14 286.38C2542.68 269.095 2547.31 249.958 2560.96 236.546C2550.7 226.106 2549.13 210.371 2556.18 198.318C2489.26 191.602 2344.41 439.579 2326.86 502.844C2383.86 488.106 2640.89 345.903 2635.35 278.88C2623.16 285.708 2607.48 283.876 2597.21 273.43C2583.56 286.848 2564.34 291.14 2547.14 286.38Z"
                      fill="#E4E5E5"/>
                <path id="Vector_20"
                      d="M2560.96 236.544C2547.31 249.957 2542.68 269.094 2547.14 286.379C2564.34 291.139 2583.56 286.847 2597.21 273.429C2607.48 283.875 2623.16 285.707 2635.35 278.879L2632.59 245.527L2589.48 201.657L2556.18 198.317C2549.13 210.369 2550.7 226.105 2560.96 236.544Z"
                      fill="#FFBA50"/>
                <path id="Vector_21"
                      d="M2589.48 201.657L2632.58 245.529C2652.24 240.445 2673.49 228.712 2693.19 213.149L2607.58 162.719C2599.27 175.759 2592.98 189.019 2589.48 201.657Z"
                      fill="#C7A87E"/>
                <path id="Vector_22"
                      d="M2607.58 162.719L2693.19 213.149C2713.31 197.258 2731.81 177.37 2745.32 156.493L2659.11 105.715C2638.94 121.946 2620.73 142.058 2607.58 162.719Z"
                      fill="#947C6B"/>
                <path id="Vector_23"
                      d="M2659.11 105.715L2745.32 156.493C2753.92 143.206 2760.49 129.518 2764.19 116.202L2721.08 72.3325C2700.47 77.6628 2678.85 89.8316 2659.11 105.715Z"
                      fill="#C7A87E"/>
                <path id="Vector_24"
                      d="M2721.08 72.3324L2764.18 116.202L2795.04 116.472C2795.63 107.994 2791.74 98.015 2783.87 90.004C2793.74 80.3058 2795.06 64.4127 2788.84 48.8589C2773.4 42.3678 2757.49 43.417 2747.62 53.1153C2739.75 45.1113 2729.83 41.0456 2721.35 41.4786L2721.08 72.3324Z"
                      fill="#FFBA50"/>
                <path id="Vector_25"
                      d="M2788.84 48.8591C2795.06 64.4129 2793.74 80.305 2783.87 90.0042C2791.74 98.0152 2795.63 107.995 2795.04 116.472L2803.62 116.547C2813.87 116.644 2822.33 108.332 2822.41 98.0789L2822.98 33.7854C2823.07 23.5338 2814.76 15.077 2804.51 14.9915L2740.21 14.4324C2729.96 14.3369 2721.5 22.6494 2721.42 32.8991L2721.35 41.4788C2729.83 41.0458 2739.75 45.1125 2747.62 53.1155C2757.48 43.4172 2773.4 42.367 2788.84 48.8591Z"
                      fill="#E4E5E5"/>
            </g>
            <g id="Group_6">
                <path id="Vector_26"
                      d="M2319.73 509.852C2322.23 512.4 2325.91 513.42 2329.37 512.525C2358.29 505.047 2437.77 465.626 2509.99 418.863C2549.19 393.483 2581.83 368.748 2604.39 347.328C2633.49 319.688 2646.88 297.028 2645.31 278.056C2645.31 278.056 2645.31 278.056 2645.31 278.055L2643.22 252.781C2661.31 246.7 2680.68 235.714 2699.14 221.185C2699.17 221.165 2699.19 221.143 2699.22 221.123C2706.1 215.702 2712.85 209.792 2719.36 203.456C2744.34 179.132 2762.63 152.003 2771.51 126.266L2794.96 126.47L2803.54 126.545C2811.17 126.612 2818.38 123.691 2823.85 118.319C2829.31 112.949 2832.35 105.789 2832.41 98.166L2832.97 33.8805C2833.05 26.2508 2830.13 19.0391 2824.76 13.5731C2819.39 8.108 2812.23 5.06141 2804.59 4.99474L2740.31 4.43373C2740.31 4.43371 2740.29 4.4336 2740.29 4.43358C2732.66 4.36701 2725.45 7.28822 2719.99 12.6597C2714.53 18.0313 2711.48 25.19 2711.42 32.8147L2711.35 41.3924L2711.14 64.8315C2685.26 73.2689 2657.81 91.0751 2633.05 115.632C2619.78 128.795 2608.28 143.022 2599.18 157.322C2599.11 157.431 2599.03 157.53 2598.96 157.643C2598.93 157.701 2598.9 157.759 2598.87 157.816C2591.82 168.963 2586.23 180.145 2582.41 190.899L2564.57 189.109L2557.17 188.367C2556.07 188.257 2554.93 188.195 2553.79 188.185C2534.9 188.02 2512.36 201.62 2484.88 229.762C2463.23 251.928 2438.38 283.573 2413.01 321.273C2368.98 386.702 2326.9 465.283 2317.22 500.172C2316.27 503.613 2317.23 507.304 2319.73 509.852ZM2555.74 277.927C2554.4 265.361 2558.83 252.654 2567.97 243.676C2569.86 241.816 2570.94 239.282 2570.96 236.63C2570.98 233.979 2569.95 231.426 2568.09 229.533C2562.69 224.04 2560.71 216.201 2562.51 209.005L2584.88 211.248L2622.92 249.96L2624.77 272.357C2623.1 272.745 2621.37 272.937 2619.64 272.922C2613.84 272.871 2608.41 270.564 2604.34 266.425C2600.47 262.486 2594.14 262.43 2590.2 266.301C2582.25 274.107 2571.74 278.352 2560.6 278.255C2558.97 278.24 2557.35 278.131 2555.74 277.927ZM2611.03 176.358L2675.09 214.089C2661.99 223.086 2648.5 230.12 2635.54 234.261L2600.79 198.905C2603.3 191.492 2606.78 183.917 2611.03 176.358ZM2718.13 83.6002L2752.87 118.953C2750.21 126.809 2746.47 134.844 2741.86 142.853L2677.17 104.747C2690.7 95.2813 2704.7 87.8902 2718.13 83.6002ZM2768.42 106.239L2731.11 68.2769L2731.24 53.5205C2734.49 55.0148 2737.67 57.2688 2740.48 60.1244C2742.42 62.0933 2744.97 63.0926 2747.53 63.1149C2750.08 63.1373 2752.65 62.1826 2754.62 60.2487C2759.31 55.6375 2765.57 54.7151 2769.99 54.7536C2773.47 54.784 2777.2 55.4186 2780.96 56.6065C2784.15 67.3187 2782.69 77.1363 2776.85 82.8706C2772.92 86.7414 2772.86 93.0721 2776.73 97.0121C2779.53 99.8576 2781.72 103.095 2783.16 106.368L2768.42 106.239V106.239ZM2740.12 24.4318L2740.2 14.4322L2740.13 24.4319L2804.43 24.9931C2806.71 25.013 2808.87 25.9338 2810.49 27.5871C2812.12 29.2403 2813 31.4091 2812.98 33.7L2812.41 97.9975C2812.4 100.281 2811.48 102.435 2809.82 104.059C2808.28 105.577 2806.29 106.437 2804.16 106.53C2802.88 100.775 2800.32 95.0458 2796.66 89.8067C2803.95 77.7318 2804.63 61.4212 2798.12 45.1478C2797.13 42.664 2795.18 40.682 2792.71 39.6444C2785.16 36.4663 2777.57 34.822 2770.16 34.7574C2761.9 34.6853 2754.39 36.5838 2748.02 40.3054C2742.85 36.5452 2737.19 33.8957 2731.45 32.5245C2731.58 30.4125 2732.47 28.4362 2734.01 26.9216C2735.66 25.295 2737.83 24.4119 2740.12 24.4318ZM2660.16 117.939L2730.94 159.631C2720.12 174.528 2706.74 188.79 2692.25 200.987L2621.81 159.494C2632.48 144.571 2645.75 130.245 2660.16 117.939ZM2429.6 332.439C2454.31 295.724 2478.37 265.05 2499.19 243.735C2518.74 223.717 2532.65 214.72 2542.03 210.861C2541.32 219.633 2543.36 228.522 2548.04 236.142C2537.96 249.46 2533.67 266.455 2536.27 283.039L2503.73 315.02C2499.79 318.891 2499.73 325.223 2503.6 329.162C2507.48 333.101 2513.81 333.156 2517.75 329.285L2550.27 297.322C2553.62 297.911 2557.02 298.223 2560.43 298.253C2573.89 298.371 2586.73 294.204 2597.38 286.384C2603.92 290.573 2611.52 292.852 2619.47 292.921C2620.47 292.93 2621.46 292.895 2622.46 292.832C2618.46 301.867 2609.53 314.864 2590.61 332.827C2568.94 353.409 2537.3 377.354 2499.12 402.076C2442 439.059 2378.93 472.055 2343.34 486.511C2358 451.065 2390.56 390.448 2429.6 332.439Z"
                      fill="#000001"/>
                <path id="Vector_27"
                      d="M2497.42 335.32C2495.48 333.324 2492.91 332.31 2490.33 332.288C2487.79 332.266 2485.24 333.204 2483.28 335.114L2483.11 335.28C2479.15 339.128 2479.05 345.459 2482.9 349.421C2486.75 353.382 2493.08 353.475 2497.04 349.626L2497.21 349.46C2501.17 345.613 2501.27 339.281 2497.42 335.32Z"
                      fill="#000001"/>
            </g>
        </g>
        <g id="dagger3" clip-path="url(#clip3)">
            <g id="Group_7">
                <path id="Vector_28"
                      d="M394.862 286.382C377.658 291.141 358.443 286.848 344.794 273.431C334.535 283.869 318.83 285.717 306.656 278.881C301.109 345.905 551.576 486.404 615.137 502.844C599.407 446.111 452.74 191.605 385.824 198.316C392.864 210.379 391.306 226.095 381.041 236.545C394.694 249.957 399.321 269.098 394.862 286.382Z"
                      fill="#E4E5E5"/>
                <path id="Vector_29"
                      d="M344.793 273.431C358.442 286.848 377.657 291.141 394.861 286.382C399.32 269.098 394.693 249.959 381.04 236.545C391.305 226.096 392.863 210.379 385.823 198.318L352.524 201.66L309.413 245.529L306.655 278.881C318.828 285.717 334.534 283.869 344.793 273.431Z"
                      fill="#FFBA50"/>
                <path id="Vector_30"
                      d="M309.413 245.527L352.526 201.661C347.1 182.098 334.998 161.05 319.093 141.628L270.165 228.107C283.348 236.183 296.716 242.243 309.413 245.527Z"
                      fill="#C7A87E"/>
                <path id="Vector_31"
                      d="M270.165 228.107L319.093 141.628C302.853 121.788 282.646 103.643 261.537 90.4974L212.271 177.578C228.851 197.463 249.277 215.314 270.165 228.107Z"
                      fill="#947C6B"/>
                <path id="Vector_32"
                      d="M212.271 177.579L261.537 90.4984C248.101 82.1334 234.3 75.7946 220.922 72.3362L177.812 116.201C183.501 136.717 196.045 158.121 212.271 177.579Z"
                      fill="#C7A87E"/>
                <path id="Vector_33"
                      d="M177.812 116.202L220.922 72.337L220.653 41.4792C212.167 41.0442 202.257 45.1069 194.385 53.1159C184.516 43.4176 168.602 42.3685 153.159 48.8595C146.939 64.4154 148.265 80.3054 158.134 90.0026C150.269 98.0096 146.377 107.998 146.958 116.472L177.812 116.202Z"
                      fill="#FFBA50"/>
                <path id="Vector_34"
                      d="M153.159 48.8595C168.602 42.3695 184.515 43.4177 194.385 53.116C202.257 45.1069 212.167 41.0443 220.653 41.4793L220.578 32.9016C220.497 22.6499 212.038 14.3354 201.785 14.4329L137.492 14.992C127.24 15.0774 118.93 23.5343 119.023 33.7879L119.586 98.0794C119.67 108.333 128.129 116.647 138.378 116.548L146.958 116.473C146.377 107.999 150.27 98.0106 158.134 90.0037C148.265 80.3064 146.938 64.4164 153.159 48.8595Z"
                      fill="#E4E5E5"/>
            </g>
            <g id="Group_8">
                <path id="Vector_35"
                      d="M622.269 509.853C624.773 507.306 625.728 503.615 624.773 500.172C616.792 471.386 575.99 392.605 527.973 321.208C501.913 282.46 476.612 250.255 454.801 228.077C426.658 199.456 403.767 186.466 384.826 188.367C384.826 188.367 384.826 188.367 384.825 188.367L359.591 190.899C353.195 172.921 341.873 153.739 327.024 135.538C327.004 135.513 326.982 135.487 326.961 135.462C321.421 128.678 315.394 122.03 308.946 115.635C284.188 91.0776 256.745 73.2704 230.856 64.834L230.652 41.3919L230.577 32.8023C230.51 25.1736 227.464 18.0169 221.998 12.6484C216.533 7.27985 209.321 4.36167 201.698 4.43319L137.413 4.9942C129.783 5.05579 122.623 8.09938 117.252 13.5625C111.881 19.0255 108.96 26.2353 109.027 33.875L109.588 98.1606C109.588 98.1626 109.588 98.1756 109.588 98.1776C109.654 105.806 112.701 112.964 118.167 118.332C123.633 123.701 130.844 126.618 138.468 126.548L147.046 126.473L170.485 126.268C179.373 152.004 197.656 179.133 222.641 203.457C236.033 216.496 250.459 227.746 264.916 236.596C265.026 236.664 265.126 236.746 265.24 236.812C265.299 236.843 265.357 236.868 265.415 236.898C276.683 243.753 287.961 249.145 298.78 252.783L297.302 270.647L296.689 278.057C296.598 279.164 296.556 280.304 296.566 281.441C296.731 300.329 310.722 322.63 339.34 349.617C361.88 370.873 393.953 395.169 432.09 419.88C498.278 462.766 577.581 503.461 612.634 512.527C616.092 513.42 619.765 512.402 622.269 509.853ZM386.261 277.929C373.72 279.492 360.938 275.281 351.801 266.299C349.909 264.441 347.356 263.408 344.704 263.431C342.053 263.454 339.518 264.531 337.659 266.423C332.26 271.917 324.458 274.038 317.231 272.362L319.083 249.957L357.125 211.249L379.486 209.005C379.904 210.672 380.126 212.392 380.141 214.126C380.191 219.923 377.979 225.395 373.912 229.535C370.041 233.475 370.096 239.805 374.034 243.675C381.978 251.483 386.406 261.919 386.503 273.06C386.517 274.688 386.436 276.313 386.261 277.929ZM283.742 224.418L320.349 159.713C329.573 172.648 336.842 186.02 341.209 198.905L306.464 234.26C299.009 231.879 291.374 228.539 283.742 224.418ZM189.129 118.955L223.87 83.6017C231.771 86.1269 239.871 89.7243 247.958 94.1889L210.987 159.538C201.287 146.173 193.653 132.303 189.129 118.955ZM210.887 68.2794L173.581 106.24L158.825 106.369C160.263 103.099 162.461 99.8722 165.267 97.0166C167.202 95.0467 168.156 92.4793 168.134 89.9204C168.112 87.3624 167.112 84.8121 165.144 82.8772C160.452 78.2639 159.42 72.0277 159.382 67.6079C159.351 64.124 159.921 60.3809 161.043 56.604C171.698 53.2258 181.539 54.517 187.375 60.2513C191.314 64.1211 197.644 64.0668 201.516 60.1279C204.312 57.2834 207.511 55.0294 210.758 53.532L210.887 68.2794V68.2794ZM129.586 98.002L119.586 98.0903L129.586 97.992L129.025 33.6905C129.005 31.4056 129.888 29.2368 131.513 27.5846C133.137 25.9313 135.29 25.0125 137.581 24.9935L201.879 24.4324C204.163 24.4114 206.331 25.2926 207.985 26.9172C209.529 28.4328 210.424 30.412 210.554 32.538C204.823 33.919 199.139 36.5788 193.964 40.3281C181.764 33.2522 165.444 32.8507 149.286 39.6439C146.82 40.6815 144.873 42.6635 143.878 45.1483C140.833 52.7612 139.321 60.3767 139.386 67.7814C139.458 76.0481 141.487 83.5206 145.319 89.8194C141.65 95.0547 139.099 100.761 137.829 106.53C135.715 106.438 133.723 105.578 132.182 104.064C130.527 102.439 129.606 100.287 129.586 98.002ZM224.474 176.316L264.925 104.815C280.008 115.377 294.501 128.507 306.949 142.779L266.692 213.937C251.585 203.528 237.03 190.512 224.474 176.316ZM442.965 403.094C405.825 379.03 374.735 355.506 353.06 335.064C332.704 315.868 323.466 302.117 319.444 292.805C328.227 293.365 337.079 291.167 344.616 286.36C358.108 296.202 375.176 300.191 391.711 297.305L424.255 329.285C428.194 333.156 434.526 333.1 438.398 329.162C442.269 325.222 442.212 318.891 438.274 315.02L405.748 283.059C406.278 279.699 406.531 276.294 406.502 272.883C406.384 259.425 401.994 246.661 393.989 236.142C398.064 229.533 400.209 221.9 400.14 213.949C400.131 212.948 400.079 211.952 399.999 210.957C409.102 214.799 422.253 223.499 440.543 242.1C461.5 263.412 485.994 294.628 511.379 332.369C549.353 388.834 583.445 451.324 598.519 486.655C562.823 472.613 501.647 441.116 442.965 403.094Z"
                      fill="#000001"/>
                <path id="Vector_36"
                      d="M444.662 335.24C442.7 337.214 441.732 339.798 441.754 342.378C441.777 344.917 442.76 347.45 444.704 349.382L444.872 349.548C448.789 353.442 455.12 353.424 459.014 349.508C462.908 345.59 462.891 339.26 458.973 335.366L458.804 335.197C454.888 331.304 448.556 331.322 444.662 335.24Z"
                      fill="#000001"/>
            </g>
        </g>
        <g id="dagger2" clip-path="url(#clip4)">
            <g id="Group_9">
                <path id="Vector_37"
                      d="M406.065 1337C397.129 1352.45 380.415 1362.86 361.276 1362.86C361.274 1377.49 351.369 1389.82 337.894 1393.48C380.915 1445.17 658.039 1369.83 714.896 1337C663.912 1307.56 380.916 1228.83 337.892 1280.52C351.368 1284.19 361.272 1296.49 361.275 1311.14C380.414 1311.14 397.13 1321.55 406.065 1337Z"
                      fill="#E4E5E5"/>
                <path id="Vector_38"
                      d="M361.275 1362.86C380.414 1362.86 397.128 1352.46 406.064 1337C397.13 1321.55 380.414 1311.14 361.274 1311.14C361.272 1296.5 351.367 1284.19 337.893 1280.53L316.484 1306.25L316.484 1367.75L337.893 1393.48C351.367 1389.82 361.274 1377.49 361.275 1362.86Z"
                      fill="#FFBA50"/>
                <path id="Vector_39"
                      d="M316.483 1367.75L316.486 1306.25C298.905 1296.1 275.52 1289.57 250.563 1286.86L276.279 1382.84C291.342 1379.36 305.125 1374.31 316.483 1367.75Z"
                      fill="#C7A87E"/>
                <path id="Vector_40"
                      d="M276.279 1382.84L250.563 1286.86C225.074 1284.09 197.943 1285.32 173.673 1290.74L199.569 1387.38C225.332 1389.94 252.414 1388.35 276.279 1382.84Z"
                      fill="#947C6B"/>
                <path id="Vector_41"
                      d="M199.57 1387.38L173.673 1290.74C158.227 1294.19 143.941 1299.34 131.975 1306.25L131.972 1367.75C150.41 1378.4 174.359 1384.87 199.57 1387.38Z"
                      fill="#C7A87E"/>
                <path id="Vector_42"
                      d="M131.972 1367.75L131.976 1306.25L110.155 1284.43C103.798 1290.07 99.5771 1299.91 99.5757 1311.14C85.739 1311.14 73.6531 1321.55 67.1881 1337C73.6545 1352.46 85.7383 1362.86 99.5742 1362.86C99.5764 1374.08 103.801 1383.93 110.155 1389.57L131.972 1367.75Z"
                      fill="#FFBA50"/>
                <path id="Vector_43"
                      d="M67.188 1337C73.6538 1321.55 85.7383 1311.14 99.5756 1311.14C99.5771 1299.91 103.798 1290.07 110.155 1284.43L104.09 1278.36C96.8462 1271.11 84.9852 1271.11 77.7409 1278.36L32.2753 1323.83C25.0232 1331.07 25.0232 1342.93 32.2767 1350.18L77.7409 1395.64C84.9873 1402.89 96.8476 1402.89 104.089 1395.64L110.156 1389.57C103.802 1383.94 99.5777 1374.08 99.5749 1362.86C85.739 1362.86 73.6545 1352.46 67.188 1337Z"
                      fill="#E4E5E5"/>
            </g>
            <g id="Group_10">
                <path id="Vector_44"
                      d="M724.896 1337C724.896 1333.43 722.991 1330.13 719.896 1328.34C694.027 1313.4 609.707 1285.81 525.416 1268.54C479.67 1259.17 439.051 1253.94 407.95 1253.4C367.816 1252.72 342.384 1259.49 330.207 1274.13C330.207 1274.13 330.207 1274.13 330.206 1274.13L313.983 1293.62C296.82 1285.28 275.299 1279.53 251.951 1276.96C251.919 1276.96 251.885 1276.95 251.853 1276.95C243.147 1275.99 234.188 1275.48 225.106 1275.44C190.236 1275.27 158.181 1281.81 133.802 1293.94L117.226 1277.36L111.152 1271.28C105.757 1265.89 98.568 1262.92 90.9065 1262.92C83.2457 1262.92 76.0566 1265.9 70.6698 1271.29L25.2113 1316.75C19.8126 1322.14 16.8392 1329.33 16.8371 1336.99C16.8357 1344.65 19.8055 1351.84 25.2078 1357.25L70.6663 1402.7C70.6677 1402.71 70.6769 1402.71 70.6783 1402.72C76.0728 1408.11 83.2627 1411.08 90.9242 1411.08C98.5857 1411.08 105.773 1408.1 111.162 1402.71L117.228 1396.64L133.802 1380.07C158.18 1392.19 190.235 1398.73 225.105 1398.57C243.796 1398.48 261.971 1396.39 278.485 1392.57C278.612 1392.54 278.74 1392.53 278.868 1392.5C278.931 1392.48 278.99 1392.46 279.053 1392.44C291.895 1389.43 303.717 1385.37 313.985 1380.38L325.451 1394.16L330.207 1399.87C330.919 1400.73 331.688 1401.57 332.492 1402.37C345.848 1415.73 371.458 1421.83 410.785 1421.02C441.761 1420.38 481.666 1415.23 526.188 1406.13C603.455 1390.32 688.542 1363.76 719.898 1345.66C722.99 1343.88 724.896 1340.57 724.896 1337ZM394.005 1337C386.155 1346.91 374.087 1352.86 361.275 1352.86C358.623 1352.86 356.078 1353.91 354.203 1355.79C352.328 1357.66 351.275 1360.21 351.275 1362.86C351.275 1370.56 347.197 1377.54 340.867 1381.41L326.485 1364.14L326.487 1309.86L340.863 1292.59C342.33 1293.49 343.694 1294.56 344.92 1295.78C349.019 1299.88 351.277 1305.34 351.277 1311.14C351.278 1316.66 355.753 1321.14 361.276 1321.14C372.414 1321.14 382.887 1325.48 390.765 1333.36C391.916 1334.51 392.997 1335.73 394.005 1337ZM283.377 1370.69L264.134 1298.88C279.78 1301.64 294.337 1306.09 306.483 1312.22L306.481 1361.78C299.495 1365.31 291.709 1368.28 283.377 1370.69ZM141.974 1361.78L141.974 1312.22C149.379 1308.48 157.678 1305.37 166.575 1302.89L186.01 1375.41C169.723 1372.68 154.557 1368.13 141.974 1361.78ZM121.974 1310.39L121.973 1363.61L111.538 1374.05C110.271 1370.71 109.578 1366.87 109.578 1362.86C109.577 1360.1 108.458 1357.6 106.649 1355.79C104.84 1353.98 102.34 1352.86 99.5799 1352.86C92.9995 1352.86 87.8928 1349.14 84.7674 1346.01C82.3038 1343.55 80.0864 1340.48 78.2394 1337C83.4713 1327.12 91.3958 1321.14 99.5771 1321.14C105.099 1321.14 109.576 1316.67 109.577 1311.14C109.578 1307.16 110.279 1303.31 111.546 1299.96L121.974 1310.39V1310.39ZM84.819 1388.57L77.7487 1395.65L84.812 1388.57L39.3422 1343.1C37.7264 1341.48 36.8362 1339.32 36.8369 1337C36.8369 1334.68 37.7286 1332.52 39.3492 1330.9L84.8162 1285.43C86.4305 1283.81 88.595 1282.92 90.9129 1282.92C93.0766 1282.92 95.1025 1283.71 96.685 1285.13C93.5652 1290.13 91.3753 1296.01 90.3125 1302.31C76.6512 1305.82 64.7294 1316.97 57.9667 1333.14C56.935 1335.61 56.935 1338.39 57.9674 1340.86C61.131 1348.42 65.3906 1354.91 70.6267 1360.15C76.4723 1366 83.1573 1369.9 90.3055 1371.71C91.3577 1378.02 93.5384 1383.87 96.6758 1388.88C95.1032 1390.3 93.0802 1391.08 90.9192 1391.08C88.5999 1391.08 86.4348 1390.19 84.819 1388.57ZM207.389 1377.92L186.125 1298.57C204.286 1295.53 223.826 1294.74 242.708 1296.2L263.87 1375.17C245.8 1378.33 226.295 1379.25 207.389 1377.92ZM522.179 1386.53C478.822 1395.4 440.159 1400.41 410.371 1401.02C382.397 1401.6 366.17 1398.27 356.774 1394.44C363.432 1388.69 368.204 1380.92 370.211 1372.2C386.733 1369.77 401.702 1360.65 411.473 1347L457.101 1347C462.623 1347 467.1 1342.52 467.102 1337C467.101 1331.48 462.623 1327 457.1 1327L411.5 1327C409.523 1324.23 407.317 1321.63 404.905 1319.22C395.388 1309.7 383.31 1303.67 370.229 1301.78C368.503 1294.21 364.683 1287.26 359.061 1281.64C358.353 1280.93 357.617 1280.26 356.862 1279.6C366.048 1275.96 381.526 1272.95 407.609 1273.4C437.494 1273.91 476.845 1279.01 521.403 1288.13C588.065 1301.79 656.18 1322.47 691.696 1337.1C656.394 1352.11 590.684 1372.52 522.179 1386.53Z"
                      fill="#000001"/>
                <path id="Vector_45"
                      d="M475.829 1336.94C475.814 1339.73 476.935 1342.25 478.759 1344.07C480.554 1345.87 483.03 1346.99 485.771 1347L486.008 1347C491.531 1347.03 496.034 1342.58 496.067 1337.06C496.098 1331.54 491.649 1327.03 486.125 1327L485.886 1327C480.365 1326.97 475.861 1331.42 475.829 1336.94Z"
                      fill="#000001"/>
            </g>
        </g>
        <g id="dagger1" clip-path="url(#clip5)">
            <g id="Group_11">
                <path id="Vector_46"
                      d="M394.624 2331.38C399.232 2348.62 394.772 2367.8 381.236 2381.33C391.584 2391.68 393.295 2407.4 386.353 2419.52C453.326 2425.65 596.006 2176.42 613 2113C556.132 2128.24 300.355 2272.68 306.482 2339.65C318.606 2332.71 334.308 2334.41 344.668 2344.76C358.199 2331.23 377.379 2326.77 394.624 2331.38Z"
                      fill="#E4E5E5"/>
                <path id="Vector_47"
                      d="M381.236 2381.33C394.772 2367.8 399.232 2348.62 394.624 2331.38C377.379 2326.77 358.2 2331.23 344.668 2344.77C334.309 2334.41 318.606 2332.71 306.484 2339.65L309.535 2372.98L353.026 2416.47L386.353 2419.52C393.295 2407.4 391.584 2391.68 381.236 2381.33Z"
                      fill="#FFBA50"/>
                <path id="Vector_48"
                      d="M353.025 2416.47L309.536 2372.97C289.927 2378.23 268.774 2390.15 249.214 2405.88L335.263 2455.56C343.453 2442.45 349.63 2429.14 353.025 2416.47Z"
                      fill="#C7A87E"/>
                <path id="Vector_49"
                      d="M335.263 2455.56L249.214 2405.88C229.233 2421.95 210.912 2442 197.583 2462.99L284.23 2513.01C304.259 2496.61 322.288 2476.34 335.263 2455.56Z"
                      fill="#947C6B"/>
                <path id="Vector_50"
                      d="M284.231 2513.01L197.584 2462.99C189.102 2476.35 182.643 2490.1 179.068 2503.44L222.555 2546.94C243.12 2541.43 264.632 2529.07 284.231 2513.01Z"
                      fill="#C7A87E"/>
                <path id="Vector_51"
                      d="M222.556 2546.94L179.069 2503.44H148.21C147.701 2511.93 151.677 2521.87 159.617 2529.81C149.833 2539.6 148.645 2555.5 155.001 2571C170.502 2577.36 186.403 2576.17 196.186 2566.38C204.124 2574.32 214.078 2578.3 222.557 2577.79L222.556 2546.94Z"
                      fill="#FFBA50"/>
                <path id="Vector_52"
                      d="M155.001 2571C148.646 2555.5 149.833 2539.6 159.617 2529.81C151.677 2521.87 147.701 2511.93 148.21 2503.44H139.632C129.38 2503.44 120.992 2511.82 121 2522.08L120.998 2586.37C120.994 2596.62 129.378 2605.01 139.632 2605L203.926 2605C214.18 2605.01 222.567 2596.62 222.558 2586.37V2577.79C214.079 2578.3 204.125 2574.32 196.187 2566.38C186.404 2576.17 170.503 2577.36 155.001 2571Z"
                      fill="#E4E5E5"/>
            </g>
            <g id="Group_12">
                <path id="Vector_53"
                      d="M620.071 2105.93C617.546 2103.41 613.863 2102.42 610.412 2103.34C581.557 2111.07 502.423 2151.19 430.61 2198.58C391.636 2224.3 359.212 2249.32 336.844 2270.93C307.979 2298.83 294.789 2321.6 296.525 2340.56C296.525 2340.56 296.525 2340.56 296.525 2340.56L298.837 2365.82C280.803 2372.05 261.523 2383.21 243.193 2397.9C243.168 2397.92 243.142 2397.94 243.117 2397.96C236.285 2403.44 229.584 2409.41 223.133 2415.8C198.361 2440.34 180.315 2467.63 171.653 2493.45H148.21H139.62C131.991 2493.45 124.808 2496.43 119.392 2501.85C113.976 2507.27 110.995 2514.45 111 2522.08V2586.36C110.995 2593.99 113.976 2601.18 119.392 2606.6C124.808 2612.02 131.992 2615 139.632 2615H203.92C203.922 2615 203.935 2615 203.937 2615C211.566 2615 218.75 2612.02 224.166 2606.6C229.582 2601.18 232.562 2593.99 232.558 2586.37V2577.79V2554.35C258.37 2545.69 285.658 2527.64 310.199 2502.87C323.354 2489.59 334.73 2475.27 343.706 2460.89C343.775 2460.78 343.857 2460.68 343.924 2460.56C343.956 2460.51 343.981 2460.45 344.012 2460.39C350.965 2449.18 356.455 2437.95 360.188 2427.16L378.038 2428.8L385.442 2429.48C386.549 2429.58 387.688 2429.63 388.825 2429.63C407.714 2429.63 430.136 2415.83 457.372 2387.45C478.824 2365.1 503.399 2333.24 528.442 2295.32C571.903 2229.51 613.289 2150.56 622.661 2115.59C623.584 2112.14 622.598 2108.46 620.071 2105.93ZM386.096 2339.91C387.549 2352.46 383.227 2365.21 374.166 2374.26C372.291 2376.14 371.236 2378.68 371.236 2381.34C371.236 2383.99 372.291 2386.53 374.166 2388.41C379.613 2393.85 381.666 2401.67 379.927 2408.89L357.539 2406.84L319.164 2368.46L317.115 2346.08C318.786 2345.68 320.508 2345.47 322.242 2345.47C328.039 2345.47 333.492 2347.73 337.596 2351.83C341.502 2355.74 347.832 2355.74 351.737 2351.83C359.614 2343.96 370.088 2339.62 381.229 2339.62C382.857 2339.62 384.482 2339.72 386.096 2339.91ZM331.692 2441.95L267.309 2404.78C280.324 2395.67 293.759 2388.52 306.682 2384.27L341.732 2419.32C339.286 2426.75 335.88 2434.36 331.692 2441.95ZM225.408 2535.64L190.359 2500.6C192.953 2492.72 196.621 2484.65 201.156 2476.6L266.18 2514.14C252.731 2523.72 238.795 2531.24 225.408 2535.64ZM174.924 2513.44L212.558 2551.08V2565.84C209.3 2564.37 206.093 2562.14 203.262 2559.31C201.309 2557.36 198.75 2556.38 196.191 2556.38C193.633 2556.38 191.074 2557.36 189.122 2559.31C184.468 2563.96 178.223 2564.94 173.803 2564.94C170.319 2564.94 166.581 2564.34 162.814 2563.18C159.529 2552.5 160.906 2542.67 166.691 2536.89C170.595 2532.98 170.596 2526.65 166.691 2522.74C163.871 2519.92 161.645 2516.7 160.176 2513.44H174.924V2513.44ZM203.936 2595L203.937 2605L203.926 2595H139.622C137.337 2595 135.176 2594.1 133.538 2592.46C131.899 2590.82 130.999 2588.66 131 2586.37V2522.07C130.999 2519.79 131.899 2517.62 133.538 2515.99C135.067 2514.45 137.054 2513.58 139.181 2513.47C140.512 2519.21 143.122 2524.92 146.826 2530.12C139.644 2542.26 139.1 2558.58 145.752 2574.79C146.768 2577.27 148.733 2579.23 151.209 2580.25C158.795 2583.36 166.397 2584.94 173.802 2584.94C182.069 2584.94 189.559 2582.97 195.891 2579.2C201.094 2582.91 206.778 2585.51 212.536 2586.83C212.425 2588.95 211.548 2590.93 210.02 2592.46C208.381 2594.1 206.221 2595 203.936 2595ZM283.075 2500.8L211.93 2459.73C222.623 2444.74 235.879 2430.36 250.259 2418.04L321.063 2458.91C310.523 2473.93 297.38 2488.37 283.075 2500.8ZM511.751 2284.3C487.364 2321.23 463.569 2352.11 442.939 2373.6C423.566 2393.79 409.735 2402.91 400.388 2406.85C401.025 2398.07 398.904 2389.2 394.163 2381.62C404.123 2368.22 408.26 2351.18 405.519 2334.62L437.782 2302.36C441.687 2298.46 441.686 2292.12 437.782 2288.22C433.876 2284.31 427.545 2284.31 423.639 2288.22L391.396 2320.46C388.041 2319.91 384.638 2319.62 381.227 2319.62C367.768 2319.62 354.966 2323.9 344.378 2331.81C337.805 2327.68 330.191 2325.47 322.24 2325.47C321.239 2325.47 320.242 2325.51 319.246 2325.58C323.168 2316.51 331.982 2303.44 350.742 2285.31C372.236 2264.54 403.665 2240.32 441.626 2215.27C498.42 2177.79 561.205 2144.24 596.666 2129.48C582.313 2165.05 550.284 2225.95 511.751 2284.3Z"
                      fill="#000001"/>
                <path id="Vector_54"
                      d="M443.914 2282.01C445.871 2283.99 448.447 2284.98 451.027 2284.98C453.566 2284.98 456.107 2284.02 458.056 2282.09L458.224 2281.92C462.152 2278.04 462.189 2271.71 458.307 2267.78C454.423 2263.85 448.093 2263.81 444.165 2267.7L443.995 2267.87C440.068 2271.75 440.031 2278.08 443.914 2282.01Z"
                      fill="#000001"/>
            </g>
        </g>
    </g>
    <defs>
        <filter id="filter0_d" x="0.961243" y="0.775635" width="2940.08" height="2624.45" filterUnits="userSpaceOnUse"
                color-interpolation-filters="sRGB">
            <feFlood flood-opacity="0" result="BackgroundImageFix"/>
            <feColorMatrix in="SourceAlpha" type="matrix" values="0 0 0 0 0 0 0 0 0 0 0 0 0 0 0 0 0 0 127 0"
                           result="hardAlpha"/>
            <feOffset dy="4"/>
            <feGaussianBlur stdDeviation="2"/>
            <feComposite in2="hardAlpha" operator="out"/>
            <feColorMatrix type="matrix" values="0 0 0 0 0 0 0 0 0 0 0 0 0 0 0 0 0 0 0.25 0"/>
            <feBlend mode="normal" in2="BackgroundImageFix" result="effect1_dropShadow"/>
            <feBlend mode="normal" in="SourceGraphic" in2="effect1_dropShadow" result="shape"/>
        </filter>
        <clipPath id="clip0">
            <rect width="512.001" height="512.001" fill="white" transform="translate(2316.78 2612.76) rotate(-89.5)"/>
        </clipPath>
        <clipPath id="clip1">
            <rect width="512.001" height="512.001" fill="white" transform="translate(2575 1699.04) rotate(-135)"/>
        </clipPath>
        <clipPath id="clip2">
            <rect width="512.001" height="512.001" fill="white" transform="translate(2828.76 517.225) rotate(-179.5)"/>
        </clipPath>
        <clipPath id="clip3">
            <rect width="512.001" height="512.001" fill="white" transform="translate(620.757 0.776123) rotate(89.5)"/>
        </clipPath>
        <clipPath id="clip4">
            <rect width="512.001" height="512.001" fill="white" transform="translate(367.001 974.961) rotate(45)"/>
        </clipPath>
        <clipPath id="clip5">
            <rect width="512.001" height="512.001" fill="white" transform="translate(111 2103)"/>
        </clipPath>
    </defs>
</svg>
