<svg width="1280" height="1280" viewBox="0 0 1280 1280" fill="none" xmlns="http://www.w3.org/2000/svg">
    <style>
        #hammer {
        transform-origin: 75% 100%;
        transform-box: fill-box;
        animation: rotateHammer .5s cubic-bezier(0.55, 0.06, 0.68, 0.19) forwards reverse
        }

        @keyframes rotateHammer {
        0%{
        transform: rotateZ(322deg)
        }
        100%{
        transform: rotateZ(359deg)
        }
        }

    </style>
    <g id="1752624 1" clip-path="url(#clip0)">
<g id="Group">
<g id="hammer">
<path id="Vector" d="M779.5 0.783993C767.7 4.38399 757.5 17.884 757.5 30.084C757.5 33.184 757.9 36.784 758.4 38.084C759.8 41.784 766.7 47.884 794.5 70.084C819.6 90.184 887.8 144.784 904.7 158.384C909.4 162.284 917.1 168.384 921.7 171.984C926.2 175.684 939.5 186.284 951.2 195.684C962.9 205.084 974.1 213.284 976.1 213.884C986.8 217.484 1002.4 207.684 1007.5 194.284C1011.4 183.784 1009.8 176.084 1002.4 169.384C993.2 161.084 797.1 4.28399 793.2 2.08399C789.2 -0.116007 784.2 -0.616007 779.5 0.783993Z" fill="#FFFBFB"/>
<path id="Vector_2" d="M745.5 49.784C738.5 52.584 729.8 58.884 720.9 67.484C714.2 73.984 689.9 103.284 672 126.384C669.8 129.184 657.2 144.884 644 161.284C630.8 177.684 618.9 192.484 617.5 194.384C616.1 196.184 607.8 206.484 599 217.384C590.2 228.184 581.9 238.584 580.5 240.384C579.1 242.184 572.8 250.184 566.5 257.984C560.1 265.884 553.8 273.784 552.5 275.484C551.1 277.184 541 289.784 530 303.284C519 316.884 509.5 328.784 509 329.684C508.4 330.684 506.1 334.084 503.8 337.484C499.2 344.284 494.5 353.784 492 361.684C489.5 369.184 490.3 378.884 493.5 382.484C495.8 384.884 512.5 398.684 533 414.884C540.6 420.884 582.4 454.384 656.9 514.384C673.4 527.584 688.9 540.084 691.4 542.084C693.9 544.184 697.7 546.784 699.8 547.884C703.2 549.784 704.2 549.884 708.8 548.884C721.9 546.084 739.7 531.384 758 508.084C764.6 499.784 768.3 495.184 777.4 483.984C784.8 474.884 796.7 459.984 802.3 452.884C811.8 440.784 826.8 422.384 827.4 422.084C828.1 421.884 838.9 430.284 847.5 437.784C853.1 442.784 866 453.684 879 464.384C888.1 471.984 921.2 499.884 928.1 505.884C934.5 511.484 947.6 522.584 957 530.384C973.5 544.084 983.2 552.284 986 554.784C987.7 556.284 993.1 560.784 998 564.884C1003 568.984 1008.1 573.284 1009.5 574.484C1015.8 579.984 1027.8 590.084 1036 596.784C1041 600.884 1045.7 604.984 1046.5 605.884C1047.3 606.784 1050.3 609.284 1053 611.484C1055.8 613.584 1061.4 618.284 1065.6 621.884C1069.8 625.484 1079.6 633.784 1087.5 640.384C1095.4 646.984 1104 654.184 1106.5 656.484C1109 658.684 1112.3 661.484 1113.8 662.584C1115.3 663.784 1119.2 666.984 1122.3 669.684C1125.4 672.484 1132.4 678.484 1137.9 683.084C1163.7 704.884 1165.4 705.884 1168.9 702.384C1170.5 700.784 1200.4 663.884 1204 658.984C1205.1 657.584 1209.3 652.384 1213.3 647.484C1218.9 640.784 1220.5 638.084 1220.3 636.084C1220 633.484 1216.4 630.284 1204 621.384C1201 619.184 1194.9 614.684 1190.5 611.384C1177.2 601.284 1173.3 598.384 1171.6 597.384C1170.7 596.784 1164.7 592.284 1158.1 587.384C1151.6 582.384 1145.5 577.884 1144.6 577.384C1143.7 576.784 1137.6 572.284 1131.1 567.384C1124.6 562.384 1118.3 557.684 1117.1 556.884C1115.9 556.084 1109.9 551.584 1103.7 546.884C1097.4 542.184 1091.3 537.684 1090.2 536.884C1087.6 535.184 1061.7 515.984 1031.5 493.484C1019.7 484.684 1003.9 472.984 996.5 467.484C989.1 461.984 976.6 452.784 968.8 446.984C961 441.184 948.5 431.884 941 426.384C933.6 420.884 924.7 414.284 921.2 411.684C917.8 409.084 908.5 402.084 900.5 396.184C892.5 390.384 881.8 382.384 876.7 378.584L867.5 371.684L870.7 367.584C876.3 360.484 896.2 335.684 900.9 329.884C903.4 326.884 908 321.184 911.2 317.284C926.4 298.684 950.6 267.784 954.3 262.284C959.5 254.684 967 238.984 968.4 232.884C971 221.784 969.2 216.284 960.8 209.684C957.8 207.384 951.4 202.284 946.7 198.384C941.9 194.584 919.8 176.784 897.5 158.984C875.2 141.084 845.8 117.484 832.1 106.384C806.1 85.584 799.3 80.084 786 69.484C781.6 65.984 774.4 60.184 770 56.684C765.6 53.084 761 49.684 759.8 49.084C756.7 47.384 750.7 47.684 745.5 49.784Z" fill="#FFFBFB"/>
<path id="Vector_3" d="M474.2 382.484C461.6 385.684 451 399.084 451 411.884C451 421.684 452.5 423.584 472.6 439.384C476.1 442.084 479.5 444.784 480.1 445.384C480.7 445.884 484.6 449.084 488.9 452.384C495.5 457.484 501.8 462.584 514 472.784C515.1 473.684 517.8 475.784 520 477.384C522.2 479.084 524.5 480.884 525 481.484C525.6 481.984 527.8 483.784 530 485.384C532.2 486.984 534.2 488.484 534.5 488.784C535.3 489.684 544.3 496.884 549.6 500.884C552.2 502.884 555.9 505.784 557.7 507.484C559.5 509.084 563 511.984 565.5 513.884C568 515.784 570.9 518.184 572 519.084C574.3 520.984 590.1 533.684 599 540.584C602.3 543.184 608 547.884 611.6 550.884C615.2 553.884 623.1 560.184 629 564.884C635 569.584 640.3 573.784 640.9 574.384C648.9 581.584 666.6 594.584 670.1 595.884C679.8 599.684 696.4 588.684 701.5 575.084C704 568.484 703.7 561.684 700.8 556.584C699.7 554.684 680.9 538.884 656 518.884C487.8 383.884 486.6 382.884 482.8 382.084C480.3 381.484 477.3 381.684 474.2 382.484Z" fill="#FFFBFB"/>
<path id="Vector_4" d="M1228.3 657.084C1224.7 661.684 1212.9 676.384 1202.1 689.784C1187 708.684 1182.5 714.884 1182.5 717.084C1182.5 719.584 1183.7 720.684 1192.5 726.384C1205 734.484 1212.1 738.184 1222.8 741.884C1238 747.184 1249 747.984 1258.6 744.584C1263.3 742.984 1264.6 741.884 1271.4 733.384C1280.1 722.584 1280.5 721.784 1280.5 714.084C1280.5 698.184 1270.5 679.884 1251 660.084C1242.6 651.684 1239.3 648.884 1237.3 648.884C1235.4 648.884 1233.4 650.684 1228.3 657.084Z" fill="#FFFBFB"/>
</g>
<path id="Vector_5" d="M212.8 878.5C197.9 882.6 186 895.8 183.1 911.4C182.5 914.7 182 921.3 182 926C182 942.6 185.4 952.9 193.8 961.9L198.5 966.9L159 967.2C114.7 967.6 114.2 967.7 103.3 975C95.8 980 89.6 988.3 86.9 996.9C85 1003.4 84.9 1005.8 85.2 1069.5L85.5 1135.5L88.7 1142.2C94.1 1153.7 103.7 1162.2 115 1165.4C120 1166.9 157.8 1167 520.5 1166.8L920.5 1166.5L926.3 1164.2C932.9 1161.5 942.6 1153.1 946.3 1146.7C952 1137 952 1137.2 952 1067.6C952 998.1 951.9 997.7 946.4 988.3C940.4 978 929.3 970.3 917.1 968C914.1 967.4 895.8 967 874.9 967H838.1L842.6 962.5C851.6 953.4 855.7 939.6 854.7 921.5C854 909.2 852.2 903 846.9 895.1C841.9 887.6 833.9 881.7 825.2 879C818.9 877 815.2 877 518.1 877.1C274.7 877.2 216.6 877.4 212.8 878.5Z" fill="#FFFBFB"/>
</g>
</g>
<defs>
<clipPath id="clip0">
<rect width="1280" height="1280" fill="white"/>
</clipPath>
</defs>
</svg>
