<svg width="612" height="612" viewBox="0 0 612 612" fill="none" xmlns="http://www.w3.org/2000/svg">
    <style>
        #second {
        transform-origin: 76% 75%;
        transform-box: fill-box;
        animation: rotateSecond 0.4s linear infinite;
        }

        #main {
        transform-origin:  31% 72%;
        transform-box: fill-box;
        animation: rotateSecond 0.8s linear infinite;
        }

        @keyframes rotateSecond {
        0%{
        transform: rotateZ(360deg)
        }
        100%{
        transform: rotateZ(1deg)
        }
        }
    </style>
    <g id="refresh-stamina 2">
<g id="refresh-stamina 1">
<g id="Group">
<g id="Group_2">
<g id="second">
<path id="Vector" d="M189.565 216.684C199.336 203.527 217.925 200.817 231.043 210.56L309.548 268.884C319.901 266.943 348.56 325.159 357.313 330.069C352.375 340.8 343.261 349.567 331.135 353.507C308.105 360.99 283.381 348.377 275.895 325.337C274.929 322.362 274.322 319.352 274.003 316.372L195.683 258.174C182.535 248.4 179.797 229.819 189.565 216.684Z" fill="white"/>
<g id="Ellipse 1">
<path id="Vector_2" d="M320.5 354C343.42 354 362 335.868 362 313.5C362 291.132 343.42 273 320.5 273C297.58 273 279 291.132 279 313.5C279 335.868 297.58 354 320.5 354Z" fill="white"/>
<path id="Vector_3" d="M320.5 354C343.42 354 362 335.868 362 313.5C362 291.132 343.42 273 320.5 273C297.58 273 279 291.132 279 313.5C279 335.868 297.58 354 320.5 354Z" fill="white"/>
<path id="Vector_4" d="M320.5 354C343.42 354 362 335.868 362 313.5C362 291.132 343.42 273 320.5 273C297.58 273 279 291.132 279 313.5C279 335.868 297.58 354 320.5 354Z" fill="white"/>
</g>
</g>
<path id="Vector_2_2" d="M514.216 209.282C522.013 226.191 527.78 244.208 531.242 263.049C532.35 269.111 537.891 273.278 544.031 272.72L599.269 267.639C602.564 267.345 605.576 265.687 607.596 263.069C609.626 260.44 610.45 257.106 609.91 253.84C604.594 221.818 594.325 191.501 579.888 163.647C578.26 160.479 575.298 158.223 571.817 157.468C568.336 156.733 564.707 157.566 561.911 159.783L517.609 194.973C513.343 198.396 511.921 204.3 514.216 209.282Z" fill="white"/>
<path id="Vector_3_2" d="M472.974 474.026C468.462 470.936 462.441 471.319 458.351 474.948C422.709 506.588 377.142 527.262 326.935 531.608V504.97C326.935 494.044 318.088 485.207 307.172 485.207C296.256 485.207 287.4 494.054 287.4 504.97V531.589C177.395 522.095 89.566 434.275 80.072 324.261H106.7C117.616 324.261 126.463 315.424 126.463 304.497C126.463 293.571 117.616 284.734 106.7 284.734H79.993C88.918 181.389 167.038 97.709 267.676 80.064C273.364 79.064 277.523 74.14 277.523 68.363V12.213C277.523 8.78001 276.032 5.49401 273.423 3.23801C270.824 0.983008 267.371 -0.0469914 263.958 0.443008C114.771 21.433 0 149.542 0 304.497C0 474.144 137.526 611.67 307.172 611.67C390.51 611.67 465.893 578.293 521.209 524.39C523.759 521.899 525.063 518.407 524.759 514.857C524.446 511.306 522.582 508.06 519.64 506.049L472.974 474.026Z" fill="white"/>
<path id="Vector_4_2" d="M346.668 80.044C354.437 81.398 362.066 83.133 369.53 85.252C375.248 86.87 381.241 84.036 383.643 78.612L406.182 27.788C407.555 24.699 407.536 21.168 406.142 18.078C404.759 15.008 402.121 12.635 398.895 11.605C383.232 6.64201 367.048 2.83701 350.415 0.444007C347.002 -0.0359932 343.529 0.984007 340.931 3.23901C338.323 5.49501 336.831 8.78101 336.831 12.233V68.314C336.821 74.121 340.97 79.054 346.668 80.044Z" fill="white"/>
<path id="Vector_5" d="M469.031 144.266C473.298 148.611 480.134 149.013 484.9 145.237L528.427 110.645C531.045 108.575 532.663 105.486 532.899 102.151C533.134 98.806 531.948 95.55 529.643 93.118C513.803 76.474 496.12 61.635 476.906 48.875C473.994 46.943 470.365 46.384 466.991 47.365C463.627 48.345 460.861 50.759 459.448 53.966L436.694 105.261C434.428 110.4 436.027 116.422 440.568 119.698C450.729 127.092 460.233 135.331 469.031 144.266Z" fill="white"/>
<path id="Vector_6" d="M608.616 330.782C606.105 328.213 602.584 326.898 599.014 327.232L542.57 332.42C537.185 332.901 532.831 336.962 531.928 342.287C527.7 367.483 519.325 391.228 507.536 412.884C504.623 418.23 506.212 424.928 511.243 428.37L557.055 459.814C559.801 461.707 563.214 462.364 566.46 461.609C569.707 460.854 572.482 458.774 574.13 455.881C593.912 421.072 607.055 382.057 611.91 340.482C612.334 336.902 611.117 333.353 608.616 330.782Z" fill="white"/>
<g id="main">
<path id="Vector_7" d="M352.922 340.321C336.877 358.457 309.173 360.138 291.029 344.086C288.111 341.504 289.533 335.928 291.161 332.388C296.511 320.754 303.311 295.986 309.808 280.654C313.947 270.889 323.162 263.036 330.19 255.092L361.29 219.94C372.142 207.674 390.881 206.534 403.141 217.381C415.401 228.228 416.555 246.965 405.702 259.233L374.607 294.38C367.579 302.323 365.043 313.108 362.186 323.321C360.479 329.425 357.413 335.245 352.922 340.321Z" fill="white"/>
<g id="Ellipse 1_2">
<path id="Vector_8" d="M319.5 356C342.42 356 361 337.868 361 315.5C361 293.132 342.42 275 319.5 275C296.58 275 278 293.132 278 315.5C278 337.868 296.58 356 319.5 356Z" fill="white"/>
<path id="Vector_9" d="M319.5 356C342.42 356 361 337.868 361 315.5C361 293.132 342.42 275 319.5 275C296.58 275 278 293.132 278 315.5C278 337.868 296.58 356 319.5 356Z" fill="white"/>
<path id="Vector_10" d="M319.5 356C342.42 356 361 337.868 361 315.5C361 293.132 342.42 275 319.5 275C296.58 275 278 293.132 278 315.5C278 337.868 296.58 356 319.5 356Z" fill="white"/>
</g>
</g>
</g>
</g>
</g>
</g>
</svg>
